<svg width="21" height="20" viewBox="0 0 21 20" fill="none" xmlns="http://www.w3.org/2000/svg">
    <path fill-rule="evenodd" clip-rule="evenodd"
        d="M9.26259 8.18115C7.10841 8.18115 5.35742 9.92526 5.35742 12.071C5.35742 14.2167 7.10841 15.9493 9.26259 15.9493C11.4168 15.9493 13.1562 14.2167 13.1562 12.071C13.1562 9.92526 11.4168 8.18115 9.26259 8.18115ZM9.26259 14.3429C7.99543 14.3429 6.97018 13.3332 6.97018 12.071C6.97018 10.8088 7.99543 9.78757 9.26259 9.78757C10.5298 9.78757 11.5435 10.8088 11.5435 12.071C11.5435 13.3332 10.5298 14.3429 9.26259 14.3429Z"
        fill="#013765" />
    <path fill-rule="evenodd" clip-rule="evenodd"
        d="M17.8094 9.3976C17.8094 9.3976 17.7633 9.32876 17.7403 9.29434V9.73036C17.7403 10.4303 17.3947 11.0614 16.8533 11.4286C16.8994 11.6351 16.9109 11.8531 16.9109 12.0711C16.9109 12.7711 16.7381 13.4251 16.4501 13.8726C14.5839 16.7986 11.9689 18.3821 9.26182 18.3821C7.90249 18.3821 6.57773 17.9919 5.35665 17.2231C4.12404 16.4658 3.00663 15.3299 2.07354 13.8726C1.78555 13.4251 1.61275 12.7711 1.61275 12.0711C1.61275 11.3712 1.78555 10.7172 2.07354 10.2697C3.91669 7.36664 6.49709 5.78317 9.18118 5.74875C9.14662 5.62253 9.1351 5.48484 9.1351 5.33567C9.1351 4.89964 9.27334 4.48657 9.50373 4.15381C9.42309 4.15381 9.34245 4.15381 9.26182 4.15381C5.87503 4.15381 2.79928 6.15035 0.71422 9.40908C0.218874 10.1779 0 11.1532 0 12.0826C0 13.012 0.218874 13.9759 0.71422 14.7447C2.79928 18.0149 5.87503 19.9999 9.26182 19.9999C12.6486 19.9999 15.7244 18.0149 17.8094 14.7447C18.3048 13.9759 18.5236 13.0006 18.5236 12.0826C18.5236 11.1647 18.3048 10.1779 17.8094 9.40908V9.3976Z"
        fill="#013765" />
    <path
        d="M20.9994 5.33559C20.9994 5.85194 20.5847 6.26502 20.0663 6.26502H16.5874V9.73028C16.5874 9.91387 16.5298 10.0975 16.4376 10.2466C16.2648 10.4991 15.9768 10.6712 15.6428 10.6712C15.1244 10.6712 14.7097 10.2466 14.7097 9.73028V6.26502H11.2307C10.9082 6.26502 10.6317 6.10438 10.4589 5.86341C10.3437 5.71425 10.2861 5.53066 10.2861 5.33559C10.2861 4.81924 10.7124 4.39469 11.2307 4.39469H14.7097V0.929426C14.7097 0.413078 15.1244 0 15.6428 0C16.1612 0 16.5874 0.413078 16.5874 0.929426V4.39469H20.0663C20.5847 4.39469 20.9994 4.81924 20.9994 5.33559Z"
        fill="#013765" />
</svg>
