<svg width="63" height="72" viewBox="0 0 63 72" fill="none" xmlns="http://www.w3.org/2000/svg">
    <g clip-path="url(#clip0_103_1820)">
        <path
            d="M57.0201 48.6762C57.8564 47.6028 58.2801 46.4523 58.1269 45.157C57.8204 42.5609 55.8283 40.8182 53.1531 40.8126C48.4007 40.7994 43.6464 40.8088 38.892 40.8088H38.1088C38.7369 39.3256 39.3953 37.9326 39.9231 36.4907C41.0961 33.2893 41.8264 30.0107 41.1491 26.5837C40.6761 24.2037 39.6091 22.1528 37.4655 20.8199C35.568 19.6393 33.6231 19.6619 31.7123 20.8274C29.9869 21.8802 29.4288 23.4875 29.5707 25.3993C29.6047 25.843 29.6672 26.2885 29.7807 26.7153C30.5072 29.4298 29.7409 31.8098 28.0912 33.9641C25.8493 36.8874 22.9491 39.0624 19.7082 40.7656C18.628 41.3352 17.3434 41.5251 16.1496 41.8804C15.741 42.0026 15.5442 41.8428 15.372 41.4349C14.5301 39.4666 12.9882 38.459 10.841 38.4195C8.85636 38.3838 6.86798 38.3951 4.88149 38.4195C2.16474 38.4496 0.030682 40.493 0.0212226 43.1738C-0.00715583 51.2065 -0.0147234 59.2393 0.0287901 67.2721C0.0401415 69.3663 1.16771 70.8383 3.11068 71.673C3.4323 71.8102 3.77852 71.8929 4.11338 72.0001H11.7774C12.2069 71.829 12.6496 71.6824 13.0639 71.4793C14.1896 70.9267 14.9861 70.0544 15.4174 68.8907C15.5518 68.5241 15.7447 68.3738 16.0853 68.4865C17.2355 68.8719 18.4369 69.1671 19.5077 69.7104C21.0628 70.5037 22.5915 71.3196 24.3282 71.6504C24.9223 71.7632 25.5182 71.8835 26.1123 72.0001H50.5253C50.6501 71.9474 50.7731 71.8835 50.9018 71.8459C53.9704 70.9605 55.3704 67.7947 53.9496 64.958C53.8815 64.8208 53.8323 64.6722 53.7755 64.5294C56.3069 63.4541 57.9453 60.6662 56.1915 57.3275C57.9755 56.5379 59.1391 55.2427 59.3264 53.2613C59.5118 51.2893 58.6339 49.7929 57.0164 48.6743L57.0201 48.6762ZM13.342 55.1994C13.342 59.0871 13.3439 62.9747 13.342 66.8623C13.3401 68.6557 12.3942 69.6013 10.5969 69.6051C8.7523 69.6088 6.90582 69.6126 5.06122 69.6051C3.45122 69.5976 2.43717 68.6144 2.43528 67.0221C2.42771 59.1529 2.42771 51.2817 2.43528 43.4125C2.43717 41.8146 3.44366 40.822 5.0442 40.8126C6.93609 40.8013 8.82987 40.8013 10.7218 40.8126C12.3374 40.8201 13.3364 41.8033 13.3401 43.3975C13.3477 47.3321 13.342 51.2648 13.342 55.2013V55.1994ZM56.9218 53.0808C56.8234 54.1185 55.9985 55.0321 54.922 55.1449C54.0574 55.237 53.1777 55.207 52.3037 55.2107C50.2945 55.2182 48.2815 55.2164 46.2723 55.2107C45.718 55.2107 45.2431 55.3442 44.9726 55.8819C44.545 56.7334 45.1485 57.5907 46.2326 57.6076C47.8861 57.632 49.5434 57.6132 51.1988 57.6151C51.5545 57.6151 51.9101 57.6057 52.262 57.6301C53.4691 57.711 54.4112 58.6171 54.5058 59.7732C54.6099 61.0215 53.8285 62.1269 52.5818 62.3242C51.8193 62.4483 51.0285 62.4051 50.2509 62.4126C48.9039 62.4239 47.555 62.407 46.2061 62.4201C45.3472 62.4276 44.8439 62.8845 44.8496 63.612C44.8553 64.3226 45.3793 64.7944 46.2231 64.8076C47.3582 64.8226 48.4934 64.8001 49.6304 64.8151C51.0512 64.8358 52.0861 65.8378 52.0955 67.1781C52.105 68.511 51.0664 69.5938 49.6739 69.5976C42.1537 69.6088 34.6315 69.6239 27.1112 69.5806C25.1285 69.5694 23.2272 69.0693 21.5074 68.0354C19.7555 66.9826 17.9299 66.1367 15.7807 66.0483V44.3938C16.3596 44.2904 16.9328 44.1945 17.5023 44.0836C20.2777 43.5497 22.5518 42.0421 24.7634 40.4197C26.6893 39.006 28.4753 37.4401 29.9339 35.5414C31.2564 33.8175 32.2628 31.932 32.4085 29.7419C32.4823 28.6365 32.2818 27.5123 32.1872 26.3976C32.1512 25.9802 32.0396 25.5685 32.0018 25.1512C31.8315 23.2863 33.4869 21.9479 35.3164 22.4723C36.5839 22.8352 37.4012 23.7338 37.9915 24.8391C39.0831 26.8732 39.1588 29.0557 38.8145 31.2721C38.2677 34.7913 36.9018 38.021 35.0704 41.0514C34.4328 42.106 34.8472 43.2471 36.338 43.2302C41.9191 43.1662 47.502 43.2001 53.0831 43.2076C54.9088 43.2076 56.078 44.6156 55.641 46.2474C55.361 47.2926 54.4566 47.9844 53.2704 47.9957C51.0947 48.0126 48.9172 48.0013 46.7415 48.0013C46.5523 48.0013 46.3631 47.9938 46.1758 48.0051C45.3358 48.0502 44.8269 48.5296 44.8496 49.2496C44.8704 49.9451 45.3566 50.3907 46.1834 50.3944C48.8074 50.4076 51.4334 50.3944 54.0574 50.4076C54.4793 50.4076 54.9183 50.432 55.3174 50.5542C56.3845 50.8813 57.0277 51.9359 56.9199 53.0808H56.9218Z"
            fill="#013765" />
        <path
            d="M36.2945 14.4058C36.5064 14.4321 36.7202 14.4377 36.932 14.4509C41.151 14.7291 44.0153 16.8985 45.2507 20.9008C45.6537 22.2074 45.7539 23.6041 46.0491 24.9501C46.1474 25.3994 46.3101 25.9446 46.6374 26.2115C47.398 26.8263 48.3345 26.2059 48.4953 25.1268C48.7091 23.6981 48.8529 22.2356 49.2842 20.867C50.2699 17.7464 52.2677 15.5224 55.5956 14.7348C56.4374 14.5336 57.3247 14.5148 58.1912 14.4152C58.9253 14.3306 59.3529 13.9095 59.3661 13.2553C59.3793 12.4751 58.8534 12.0522 57.8185 12.0089C53.5201 11.8322 50.5385 9.63649 49.2823 5.56088C48.8585 4.18856 48.711 2.72788 48.4896 1.30104C48.3231 0.227617 47.3488 -0.37019 46.6015 0.265215C46.2912 0.528401 46.1418 1.05101 46.0491 1.47963C45.7577 2.84819 45.6707 4.27315 45.2431 5.5966C44.1099 9.11388 41.7639 11.3773 37.9593 11.9224C37.4012 12.0033 36.8261 11.9751 36.2642 12.0465C35.5566 12.1349 35.1442 12.6255 35.1669 13.2816C35.1896 13.9133 35.6001 14.3268 36.2926 14.4095L36.2945 14.4058ZM47.2599 7.23587C48.3931 9.8696 50.1053 11.8285 52.6442 13.2233C50.128 14.6182 48.3931 16.5564 47.2693 19.2202C46.1456 16.5639 44.4012 14.6107 41.9039 13.2271C44.3993 11.8322 46.1418 9.90156 47.2599 7.23587Z"
            fill="#013765" />
        <path
            d="M7.54474 25.2095C9.83393 25.343 11.5556 26.3901 12.3993 28.4956C12.895 29.7325 13.071 31.1011 13.3301 32.4227C13.4683 33.1257 13.9185 33.6314 14.5731 33.6183C15.2069 33.607 15.6874 33.1295 15.7556 32.449C15.801 31.9828 15.8237 31.5147 15.8974 31.0541C16.3723 28.1139 17.9483 25.2377 21.8834 25.1963C22.5834 25.1888 23.0204 24.6624 23.0091 24.0045C22.9996 23.2676 22.4926 22.8483 21.5599 22.8126C19.3199 22.7299 17.7231 21.6753 16.7337 19.692C16.1169 18.455 15.8501 17.1335 15.7612 15.7687C15.7083 14.9321 15.2353 14.417 14.5296 14.4302C13.8466 14.4433 13.4115 14.949 13.3339 15.7405C13.2658 16.4379 13.2072 17.1429 13.0369 17.8196C12.4807 20.036 11.4326 21.8877 9.03177 22.5739C8.45096 22.7412 7.82285 22.7468 7.21744 22.8277C6.67447 22.8972 6.2015 23.1755 6.15988 23.6999C6.12771 24.1079 6.31312 24.6061 6.57231 24.935C6.74069 25.1493 7.20609 25.1907 7.54474 25.2114V25.2095ZM14.5504 21.0756C15.3583 21.9986 16.2607 23.0326 17.1328 24.0289C16.308 24.9651 15.3923 26.0028 14.5447 26.9653C13.7331 26.0329 12.8231 24.9895 11.9812 24.0214C12.8439 23.0326 13.7445 21.9986 14.5504 21.0756Z"
            fill="#013765" />
        <path
            d="M22.6418 12.8887C23.3002 12.2871 23.9321 11.6554 24.5375 11.0012C24.7286 10.7926 24.7929 10.4711 24.9783 10.0707C24.6908 9.75111 24.4618 9.27738 24.1194 9.1721C23.741 9.05743 23.1508 9.1439 22.8405 9.38077C22.1537 9.90338 21.5654 10.5595 20.9732 11.193C20.4605 11.7419 20.4889 12.4112 20.9845 12.8849C21.4594 13.3398 22.114 13.3718 22.6418 12.8905V12.8887Z"
            fill="#013765" />
        <path
            d="M27.1072 7.89744C27.4685 7.77901 27.7448 7.76773 27.898 7.62486C28.651 6.92366 29.4096 6.22246 30.0888 5.45358C30.488 5.00241 30.348 4.3294 29.8996 3.94026C29.4285 3.53233 28.8591 3.48157 28.4126 3.86507C27.6521 4.51927 26.9237 5.22987 26.2918 6.00627C26.0875 6.25818 26.095 6.84094 26.2426 7.16805C26.3864 7.48951 26.831 7.67938 27.1072 7.89744Z"
            fill="#013765" />
        <path
            d="M28.3768 12.9394C28.653 13.1575 29.2603 13.1782 29.6047 13.0315C29.9433 12.8868 30.1382 12.4149 30.3557 12.1405C30.2252 11.7739 30.2082 11.5276 30.0776 11.3904C29.3625 10.646 28.6606 9.88272 27.8717 9.21912C27.4139 8.83562 26.8387 8.95593 26.396 9.39207C25.9855 9.79437 25.906 10.4899 26.3071 10.9298C26.9522 11.6423 27.622 12.3473 28.3768 12.9394Z"
            fill="#013765" />
        <path
            d="M22.8693 7.50278C23.1588 7.72837 23.7472 7.78853 24.101 7.6607C24.4491 7.53286 24.6742 7.07041 24.922 6.79218C24.7915 6.41808 24.7764 6.14362 24.6307 5.99135C23.9364 5.26007 23.2383 4.52879 22.4796 3.86331C22.0426 3.47981 21.3237 3.61516 20.9453 4.05506C20.5215 4.54759 20.4818 5.1078 20.9093 5.58529C21.5185 6.26769 22.1523 6.94258 22.8693 7.50278Z"
            fill="#013765" />
        <path
            d="M55.7654 28.9166C55.8127 29.5463 56.2535 29.9655 56.857 29.9937C57.5173 30.0238 58.03 29.708 58.0887 29.0839C58.1795 28.1138 58.1662 27.1231 58.0887 26.1531C58.0395 25.5572 57.4208 25.1568 56.857 25.232C56.227 25.3184 55.8127 25.6681 55.7635 26.3242C55.7333 26.7434 55.7579 27.1664 55.7579 27.5856C55.7579 28.0292 55.7314 28.4748 55.7654 28.9166Z"
            fill="#013765" />
        <path
            d="M54.8592 30.1104C53.8338 30.0201 52.7895 30.0183 51.7641 30.1104C51.1568 30.1649 50.8749 30.6969 50.9184 31.3041C50.9619 31.917 51.3138 32.308 51.9344 32.3757C52.309 32.4151 52.6911 32.3944 53.0714 32.3869C53.1395 32.3869 53.2076 32.3869 53.2776 32.3869C53.41 32.3869 53.5444 32.3869 53.6768 32.3926C54.0155 32.4001 54.356 32.4095 54.6909 32.3757C55.319 32.3136 55.6671 31.8963 55.7106 31.3041C55.756 30.7063 55.4684 30.1668 54.8573 30.1123L54.8592 30.1104Z"
            fill="#013765" />
        <path
            d="M62.0107 30.0707C61.0515 30.0049 60.0772 29.9936 59.118 30.0801C58.4824 30.1384 58.1588 30.6328 58.1797 31.2851C58.1986 31.8848 58.6148 32.3285 59.2486 32.3811C59.6951 32.4187 60.1453 32.3886 60.5937 32.3886V32.3943C61.0175 32.3943 61.4451 32.4206 61.867 32.3886C62.5216 32.3379 62.9756 31.8585 62.9964 31.2532C63.0172 30.6854 62.6161 30.1121 62.0088 30.0707H62.0107Z"
            fill="#013765" />
        <path
            d="M55.7558 35.9905C55.7766 36.6974 56.2325 37.1636 56.8758 37.1993C57.5531 37.2369 58.079 36.7876 58.1471 36.062C58.1888 35.6446 58.1547 35.2217 58.1547 34.8006H58.1528C58.1528 34.3795 58.1888 33.9565 58.1452 33.541C58.0733 32.8586 57.5474 32.4112 56.9117 32.43C56.2704 32.4469 55.7823 32.9188 55.7577 33.6087C55.7312 34.4039 55.7331 35.1972 55.7558 35.9924V35.9905Z"
            fill="#013765" />
    </g>
    <defs>
        <clipPath id="clip0_103_1820">
            <rect width="63" height="72" fill="white" />
        </clipPath>
    </defs>
</svg>
