<svg width="36" height="36" viewBox="0 0 36 36" fill="none" xmlns="http://www.w3.org/2000/svg">
    <path
        d="M6.63542 7.63194H11.6968C11.8006 7.61153 11.9044 7.59556 12.0065 7.57072C12.9949 7.33557 13.6347 6.43049 13.6187 5.65496C13.7243 5.53961 13.7181 5.42337 13.6187 5.30801C13.5469 4.35679 12.8769 3.70726 12.0668 3.52891C11.9186 3.49607 11.8494 3.47567 11.8148 3.30441C11.6906 2.6957 11.451 2.13668 10.9727 1.71342C10.5885 1.37446 10.1386 1.16061 9.63639 1.05679C9.63195 1.03816 9.63018 1.01864 9.63106 1H9.4323C9.4323 1 9.43053 1 9.42964 1C9.42964 1 9.43053 1 9.43141 0.999115H8.96645C8.96645 0.999115 8.96645 0.999115 8.96734 0.999115C8.96734 0.999115 8.96734 0.999115 8.96645 0.999115H8.7668C8.76769 1.01775 8.76591 1.03727 8.76148 1.0559C7.65763 1.23515 6.73924 2.06392 6.56443 3.18639C6.5458 3.30796 6.54225 3.48276 6.29823 3.53157C4.98498 3.79777 4.38425 5.127 4.86075 6.32312C5.17221 7.10575 5.81907 7.49795 6.63453 7.63105L6.63542 7.63194ZM10.0472 2.30083C10.5903 2.56082 10.7802 3.01603 10.8272 3.57061C10.8387 3.71081 10.8112 3.84835 10.8574 3.99298C10.9559 4.30177 11.1457 4.45262 11.4732 4.4544C11.8583 4.45706 12.2141 4.53248 12.4395 4.89984C12.7128 5.34439 12.664 5.78451 12.4058 6.20333C12.2514 6.45445 11.994 6.57601 11.6932 6.58666C10.065 6.58311 8.43582 6.57956 6.80756 6.5769C6.74545 6.5769 6.67269 6.55915 6.63542 6.63635C6.18199 6.49438 5.87054 6.25125 5.75519 5.73926C5.60345 5.07021 6.11722 4.4748 6.70552 4.45173C7.35239 4.426 7.49525 4.26806 7.50856 3.62651C7.52631 2.79685 8.02321 2.28841 8.80762 2.11982C9.25838 2.0231 9.64704 2.11006 10.0472 2.30083Z"
        fill="#FE6B01" stroke="#FE6B01" stroke-width="0.2" />
    <path
        d="M1.86338 16.4024C2.08432 16.2994 2.28575 16.1645 2.50936 16.0625C3.23431 15.7298 3.9708 15.4307 4.72237 15.1663C4.97615 15.0776 5.08174 14.7714 4.98324 14.5141C4.88386 14.2523 4.66913 14.1565 4.38074 14.247C3.29287 14.5886 2.25824 15.0536 1.24757 15.5798C1.13487 15.6384 1.08962 15.7395 1 15.8052V15.9383V16.0705V16.2036C1.28572 16.586 1.41084 16.6127 1.86338 16.4024Z"
        fill="#FE6B01" stroke="#FE6B01" stroke-width="0.2" />
    <path
        d="M20.6818 10.5726C21.0722 10.8796 21.5247 11.0216 21.9844 11.1493C22.0989 11.1813 22.0882 11.2079 22.0545 11.2833C22.0669 11.4209 21.9897 11.569 22.1042 11.6942C22.0971 11.7554 22.0394 11.7944 22.058 11.8734C22.2896 12.8335 23.0785 13.6427 24.1033 13.6268C24.1752 13.6986 24.2684 13.68 24.3545 13.68C25.8257 13.68 27.2969 13.68 28.7672 13.68C28.8541 13.68 28.9464 13.6978 29.0183 13.6259C30.1141 13.5664 30.9367 12.7306 30.9997 11.6604C31.0574 10.6853 30.4567 9.82721 29.462 9.56367C29.2907 9.51841 29.1789 9.46429 29.1381 9.23447C29.0369 8.66835 28.8053 8.12441 28.3554 7.75883C27.7077 7.23087 26.9739 6.95845 26.0901 7.09422C25.0324 7.25749 24.0661 8.12974 23.9152 9.23358C23.8833 9.46695 23.7662 9.53439 23.5922 9.56012C23.3269 9.59827 23.0776 9.70032 22.9063 9.87956C22.5132 10.2922 22.0909 10.1981 21.6641 10.0038C20.7004 9.56633 20.0145 8.48644 20.3295 7.2495C20.4963 6.59021 20.8938 6.05603 21.5354 5.78806C22.594 5.34705 23.5576 5.51121 24.3758 6.3524C24.579 6.56093 24.854 6.57867 25.0377 6.40742C25.2782 6.18292 25.3146 5.92382 25.1051 5.69311C24.5018 5.02761 23.7617 4.62831 22.8504 4.58128C22.7289 4.45528 22.5807 4.53692 22.444 4.52982C22.3411 4.54757 22.2382 4.56975 22.1343 4.58395C21.4475 4.67357 20.8282 4.93356 20.3322 5.41183C19.4786 6.2335 19.121 7.23175 19.3197 8.42522C19.4732 9.34272 19.9719 10.0127 20.6818 10.5726ZM23.0359 11.4865C23.0838 10.9381 23.5319 10.5007 24.1087 10.4936C24.6065 10.4883 24.8407 10.2647 24.8416 9.78106C24.8425 8.82629 25.4956 8.10844 26.4424 8.0481C27.2747 7.99397 28.1487 8.63729 28.1585 9.56456C28.1673 10.3179 28.2924 10.4093 29.0697 10.4989C29.6146 10.5619 29.9917 10.9319 30.0059 11.5477C30.0148 11.9683 29.6944 12.593 29.0183 12.6303C27.3581 12.6294 25.6979 12.6294 24.0377 12.6285C23.4716 12.6347 22.9942 11.9728 23.0359 11.4865Z"
        fill="#FE6B01" stroke="#FE6B01" stroke-width="0.2" />
    <path
        d="M29.0273 31.4516C28.8338 31.0975 28.6271 31.0469 28.3449 31.2075C28.0636 31.369 28.0077 31.5944 28.1799 31.9289C28.5171 32.5829 28.8605 33.2342 29.2012 33.8864C29.3387 34.1508 29.4621 34.425 29.6227 34.6752C29.7167 34.8225 29.8268 34.9929 30.0433 34.9965C30.4044 34.9947 30.6839 34.6043 30.5207 34.2839C30.0362 33.3327 29.5393 32.3877 29.0273 31.4516Z"
        fill="#FE6B01" stroke="#FE6B01" stroke-width="0.2" />
    <path
        d="M31.6786 22.2366C31.8215 22.351 31.9652 22.4655 32.109 22.5809C32.7993 23.1372 33.4879 23.6954 34.1818 24.2473C34.3504 24.3813 34.6707 24.3156 34.8074 24.1372C35.0523 23.8178 34.9671 23.5436 34.5545 23.241C34.1303 22.9314 33.7035 22.6226 33.3335 22.2455C33.755 22.2117 34.1836 22.3156 34.6006 22.1869C34.8712 22.115 34.9342 21.9109 34.9254 21.6678C34.9165 21.4176 34.771 21.2854 34.5341 21.241C34.4223 21.1301 34.2821 21.186 34.1569 21.186C28.3715 21.1824 22.5852 21.1833 16.8007 21.1833H16.7989C16.7989 21.1833 16.7989 21.1824 16.7989 21.1815C16.8069 21.162 16.8104 21.1372 16.8255 21.1265C18.46 19.9233 20.2373 18.9925 22.154 18.3288C23.9899 17.6934 25.8905 17.4184 27.8214 17.3216H28.352C28.6519 17.3749 28.9518 17.4059 29.2589 17.4024C29.9004 17.3962 30.534 17.5071 31.1613 17.6153C32.2217 17.7981 33.251 18.1185 34.2705 18.4627C34.5687 18.563 34.8171 18.4477 34.9103 18.1735C35.0159 17.8656 34.9058 17.6446 34.59 17.5328C34.4001 17.4654 34.2102 17.3971 34.0194 17.3323C32.1631 16.6978 30.2482 16.389 28.2917 16.3269C28.045 16.2338 27.7983 16.2338 27.5516 16.3269C26.8772 16.3748 26.1949 16.374 25.5312 16.4822C24.5622 16.6402 23.5861 16.7821 22.6553 17.1246C22.4512 17.2001 22.2551 17.1956 22.0324 17.0412C20.6411 16.074 19.1468 15.2825 17.5593 14.6969C15.2656 13.8513 12.8991 13.326 10.4349 13.3437C10.2415 13.2195 10.0312 13.3038 9.828 13.2931C9.25567 13.334 8.68245 13.3668 8.11101 13.4165C7.77915 13.4458 7.44817 13.4954 7.11986 13.5513C6.80308 13.6046 6.61763 13.9125 6.72766 14.1964C6.8439 14.4946 7.07904 14.6073 7.38073 14.5407C8.18732 14.3641 9.01254 14.381 9.82712 14.2887C10.0445 14.4005 10.277 14.3233 10.5015 14.3393C10.9381 14.3633 11.3746 14.3606 11.813 14.3979C12.632 14.4662 13.4439 14.5851 14.2398 14.7643C16.0544 15.1734 17.798 15.7963 19.4458 16.6694C19.9268 16.9241 20.397 17.2001 20.8691 17.4707C20.933 17.508 21.0182 17.5736 21.0226 17.6313C21.0279 17.7067 20.9232 17.7094 20.854 17.7369C20.4991 17.8807 20.1486 18.035 19.8016 18.1957C18.1113 18.9783 16.554 19.9677 15.1467 21.1904C15.1032 21.1886 15.0588 21.1833 15.0145 21.1833C10.5663 21.1833 6.11806 21.1824 1.66985 21.1851C1.57579 21.1851 1.46842 21.1443 1.39211 21.241C1.2111 21.2605 1.09574 21.3741 0.999023 21.5152V21.6474V21.7805V21.9136C1.06469 22.115 1.16584 22.2783 1.40897 22.2836C1.74705 22.2721 2.0869 22.2188 2.42586 22.304C2.27679 22.4762 2.07536 22.5906 1.90943 22.7459C1.60862 23.0245 1.21465 23.2011 0.999023 23.5729V24.0379C1.24482 24.4345 1.52344 24.4922 1.89878 24.2269C1.9884 24.163 2.0727 24.092 2.15877 24.0246C2.8855 23.4567 3.58827 22.8577 4.32741 22.3058C4.78794 22.2295 5.25113 22.2792 5.71698 22.2721C5.71787 22.3697 5.64688 22.4291 5.58566 22.4895C4.72583 23.344 3.929 24.2562 3.08958 25.1302C2.44094 25.8046 1.81537 26.5002 1.16762 27.1755C1.07888 27.2687 1.05581 27.3867 0.999023 27.4905V27.6227V27.7549V27.888C1.05581 28.0619 1.14188 28.2039 1.33355 28.2634C1.58821 28.3423 1.75237 28.2092 1.91653 28.0468C2.85976 27.1134 3.74 26.1196 4.6504 25.1541C5.05858 24.7211 5.46853 24.2854 5.87581 23.8506C6.36474 23.3271 6.80663 22.7539 7.37275 22.304C7.78536 22.2526 8.19886 22.2224 8.61324 22.3147C8.61058 22.359 8.58662 22.3963 8.56089 22.4318C6.52091 25.21 4.49601 27.9989 2.46667 30.7834C1.96622 31.4702 1.42494 32.1286 0.999023 32.8668V32.9999V33.1987V33.3309C1.49593 33.7338 1.64412 33.7444 1.94137 33.346C2.3247 32.8305 2.68407 32.2963 3.06296 31.7763C3.91037 30.6112 4.76487 29.4506 5.61316 28.2864C6.4934 27.0797 7.36654 25.8676 8.24855 24.6626C8.83951 23.8551 9.44024 23.0547 10.0365 22.2508C10.4349 22.2765 10.8413 22.162 11.2327 22.3156C10.9789 22.7965 10.7215 23.2774 10.4695 23.761C9.63545 25.3635 8.80313 26.9678 7.96904 28.5713C7.41179 29.644 6.85011 30.7142 6.29286 31.787C5.87493 32.5935 5.4561 33.401 5.04704 34.2129C4.87934 34.5466 4.96718 34.7791 5.2884 34.9326C5.5688 35.0657 5.73828 34.9849 5.91486 34.6495C6.26447 33.9876 6.62472 33.3309 6.97256 32.6672C7.50851 31.6441 8.03647 30.6175 8.56887 29.5935C9.43225 27.9324 10.2939 26.2713 11.1599 24.612C11.5734 23.8178 11.9949 23.0272 12.4128 22.2348C12.8325 22.2401 13.2522 22.2455 13.6728 22.2517C13.3977 23.1337 13.1244 24.0166 12.8494 24.8995C12.2859 26.7061 11.7233 28.5136 11.1572 30.3202C10.7535 31.6086 10.3427 32.8952 9.93892 34.1837C9.87769 34.3806 9.83066 34.5883 9.97619 34.7711C10.1057 34.9335 10.2788 35.0328 10.4917 34.9867C10.7491 34.9308 10.8236 34.7054 10.8901 34.4898C11.3666 32.9565 11.8352 31.4205 12.3143 29.8872C12.8316 28.2323 13.356 26.581 13.8796 24.9279C14.1644 24.0299 14.451 23.1319 14.7376 22.2339H16.0491C16.0092 22.6403 15.9648 23.0041 15.94 23.3697C15.9045 23.8799 15.845 24.3884 15.7891 24.8941C15.703 25.6679 15.6205 26.4425 15.5398 27.2172C15.4892 27.7034 15.4688 28.1933 15.4013 28.676C15.2878 29.4808 15.2159 30.2891 15.1387 31.0975C15.0926 31.5829 15.0349 32.0674 14.9923 32.5545C14.9346 33.2129 14.8042 33.866 14.8086 34.5306C14.8104 34.7888 14.9745 34.9343 15.1955 34.984C15.4422 35.039 15.6294 34.9272 15.7341 34.6806C15.8326 34.4499 15.7847 34.2085 15.8113 33.9734C15.8965 33.2209 16.0012 32.4702 16.0642 31.716C16.1077 31.196 16.1591 30.6742 16.2204 30.1596C16.3091 29.4187 16.3632 28.6742 16.4635 27.935C16.5336 27.4186 16.5487 26.8951 16.6046 26.3769C16.6844 25.6351 16.7812 24.895 16.8663 24.1541C16.9391 23.5197 17.0048 22.8852 17.074 22.2508C17.5336 22.2508 17.9933 22.2517 18.4529 22.2517C18.4777 22.3324 18.5186 22.4132 18.5239 22.4957C18.5798 23.3511 18.7005 24.2003 18.7856 25.0521C18.8912 26.1098 19.0084 27.1648 19.1166 28.2217C19.2258 29.29 19.326 30.3584 19.4529 31.4249C19.5425 32.1792 19.5638 32.9432 19.6677 33.6956C19.7094 33.9929 19.6756 34.3008 19.7848 34.5909C19.8726 34.8225 19.9915 35.0222 20.2657 34.984C20.5177 34.9485 20.7138 34.8403 20.7254 34.5137C20.7404 34.0834 20.6757 33.6601 20.6411 33.2369C20.5639 32.299 20.4219 31.3673 20.3216 30.4311C20.2426 29.6849 20.1965 28.936 20.1175 28.1906C20.0173 27.2332 19.8913 26.2775 19.791 25.3192C19.712 24.5738 19.6881 23.8205 19.5718 23.0813C19.5283 22.8054 19.6064 22.5117 19.4636 22.2508C19.9232 22.2517 20.3828 22.2517 20.8425 22.2517C21.1211 23.1789 21.3944 24.1071 21.6801 25.0308C22.2409 26.8392 22.8106 28.644 23.3732 30.4506C23.7973 31.8109 24.2117 33.1748 24.6421 34.5333C24.7068 34.7391 24.8426 34.9299 25.0706 34.9858C25.2712 35.0346 25.4309 34.9193 25.5516 34.7702C25.6971 34.5883 25.6474 34.3798 25.5871 34.1819C25.3049 33.2564 25.0218 32.3318 24.7343 31.4072C24.2152 29.7425 23.6944 28.0779 23.1717 26.415C22.7352 25.0264 22.2933 23.6386 21.854 22.2508C22.2738 22.2455 22.6935 22.2401 23.1132 22.2348C23.6074 23.1656 24.107 24.0938 24.595 25.0272C25.3422 26.4559 26.0857 27.8862 26.8169 29.3228C26.8843 29.4559 26.966 29.581 27.0396 29.7088C27.1763 29.9466 27.4496 29.9945 27.6812 29.8535C27.9057 29.7177 28.0006 29.4417 27.8861 29.2164C27.7264 28.9022 27.5516 28.5961 27.3901 28.2829C26.6776 26.9084 25.9624 25.5357 25.2596 24.1568C24.9349 23.5214 24.548 22.9181 24.3022 22.2437C24.7246 22.2401 25.1469 22.2375 25.5693 22.2348C26.0156 22.8497 26.4611 23.4655 26.9083 24.0805C27.7433 25.2269 28.5792 26.3733 29.4159 27.5198C30.4106 28.8827 31.408 30.2448 32.4018 31.6095C32.9457 32.3557 33.4817 33.1082 34.0247 33.8553C34.2315 34.1402 34.4391 34.1783 34.7097 33.9964C34.9458 33.8385 35.0035 33.519 34.8331 33.2697C34.5855 32.9068 34.3388 32.5439 34.0797 32.1889C33.0141 30.731 31.943 29.2767 30.8747 27.8206C30.1187 26.7886 29.3609 25.7575 28.6093 24.722C28.0299 23.9234 27.4585 23.1177 26.8835 22.3156C26.9252 22.2197 27.0121 22.2446 27.0849 22.2446C27.5046 22.2446 27.9252 22.249 28.3449 22.2517C28.6528 22.6075 28.9891 22.9376 29.3085 23.2827C29.9492 23.9749 30.597 24.6599 31.2376 25.352C32.1871 26.376 33.1622 27.3751 34.1285 28.384C34.2084 28.4674 34.2812 28.5455 34.4258 28.5588C34.676 28.5828 34.826 28.416 34.8943 28.2616C34.991 28.0442 34.9413 27.8011 34.7452 27.605C34.133 26.9918 33.558 26.3449 32.9715 25.7078C32.132 24.7939 31.2625 23.9065 30.4106 23.0032C30.1799 22.7592 29.9687 22.4983 29.7478 22.2446H29.7469C29.7469 22.2446 29.7478 22.2437 29.7487 22.2437C30.3911 22.241 31.0353 22.2375 31.6777 22.2348L31.6786 22.2366Z"
        fill="#FE6B01" stroke="#FE6B01" stroke-width="0.2" />
</svg>
