<svg width="234" height="40" viewBox="0 0 234 40" fill="none" xmlns="http://www.w3.org/2000/svg">
    <path
        d="M29.535 23.5408C28.4392 21.9953 26.9068 20.8252 24.8854 20.0044L24.5361 19.8647V18.9697L24.8548 18.8213C26.5532 18.0485 27.8018 17.0182 28.6619 15.7346C29.5176 14.4467 29.9498 12.9667 29.9498 11.2596C29.9498 9.72721 29.666 8.37816 29.1028 7.19938C28.544 6.0206 27.7101 5.00335 26.575 4.13018C24.3004 2.38384 21.2137 1.4801 17.2408 1.4801H0V39.0658H17.3587C21.742 39.0658 25.1212 38.1184 27.5573 36.2978C28.7754 35.3854 29.6704 34.3157 30.2685 33.0715C30.871 31.8316 31.1766 30.4083 31.1766 28.7842C31.1766 26.8196 30.6352 25.0994 29.5394 23.5452L29.535 23.5408ZM7.7363 7.66216H17.6337C18.3584 7.66653 19.0221 7.75821 19.6158 7.95467C20.2096 8.1555 20.7335 8.45675 21.1657 8.86714C21.5979 9.27753 21.9166 9.77524 22.1349 10.3428C22.3445 10.9191 22.4449 11.5565 22.4449 12.2507C22.4449 12.9449 22.3401 13.5823 22.1262 14.1542C21.9123 14.7261 21.5717 15.2151 21.1308 15.6211C20.2445 16.4157 19.0351 16.7824 17.5857 16.7824H7.74067V7.65779L7.7363 7.66216ZM23.1347 29.6879C22.8989 30.3122 22.5278 30.8623 22.0432 31.3077C21.5543 31.7661 20.9649 32.1022 20.2882 32.3205C19.6114 32.5432 18.8561 32.648 18.0135 32.648H7.73194V22.5323H17.9568C19.6289 22.5279 21.0129 22.9514 22.0083 23.8639C22.506 24.3179 22.8815 24.8724 23.126 25.5011C23.3704 26.1297 23.4927 26.8414 23.4927 27.6141C23.4927 28.3869 23.3748 29.0636 23.1347 29.6836V29.6879Z"
        fill="#013765" />
    <path
        d="M56.2802 25.7456L57.0399 25.4923C59.7118 24.6017 61.7638 23.1522 63.2656 21.1308C64.7544 19.1094 65.5009 16.7082 65.5053 13.8573C65.5009 11.4081 64.929 9.2688 63.7895 7.40457C62.6457 5.54035 61.0609 4.09525 59.0089 3.05181C56.957 2.00401 54.6169 1.4801 51.958 1.4801H35.4944V39.0658H43.449V26.2957H47.8105L57.7079 39.0658H67.0508L56.2802 25.7499V25.7456ZM53.7262 19.9957C52.9054 20.2577 51.9886 20.3755 50.967 20.3755H43.3966V7.88918H50.967C51.9973 7.88918 52.9185 8.01579 53.7393 8.29521C54.5601 8.57026 55.2717 8.99811 55.8568 9.56131C56.4418 10.1332 56.8871 10.823 57.1752 11.6176C57.4634 12.4079 57.6031 13.3072 57.6031 14.2939C57.6031 15.2806 57.4634 16.0883 57.1709 16.8436C56.8827 17.6032 56.433 18.2581 55.848 18.7907C55.263 19.3321 54.547 19.7294 53.7306 19.9914L53.7262 19.9957Z"
        fill="#013765" />
    <path
        d="M106.488 9.78824C104.837 6.84129 102.519 4.57104 99.498 2.96004C96.4725 1.34904 92.971 0.536987 88.9544 0.536987C84.9379 0.536987 81.2269 1.3665 78.1315 3.0168C75.0274 4.66709 72.6523 6.97226 70.9715 9.95415C69.295 12.9404 68.448 16.42 68.448 20.4322C68.448 24.4444 69.2731 27.8018 70.9147 30.7531C72.565 33.7001 74.8702 35.9659 77.8826 37.5813C80.8863 39.1923 84.3834 40 88.4 40C92.4166 40 96.1799 39.1705 99.2797 37.5289C102.379 35.8743 104.75 33.5734 106.435 30.5872C108.116 27.6053 108.963 24.1257 108.963 20.1091C108.963 16.0925 108.134 12.7439 106.492 9.79698L106.488 9.78824ZM99.415 27.1076C98.3978 29.0373 96.9265 30.5435 95.0492 31.5913C93.1719 32.6392 90.9977 33.15 88.5659 33.15C86.1341 33.15 84.0734 32.613 82.231 31.5215C80.3886 30.4431 78.9566 28.8932 77.9612 26.9286C76.9527 24.964 76.4637 22.6806 76.4637 20.1004C76.4637 17.5202 76.9658 15.4202 77.9918 13.4905C79.009 11.5608 80.4628 10.0371 82.3183 8.95873C84.1826 7.876 86.3524 7.33027 88.7929 7.339C91.1548 7.33463 93.281 7.876 95.1234 8.95873C96.9658 10.0415 98.4109 11.5957 99.4281 13.5778C100.445 15.5643 100.956 17.8607 100.952 20.4322C100.956 22.9382 100.45 25.1735 99.4238 27.1032L99.415 27.1076Z"
        fill="#013765" />
    <path
        d="M192.77 9.78824C191.129 6.84129 188.81 4.57104 185.78 2.96004C182.755 1.34904 179.254 0.536987 175.237 0.536987C171.22 0.536987 167.514 1.3665 164.414 3.0168C161.314 4.66709 158.944 6.97226 157.258 9.95415C155.577 12.9404 154.73 16.42 154.73 20.4322C154.73 24.4444 155.56 27.8018 157.202 30.7531C158.852 33.7001 161.157 35.9659 164.161 37.5813C167.164 39.1923 170.661 40 174.678 40C178.695 40 182.458 39.1705 185.558 37.5289C188.658 35.8743 191.028 33.5734 192.713 30.5872C194.394 27.6053 195.241 24.1257 195.241 20.1091C195.241 16.0925 194.412 12.7439 192.77 9.79698V9.78824ZM185.706 27.1076C184.685 29.0373 183.218 30.5435 181.34 31.5913C179.459 32.6392 177.284 33.15 174.848 33.15C172.412 33.15 170.356 32.613 168.513 31.5215C166.675 30.4431 165.239 28.8932 164.244 26.9286C163.235 24.964 162.746 22.6806 162.746 20.1004C162.746 17.5202 163.257 15.4202 164.279 13.4905C165.296 11.5608 166.745 10.0371 168.605 8.95873C170.465 7.876 172.635 7.33027 175.071 7.339C177.437 7.33463 179.563 7.876 181.406 8.95873C183.244 10.0415 184.689 11.5957 185.706 13.5778C186.728 15.5643 187.234 17.8607 187.234 20.4322C187.234 23.0037 186.732 25.1735 185.706 27.1032V27.1076Z"
        fill="#013765" />
    <path
        d="M155.625 39.1616H146.553L145.405 38.1007L144.754 37.4982L144.104 36.8957C144.894 36.3063 145.636 35.6602 146.334 34.9616C147.133 34.1627 147.867 33.2939 148.522 32.3727L149.159 32.9795L149.797 33.5908L155.625 39.1616Z"
        fill="#013765" />
    <path
        d="M142.283 26.6011C142.239 26.684 142.187 26.767 142.126 26.8543L142.117 26.8718L142.104 26.8936C141.628 27.662 141.056 28.3824 140.401 29.0329C139.738 29.7008 138.991 30.2902 138.188 30.7879L137.777 31.0412L131.901 25.5576L125.732 31.2027L124.588 32.268L120.03 36.4898L119.594 36.8914L117.14 39.1617H107.823L113.883 33.5646L113.957 33.4991L114.525 32.9709L115.385 32.1807L116.083 31.5389L120.323 27.614L121.41 26.6098H121.405L121.41 26.6011L122.104 25.9593C122.187 25.8807 122.274 25.8021 122.357 25.7235C123.283 24.8678 124.208 24.0121 125.134 23.1608C126.273 22.1043 127.413 21.0521 128.552 19.9955C129.539 19.0787 131.901 16.8259 131.901 16.8259C131.901 16.8259 134.686 19.5721 135.778 20.5849C137.035 21.7463 138.288 22.9076 139.546 24.0689C140.24 24.7107 140.93 25.3525 141.624 25.9942L142.283 26.6011Z"
        fill="#013765" />
    <path
        d="M152.329 20.4802C152.329 24.5056 151.164 28.2733 149.151 31.4429C149.051 31.6045 148.95 31.7573 148.845 31.9188C148.741 32.0716 148.636 32.2244 148.522 32.3728C147.867 33.294 147.134 34.1629 146.335 34.9618C145.637 35.6603 144.894 36.3065 144.104 36.8959L143.545 36.3851L139.11 32.2724C140.026 31.7005 140.873 31.0325 141.637 30.2685C142.375 29.5263 143.034 28.7055 143.589 27.8149C143.694 27.6534 143.794 27.4875 143.881 27.3216C143.982 27.16 144.069 26.9897 144.152 26.8238C145.139 24.9247 145.693 22.7723 145.693 20.4802C145.693 16.647 144.148 13.2067 141.637 10.6876C139.118 8.18162 135.682 6.64047 131.849 6.64047C128.016 6.64047 124.571 8.18162 122.061 10.6876C119.55 13.2067 118.005 16.647 118.005 20.4802C118.005 22.5366 118.45 24.4794 119.254 26.2257L119.14 26.3305L114.901 30.2554L114.211 30.8885C112.404 27.8367 111.36 24.2742 111.365 20.4802C111.36 14.8352 113.661 9.69221 117.363 5.99869C121.057 2.30081 126.187 0 131.827 0H131.867C137.503 0 142.642 2.30081 146.335 5.99869C150.033 9.69221 152.329 14.8352 152.329 20.4802Z"
        fill="#FE6B01" />
    <path
        d="M135.988 35.8567C135.988 37.1883 135.359 38.3802 134.373 39.1311C133.674 39.6725 132.801 39.9956 131.849 39.9956C130.898 39.9956 130.024 39.6725 129.326 39.1311C128.339 38.3802 127.71 37.1883 127.71 35.8567C127.71 34.4422 128.422 33.1892 129.509 32.447C130.173 31.9886 130.98 31.7179 131.849 31.7179C132.718 31.7179 133.526 31.9886 134.189 32.447C135.272 33.1892 135.988 34.4378 135.988 35.8567Z"
        fill="#FE6B01" />
    <path
        d="M233.119 1.47559V39.9956H225.335L211.775 21.1918C209.614 18.0964 208.134 15.9571 207.378 14.8264C207.287 14.691 207.134 14.6125 206.977 14.6125C206.902 14.6125 206.833 14.6256 206.763 14.6605L206.536 14.7784C206.335 14.8744 206.23 15.0971 206.278 15.3154C206.719 17.2276 206.942 20.6286 206.942 25.418V39.9999H198.891V1.47559H206.671L220.175 20.275L224.632 26.7059C224.724 26.8412 224.877 26.9155 225.03 26.9155C225.104 26.9155 225.174 26.9024 225.248 26.8674L225.47 26.7539C225.671 26.6535 225.776 26.4352 225.728 26.2213C225.287 24.1169 225.064 20.6985 225.064 16.0532V1.47559H233.124H233.119Z"
        fill="#013765" />
</svg>