<svg width="36" height="34" viewBox="0 0 36 34" fill="none" xmlns="http://www.w3.org/2000/svg">
    <path
        d="M34.6329 12.8502C34.3753 12.5206 34.155 12.1636 33.917 11.8189C32.5002 9.76615 31.1083 7.69563 29.6978 5.63754C29.402 5.20673 29.108 4.75195 28.519 4.66756C28.4045 4.5663 28.265 4.61249 28.138 4.61249C25.4759 4.60805 22.8147 4.60805 20.1526 4.60627C19.8648 4.26874 19.569 3.93831 19.2918 3.59189C18.8424 3.03051 17.8804 2.8342 17.2604 3.1522C16.62 3.48085 16.3135 4.13461 15.8303 4.61604C13.1185 4.61427 10.4066 4.61249 7.69567 4.6116C7.60862 4.6116 7.51624 4.59384 7.44518 4.66668C7.11742 4.75639 6.80208 4.87542 6.60223 5.16854C6.40148 5.46078 6.20162 5.7539 5.99999 6.04525C4.90477 7.62634 3.82732 9.21987 2.74365 10.809C2.16006 11.6652 1.53917 12.4966 1 13.384V14.115C1.14834 14.3407 1.30201 14.561 1.52496 14.7217C1.52762 14.8541 1.53207 14.9873 1.53207 15.1197C1.53207 20.2218 1.53207 25.3239 1.53473 30.4252C1.53473 30.5513 1.47966 30.6917 1.5898 30.8036C1.57204 30.8409 1.53562 30.8809 1.53917 30.9173C1.60313 31.6439 2.29064 32.4495 3.12648 32.4478C3.23663 32.4513 3.34677 32.4584 3.4578 32.4584C13.1513 32.4593 22.8449 32.4593 32.5393 32.4584C32.6388 32.4584 32.7374 32.4513 32.8369 32.4478C33.5794 32.4575 34.3806 31.7443 34.441 30.8027C34.5512 30.6908 34.4952 30.5504 34.4952 30.4252C34.4988 26.3046 34.4988 22.184 34.4979 18.0625C34.4979 16.9441 34.4926 15.8258 34.4899 14.7066C35.0788 14.155 35.1987 13.575 34.6329 12.8502ZM17.5784 4.28917C17.7703 4.05911 18.2437 4.10175 18.4507 4.34779C19.0662 5.07971 19.6898 5.80453 20.3053 6.53557C21.2211 7.62368 22.1272 8.7189 23.0465 9.80346C23.7429 10.626 24.4553 11.4352 25.1561 12.2524C25.5523 12.7143 25.9413 13.1824 26.333 13.6469C26.2709 13.766 26.1598 13.7109 26.071 13.7136C25.7335 13.7233 25.3959 13.7224 25.0584 13.7251C24.791 13.6372 24.6383 13.408 24.4704 13.2152C23.5732 12.1813 22.6912 11.1341 21.8038 10.0913C20.9236 9.05643 20.0442 8.02251 19.1648 6.9868C18.9481 6.73098 18.7251 6.47783 18.5226 6.21046C18.2384 5.8374 17.7463 5.82496 17.3857 6.26642C16.7861 6.99746 16.1643 7.71162 15.555 8.43554C14.8772 9.24208 14.2066 10.0557 13.5253 10.8596C12.9692 11.516 12.3999 12.1618 11.8394 12.8155C11.6493 13.0376 11.4699 13.2685 11.286 13.4959C11.1865 13.6176 11.063 13.6985 10.9058 13.7251C10.4857 13.7216 10.0655 13.7189 9.64539 13.7153C9.70935 13.4311 9.9625 13.2828 10.1295 13.0802C10.9414 12.0978 11.7879 11.1438 12.6157 10.1739C13.6274 8.99159 14.6356 7.80666 15.6393 6.61729C16.2904 5.84539 16.93 5.06373 17.5784 4.28917ZM4.98294 9.56008C5.84721 8.30497 6.71326 7.05164 7.57842 5.79654C9.86479 5.80009 12.1503 5.80275 14.4366 5.80986C14.5468 5.81075 14.6809 5.74324 14.7697 5.8747C13.7918 7.01611 12.8111 8.15574 11.8358 9.29893C10.9751 10.3089 10.1188 11.3233 9.26167 12.3359C8.87527 12.7924 8.49155 13.2508 8.10782 13.7082C6.11724 13.7082 4.12666 13.7082 2.13608 13.7065C3.08474 12.3243 4.0325 10.9413 4.98294 9.56008ZM12.8866 31.2593C12.8662 31.2397 12.8449 31.2246 12.8227 31.2122C12.8289 31.2282 12.8369 31.2442 12.8449 31.2593H6.17054C6.17942 31.2442 6.18741 31.2282 6.19363 31.2113C6.17142 31.2237 6.14922 31.2397 6.12879 31.2593C6.12523 29.3655 6.11902 27.4726 6.11902 25.5798C6.11902 23.6869 6.12523 21.882 6.12968 20.0326H12.8458C12.8369 20.0486 12.8289 20.0646 12.8227 20.0815C12.8449 20.0681 12.8662 20.0521 12.8866 20.0326C12.8902 21.0736 12.8973 22.1138 12.8964 23.1548C12.8964 25.856 12.8902 28.5572 12.8866 31.2593ZM13.4249 18.8237H5.59406C5.59406 18.8237 5.59139 18.8139 5.5905 18.8086V17.7143H13.4249V18.8237ZM32.9106 31.2673C29.2279 31.2655 25.5443 31.2646 21.8616 31.2628C19.2741 31.261 16.6857 31.2584 14.0982 31.2566V19.7759C14.378 19.5529 14.5592 19.2785 14.5637 18.9081C14.6649 18.4817 14.6649 18.0562 14.5637 17.6299C14.5423 17.0987 14.1737 16.7025 13.7367 16.6386C13.6541 16.6261 13.575 16.588 13.4951 16.5622C13.4009 16.4751 13.2846 16.5089 13.178 16.5089C10.7308 16.5071 8.28458 16.5071 5.83744 16.5089C5.72996 16.5089 5.6136 16.476 5.52033 16.5622C4.76087 16.7114 4.45087 16.9903 4.40113 17.5695V18.9685C4.40735 19.3575 4.62408 19.6169 4.92698 19.8239C4.92609 23.638 4.92609 27.4522 4.9252 31.2664V31.2646C4.69337 31.2637 4.46153 31.2531 4.23059 31.2655C3.9268 31.2815 3.61947 31.2291 3.31657 31.2753H3.31124C3.31124 31.2753 3.3068 31.277 3.30502 31.277C3.26328 31.2833 3.22242 31.2921 3.18067 31.3028C3.16201 31.3081 3.14425 31.3108 3.1256 31.317C2.8982 31.2175 2.67081 31.1189 2.71966 30.8018C2.72233 28.2214 2.72588 25.6411 2.72855 23.0607C2.73121 20.347 2.73387 17.6334 2.73654 14.9198C5.34357 14.9171 7.95149 14.9154 10.5594 14.91C10.6971 14.91 10.8472 14.9598 10.9733 14.855C11.3491 14.8523 11.6857 14.7013 11.9238 14.4402C12.5367 13.7633 13.1105 13.0527 13.7029 12.3581C14.1417 11.8438 14.5885 11.3375 15.0256 10.8214C15.5878 10.1588 16.1359 9.48369 16.7044 8.82726C17.0881 8.38314 17.4878 7.95233 17.8431 7.48245C17.963 7.32434 18.0714 7.4105 18.1655 7.52064C19.0458 8.55457 19.9252 9.5885 20.8037 10.6242C21.6688 11.6421 22.534 12.6601 23.3938 13.6825C23.7322 14.0848 24.0227 14.5281 24.5299 14.7617C24.7031 14.8416 24.8941 14.8052 25.0522 14.9056C27.8013 14.9083 30.5505 14.9118 33.2996 14.9145L33.3059 14.91C33.305 19.6107 33.3032 24.3104 33.3023 29.0111C33.3023 29.608 33.3085 30.2049 33.3112 30.8018C33.249 31.0186 33.1531 31.206 32.9106 31.2673ZM27.9159 13.7278C27.4558 13.2055 26.9912 12.6885 26.5382 12.1618C26.087 11.635 25.6464 11.0985 25.2014 10.5674C24.6374 9.89317 24.0778 9.21721 23.5093 8.54746C23.0732 8.03316 22.6148 7.53752 22.1884 7.01522C21.8607 6.61462 21.4619 6.27087 21.2114 5.80808C23.623 5.81075 26.0337 5.81341 28.4453 5.81608C29.219 6.95038 29.99 8.08735 30.7672 9.21899C31.7452 10.6446 32.7285 12.0676 33.7082 13.4924C33.7562 13.5608 33.7882 13.6407 33.8281 13.7153C31.8571 13.7189 29.8861 13.7233 27.9159 13.7278Z"
        fill="#FE6B01" stroke="#FE6B01" stroke-width="0.2" />
    <path
        d="M30.5087 18.4657C30.5087 18.3858 30.5513 18.2863 30.45 18.2277C30.4314 17.6539 30.0832 17.2826 29.4534 17.1653C29.3539 17.0561 29.2242 17.1085 29.1097 17.1085C25.4794 17.1049 21.8491 17.1049 18.2197 17.1085C18.1051 17.1085 17.9754 17.0561 17.8759 17.1644C17.3349 17.2186 16.8357 17.6796 16.8739 18.2357C16.7869 18.3298 16.8206 18.4462 16.8206 18.5528C16.8189 20.8232 16.8189 23.0927 16.8206 25.3621C16.8206 25.4696 16.7869 25.586 16.8739 25.6801C16.9086 26.2726 17.2355 26.6395 17.8759 26.8002C17.9096 26.8029 17.9425 26.8073 17.9754 26.8073C21.7203 26.8082 25.4651 26.8091 29.2091 26.8082C29.2926 26.8082 29.3895 26.8411 29.4534 26.7505C29.9562 26.7834 30.4305 26.2771 30.45 25.6881C30.5513 25.6295 30.5087 25.53 30.5087 25.4492C30.5113 23.122 30.5113 20.7939 30.5087 18.4657ZM29.3166 25.6162C28.7961 25.6162 28.2756 25.6135 27.7551 25.6135C24.5112 25.6109 21.2673 25.6082 18.0233 25.6055V18.3094C18.1557 18.3076 18.288 18.3023 18.4213 18.3023C22.0534 18.3014 25.6846 18.2996 29.3166 18.2987L29.3131 18.3041V25.6117L29.3166 25.6162Z"
        fill="#FE6B01" stroke="#FE6B01" stroke-width="0.2" />
</svg>
