<svg width="24" height="24" viewBox="0 0 24 24" fill="none" xmlns="http://www.w3.org/2000/svg">
    <rect width="24" height="24" rx="3" fill="#013765" />
    <path
        d="M18.042 9.31732C15.6852 11.7244 13.3268 14.1307 10.9668 16.5353C10.3581 17.1546 9.62059 17.1546 9.01197 16.5369C8.1551 15.6676 7.30063 14.7966 6.44936 13.9215C5.87438 13.3308 5.85035 12.5251 6.38209 11.9932C6.90823 11.467 7.68182 11.4964 8.252 12.0708C8.81337 12.6371 9.36913 13.2082 9.9273 13.7761C9.94091 13.7899 9.96093 13.7973 10.017 13.8324C10.3854 13.4517 10.7473 13.0726 11.1141 12.6975C12.8222 10.9539 14.5304 9.21028 16.2409 7.46829C16.8239 6.87428 17.6023 6.84324 18.1308 7.3874C18.653 7.92422 18.6193 8.72821 18.042 9.31732Z"
        fill="white" />
</svg>
