<svg width="30" height="30" viewBox="0 0 30 30" fill="none" xmlns="http://www.w3.org/2000/svg">
    <g clip-path="url(#clip0_543_6649)">
        <path
            d="M29.9864 12.1636C29.9727 11.6591 29.6045 11.2636 29.1 11.1818C28.6636 11.1 28.1727 11.3727 28.0091 11.8227C27.9409 12.0136 27.9136 12.2318 27.9136 12.4364C27.9136 15 27.9136 17.5636 27.9136 20.1273V20.5773C27.7364 20.3727 27.6273 20.25 27.5182 20.1273C25.7727 18.1364 24.0273 16.1318 22.2818 14.1409C20.55 12.1636 17.85 12.1636 16.1182 14.1409C15.1227 15.2727 14.1273 16.4182 13.1182 17.5636C12.8455 17.8773 12.5727 18.1773 12.2864 18.5045C11.85 17.9864 11.4545 17.4818 11.0318 16.9909C9.39545 15.0409 6.62727 15.0409 5.00455 16.9909C4.05 18.1227 3.10909 19.2682 2.11364 20.4818C2.11364 20.3182 2.1 20.2364 2.1 20.1545C2.1 15.6682 2.1 11.1954 2.1 6.70908C2.1 6.27272 2.15455 5.80908 2.27727 5.38635C2.83636 3.40908 4.59545 2.12726 6.70909 2.12726C10.3227 2.12726 13.95 2.12726 17.5636 2.12726C17.8227 2.12726 18.0955 2.07272 18.3136 1.96363C18.7364 1.74545 18.9136 1.2409 18.7909 0.7909C18.6682 0.286355 18.2727 -8.87783e-06 17.7273 -8.87783e-06C13.9909 -8.87783e-06 10.2409 -0.0136452 6.50455 0.0136275C5.85 0.0136275 5.18182 0.136355 4.55455 0.3409C1.81364 1.21363 0 3.72272 0 6.68181C0 12.2454 0 17.8091 0 23.3727C0 23.7954 0.0272727 24.2318 0.122727 24.6409C0.777273 27.8454 3.42273 30 6.72273 30C12.2455 30 17.7545 30 23.2773 30C23.7273 30 24.1773 29.9727 24.6136 29.8773C27.8045 29.2364 29.9864 26.5773 29.9864 23.3182C29.9864 20.0864 29.9864 16.8409 29.9864 13.6091C29.9864 13.1318 29.9864 12.6545 29.9864 12.1636ZM27.7909 23.8909C27.4909 26.2364 25.6227 27.8864 23.2636 27.9C20.5091 27.9 17.7409 27.9 14.9864 27.9C12.2318 27.9 9.46364 27.9 6.70909 27.9C4.5 27.9 2.7 26.4545 2.20909 24.3409C2.11364 23.9454 2.15455 23.6454 2.44091 23.3045C3.80455 21.6954 5.14091 20.0454 6.47727 18.4091C7.32273 17.3727 8.59091 17.3591 9.43636 18.3954C10.0636 19.1454 10.6909 19.9091 11.3182 20.6591C11.8636 21.3 12.5318 21.3136 13.0909 20.6727C14.6182 18.9273 16.1455 17.1818 17.6727 15.4227C18.2182 14.8091 18.8864 14.5636 19.6636 14.8091C19.9636 14.9045 20.2773 15.1091 20.4955 15.3545C22.8955 18.0682 25.2818 20.7818 27.6682 23.5091C27.75 23.6045 27.7909 23.7682 27.7773 23.8909H27.7909Z"
            fill="#FE6B01" />
        <path
            d="M30.0004 5.23629C30.0004 5.86356 29.5368 6.27265 28.8277 6.28629C27.955 6.28629 27.0822 6.28629 26.2095 6.28629H25.8141V6.66811C25.8141 7.56811 25.8141 8.45447 25.8141 9.35447C25.8141 10.009 25.3777 10.4727 24.7913 10.4863C24.205 10.4863 23.7277 10.009 23.7277 9.36811C23.7277 8.37265 23.7277 7.36356 23.7277 6.31356C22.8959 6.31356 22.105 6.31356 21.3004 6.31356C21.0277 6.31356 20.755 6.3272 20.4822 6.29993C19.9231 6.23174 19.5141 5.76811 19.5413 5.23629C19.5686 4.6772 20.005 4.24084 20.5777 4.2272C21.4913 4.2272 22.405 4.2272 23.3186 4.2272H23.7004C23.7004 4.0772 23.7141 3.96811 23.7141 3.84538C23.7141 2.94538 23.7141 2.03174 23.7141 1.13174C23.7141 0.559018 24.0686 0.13629 24.5731 0.0544722C25.0913 -0.027346 25.5686 0.231745 25.7459 0.722654C25.8004 0.872654 25.8004 1.03629 25.8141 1.19993C25.8141 2.07265 25.8141 2.94538 25.8141 3.81811V4.19993C25.9641 4.19993 26.0731 4.21356 26.1959 4.21356C27.0822 4.21356 27.955 4.21356 28.8413 4.21356C29.5504 4.21356 30.0004 4.63629 30.0004 5.26356V5.23629Z"
            fill="#FE6B01" />
        <path
            d="M7.99115 4.18628C5.87751 4.18628 4.17297 5.9181 4.1866 8.03173C4.20024 10.1726 5.91842 11.8636 8.0457 11.8499C10.1593 11.8499 11.8639 10.1045 11.8502 7.97719C11.8366 5.87719 10.1048 4.18628 7.99115 4.18628ZM7.99115 9.76355C7.02297 9.76355 6.27297 8.97264 6.27297 7.99082C6.27297 7.02264 7.06388 6.27264 8.0457 6.28628C9.00024 6.28628 9.75024 7.07719 9.75024 8.03173C9.75024 8.98628 8.9457 9.76355 7.97751 9.76355H7.99115Z"
            fill="#FE6B01" />
    </g>
    <defs>
        <clipPath id="clip0_543_6649">
            <rect width="30" height="30" fill="white" />
        </clipPath>
    </defs>
</svg>
