<svg width="31" height="26" viewBox="0 0 31 26" fill="none" xmlns="http://www.w3.org/2000/svg">
    <g clip-path="url(#clip0_543_6656)">
        <path
            d="M27.2882 4.33727C25.4682 4.33727 23.6482 4.33727 21.84 4.33727C21.6155 4.33727 21.4973 4.26636 21.4027 4.06545C20.8473 2.95455 20.2682 1.85545 19.7245 0.744545C19.4527 0.236364 19.0627 0 18.4836 0C16.4036 0 14.3236 0 12.2436 0C11.6645 0 11.2745 0.224545 11.0145 0.744545C10.4827 1.83182 9.91545 2.89545 9.38364 3.98273C9.25364 4.24273 9.11182 4.36091 8.79273 4.34909C7.03182 4.32545 5.27091 4.34909 3.51 4.34909C1.39455 4.33727 0 5.70818 0 7.8C0 12.7045 0 17.6091 0 22.5255C0 24.6291 1.38273 26 3.51 26H15.34C19.3109 26 23.2936 26 27.2645 26C29.3091 26 30.7155 24.6055 30.7155 22.6082C30.7155 17.6564 30.7155 12.7045 30.7155 7.75273C30.7155 5.74364 29.3091 4.34909 27.2764 4.34909L27.2882 4.33727ZM28.5409 22.5845C28.5409 23.4118 28.1155 23.8255 27.2764 23.8255C23.2936 23.8255 19.3227 23.8255 15.34 23.8255C11.3573 23.8255 7.45727 23.8255 3.51 23.8255C2.62364 23.8255 2.21 23.4236 2.21 22.5491C2.21 17.6209 2.21 12.6927 2.21 7.76455C2.21 6.91364 2.62364 6.5 3.49818 6.5C5.56636 6.5 7.63455 6.5 9.70273 6.5C10.2936 6.5 10.6955 6.27545 10.9555 5.74364C11.4991 4.63273 12.0782 3.53364 12.6336 2.41091C12.7282 2.22182 12.8345 2.15091 13.0473 2.15091C14.6073 2.15091 16.1555 2.15091 17.7155 2.15091C17.9282 2.15091 18.0345 2.22182 18.1291 2.41091C18.6845 3.53364 19.2636 4.64455 19.8309 5.76727C20.0791 6.27545 20.4691 6.5 21.0364 6.5C23.1164 6.5 25.1964 6.5 27.2764 6.5C28.1391 6.5 28.5645 6.91364 28.5645 7.76455C28.5645 12.7045 28.5645 17.6445 28.5645 22.5845H28.5409Z"
            fill="#FE6B01" />
        <path
            d="M15.4349 8.67466C11.7831 8.65102 8.79307 11.5465 8.78125 15.1038C8.78125 18.7319 11.6885 21.651 15.3285 21.6628C18.9803 21.6747 21.9349 18.7792 21.9467 15.1628C21.9467 11.6174 19.0158 8.68648 15.4349 8.66284V8.67466ZM15.364 19.5001C12.9413 19.5001 10.9794 17.5619 10.9794 15.1747C10.9794 12.7874 12.9413 10.8374 15.3876 10.8374C17.7985 10.8374 19.7603 12.7874 19.7603 15.1747C19.7603 17.5501 17.7749 19.5001 15.3758 19.5001H15.364Z"
            fill="#FE6B01" />
        <path
            d="M26.3305 9.7383C26.3305 10.3174 25.8814 10.8019 25.2905 10.8256C24.8887 10.8374 24.4868 10.8374 24.085 10.8256C23.4941 10.8019 23.0332 10.3174 23.0332 9.7383C23.0332 9.15921 23.4941 8.68648 24.0968 8.66284C24.2859 8.66284 24.4868 8.66284 24.6759 8.66284C24.865 8.66284 25.0659 8.66284 25.255 8.66284C25.8459 8.68648 26.3187 9.15921 26.3187 9.72648L26.3305 9.7383Z"
            fill="#FE6B01" />
    </g>
    <defs>
        <clipPath id="clip0_543_6656">
            <rect width="30.7273" height="26" fill="white" />
        </clipPath>
    </defs>
</svg>
