<svg width="20" height="20" viewBox="0 0 20 20" fill="none" xmlns="http://www.w3.org/2000/svg">

    <path
        d="M18.0664 14.1333L15.4581 8.04161C14.5748 5.97494 12.9498 5.89161 11.8581 7.85828L10.2831 10.6999C9.48311 12.1416 7.99144 12.2666 6.95811 10.9749L6.77478 10.7416C5.69978 9.39161 4.18311 9.55828 3.40811 11.0999L1.97478 13.9749C0.966442 15.9749 2.42478 18.3333 4.65811 18.3333H15.2914C17.4581 18.3333 18.9164 16.1249 18.0664 14.1333Z"
        stroke="black" stroke-width="1.5" stroke-linecap="round" stroke-linejoin="round" />
    <path
        d="M5.80811 6.66675C7.18882 6.66675 8.30811 5.54746 8.30811 4.16675C8.30811 2.78604 7.18882 1.66675 5.80811 1.66675C4.42739 1.66675 3.30811 2.78604 3.30811 4.16675C3.30811 5.54746 4.42739 6.66675 5.80811 6.66675Z"
        stroke="black" stroke-width="1.5" stroke-linecap="round" stroke-linejoin="round" />

</svg>
