<svg width="16" height="18" viewBox="0 0 16 18" fill="none" xmlns="http://www.w3.org/2000/svg">
    <path
        d="M15.7001 17.1V17.2C15.7001 17.4 15.5001 17.6 15.2001 17.7H15.1001H15.0001H0.800098H0.700098L0.500098 17.6C0.200098 17.4 0.100098 17.1 0.200098 16.8C0.300098 16.5 0.500098 16.4 0.800098 16.4H14.8001C15.1001 16.4 15.3001 16.5 15.4001 16.7C15.6001 16.8 15.7001 17 15.7001 17.1Z"
        fill="#013765" />
    <path
        d="M15.1001 1.89998L14.9001 1.69998C14.8001 1.59998 14.6001 1.39998 14.5001 1.29998L14.3001 1.09998C13.7001 0.499976 12.9001 0.199976 12.0001 0.0999756C11.1001 0.0999756 10.3001 0.399976 9.7001 0.999976C7.0001 3.69998 4.2001 6.29997 1.5001 8.89997C1.2001 9.19998 1.0001 9.49998 0.900098 9.89997C0.700098 10.8 0.500098 11.8 0.300098 12.7C0.200098 13.1 0.200098 13.4 0.300098 13.8C0.400098 14.5 1.1001 15 1.9001 15C2.0001 15 2.1001 15 2.3001 15C3.3001 14.8 4.4001 14.6 5.4001 14.4C6.0001 14.3 6.4001 14.1 6.7001 13.8L9.5001 11.2C11.3001 9.49998 13.2001 7.69998 15.0001 5.99998C15.6001 5.49998 15.9001 4.69998 15.9001 3.89998C15.8001 3.19998 15.6001 2.49998 15.1001 1.89998ZM13.8001 5.09998C11.0001 7.69998 8.3001 10.3 5.6001 12.9C5.6001 12.9 5.5001 13 5.3001 13C4.8001 13.1 4.2001 13.2 3.6001 13.3L2.0001 13.6H1.9001H1.7001V13.4C1.8001 12.8 1.9001 12.2 2.1001 11.6C2.2001 11.2 2.3001 10.7 2.4001 10.3C2.4001 10.2 2.5001 10.1 2.6001 9.99998C5.3001 7.29998 8.0001 4.69998 10.7001 2.09998C11.0001 1.79998 11.5001 1.59998 11.9001 1.59998C12.4001 1.59998 12.8001 1.79998 13.1001 2.09998C13.3001 2.29998 13.6001 2.49998 13.8001 2.79998C14.2001 3.09998 14.3001 3.59998 14.3001 3.99998C14.3001 4.39998 14.2001 4.79998 13.8001 5.09998Z"
        fill="#013765" />
</svg>