<svg width="50" height="48" viewBox="0 0 50 48" fill="none" xmlns="http://www.w3.org/2000/svg">
    <g clip-path="url(#clip0_155_3816)">
        <path
            d="M48.9778 20.7768C44.6142 16.8454 40.2278 12.914 35.8414 9.00542C32.7278 6.21684 29.6369 3.45113 26.5232 0.662559C26.0232 0.205416 25.4778 -0.0460124 24.796 -0.000298137C24.1142 0.0682733 23.6596 0.502559 23.1823 0.936845C18.7278 4.93684 14.2732 8.91399 9.8187 12.8911C6.8187 15.5883 3.79597 18.2626 0.795973 20.9597C-0.135845 21.8054 -0.249481 23.0854 0.523246 23.9997C1.27325 24.8911 2.50052 24.9597 3.45506 24.1826C3.5687 24.0911 3.68234 24.0226 3.84143 23.8854V24.5711C3.84143 31.5883 3.84143 38.6283 3.84143 45.6454C3.84143 47.1311 4.65961 47.9997 6.11415 47.9997C18.7278 47.9997 31.3414 47.9997 43.9551 47.9997C44.1823 47.9997 44.4096 47.9997 44.6369 47.9311C45.6369 47.6797 46.2051 46.8568 46.2051 45.6226C46.2051 38.6054 46.2051 31.5654 46.2051 24.5483V23.8854C46.4323 24.0683 46.5687 24.2054 46.7278 24.3197C47.8187 25.1654 49.3187 24.754 49.8642 23.474C49.9096 23.3597 49.9778 23.2454 50.0232 23.1311V22.2397C49.6823 21.7597 49.4096 21.2111 49.0005 20.8226L48.9778 20.7768ZM42.0687 43.0626V43.7483H7.93234V43.1997C7.93234 35.6797 7.93234 28.1826 7.93234 20.6626C7.93234 20.3426 8.00052 20.114 8.25052 19.8854C13.796 14.9483 19.3187 9.98827 24.8642 5.02827C24.9096 5.00542 24.9551 4.98256 25.0232 4.91399C27.2505 6.90256 29.4323 8.86827 31.6369 10.834C34.9551 13.8054 38.2505 16.7768 41.5914 19.7254C41.9551 20.0454 42.0914 20.3883 42.0914 20.8683C42.0914 28.274 42.0914 35.6568 42.0914 43.0626H42.0687Z"
            fill="#013765" />
        <path
            d="M34.8182 30.5601C34.4091 31.0172 33.8636 31.223 33.25 31.223C31.3864 31.223 29.5 31.223 27.6364 31.223H27.0454V31.7944C27.0454 33.6915 27.0454 35.6115 27.0454 37.5087C27.0454 38.8344 26.2045 39.7715 25.0227 39.7715C23.7954 39.7715 22.9545 38.8572 22.9545 37.4858C22.9545 35.4058 22.9545 33.3487 22.9545 31.2001H22.4091C20.5 31.2001 18.5682 31.2001 16.6591 31.2001C15.6136 31.2001 14.7727 30.4001 14.6591 29.3715C14.5454 28.2515 15.1591 27.2915 16.2273 27.0401C16.4545 26.9944 16.7045 26.9715 16.9545 26.9715C18.9318 26.9715 20.9318 26.9715 22.9773 26.9715V26.423C22.9773 24.4572 22.9773 22.4687 22.9773 20.503C22.9773 19.383 23.7727 18.5144 24.8409 18.423C25.9091 18.3315 26.8409 19.0401 27.0454 20.1144C27.0909 20.3201 27.0909 20.5487 27.0909 20.7544C27.0909 22.6287 27.0909 24.503 27.0909 26.3772V26.9715C29.25 26.9715 31.3409 26.9715 33.4091 26.9715C34.2954 26.9715 34.9318 27.4515 35.2727 28.2744C35.5909 29.0744 35.4545 29.8515 34.8636 30.5144L34.8182 30.5601Z"
            fill="#013765" />
    </g>
    <defs>
        <clipPath id="clip0_155_3816">
            <rect width="50" height="48" fill="white" />
        </clipPath>
    </defs>
</svg>
