<svg width="12" height="12" viewBox="0 0 12 12" fill="none" xmlns="http://www.w3.org/2000/svg">
    <path fill-rule="evenodd" clip-rule="evenodd"
        d="M0.292893 0.292893C0.683418 -0.0976311 1.31658 -0.0976311 1.70711 0.292893L11.7071 10.2929C12.0976 10.6834 12.0976 11.3166 11.7071 11.7071C11.3166 12.0976 10.6834 12.0976 10.2929 11.7071L0.292893 1.70711C-0.0976311 1.31658 -0.0976311 0.683418 0.292893 0.292893Z"
        fill="#999999" />
    <path fill-rule="evenodd" clip-rule="evenodd"
        d="M11.7071 0.292893C12.0976 0.683418 12.0976 1.31658 11.7071 1.70711L1.70712 11.7071C1.31659 12.0976 0.683428 12.0976 0.292904 11.7071C-0.0976205 11.3166 -0.0976208 10.6834 0.292904 10.2929L10.2929 0.292893C10.6834 -0.0976311 11.3166 -0.0976311 11.7071 0.292893Z"
        fill="#999999" />
</svg>
