<svg width="20" height="17" viewBox="0 0 20 17" fill="none" xmlns="http://www.w3.org/2000/svg">
    <path
        d="M19.9997 16.6455H16.2039L15.7235 16.1946L15.4514 15.9385L15.1792 15.6824C15.5098 15.4319 15.8204 15.1572 16.1126 14.8603C16.4469 14.5207 16.7538 14.1514 17.0278 13.7599L17.2945 14.0178L17.5611 14.2776L19.9997 16.6455Z"
        fill="#013765" />
    <path
        d="M14.4178 11.3067C14.3995 11.342 14.3776 11.3773 14.352 11.4144L14.3483 11.4218L14.3429 11.4311C14.1438 11.7577 13.9045 12.0639 13.6305 12.3404C13.3528 12.6243 13.0405 12.8748 12.7044 13.0864L12.5327 13.194L10.074 10.8632L7.49292 13.2626L7.01434 13.7154L5.10732 15.5099L4.92465 15.6806L3.89807 16.6456H0L2.53539 14.2666L2.56644 14.2387L2.80391 14.0142L3.16376 13.6783L3.45603 13.4055L5.22971 11.7373L5.68454 11.3105H5.68271L5.68454 11.3067L5.97498 11.034C6.00968 11.0006 6.04622 10.9672 6.08093 10.9338C6.46818 10.57 6.85542 10.2063 7.24267 9.84446C7.71943 9.39539 8.19619 8.94816 8.67295 8.49909C9.08577 8.10939 10.074 7.15186 10.074 7.15186C10.074 7.15186 11.2394 8.31908 11.6961 8.74961C12.2221 9.24322 12.7464 9.73683 13.2725 10.2304C13.5629 10.5032 13.8515 10.776 14.1419 11.0488L14.4178 11.3067Z"
        fill="#013765" />
    <path
        d="M18.6209 8.70504C18.6209 10.416 18.1332 12.0175 17.2911 13.3647C17.2491 13.4333 17.2071 13.4983 17.1633 13.567C17.1194 13.6319 17.0756 13.6969 17.0281 13.7599C16.7541 14.1515 16.4472 14.5208 16.1129 14.8604C15.8207 15.1573 15.5101 15.4319 15.1795 15.6824L14.9457 15.4653L13.0898 13.7173C13.4734 13.4742 13.8278 13.1902 14.1475 12.8655C14.4562 12.55 14.732 12.2012 14.964 11.8226C15.0078 11.7539 15.0498 11.6834 15.0864 11.6129C15.1284 11.5443 15.1649 11.4719 15.1996 11.4014C15.6124 10.5941 15.8444 9.67928 15.8444 8.70504C15.8444 7.07575 15.1978 5.61346 14.1475 4.54273C13.0935 3.47756 11.6559 2.82251 10.0521 2.82251C8.4483 2.82251 7.00707 3.47756 5.95675 4.54273C4.90642 5.61346 4.25979 7.07575 4.25979 8.70504C4.25979 9.57907 4.44611 10.4049 4.78221 11.1471L4.73472 11.1917L2.96104 12.8599L2.67243 13.129C1.9162 11.8319 1.47962 10.3176 1.48145 8.70504C1.47962 6.30564 2.44227 4.11963 3.99127 2.54972C5.53662 0.977949 7.68294 0 10.043 0H10.0594C12.4176 0 14.5676 0.977949 16.1129 2.54972C17.6601 4.11963 18.6209 6.30564 18.6209 8.70504Z"
        fill="#FE6B01" />
    <path
        d="M11.7841 15.2408C11.7841 15.8067 11.5211 16.3134 11.1083 16.6325C10.816 16.8626 10.4507 17 10.0525 17C9.65426 17 9.28893 16.8626 8.99666 16.6325C8.58384 16.3134 8.3208 15.8067 8.3208 15.2408C8.3208 14.6395 8.61855 14.1069 9.07339 13.7915C9.35104 13.5966 9.68896 13.4816 10.0525 13.4816C10.416 13.4816 10.7539 13.5966 11.0316 13.7915C11.4846 14.1069 11.7841 14.6377 11.7841 15.2408Z"
        fill="#FE6B01" />
</svg>
