<svg width="20" height="20" viewBox="0 0 20 20" fill="none" xmlns="http://www.w3.org/2000/svg">
    <path
        d="M18.5912 4.68089C17.653 3.08412 16.254 1.74855 14.383 0.915529C13.1363 0.360917 11.6786 0.0295617 10.0002 0C8.11088 0.0335326 6.50053 0.450043 5.15752 1.1357C3.81272 1.82312 2.73393 2.78188 1.91487 3.91008C1.36898 4.66236 0.939522 5.49053 0.626497 6.36193C0.209131 7.52454 0 8.76481 0 10.0051C0 11.3998 0.265108 12.794 0.793533 14.0771C1.32196 15.3606 2.11236 16.5325 3.16383 17.4886C3.86467 18.1261 4.68194 18.6684 5.61788 19.0845C6.8646 19.6391 8.32225 19.9704 10.0007 20C11.89 19.9665 13.4999 19.55 14.8434 18.8643C16.1877 18.1769 17.2665 17.2181 18.0851 16.0899C18.631 15.3376 19.0609 14.5099 19.374 13.6381C19.7909 12.4759 20 11.2352 20 9.99493C20.0004 8.13519 19.5284 6.27678 18.5912 4.68089ZM3.51716 14.3767C2.64034 13.1382 2.14415 11.616 2.14236 10.0099V10.0002C2.14012 9.93051 2.13923 9.86168 2.13923 9.79285C2.13923 8.96909 2.28029 8.18637 2.53599 7.45968C2.7917 6.733 3.16249 6.06279 3.62061 5.46229C4.53684 4.26173 5.80148 3.33914 7.21301 2.79159C8.15432 2.4267 9.16146 2.22815 10.1758 2.22771C10.9138 2.22771 11.6554 2.33316 12.3759 2.55642C13.0964 2.77924 13.7959 3.1203 14.448 3.58931L14.7646 3.81698L3.74689 14.701L3.51716 14.3767ZM16.6199 14.0868C15.8272 15.3566 14.6884 16.4182 13.2997 17.0668C12.3741 17.4987 11.3379 17.7454 10.2277 17.7454C10.1485 17.7454 10.0692 17.744 9.98948 17.7418C8.35942 17.7396 6.81489 17.2512 5.55787 16.3873L5.22917 16.1614L16.2477 5.30521L16.4788 5.6176C16.9553 6.26178 17.3014 6.95316 17.528 7.66529C17.7546 8.37742 17.8612 9.11028 17.8612 9.83962C17.8612 11.3362 17.4125 12.8165 16.6199 14.0868Z"
        fill="#F11E1E" />
</svg>
