<svg width="22" height="22" viewBox="0 0 22 22" fill="none" xmlns="http://www.w3.org/2000/svg">
    <path
        d="M21.8183 4.252C21.6429 3.84253 21.3501 3.49479 20.9821 3.24925C20.6141 3.00371 20.1687 2.86001 19.6917 2.86001C19.0555 2.86001 18.477 3.11532 18.0601 3.52723C17.8513 3.73336 17.6822 3.9789 17.5652 4.252C17.4482 4.52509 17.3835 4.82539 17.3835 5.13999C17.3835 5.50063 17.4689 5.84279 17.6204 6.14658C17.2886 6.18564 16.9286 6.2111 16.5547 6.2111C16.4471 6.2111 16.3385 6.20901 16.2288 6.20447C15.4696 6.17343 14.6893 6.03148 13.9782 5.69455C13.6225 5.52609 13.2837 5.30915 12.9705 5.03152C12.7086 4.79958 12.465 4.52439 12.245 4.19933C12.529 4.01936 12.7701 3.78009 12.9511 3.49828C13.1772 3.14601 13.3086 2.72677 13.3083 2.27964C13.3083 1.96538 13.2436 1.66473 13.1265 1.39164C12.9511 0.982169 12.6583 0.634433 12.2903 0.388891C11.922 0.143698 11.477 0 11 0C10.3638 0 9.78524 0.255308 9.36837 0.667219C9.15958 0.873349 8.99051 1.11889 8.87346 1.39199C8.75641 1.66508 8.69174 1.96538 8.69174 2.27998C8.69174 2.72747 8.82285 3.14671 9.04886 3.49863C9.22953 3.78044 9.471 4.01971 9.75466 4.19968C9.53462 4.52474 9.29104 4.79993 9.02917 5.03187C8.55958 5.44797 8.03163 5.72839 7.47663 5.91219C6.92197 6.09565 6.34025 6.18145 5.77118 6.20482C5.66151 6.20936 5.5529 6.21145 5.44534 6.21145C5.07135 6.21145 4.71107 6.18599 4.37961 6.14692C4.53111 5.84314 4.61652 5.50098 4.61652 5.14034C4.61652 4.82609 4.55185 4.52544 4.4348 4.25234C4.2594 3.84287 3.96661 3.49514 3.59859 3.2496C3.23058 3.00405 2.78524 2.86036 2.30826 2.86036C1.67206 2.86036 1.0935 3.11566 0.676626 3.52758C0.467838 3.73371 0.29877 3.97925 0.181722 4.25234C0.0646749 4.52509 0 4.82574 0 5.13999C0 5.68932 0.19754 6.19541 0.525835 6.58848C0.829525 6.95261 1.24534 7.22187 1.72197 7.34499C2.96591 10.0875 3.2594 11.9779 3.25975 13.1519C3.25975 13.7681 3.17926 14.1916 3.10931 14.4444C3.07417 14.571 3.04148 14.6554 3.02214 14.7015C3.01265 14.7238 3.00633 14.7367 3.00422 14.7409L3.00281 14.7437C2.93286 14.8703 2.89772 15.0105 2.89772 15.1504C2.89772 15.2969 2.93603 15.444 3.01265 15.5752C3.16661 15.8385 3.45026 16 3.75712 16H18.2432C18.5501 16 18.8337 15.8382 18.9877 15.5752C19.0643 15.4437 19.103 15.2969 19.1026 15.1504C19.1026 15.0102 19.0671 14.8699 18.9972 14.7433L18.9958 14.7402C18.9944 14.7374 18.9877 14.7242 18.9782 14.7015C18.9589 14.6561 18.9262 14.5714 18.891 14.4448C18.8211 14.1923 18.7406 13.7688 18.7406 13.1522C18.7406 11.9782 19.0341 10.0875 20.2784 7.34534C20.7547 7.22187 21.1708 6.95296 21.4742 6.58883C21.8025 6.19575 22 5.68967 22 5.14034C22 4.82609 21.9353 4.52544 21.8183 4.25234V4.252ZM10.4569 2.05432C10.5012 1.95073 10.5761 1.86145 10.6703 1.79867C10.7645 1.73589 10.877 1.69961 11 1.69926C11.1638 1.69926 11.3097 1.76414 11.4169 1.86982C11.4703 1.92248 11.5132 1.98526 11.5431 2.05432C11.5726 2.12338 11.5891 2.19907 11.5891 2.27964C11.5891 2.3602 11.5726 2.43589 11.5431 2.50495C11.4988 2.60854 11.4239 2.69782 11.3297 2.76061C11.2355 2.82339 11.123 2.85966 11 2.86001C10.8362 2.86001 10.6903 2.79513 10.5831 2.6898C10.5297 2.63714 10.4868 2.57436 10.4569 2.5053C10.4274 2.43624 10.4109 2.36055 10.4109 2.27998C10.4109 2.19942 10.4274 2.12373 10.4569 2.05467V2.05432ZM17.1691 11.4404H4.83058C4.66467 10.424 4.3406 9.20923 3.77188 7.77922C4.26327 7.85421 4.83339 7.91036 5.44534 7.91036C5.57575 7.91036 5.70791 7.90792 5.84183 7.90234C6.74271 7.86537 7.72759 7.69412 8.66608 7.2714C9.13497 7.06003 9.59227 6.78554 10.019 6.43432C10.3698 6.14553 10.7002 5.80442 11 5.40542C11.2998 5.80477 11.6299 6.14553 11.981 6.43432C12.6211 6.96133 13.3293 7.31499 14.0443 7.5431C14.7596 7.7712 15.4823 7.87444 16.1582 7.90234C16.2921 7.90792 16.4243 7.91036 16.5547 7.91036C17.1666 7.91036 17.7371 7.85421 18.2281 7.77922C17.6594 9.20923 17.3353 10.424 17.1694 11.4404H17.1691ZM4.97856 13.14H17.0214C17.0214 13.1438 17.0214 13.148 17.0214 13.1522C17.0214 13.5986 17.0555 13.9802 17.1062 14.3007H4.89385C4.94446 13.9802 4.97891 13.5986 4.97891 13.1522C4.97891 13.1484 4.97891 13.1442 4.97891 13.14H4.97856ZM19.6942 5.72036H19.6889C19.5258 5.71967 19.3807 5.65445 19.2738 5.54911C19.2207 5.49645 19.1779 5.43402 19.1483 5.36496C19.1188 5.2959 19.1026 5.22056 19.1026 5.13999C19.1026 5.05942 19.1192 4.98374 19.1487 4.91468C19.193 4.81109 19.2678 4.7218 19.362 4.65902C19.4562 4.59624 19.5687 4.55997 19.6917 4.55962C19.8555 4.55962 20.0014 4.62449 20.1086 4.72983C20.162 4.78249 20.2049 4.84527 20.2348 4.91433C20.2643 4.98339 20.2808 5.05907 20.2808 5.13964C20.2808 5.21986 20.2647 5.29555 20.2351 5.36461C20.1909 5.4682 20.1163 5.55714 20.0228 5.61992C19.929 5.6827 19.8172 5.71932 19.6946 5.72002L19.6942 5.72036ZM1.7652 4.91468C1.80949 4.81109 1.88436 4.7218 1.97856 4.65902C2.07276 4.59624 2.18524 4.55997 2.30826 4.55962C2.47206 4.55962 2.61793 4.62449 2.72513 4.73017C2.77856 4.78284 2.82144 4.84562 2.85132 4.91468C2.88084 4.98374 2.89736 5.05942 2.89736 5.13999C2.89736 5.22021 2.88119 5.2959 2.85167 5.36496C2.80738 5.46854 2.73322 5.55748 2.63937 5.62026C2.54552 5.68304 2.43374 5.71967 2.31107 5.72036H2.3058C2.14271 5.71967 1.99719 5.65445 1.89069 5.54911C1.83761 5.49645 1.79473 5.43402 1.7652 5.36496C1.73568 5.2959 1.71951 5.22056 1.71951 5.13999C1.71951 5.05942 1.73603 4.98374 1.76555 4.91468H1.7652Z"
        fill="#FE6B01" />
</svg>
