<svg width="24" height="22" viewBox="0 0 24 22" fill="none" xmlns="http://www.w3.org/2000/svg">
    <path
        d="M21.0664 1H2.93359C1.86741 1 1 1.86741 1 2.93359V15.8242C1 16.8904 1.86741 17.7578 2.93359 17.7578H4.91016V20.9805C4.91016 21.2412 5.06721 21.4762 5.30805 21.5759C5.54893 21.6757 5.82612 21.6205 6.01046 21.4362L9.68884 17.7578H21.0664C22.1326 17.7578 23 16.8904 23 15.8242V2.93359C23 1.86741 22.1326 1 21.0664 1ZM21.7109 15.8242C21.7109 16.1796 21.4218 16.4688 21.0664 16.4688H9.42188C9.25095 16.4688 9.08702 16.5367 8.96615 16.6576L6.19922 19.4244V17.1133C6.19922 16.7573 5.91064 16.4688 5.55469 16.4688H2.93359C2.5782 16.4688 2.28906 16.1796 2.28906 15.8242V2.93359C2.28906 2.5782 2.5782 2.28906 2.93359 2.28906H21.0664C21.4218 2.28906 21.7109 2.5782 21.7109 2.93359V15.8242Z"
        fill="#FE6B01" stroke="#FE6B01" stroke-width="0.4" />
    <path
        d="M17.1256 7.87118C17.0502 7.63575 16.847 7.46422 16.6023 7.4295L13.8177 7.03445L12.5753 4.57642C12.4656 4.35943 12.2432 4.22266 12 4.22266C11.7569 4.22266 11.5345 4.35947 11.4248 4.57642L10.1823 7.03445L7.39779 7.4295C7.15312 7.46422 6.94984 7.63575 6.87447 7.87109C6.7991 8.10643 6.86497 8.36416 7.04398 8.53448L9.04959 10.4432L8.57685 13.1345C8.53452 13.3755 8.63228 13.6197 8.82925 13.7648C9.02617 13.91 9.28832 13.9311 9.506 13.8194L12 12.5393L14.4941 13.8195C14.7118 13.9312 14.9739 13.9101 15.1708 13.7649C15.3678 13.6197 15.4655 13.3756 15.4232 13.1346L14.9505 10.4433L16.9561 8.53457C17.1351 8.3642 17.201 8.10652 17.1256 7.87118ZM13.8116 9.74766C13.6552 9.89642 13.5837 10.1135 13.6211 10.3261L13.9293 12.0806L12.2944 11.2414C12.202 11.1939 12.101 11.1703 12 11.1703C11.8991 11.1703 11.7981 11.194 11.7057 11.2414L10.0708 12.0806L10.379 10.3261C10.4163 10.1135 10.3448 9.89642 10.1885 9.74766L8.89722 8.51871L10.6964 8.26344C10.905 8.23387 11.086 8.10411 11.1811 7.91608L12 6.2959L12.819 7.91608C12.9141 8.10415 13.0951 8.23387 13.3037 8.26344L15.1029 8.51871L13.8116 9.74766Z"
        fill="#FE6B01" stroke="#FE6B01" stroke-width="0.4" />
</svg>
