<svg width="22" height="22" viewBox="0 0 22 22" fill="none" xmlns="http://www.w3.org/2000/svg">
    <path
        d="M6.78672 4.95357L7.75885 5.92569C9.54937 4.13572 12.4509 4.13572 14.2406 5.92569L15.2135 4.95357C12.8859 2.62652 9.11432 2.62597 6.78672 4.95357Z"
        fill="#FE6B01" />
    <path
        d="M20.1666 9.16658C20.1666 4.103 16.0641 0 11 0C5.93725 0 1.83342 4.103 1.83342 9.16658C0.820875 9.16658 0 9.98745 0 11V16.5C0 17.5126 0.820875 18.3334 1.83342 18.3334H4.58343C5.0897 18.3334 5.5 17.9234 5.5 17.4166V12.8334C5.5 12.3294 5.2712 11.5728 4.99153 11.154L3.66685 9.16685C3.66685 5.1161 6.9498 1.83342 11.0003 1.83342C15.0519 1.83342 18.3337 5.1161 18.3337 9.16685L17.0088 11.154C16.7291 11.5728 16.5 12.3294 16.5 12.8334V17.6729C15.1564 19.1991 13.1934 20.1666 11 20.1666H9.16658V22H11C13.997 22 16.6485 20.556 18.3208 18.3334H20.1666C21.1791 18.3334 22 17.5126 22 16.5V11C22 9.98745 21.1791 9.16658 20.1666 9.16658ZM3.66658 16.5H1.83315V11H2.68537L3.46583 12.171C3.54833 12.3008 3.66273 12.6805 3.6663 12.8351L3.66658 16.5ZM20.1666 16.5H18.3334V12.8351C18.337 12.6803 18.4517 12.3008 18.5339 12.171L19.3144 11H20.1666V16.5Z"
        fill="#FE6B01" />
</svg>
