<svg width="50" height="50" viewBox="0 0 50 50" fill="none" xmlns="http://www.w3.org/2000/svg">
    <path fill-rule="evenodd" clip-rule="evenodd"
        d="M0 5.95238C0 2.66498 2.66498 0 5.95238 0H44.0476C47.335 0 50 2.66498 50 5.95238V22.619H47.619V5.95238C47.619 3.97993 46.02 2.38095 44.0476 2.38095H5.95238C3.97993 2.38095 2.38095 3.97993 2.38095 5.95238V44.0476C2.38095 46.02 3.97993 47.619 5.95238 47.619H22.619V50H5.95238C2.66498 50 0 47.335 0 44.0476V5.95238Z"
        fill="#F11E1E" />
    <path fill-rule="evenodd" clip-rule="evenodd"
        d="M16.6667 1.19048C16.6667 0.533 17.1997 0 17.8571 0H32.1429C32.8002 0 33.3333 0.533 33.3333 1.19048V17.8571C33.3333 18.2398 33.1493 18.5992 32.8391 18.8229C32.5286 19.0467 32.1295 19.1075 31.7664 18.9865L25 16.7311L18.2336 18.9865C17.8706 19.1075 17.4715 19.0467 17.1611 18.8229C16.8506 18.5992 16.6667 18.2398 16.6667 17.8571V1.19048ZM19.0476 2.38095V16.2055L24.6236 14.3468C24.8679 14.2654 25.1321 14.2654 25.3764 14.3468L30.9524 16.2055V2.38095H19.0476Z"
        fill="#F11E1E" />
    <path fill-rule="evenodd" clip-rule="evenodd"
        d="M36.9048 26.1905C30.9874 26.1905 26.1905 30.9874 26.1905 36.9048C26.1905 42.8221 30.9874 47.619 36.9048 47.619C42.8221 47.619 47.6191 42.8221 47.6191 36.9048C47.6191 30.9874 42.8221 26.1905 36.9048 26.1905ZM23.8095 36.9048C23.8095 29.6724 29.6724 23.8095 36.9048 23.8095C44.1371 23.8095 50 29.6724 50 36.9048C50 44.1371 44.1371 50 36.9048 50C29.6724 50 23.8095 44.1371 23.8095 36.9048Z"
        fill="#F11E1E" />
    <path fill-rule="evenodd" clip-rule="evenodd"
        d="M40.2724 41.9555L31.8545 33.5376L33.5381 31.8541L41.956 40.2719L40.2724 41.9555Z"
        fill="#F11E1E" />
    <path fill-rule="evenodd" clip-rule="evenodd"
        d="M41.956 33.5376L33.5379 41.9555L31.8543 40.2719L40.2724 31.8541L41.956 33.5376Z"
        fill="#F11E1E" />
</svg>
