<svg width="14" height="3" viewBox="0 0 14 3" fill="none" xmlns="http://www.w3.org/2000/svg">
    <path
        d="M2.36023 2.99519C1.99547 2.99395 1.62837 3.01628 1.26828 2.9741C0.518872 2.886 -0.0259363 2.21351 0.000953395 1.45789C0.0301814 0.660083 0.611231 0.0421861 1.3922 0.0310192C2.61627 0.0136486 3.84151 0.0235745 5.06674 0.0235745H5.57765L8.3999 0C8.59748 0.0086853 8.75181 0.0223337 8.9073 0.0223337C10.0881 0.0248152 11.2689 0.0198527 12.4509 0.0248157C13.3944 0.028538 14.0035 0.617897 14 1.51124C13.9953 2.39466 13.3745 2.99022 12.4345 2.99395C11.2678 3.00015 10.101 2.99643 8.93419 2.99643H8.3999H5.59986C4.48218 2.99643 3.42179 2.99767 2.36023 2.99519Z"
        fill="#909090" />
</svg>
