<svg width="14" height="14" viewBox="0 0 14 14" fill="none" xmlns="http://www.w3.org/2000/svg">
    <path
        d="M2.35997 8.40104C1.99525 8.39987 1.62818 8.42091 1.26814 8.38117C0.518815 8.29816 -0.0259335 7.66453 0.000953289 6.95258C0.030178 6.20087 0.611163 5.61868 1.39205 5.60816C2.61598 5.5918 3.84108 5.60115 5.06618 5.60115H5.57703C5.58521 5.40475 5.59807 5.24926 5.59807 5.09495L5.60275 1.46386C5.61093 0.701632 6.0832 0.126456 6.74952 0.0200719C7.44858 -0.0909885 8.08802 0.265574 8.31246 0.922584C8.38143 1.12366 8.39429 1.35163 8.39546 1.56673L8.39897 5.06572V5.57894C8.59653 5.58712 8.75083 5.59998 8.90631 5.59998C10.087 5.60232 11.2677 5.59764 12.4495 5.60232C13.3929 5.60582 14.0019 6.16113 13.9984 7.00285C13.9937 7.83522 13.373 8.39636 12.4331 8.39987C11.2665 8.40571 10.0998 8.40221 8.9332 8.40221H8.39897L8.39663 12.4939C8.39196 13.366 7.82265 13.9821 7.02891 13.9997C6.23867 14.0172 5.60976 13.3695 5.60158 12.4951L5.59924 8.40221C4.48168 8.40221 3.42141 8.40338 2.35997 8.40104Z"
        fill="#909090" />
</svg>
