<svg width="20" height="20" viewBox="0 0 20 20" fill="none" xmlns="http://www.w3.org/2000/svg">
    <path
        d="M10 20C7.36364 20 4.81818 19 2.90909 17.0909C1 15.1818 0 12.6364 0 10C0 7.36364 1 4.81818 2.90909 2.90909C4.81818 1 7.36364 0 10 0C12.6364 0 15.1818 1 17.0909 2.90909C19 4.81818 20 7.36364 20 10C20 12.6364 19 15.1818 17.0909 17.0909C15.1818 19 12.6364 20 10 20ZM10 1.81818C7.81818 1.81818 5.72727 2.63636 4.18182 4.18182C2.63636 5.72727 1.81818 7.81818 1.81818 10C1.81818 12.1818 2.63636 14.2727 4.18182 15.8182C5.72727 17.3636 7.81818 18.1818 10 18.1818C12.1818 18.1818 14.2727 17.3636 15.8182 15.8182C17.3636 14.2727 18.1818 12.1818 18.1818 10C18.1818 7.81818 17.3636 5.72727 15.8182 4.18182C14.2727 2.63636 12.1818 1.81818 10 1.81818Z"
        fill="#1A1A1A" />
    <path fill-rule="evenodd" clip-rule="evenodd"
        d="M10 4.09091C10.6364 4.09091 11.1818 4.63636 11.1818 5.27273C11.1818 5.90909 10.6364 6.36364 10 6.36364C9.36365 6.36364 8.81819 5.81818 8.81819 5.18182C8.81819 4.54545 9.36365 4.09091 10 4.09091Z"
        fill="#1A1A1A" />
    <path
        d="M10.2732 15.4543C9.72775 15.4543 9.36412 15.0907 9.36412 14.5452V9.09067C8.81866 9.09067 8.45502 8.72704 8.45502 8.18158C8.45502 7.63613 8.81866 7.27249 9.36412 7.27249H10.2732C10.8187 7.27249 11.1823 7.63613 11.1823 8.18158V14.5452C11.1823 15.0907 10.7278 15.4543 10.2732 15.4543Z"
        fill="#1A1A1A" />
    <path
        d="M11.8179 15.4547H8.63607C8.09061 15.4547 7.72697 15.091 7.72697 14.5456C7.72697 14.0001 8.09061 13.6365 8.63607 13.6365H11.8179C12.3633 13.6365 12.727 14.0001 12.727 14.5456C12.727 15.091 12.3633 15.4547 11.8179 15.4547Z"
        fill="#1A1A1A" />
</svg>
