<svg width="68" height="70" viewBox="0 0 68 70" fill="none" xmlns="http://www.w3.org/2000/svg">
    <path
        d="M66.8821 57.6868L58.8552 43.846C60.7809 39.7756 61.7967 35.277 61.7967 30.7617C61.7967 13.7997 47.9357 0 30.8984 0C13.861 0 0 13.7997 0 30.7617C0 44.6895 9.43829 56.8174 22.7515 60.4347C22.4346 62.2809 22.768 64.1971 23.7529 65.8956C25.2434 68.4656 27.9129 70 30.8937 70H59.7417C62.7225 70 65.3919 68.4656 66.8823 65.8956C68.3726 63.3255 68.3726 60.2567 66.8821 57.6868ZM52.458 32.8152C52.4564 32.8125 57.597 32.8125 57.597 32.8125C57.427 35.0585 56.9789 37.2459 56.2519 39.357L52.458 32.8152ZM25.5416 54.6031C23.8296 52.7439 22.2971 50.0469 21.1169 46.7746C19.6305 42.6527 18.7626 37.8618 18.5775 32.8126H28.8385V48.9181L25.5416 54.6031ZM32.9583 28.7109V4.5176C35.2425 5.43129 37.4575 7.82332 39.2471 11.3866C41.5911 16.0539 42.9807 22.1432 43.2205 28.7109H32.9583ZM28.8385 4.5176V28.7109H18.5764C18.8161 22.1432 20.2056 16.0539 22.5498 11.3866C24.3393 7.82332 26.5542 5.43129 28.8385 4.5176ZM32.9583 32.8125H38.1787C38.1771 32.8152 32.9583 41.8142 32.9583 41.8142V32.8125ZM57.5985 28.7109H47.3419C47.0248 19.3017 44.5388 11.1669 40.7801 5.98322C50.0615 9.66506 56.8048 18.3723 57.5985 28.7109ZM21.0168 5.98322C17.2582 11.1669 14.772 19.3017 14.4549 28.7109H4.19833C4.99194 18.3723 11.7353 9.66506 21.0168 5.98322ZM4.20053 32.8125H14.4565C14.6457 38.3359 15.5968 43.6054 17.2395 48.1604C18.276 51.0344 19.5481 53.5166 21.0066 55.5368C11.6091 51.8159 4.98919 43.0123 4.20053 32.8125ZM63.3143 63.8448C62.5687 65.1308 61.233 65.8984 59.7415 65.8984H30.8937C29.4023 65.8984 28.0667 65.1308 27.3209 63.8448C26.5752 62.5588 26.5752 61.0235 27.3209 59.7375L41.7448 34.866C42.4906 33.58 43.8261 32.8124 45.3176 32.8124C46.809 32.8124 48.1446 33.58 48.8903 34.866L63.3143 59.7376C64.0601 61.0235 64.0601 62.5589 63.3143 63.8448Z"
        fill="#013765" />
    <path d="M43.2577 40.4655H47.3775V53.5905H43.2577V40.4655Z" fill="#013765" />
    <path d="M43.2577 57.692H47.3775V61.7936H43.2577V57.692Z" fill="#013765" />
</svg>
