<svg width="14" height="11" viewBox="0 0 14 11" fill="none" xmlns="http://www.w3.org/2000/svg">
    <path
        d="M9.82325 4.54912C11.1104 4.54912 12.1572 3.52876 12.1572 2.27456C12.1572 1.02035 11.1104 0 9.82325 0C8.53614 0 7.48877 1.02035 7.48877 2.27456C7.48877 3.52876 8.53614 4.54912 9.82325 4.54912ZM11.1572 2.27456C11.1572 2.99135 10.5586 3.57468 9.82325 3.57468C9.08741 3.57468 8.48877 2.99135 8.48877 2.27456C8.48877 1.55777 9.08741 0.974437 9.82325 0.974437C10.5586 0.974437 11.1572 1.55777 11.1572 2.27456Z"
        fill="#FE6B01" />
    <path
        d="M9.82519 5.27994C9.35449 5.27994 8.90429 5.35345 8.48681 5.49833C8.22705 5.5885 8.09131 5.86732 8.18359 6.12068C8.26831 6.35201 8.51339 6.47343 8.75424 6.42573C8.77716 6.42118 8.80005 6.424 8.82275 6.41615C9.13183 6.30886 9.46924 6.25438 9.82519 6.25438C10.6748 6.25438 11.4727 6.57578 12.0713 7.15911C12.6699 7.74268 13 8.52013 13 9.34826C13 9.5293 12.9277 9.69917 12.7964 9.82739C12.665 9.95514 12.4927 10.0256 12.3101 10.0256H9.62012C9.58493 10.0256 9.55408 10.0384 9.52093 10.0451C9.29391 10.0912 9.12012 10.278 9.12012 10.5128C9.12012 10.7818 9.34374 11 9.62012 11H12.3101C12.7598 11 13.1836 10.828 13.5034 10.5163C13.8237 10.2045 14 9.7898 14 9.34826C14 8.25987 13.5659 7.23786 12.7783 6.47015C11.9907 5.70269 10.9419 5.27994 9.82519 5.27994Z"
        fill="#FE6B01" />
    <path
        d="M4.17676 4.54912C5.46387 4.54912 6.51123 3.52876 6.51123 2.27456C6.51123 1.02035 5.46387 0 4.17676 0C2.88965 0 1.84277 1.02035 1.84277 2.27456C1.84277 3.52876 2.88965 4.54912 4.17676 4.54912ZM4.17676 0.974437C4.9126 0.974437 5.51123 1.55777 5.51123 2.27456C5.51123 2.99135 4.9126 3.57468 4.17676 3.57468C3.44141 3.57468 2.84277 2.99135 2.84277 2.27456C2.84277 1.55777 3.44141 0.974437 4.17676 0.974437Z"
        fill="#FE6B01" />
    <path
        d="M1.69141 10.9983H6.6626C7.59522 10.9983 8.35401 10.2589 8.35401 9.35017C8.35401 7.10582 6.47998 5.27994 4.17676 5.27994C1.87354 5.27994 0 7.10582 0 9.35017C0 10.2589 0.758789 10.9983 1.69141 10.9983ZM4.17676 6.25438C5.92871 6.25438 7.35401 7.64324 7.35401 9.35017C7.35401 9.72177 7.04395 10.0239 6.6626 10.0239H1.69141C1.31006 10.0239 1 9.72177 1 9.35017C1 7.64324 2.42529 6.25438 4.17676 6.25438Z"
        fill="#FE6B01" />
</svg>
