<svg width="11" height="14" viewBox="0 0 11 14" fill="none" xmlns="http://www.w3.org/2000/svg">
    <path
        d="M5.50009 14C8.53476 14.0026 10.9972 11.7275 11 8.91831C11.0015 7.37128 10.2425 5.90768 8.93734 4.94139V3.18185C8.93734 1.42454 7.39844 0 5.50009 0C3.60174 0 2.06287 1.42454 2.06287 3.18182V4.94136C-0.307019 6.696 -0.691579 9.89684 1.20392 12.0906C2.24778 13.2988 3.82887 14.0014 5.50009 14ZM3.43776 3.18182C3.43776 2.12746 4.36109 1.27272 5.50012 1.27272C6.63915 1.27272 7.56248 2.12743 7.56248 3.18182V4.19301C6.24057 3.69329 4.7597 3.69329 3.43779 4.19301L3.43776 3.18182ZM5.50009 5.0909C7.77809 5.0909 9.62478 6.80036 9.62478 8.90907C9.62478 11.0178 7.77809 12.7273 5.50009 12.7273C3.22209 12.7273 1.3754 11.0178 1.3754 8.90907C1.37769 6.80124 3.22304 5.09302 5.50009 5.0909Z"
        fill="#FE6B01" />
    <path
        d="M4.81268 9.36929V10.8183C4.81268 11.1698 5.12045 11.4547 5.50013 11.4547C5.8798 11.4547 6.18757 11.1697 6.18757 10.8183V9.36929C6.84518 9.01783 7.0705 8.23946 6.69082 7.63072C6.31114 7.02198 5.47029 6.81341 4.81268 7.16487C4.15508 7.51633 3.92976 8.29473 4.30944 8.90344C4.43012 9.09693 4.60368 9.2576 4.81268 9.36929Z"
        fill="#FE6B01" />
</svg>
