<svg width="64" height="46" viewBox="0 0 64 46" fill="none" xmlns="http://www.w3.org/2000/svg">
    <path fill-rule="evenodd" clip-rule="evenodd"
        d="M31.9999 3.66211C30.6902 3.66211 29.6284 4.72396 29.6284 6.03381C29.6284 7.3436 30.6902 8.40544 32 8.40544C33.3099 8.40544 34.3716 7.34361 34.3716 6.03381C34.3716 4.724 33.3098 3.66211 31.9999 3.66211ZM25.9662 6.03381C25.9662 2.70158 28.6676 0 31.9999 0C35.3324 0 38.0338 2.70154 38.0338 6.03381C38.0338 8.40508 36.6659 10.4569 34.6761 11.4431C37.7309 16.5164 42.6106 18.0464 47.1426 18.2338C49.0074 18.3108 50.7826 18.1544 52.2888 17.9223C51.592 16.9384 51.1825 15.7366 51.1825 14.4392C51.1825 11.107 53.8838 8.40542 57.2162 8.40542C60.5487 8.40542 63.25 11.107 63.25 14.4392C63.25 17.3498 61.1891 19.7792 58.4468 20.3475C54.6933 28.6362 53.7939 34.381 53.7939 37.9857C53.7939 39.8551 54.0356 41.1607 54.2544 41.9612C54.3641 42.3622 54.4688 42.6393 54.5364 42.7996C54.5702 42.8798 54.5949 42.931 54.6065 42.9542C54.609 42.9592 54.6109 42.9629 54.6121 42.9653C54.926 43.5272 54.9221 44.2137 54.6 44.7726C54.273 45.3398 53.6682 45.6893 53.0135 45.6893H10.9864C10.3318 45.6893 9.72692 45.3398 9.40001 44.7726C9.07789 44.2137 9.07393 43.5272 9.38783 42.9653C9.38907 42.9629 9.39097 42.9592 9.39349 42.9542C9.40504 42.931 9.42972 42.8798 9.46357 42.7996C9.5312 42.6393 9.63589 42.3622 9.74554 41.9611C9.96439 41.1607 10.2061 39.8551 10.2061 37.9857C10.2061 34.381 9.30673 28.6363 5.55327 20.3475C2.81097 19.7793 0.75 17.3499 0.75 14.4392C0.75 11.107 3.45131 8.40542 6.78369 8.40542C10.1162 8.40542 12.8175 11.107 12.8175 14.4392C12.8175 15.7366 12.408 16.9384 11.7112 17.9223C13.2174 18.1544 14.9926 18.3108 16.8574 18.2338C21.3894 18.0464 26.2691 16.5164 29.3239 11.4431C27.3342 10.4569 25.9662 8.40506 25.9662 6.03381ZM32 14.0656C28.104 19.9259 22.107 21.682 17.0087 21.8927C14.3352 22.0033 11.8626 21.6982 9.97131 21.3382C11.9989 26.2615 13.0552 30.3292 13.534 33.6217H50.466C50.9448 30.3292 52.0012 26.2615 54.0288 21.3382C52.1374 21.6982 49.6649 22.0033 46.9913 21.8927C41.893 21.682 35.896 19.9259 32 14.0656ZM50.1413 37.2838H13.8587C13.8651 37.5238 13.8682 37.7577 13.8682 37.9857C13.8682 39.6477 13.7047 40.9876 13.4919 42.0272H50.508C50.2952 40.9876 50.1318 39.6477 50.1318 37.9857C50.1318 37.7577 50.1349 37.5238 50.1413 37.2838ZM6.79429 16.8109C6.78737 16.8109 6.78046 16.8109 6.77355 16.8109C5.4685 16.8055 4.41211 15.7457 4.41211 14.4392C4.41211 13.1294 5.47398 12.0675 6.78369 12.0675C8.09356 12.0675 9.1554 13.1294 9.1554 14.4392C9.1554 15.7455 8.09928 16.8052 6.79429 16.8109ZM57.2264 16.8109C58.5316 16.8054 59.5879 15.7456 59.5879 14.4392C59.5879 13.1294 58.5261 12.0675 57.2162 12.0675C55.9065 12.0675 54.8446 13.1294 54.8446 14.4392C54.8446 15.7456 55.9008 16.8053 57.2057 16.8109C57.2126 16.8109 57.2195 16.8109 57.2264 16.8109Z"
        fill="#013765" />
</svg>
