<svg width="20" height="20" viewBox="0 0 20 20" fill="none" xmlns="http://www.w3.org/2000/svg">
    <rect width="20" height="20" rx="10" fill="#1A1A1A" fill-opacity="0.5" />
    <path
        d="M6.75836 13.9959C6.56223 14.0074 6.36933 13.9414 6.22036 13.8119C5.92655 13.5129 5.92655 13.03 6.22036 12.731L12.6538 6.22268C12.9594 5.93341 13.4389 5.94949 13.7248 6.25863C13.9834 6.53818 13.9985 6.96787 13.7601 7.26525L7.28878 13.8119C7.14173 13.9396 6.95193 14.0054 6.75836 13.9959Z"
        fill="white" />
    <path
        d="M13.1842 13.9959C12.9854 13.995 12.7949 13.9152 12.6538 13.7736L6.22033 7.26522C5.94813 6.94366 5.98514 6.45972 6.303 6.18433C6.5867 5.93856 7.00511 5.93856 7.28878 6.18433L13.7601 12.6926C14.0656 12.982 14.0814 13.4671 13.7954 13.7762C13.784 13.7885 13.7723 13.8004 13.7601 13.8119C13.6017 13.9513 13.3931 14.0179 13.1842 13.9959Z"
        fill="white" />
</svg>
