<svg width="434" height="518" viewBox="0 0 434 518" fill="none" xmlns="http://www.w3.org/2000/svg">
    <path
        d="M425.558 40C397.095 14.7579 367.526 3 332.547 3C290.547 3 252.084 20.0842 211.358 38.1895C169.853 57.0526 135.379 71.4842 101.242 71.4842C73.8105 71.4842 50.6737 62.2211 26.2105 41.4421C23.621 39.2947 20.5053 38.1579 17.1895 38.1579C15.2105 38.1579 13.2526 38.5579 11.3684 39.3684C6.36842 41.5158 3 46.5263 3 51.8421V500.958C3 508.705 9.29474 515 17.0316 515C25.2632 515 30.2737 507.779 31.0737 500.547V335.432L43.2 341.389C61.0526 350.147 80 354.421 101.137 354.432C140.642 353.368 180.074 336.916 218.211 321L222.516 319.211C263.989 300.358 298.432 285.947 332.547 285.947C359.979 285.947 383.116 295.211 407.579 315.989C410.168 318.137 413.284 319.274 416.6 319.274C418.579 319.274 420.537 318.874 422.421 318.063C427.421 315.916 430.789 310.905 430.789 305.589V50.7158C430.789 47.0737 429.074 43.5684 425.558 40ZM403.842 278.8L391.653 272.705C372.947 263.347 354.168 259 332.547 259C290.547 259 252.084 276.084 211.358 294.189C169.853 313.053 135.379 327.484 101.242 327.484C77.2316 327.484 55.3789 319.863 34.4421 304.179L31.0737 301.653V80.4211L43.2 86.3579C61.5789 95.3684 80.021 99.5579 101.242 99.5579C143.242 99.5579 181.705 82.4632 222.432 64.3684C263.937 45.4947 298.411 31.0632 332.547 31.0632C357.011 31.0632 379.253 38.9789 400.537 55.2526L403.842 57.7789V278.8Z"
        fill="#013765" />
    <path fill-rule="evenodd" clip-rule="evenodd"
        d="M210.356 35.3516C250.887 17.3332 289.877 0 332.547 0C368.326 0 398.588 12.0725 427.548 37.7555L427.624 37.8225L427.695 37.8945C431.549 41.8067 433.789 46.0256 433.789 50.7158V305.589C433.789 312.146 429.669 318.215 423.605 320.82C421.351 321.789 418.99 322.274 416.6 322.274C412.572 322.274 408.781 320.884 405.664 318.299L405.65 318.287L405.637 318.276C381.619 297.875 359.15 288.947 332.547 288.947C299.186 288.947 265.329 303.045 223.757 321.942L223.713 321.962L219.362 323.77L219.101 323.879C181.163 339.712 141.291 356.352 101.218 357.43L101.176 357.432L101.135 357.432C79.5691 357.421 60.1667 353.054 41.8787 344.083L41.8771 344.082L34.0737 340.248V500.713L34.0555 500.877C33.1623 508.951 27.389 518 17.0316 518C7.63642 518 0 510.361 0 500.958V51.8421C0 45.2866 4.12009 39.2172 10.1829 36.6126M210.356 35.3516L210.139 35.4482L210.356 35.3516ZM212.588 40.9259C253.427 22.7703 291.298 6 332.547 6C366.695 6 395.548 17.4222 423.49 42.176C426.615 45.3708 427.789 48.1407 427.789 50.7158V305.589C427.789 309.665 425.173 313.616 421.237 315.307L421.236 315.307C419.722 315.958 418.167 316.274 416.6 316.274C414.002 316.274 411.566 315.393 409.507 313.691C384.604 292.542 360.803 282.947 332.547 282.947C297.69 282.947 262.676 297.661 221.319 316.459L217.055 318.231C178.812 334.192 139.927 350.376 101.097 351.432C80.4061 351.416 61.9268 347.235 44.5213 338.696L28.0737 330.615V500.375C27.3149 506.696 23.087 512 17.0316 512C10.9531 512 6 507.05 6 500.958V51.8421C6 47.7666 8.61602 43.8155 12.5523 42.125L12.5539 42.1243C14.0675 41.4731 15.6224 41.1579 17.1895 41.1579C19.7872 41.1579 22.2239 42.0382 24.2827 43.7408C49.1859 64.8894 72.9867 74.4842 101.242 74.4842C136.13 74.4842 171.186 59.7418 212.588 40.9259ZM332.547 34.0632C299.165 34.0632 265.277 48.1811 223.673 67.0993L223.662 67.1047L223.301 67.2647C182.819 85.2514 143.867 102.558 101.242 102.558C79.5819 102.558 60.6863 98.2717 41.8809 89.0523L41.8794 89.0516L34.0737 85.23V300.153L36.2408 301.778L36.2421 301.779C56.7084 317.11 77.9391 324.484 101.242 324.484C134.625 324.484 168.513 310.366 210.117 291.458L210.128 291.453L210.139 291.448L210.356 291.352C250.887 273.333 289.877 256 332.547 256C354.617 256 373.857 260.448 392.994 270.022L400.842 273.946V59.2619L398.715 57.6361C377.901 41.7219 356.288 34.0632 332.547 34.0632ZM221.202 61.6319C262.604 42.8055 297.66 28.0632 332.547 28.0632C357.733 28.0632 380.605 36.2362 402.359 52.8694L406.842 56.296V283.654L390.311 275.389C372.038 266.247 353.72 262 332.547 262C291.297 262 253.426 278.771 212.586 296.927C171.185 315.742 136.129 330.484 101.242 330.484C76.5245 330.484 54.0505 322.616 32.6435 306.58L32.6421 306.579L28.0737 303.153V75.6121L44.5191 83.6635L44.5206 83.6642C62.4726 92.4654 80.4608 96.5579 101.242 96.5579C142.491 96.5579 180.361 79.7775 221.202 61.6319ZM10.1846 36.6119C12.4389 35.6424 14.7993 35.1579 17.1895 35.1579C21.218 35.1579 25.0081 36.5477 28.1255 39.1328L28.1392 39.1441L28.1527 39.1556C52.1706 59.5564 74.6398 68.4842 101.242 68.4842C134.625 68.4842 168.513 54.3662 210.117 35.4583L210.128 35.4532L210.139 35.4482"
        fill="#013765" />
</svg>
