<svg width="30" height="30" viewBox="0 0 30 30" fill="none" xmlns="http://www.w3.org/2000/svg">
    <path
        d="M7.79121 11.8342H9.98379V10.3845H13.9037V19.7801H12.4043V21.972H17.5957V19.7801H16.0963V10.3845H20.0162V11.8342H22.2088V8.19255H7.79121V11.8342Z"
        fill="#FE6B01" />
    <path
        d="M30 3.56775V3.55427C30 3.06677 29.9004 2.59744 29.7199 2.17205C29.4492 1.5322 28.9992 0.991382 28.432 0.607593C28.1484 0.415991 27.835 0.263647 27.4998 0.159351C27.1646 0.0550537 26.8084 -0.000610352 26.4428 -0.000610352H26.4416C25.9535 -0.000610352 25.4836 0.0989991 25.057 0.279468C24.4172 0.550171 23.8764 1.00017 23.4926 1.56736C23.3871 1.7238 23.2939 1.88962 23.2143 2.06189H6.78633C6.51211 1.47009 6.08203 0.96853 5.54766 0.607593C5.26406 0.415991 4.95059 0.263647 4.61543 0.159351C4.28027 0.0550537 3.92461 -0.000610352 3.5584 -0.000610352H3.55723C3.06914 -0.000610352 2.59922 0.0989991 2.17266 0.279468C1.53281 0.550171 0.991992 1.00017 0.608203 1.56736C0.416602 1.85095 0.264258 2.16443 0.159961 2.49958C0.05625 2.83416 0 3.18982 0 3.55486V3.55779C0 3.55896 0 3.56072 0 3.56248C0.000585937 4.0488 0.100195 4.51697 0.280078 4.94177C0.550781 5.58162 1.00078 6.12244 1.56797 6.50623C1.72441 6.61169 1.88965 6.70486 2.0625 6.78455V23.2125C1.4707 23.4867 0.969141 23.9168 0.608203 24.4511C0.416602 24.7347 0.264258 25.0482 0.159961 25.3834C0.05625 25.7191 0 26.0742 0 26.4398V26.4428C0 26.4439 0 26.4451 0 26.4474C0.000585937 26.9338 0.100195 27.4019 0.280078 27.8267C0.550781 28.4666 1.00078 29.0074 1.56797 29.3912C1.85156 29.5828 2.16504 29.7351 2.5002 29.8394C2.83184 29.9426 3.18516 29.9982 3.54727 29.9994H3.55898C4.04648 29.9994 4.51641 29.8998 4.94238 29.7193C5.58223 29.4486 6.12305 28.9986 6.50684 28.4314C6.6123 28.275 6.70547 28.1092 6.78516 27.9369H23.2131C23.4873 28.5287 23.9174 29.0302 24.4518 29.3912C24.7354 29.5828 25.0488 29.7351 25.384 29.8394C25.7162 29.9426 26.0689 29.9982 26.4316 29.9994H26.4434C26.9309 29.9994 27.4008 29.8998 27.8268 29.7193C28.4666 29.4486 29.0074 28.9986 29.3912 28.4314C29.5828 28.1478 29.7352 27.8344 29.8395 27.4992C29.9426 27.1681 29.9982 26.816 29.9994 26.4545V26.4381C29.9994 25.9506 29.8998 25.4812 29.7193 25.0558C29.4486 24.416 28.9986 23.8752 28.4314 23.4914C28.275 23.3859 28.1086 23.2927 27.9363 23.2131V6.7863C28.5281 6.51209 29.0297 6.08201 29.3906 5.54763C29.5822 5.26404 29.7346 4.95056 29.8389 4.61541C29.942 4.28435 29.9977 3.9322 29.9988 3.57068V3.56775H30ZM27.7008 26.9736C27.5982 27.2168 27.423 27.4277 27.2051 27.5754C27.0955 27.6492 26.976 27.7072 26.8488 27.747C26.7211 27.7869 26.5863 27.808 26.4422 27.808C26.25 27.808 26.0742 27.7699 25.9107 27.7013C25.6676 27.5988 25.4566 27.4236 25.309 27.2056C25.2352 27.0961 25.1771 26.9765 25.1373 26.8494C25.0975 26.7217 25.0764 26.5869 25.0764 26.4428C25.0764 26.2511 25.1145 26.0748 25.183 25.9113C25.2855 25.6681 25.4607 25.4572 25.6787 25.3095C25.7883 25.2357 25.9078 25.1777 26.035 25.1379C26.1627 25.098 26.2975 25.0769 26.4416 25.0769C26.6338 25.0769 26.8096 25.115 26.973 25.1836C27.2162 25.2861 27.4271 25.4613 27.5748 25.6793C27.6486 25.7888 27.7066 25.9084 27.7465 26.0355C27.7863 26.1633 27.8074 26.298 27.8074 26.4422C27.8074 26.6338 27.7693 26.8101 27.7008 26.9736ZM27.7008 4.08923C27.5982 4.3324 27.423 4.54334 27.2051 4.69099C27.0961 4.76482 26.9766 4.82283 26.8488 4.86209C26.7211 4.90193 26.5863 4.92302 26.4422 4.92302C26.25 4.92302 26.0742 4.88494 25.9107 4.81638C25.6676 4.71384 25.4566 4.53865 25.309 4.32068C25.2352 4.21111 25.1771 4.09158 25.1379 3.96443C25.098 3.83669 25.077 3.70193 25.077 3.55779C25.077 3.36619 25.115 3.18982 25.1836 3.02634C25.2861 2.78318 25.4613 2.57224 25.6793 2.42458C25.7883 2.35076 25.9078 2.29275 26.0355 2.25349C26.1633 2.21365 26.298 2.19255 26.4422 2.19255C26.6344 2.19255 26.8102 2.23064 26.9736 2.29919C27.2168 2.40173 27.4283 2.57693 27.5754 2.7949C27.6492 2.90388 27.7072 3.024 27.7465 3.15115C27.7863 3.27888 27.8074 3.41365 27.8074 3.55779C27.8074 3.74939 27.7693 3.92576 27.7008 4.08923ZM3.96387 27.7465C3.83613 27.7863 3.70137 27.8074 3.55723 27.8074C3.36504 27.8074 3.18926 27.7693 3.02578 27.7008C2.78262 27.5982 2.57168 27.423 2.42402 27.2051C2.3502 27.0955 2.29219 26.976 2.25234 26.8488C2.2125 26.7211 2.19141 26.5863 2.19141 26.4422C2.19141 26.25 2.22949 26.0742 2.29805 25.9107C2.40059 25.6676 2.57578 25.4566 2.79375 25.309C2.90332 25.2351 3.02285 25.1771 3.15 25.1373C3.27773 25.0974 3.4125 25.0763 3.55664 25.0763C3.74883 25.0763 3.92461 25.1144 4.08809 25.183C4.33125 25.2855 4.54219 25.4607 4.68984 25.6787C4.76367 25.7883 4.82168 25.9078 4.86152 26.0349C4.90137 26.1627 4.92246 26.2974 4.92246 26.4416C4.92246 26.6338 4.88438 26.8095 4.81582 26.973C4.71328 27.2162 4.53809 27.4277 4.32012 27.5748C4.21055 27.6486 4.09102 27.7066 3.96387 27.7465ZM2.79492 2.42517C2.90391 2.35134 3.02344 2.29334 3.15117 2.25408C3.27891 2.21423 3.41367 2.19314 3.55781 2.19314C3.75 2.19314 3.92578 2.23123 4.08926 2.29978C4.33242 2.40232 4.54394 2.57751 4.69102 2.79548C4.76484 2.90447 4.82285 3.02458 4.86211 3.15173C4.90195 3.27947 4.92305 3.41423 4.92305 3.55837C4.92305 3.75056 4.88496 3.92634 4.81641 4.08982C4.71387 4.33298 4.53867 4.54392 4.3207 4.69158C4.21172 4.76541 4.0916 4.82341 3.96387 4.86267C3.83613 4.90251 3.70137 4.92361 3.55723 4.92361C3.36504 4.92361 3.18926 4.88552 3.02578 4.81697C2.78262 4.71443 2.57168 4.53923 2.42402 4.32126C2.3502 4.21228 2.29219 4.09216 2.25293 3.96501C2.21309 3.83728 2.19199 3.70251 2.19199 3.55837C2.19199 3.36619 2.23008 3.19041 2.29863 3.02693C2.40117 2.78376 2.57695 2.57283 2.79492 2.42517ZM23.4926 24.4529C23.301 24.7365 23.1486 25.05 23.0443 25.3851C23.0074 25.5029 22.9781 25.6236 22.9535 25.7455H7.0459C6.99844 25.507 6.92813 25.2767 6.83555 25.0576C6.56484 24.4177 6.11484 23.8769 5.54766 23.4931C5.26406 23.3015 4.95059 23.1492 4.61543 23.0449C4.49766 23.008 4.37695 22.9787 4.25508 22.9541V7.04587C4.49355 6.99841 4.72383 6.9281 4.94297 6.83552C5.58281 6.56482 6.12363 6.11482 6.50742 5.54763C6.69902 5.26404 6.85137 4.95056 6.95566 4.61541C6.99258 4.49763 7.02188 4.37693 7.04648 4.25505H22.9547C23.0021 4.49353 23.0725 4.7238 23.165 4.94294C23.4357 5.58279 23.8857 6.12361 24.4529 6.5074C24.7365 6.699 25.05 6.85134 25.3852 6.95564C25.5029 6.99255 25.6236 7.02185 25.7455 7.04646V22.9547C25.507 23.0021 25.2768 23.0724 25.0576 23.165C24.4178 23.4357 23.8764 23.8857 23.4926 24.4529Z"
        fill="#FE6B01" />
</svg>
