<svg width="26" height="30" viewBox="0 0 26 30" fill="none" xmlns="http://www.w3.org/2000/svg">
    <path
        d="M26 11.124H24.0895V0H8.51276L1.91047 6.69434V11.124H0V25.5615H1.91047V30H24.0895V25.5615H26V11.124ZM8.23249 2.77031V6.40664H4.64616L8.23249 2.77031ZM3.64411 8.16445H9.96613V1.75781H22.3559V11.124H3.64411V8.16387V8.16445ZM22.3559 28.2428H3.64411V25.5621H22.3559V28.2428ZM24.2664 23.8043H1.73364V12.8824H24.2664V23.8043Z"
        fill="#FE6B01" />
    <path
        d="M5.5621 19.7068H6.58668C7.98804 19.7068 9.1282 18.5508 9.1282 17.1299C9.1282 15.709 7.98804 14.5529 6.58668 14.5529H3.82846V22.224H5.5621V19.7068ZM5.5621 16.3107H6.58668C7.03223 16.3107 7.39456 16.6781 7.39456 17.1299C7.39456 17.5816 7.03223 17.949 6.58668 17.949H5.5621V16.3107Z"
        fill="#FE6B01" />
    <path
        d="M19.0539 19.7068H21.4417V17.949H19.0539V16.3107H22.0583V14.5529H17.3202V22.224H19.0539V19.7068Z"
        fill="#FE6B01" />
    <path
        d="M15.7854 19.6178V17.1352C15.7854 15.7113 14.6429 14.5535 13.2392 14.5535H10.4856V22.1994H13.2392C14.6435 22.1994 15.7854 21.041 15.7854 19.6178ZM12.2193 16.3113H13.2392C13.6871 16.3113 14.0517 16.6811 14.0517 17.1352V19.6178C14.0517 20.0719 13.6871 20.4416 13.2392 20.4416H12.2193V16.3113Z"
        fill="#FE6B01" />
</svg>
