<svg width="501" height="500" viewBox="0 0 501 500" fill="none" xmlns="http://www.w3.org/2000/svg">
    <path
        d="M328.537 487.117C233.557 519.814 111.108 491.402 42.5076 388.987C-25.0521 288.13 -10.7476 155.865 75.9606 70.7106C159.856 -11.6957 294.083 -23.5304 390.341 42.8847C494.058 114.448 516.228 234.372 489.818 319.596C488.491 317.691 487.778 316.114 486.599 315.063C478.575 307.97 470.71 300.669 462.24 294.151C459.05 291.701 458.287 289.737 458.961 286.086C462.923 264.609 463.141 243.013 460.041 221.427C452.116 166.271 426.647 120.698 383.278 85.9776C304.96 23.2726 197.637 22.9453 119.161 85.4419C72.4737 122.622 45.1922 171.667 40.9425 231.436C34.6125 320.429 71.0076 388.62 147.295 434.124C193.1 461.454 243.354 467.485 295.53 456.841C298.601 456.216 300.037 456.91 302.088 459.222C309.725 467.842 317.779 476.106 325.684 484.478C326.447 485.282 327.309 485.996 328.537 487.127V487.117Z"
        fill="#F11E1E" />
    <path
        d="M402.486 305.202C452.552 305.331 492.731 347.065 490.393 397.578C488.362 441.504 452.839 481.214 402.357 481.492C353.639 481.76 314.272 442.05 314.371 393.362C314.46 344.744 354.105 305.073 402.486 305.192V305.202ZM415.176 376.746C415.176 376.746 415.156 376.746 415.136 376.746C415.671 366.955 416.176 357.164 416.761 347.382C416.979 343.722 415.523 342.035 411.739 342.115C405.399 342.254 399.049 342.224 392.709 342.135C389.351 342.085 387.786 343.712 387.944 346.906C388.935 367.044 389.995 387.172 391.025 407.3C391.183 410.335 392.788 411.804 395.78 411.813C399.782 411.813 403.784 411.724 407.776 411.853C411.55 411.972 413.234 410.444 413.393 406.516C413.819 396.586 414.552 386.666 415.166 376.746H415.176ZM413.185 438.866C413.274 427.09 413.868 427.894 402.189 427.874C390.797 427.864 391.629 427.338 391.659 438.439C391.689 450.343 390.49 449.47 402.486 449.421C414.215 449.371 413.175 450.839 413.185 438.856V438.866Z"
        fill="#F11E1E" />
    <path
        d="M273.301 255.562C277.521 266.841 271.3 275.144 261.077 283.457C235.073 304.607 209.941 326.828 184.591 348.781C181.154 351.757 178.955 351.579 175.963 348.315C171.179 343.077 166.136 338.038 160.906 333.246C157.31 329.943 157.3 327.423 160.559 323.733C181.342 300.202 201.868 276.463 222.641 252.923C225.662 249.501 226.96 246.048 227.227 241.455C230.278 189.474 233.597 137.513 236.717 85.5411C236.955 81.6128 238.203 79.8272 242.314 79.9958C247.584 80.214 252.884 80.1942 258.154 79.9462C262.315 79.7478 264.118 81.2656 264.306 85.5511C264.989 101.076 265.911 116.581 266.733 132.096C268.883 172.54 271.022 212.975 273.281 255.552L273.301 255.562Z"
        fill="#F11E1E" />
</svg>
