<svg width="30" height="30" viewBox="0 0 30 30" fill="none" xmlns="http://www.w3.org/2000/svg">
    <path fill-rule="evenodd" clip-rule="evenodd"
        d="M17.2611 13.9024C17.9567 14.3672 18.7745 14.6154 19.611 14.6154C20.7329 14.6154 21.8087 14.1696 22.602 13.3762C23.3952 12.5828 23.8409 11.5067 23.8409 10.3846C23.8409 9.54784 23.5928 8.72987 23.128 8.03412C22.6632 7.33838 22.0026 6.79611 21.2297 6.47589C20.4568 6.15567 19.6063 6.07189 18.7858 6.23514C17.9653 6.39838 17.2116 6.80132 16.6201 7.39301C16.0285 7.98469 15.6257 8.73854 15.4625 9.55923C15.2993 10.3799 15.383 11.2306 15.7032 12.0037C16.0233 12.7767 16.5655 13.4375 17.2611 13.9024ZM18.5429 8.78563C18.859 8.57432 19.2308 8.46153 19.611 8.46153C20.121 8.46153 20.61 8.66414 20.9706 9.02479C21.3311 9.38544 21.5337 9.87458 21.5337 10.3846C21.5337 10.765 21.4209 11.1368 21.2097 11.453C20.9984 11.7693 20.6981 12.0157 20.3468 12.1613C19.9955 12.3069 19.6089 12.3449 19.2359 12.2707C18.863 12.1965 18.5204 12.0134 18.2515 11.7444C17.9826 11.4755 17.7995 11.1328 17.7253 10.7598C17.6511 10.3867 17.6892 10.0001 17.8347 9.64868C17.9803 9.29729 18.2267 8.99694 18.5429 8.78563Z"
        fill="#FE6B01" />
    <path fill-rule="evenodd" clip-rule="evenodd"
        d="M25.9789 30H4.01449C2.94978 30 1.92868 29.577 1.17582 28.8239C0.422954 28.0709 0 27.0496 0 25.9846V4.01538C0 2.95044 0.422954 1.92911 1.17582 1.17608C1.92868 0.423048 2.94978 0 4.01449 0H25.9789C27.0436 0 28.0647 0.423048 28.8175 1.17608C29.5704 1.92911 29.9933 2.95044 29.9933 4.01538V22.8452C30.0022 22.9278 30.0022 23.011 29.9933 23.0933V25.9846C29.9933 27.0496 29.5704 28.0709 28.8175 28.8239C28.0647 29.577 27.0436 30 25.9789 30ZM27.6862 4.01538V20.5658L24.5638 18.0769C24.0259 17.6627 23.3661 17.4382 22.6873 17.4382C22.0084 17.4382 21.3487 17.6627 20.8108 18.0769L17.1808 20.7077C17.0415 20.8269 16.8642 20.8924 16.6809 20.8924C16.4976 20.8924 16.3203 20.8269 16.181 20.7077L12.4434 16.9692C11.8977 16.4267 11.1686 16.1083 10.3998 16.077C9.63105 16.0457 8.87845 16.3036 8.29047 16.8L2.30718 21.8495V4.01538C2.30718 3.56248 2.48706 3.12812 2.80724 2.80786C3.12742 2.48761 3.56169 2.30769 4.01449 2.30769H25.9789C26.4317 2.30769 26.8659 2.48761 27.1861 2.80786C27.5063 3.12812 27.6862 3.56248 27.6862 4.01538ZM23.1333 19.8769L27.6862 23.5312V25.9846C27.6862 26.4375 27.5063 26.8719 27.1861 27.1921C26.8659 27.5124 26.4317 27.6923 25.9789 27.6923H4.01449C3.56169 27.6923 3.12742 27.5124 2.80724 27.1921C2.48706 26.8719 2.30718 26.4375 2.30718 25.9846V24.8672L9.78245 18.6C9.92376 18.4724 10.1074 18.4018 10.2977 18.4018C10.4881 18.4018 10.6717 18.4724 10.813 18.6L14.5506 22.4154C15.075 22.9361 15.7692 23.2506 16.5063 23.3015C17.2435 23.3523 17.9743 23.1361 18.5651 22.6923L22.1951 19.8769C22.3296 19.7734 22.4945 19.7172 22.6642 19.7172C22.8339 19.7172 22.9989 19.7734 23.1333 19.8769Z"
        fill="#FE6B01" />
</svg>
