<svg width="336" height="512" viewBox="0 0 336 512" fill="none" xmlns="http://www.w3.org/2000/svg">
    <path
        d="M319.06 265.59C309.59 254.49 296.69 246.38 282 242.86C282.05 240.5 282.09 238.14 282.09 235.79C282.09 187.91 271.23 140.67 250.46 97.69C233.33 62.24 209.45 29.7 179.38 2.09995C176.42 -0.610049 171.91 -0.700049 168.85 1.88995L168.56 2.12995C136.6 29.22 111.01 61.73 92.4 97.47C69.15 142.1 56.79 191.77 56.5 242.27C41 245.35 27.34 253.51 17.35 264.94C6.56 277.27 0 293.49 0 311.16V398.6C0 403 3.57 406.56 7.96 406.56H18.24C35.11 406.56 51.09 402.55 65.22 395.43C75.77 390.11 85.29 383.06 93.41 374.65L114.47 403.32C115.97 405.36 118.36 406.57 120.89 406.57H214.96C217.49 406.57 219.88 405.36 221.38 403.32L242.44 374.65C250.58 383.08 260.12 390.14 270.69 395.46C284.8 402.56 300.76 406.57 317.61 406.56H327.89C329.99 406.56 332.04 405.71 333.52 404.23C335 402.75 335.85 400.7 335.85 398.6V311.16C335.85 293.8 329.52 277.84 319.07 265.59H319.06ZM173.78 18.69C196.75 40.78 215.66 65.97 230.28 93.18H112.92C128.82 65.69 149.21 40.47 173.78 18.69ZM104.33 109.11H238.22C256.57 148.72 266.17 191.97 266.17 235.78C266.17 267.2 261.25 298.9 251.1 329.77L248.83 336.66H87.03C77.19 306.21 72.41 275 72.41 244.09C72.41 197.15 83.41 150.89 104.33 109.11ZM58.05 381.2C46.08 387.23 32.59 390.63 18.24 390.63H15.92V311.16C15.92 297.45 20.97 284.99 29.33 275.42C36.47 267.25 46 261.27 56.82 258.52C58.11 286.83 63.21 315.25 72.34 343.04L73.68 347.12C73.94 347.9 74.34 348.69 74.83 349.35L83.8 361.57C76.52 369.59 67.81 376.3 58.05 381.22V381.2ZM210.93 390.63H124.92L102.81 360.53C102.73 358.24 101.66 355.99 99.7 354.49C99.01 353.96 98.27 353.57 97.49 353.3L96.97 352.6H238.86L238.23 353.46C237.52 353.73 236.84 354.1 236.2 354.59C234.3 356.05 233.25 358.2 233.12 360.41L210.92 390.63H210.93ZM319.92 390.63H317.6C303.28 390.63 289.8 387.24 277.84 381.23C268.06 376.31 259.33 369.59 252.04 361.56L261.01 349.34C261.49 348.68 261.9 347.89 262.16 347.11L266.23 334.74C274.4 309.88 279.34 284.49 281.22 259.12C291.35 262.16 300.24 268.06 306.95 275.92C315.05 285.43 319.92 297.68 319.92 311.15V390.62V390.63Z"
        fill="#FE6B01" />
    <path
        d="M212.68 206.12C210.5 200.75 207.23 195.71 202.89 191.37C198.55 187.03 193.51 183.76 188.14 181.58C182.77 179.4 177.07 178.32 171.37 178.32C165.67 178.32 159.97 179.41 154.6 181.58C149.23 183.76 144.19 187.03 139.85 191.37C135.51 195.7 132.24 200.75 130.06 206.12C127.88 211.49 126.8 217.19 126.8 222.89C126.8 228.59 127.89 234.29 130.06 239.66C132.24 245.03 135.51 250.07 139.85 254.41C144.19 258.75 149.23 262.02 154.6 264.2C159.97 266.38 165.67 267.46 171.37 267.46C177.07 267.46 182.77 266.37 188.14 264.2C193.51 262.02 198.55 258.75 202.89 254.41C207.23 250.07 210.5 245.03 212.68 239.66C214.86 234.29 215.94 228.59 215.94 222.89C215.94 217.19 214.85 211.49 212.68 206.12ZM197.92 233.67C196.52 237.11 194.44 240.33 191.63 243.14C188.82 245.95 185.6 248.04 182.16 249.43C178.72 250.83 175.05 251.53 171.38 251.53C167.71 251.53 164.04 250.83 160.6 249.43C157.16 248.03 153.94 245.95 151.13 243.14C148.32 240.33 146.23 237.11 144.84 233.67C143.44 230.23 142.74 226.56 142.74 222.89C142.74 219.22 143.44 215.55 144.84 212.11C146.24 208.67 148.32 205.45 151.13 202.64C153.94 199.83 157.16 197.74 160.6 196.35C164.04 194.95 167.71 194.25 171.38 194.25C175.05 194.25 178.72 194.95 182.16 196.35C185.6 197.75 188.82 199.83 191.63 202.64C194.44 205.45 196.53 208.67 197.92 212.11C199.32 215.55 200.02 219.22 200.02 222.89C200.02 226.56 199.32 230.23 197.92 233.67Z"
        fill="#FE6B01" />
    <path
        d="M170.32 440.29C165.92 440.29 162.36 443.86 162.36 448.25V504.03C162.36 508.43 165.93 511.99 170.32 511.99C174.72 511.99 178.28 508.42 178.28 504.03V448.25C178.28 443.85 174.71 440.29 170.32 440.29Z"
        fill="#FE6B01" />
    <path
        d="M120.66 440.29C116.26 440.29 112.7 443.86 112.7 448.25V504.03C112.7 508.43 116.26 511.99 120.66 511.99C125.06 511.99 128.62 508.42 128.62 504.03V448.25C128.62 443.85 125.06 440.29 120.66 440.29Z"
        fill="#FE6B01" />
    <path
        d="M219.97 440.29C215.57 440.29 212.01 443.86 212.01 448.25V504.03C212.01 508.43 215.58 511.99 219.97 511.99C224.36 511.99 227.93 508.42 227.93 504.03V448.25C227.93 443.85 224.36 440.29 219.97 440.29Z"
        fill="#FE6B01" />
</svg>
