<svg width="500" height="457" viewBox="0 0 500 457" fill="none" xmlns="http://www.w3.org/2000/svg">
    <path
        d="M500 374.961C498.517 381.427 497.588 388.087 495.473 394.333C482.137 433.788 449.725 456.929 408.015 456.968C338.265 457.019 268.515 456.98 198.765 456.98C163 456.98 127.222 457.032 91.4569 456.968C63.0178 456.916 38.7962 446.888 21.0233 424.405C-1.47 395.947 -6.71931 363.965 9.19628 331.183C22.5066 303.77 38.9381 277.855 54.1701 251.384C93.34 183.368 132.678 115.455 171.822 47.4262C186.099 22.6203 206.658 6.97794 235.007 1.44116C267.147 -4.84419 305.079 9.83023 322.31 37.6432C340.793 67.4696 357.959 98.109 375.526 128.49C411.897 191.37 448.062 254.352 484.523 317.18C492.378 330.706 497.846 344.877 499.987 360.338V374.987L500 374.961ZM249.362 416.687C302.022 416.687 354.683 416.661 407.357 416.7C422.331 416.713 435.538 412.454 445.972 401.277C461.578 384.563 463.848 362.055 451.944 341.418C407.641 264.574 363.312 187.756 318.957 110.938C309.451 94.4824 300.384 77.7301 290.118 61.765C279.839 45.7742 264.258 39.0113 245.363 40.7665C227.771 42.3927 215.557 52.0595 206.864 67.1598C165.463 139.112 123.881 210.961 82.3899 282.862C70.1372 304.106 57.4332 325.117 45.9672 346.787C37.3903 362.984 39.1057 379.582 49.1013 394.94C59.213 410.466 74.2258 416.726 92.3339 416.713C144.672 416.674 197.011 416.7 249.349 416.7L249.362 416.687Z"
        fill="#F11E1E" />
    <path
        d="M275.865 169.378C273.775 205.438 271.776 239.665 269.803 273.893C269.532 278.59 269.739 283.353 268.965 287.96C267.391 297.317 259.279 303.745 249.992 303.577C240.706 303.409 232.813 297.24 231.742 287.857C230.298 275.119 229.846 262.277 229.047 249.474C227.422 223.365 225.951 197.255 224.236 171.146C222.791 149.296 242.254 134.027 260.955 142.52C271.389 147.269 276.316 156.781 275.865 169.378Z"
        fill="#F11E1E" />
    <path
        d="M224.729 346.826C224.729 332.745 236.44 321.117 250.485 321.246C264.453 321.362 275.21 332.564 275.339 347.084C275.455 360.984 263.873 372.548 249.982 372.38C236.04 372.225 224.716 360.765 224.729 346.826Z"
        fill="#F11E1E" />
</svg>
