<svg width="44" height="41" viewBox="0 0 44 41" fill="none" xmlns="http://www.w3.org/2000/svg">
    <g clip-path="url(#clip0_161_3431)">
        <path
            d="M44.2228 21.6295V23.3036C44.2228 23.3036 44.2228 23.3776 44.2228 23.4073C44.0598 24.1036 43.9413 24.8147 43.7191 25.4961C42.5191 29.1258 39.1709 31.6147 35.3487 31.7036C34.1635 31.7332 32.9931 31.7036 31.7931 31.7036C31.5265 31.7036 31.3042 31.4813 31.3042 31.1999V28.5036C31.3042 28.2369 31.5265 28.0147 31.7931 27.9999C31.7931 27.9999 31.7931 27.9999 31.8079 27.9999C33.0524 27.985 34.2968 28.0443 35.5413 27.9406C38.1783 27.7036 40.4005 25.3332 40.5042 22.7406C40.6228 20.0295 38.6524 17.4961 36.0005 16.9924C35.5561 16.9036 35.1116 16.9036 34.6672 16.8887C34.3265 16.8887 33.9709 16.8887 33.6154 16.8887C33.3339 16.8887 33.1116 16.6665 33.1116 16.385C33.1116 15.9554 33.1116 15.5258 33.1116 15.111C33.0079 10.6073 30.9931 7.22948 27.0228 5.12578C20.4894 1.65911 12.2376 5.82207 11.082 13.1406C10.9191 14.1924 10.9487 15.2739 10.9042 16.3406C10.9042 16.3702 10.9042 16.385 10.9042 16.4147C10.9042 16.6813 10.682 16.8887 10.4154 16.8887C9.97091 16.8887 9.52646 16.8887 9.08202 16.8887C7.48202 16.8887 6.14869 17.511 5.08202 18.6665C3.52646 20.3406 3.02276 22.2961 3.92646 24.4295C4.8598 26.6665 6.60795 27.8961 9.0672 27.9999C10.1191 28.0443 11.1857 27.9999 12.2376 27.9999C12.5042 27.9999 12.7265 28.2221 12.7265 28.5036V31.6295C12.7265 31.6295 12.682 31.6739 12.6672 31.6739C10.5783 31.6295 8.47461 31.911 6.41535 31.3332C2.14869 30.1628 -0.740202 25.8517 -0.14761 21.4813C0.370909 17.585 2.44498 14.8887 6.22276 13.6591C6.97832 13.4073 7.24498 13.111 7.39313 12.3406C8.59313 6.11837 13.4524 1.40726 19.7339 0.414665C27.1116 -0.755705 34.0894 3.61467 36.2228 10.548C36.4746 11.3628 36.5931 12.2073 36.7561 13.0517C36.8005 13.2887 36.8746 13.3924 37.1116 13.4517C40.9191 14.3406 43.645 17.3924 44.1339 21.3036C44.1339 21.348 44.1635 21.4073 44.1783 21.4517C44.2079 21.511 44.2079 21.5702 44.2079 21.6295H44.2228Z"
            fill="#013765" />
        <path
            d="M15.1332 31.594C15.6042 31.097 16.1 30.5738 16.6206 30.0245C16.7818 29.8545 17.0421 29.8545 17.2032 30.0245C18.0212 30.8877 18.8517 31.7771 19.7317 32.6926C19.992 32.9673 20.4382 32.7711 20.4382 32.3787L20.4382 21.4447C20.4382 21.1962 20.6242 21 20.8473 21L23.1279 21C23.351 21 23.537 21.1962 23.537 21.4447L23.537 32.2872C23.537 32.6796 23.9832 32.8758 24.2435 32.6011C25.0863 31.7117 25.9168 30.8354 26.7348 29.9591C26.896 29.7891 27.1563 29.7891 27.3174 29.9591C27.8628 30.5346 28.3834 31.0839 28.8791 31.6202C29.0403 31.7902 29.0403 32.0648 28.8791 32.2349C26.8588 34.3668 24.8136 36.5248 22.8057 38.6567C22.3718 39.1144 21.6653 39.1144 21.2191 38.6567C19.1988 36.5248 17.1536 34.3537 15.1209 32.2087C14.9597 32.0387 14.9597 31.764 15.1209 31.594L15.1332 31.594Z"
            fill="#013765" />
    </g>
    <defs>
        <clipPath id="clip0_161_3431">
            <rect width="44" height="41" fill="white" />
        </clipPath>
    </defs>
</svg>
