<svg width="22" height="22" viewBox="0 0 22 22" fill="none" xmlns="http://www.w3.org/2000/svg">
    <g clip-path="url(#clip0_1294_2732)">
        <path fill-rule="evenodd" clip-rule="evenodd"
            d="M8.82052 1.51212C6.73275 1.51212 5.04044 3.20443 5.04044 5.2922C5.04044 7.37997 6.73275 9.07228 8.82052 9.07228C10.9083 9.07228 12.6006 7.37997 12.6006 5.2922C12.6006 3.20443 10.9083 1.51212 8.82052 1.51212ZM3.52832 5.2922C3.52789 2.36932 5.89764 0 8.82052 0C11.7434 0 14.1127 2.36932 14.1127 5.2922C14.1127 8.21508 11.7434 10.5844 8.82052 10.5844C5.89764 10.5844 3.52832 8.21508 3.52832 5.2922Z"
            fill="#FE6B01" />
        <path fill-rule="evenodd" clip-rule="evenodd"
            d="M8.82067 10.5844C4.78417 10.5844 1.51217 13.8564 1.51217 17.8929C1.51217 18.3104 1.17389 18.6487 0.756331 18.6487C0.338776 18.6487 0.000488281 18.3104 0.000488281 17.8929C0.000488281 13.0213 3.94949 9.07227 8.82111 9.07227C9.23866 9.07227 9.57695 9.41055 9.57695 9.82811C9.57695 10.2457 9.23866 10.584 8.82111 10.584L8.82067 10.5844Z"
            fill="#FE6B01" />
        <path fill-rule="evenodd" clip-rule="evenodd"
            d="M15.8769 11.3515C13.3772 11.3515 11.351 13.3777 11.351 15.8774C11.351 18.3771 13.3772 20.4034 15.8769 20.4034C17.357 20.4034 18.6707 19.6939 19.498 18.5933C19.7631 18.2407 20.2634 18.1696 20.6164 18.4343C20.969 18.6994 21.0401 19.1997 20.7754 19.5527C19.6596 21.0379 17.8807 22.0008 15.8774 22.0008C12.4958 22.0008 9.75439 19.2594 9.75439 15.8779C9.75439 12.4963 12.4958 9.75488 15.8774 9.75488C19.259 9.75488 22.0003 12.4963 22.0003 15.8779C22.0003 16.3188 21.6426 16.6766 21.2016 16.6766C20.7607 16.6766 20.4029 16.3188 20.4029 15.8779C20.4029 13.3782 18.3766 11.3519 15.8769 11.3519V11.3515Z"
            fill="#FE6B01" />
        <path
            d="M17.8115 16.1677C17.9791 16.383 18.0631 16.629 18.0631 16.9058C18.0631 17.3047 17.9236 17.6209 17.6447 17.8544C17.3657 18.0879 16.9772 18.2044 16.4787 18.2044H14.2549V13.4307H16.4037C16.8889 13.4307 17.2683 13.542 17.5429 13.7638C17.8171 13.986 17.9544 14.2874 17.9544 14.6682C17.9544 14.9493 17.8808 15.1827 17.7335 15.3686C17.5862 15.5544 17.39 15.6839 17.1453 15.7562C17.4216 15.8151 17.6438 15.9524 17.8119 16.1677H17.8115ZM15.4179 15.3621H16.1794C16.3699 15.3621 16.5159 15.3201 16.6181 15.2365C16.7199 15.1524 16.771 15.029 16.771 14.8657C16.771 14.7024 16.7199 14.5776 16.6181 14.4919C16.5159 14.4057 16.3699 14.3628 16.1794 14.3628H15.4179V15.3625V15.3621ZM16.7269 17.1336C16.8334 17.0453 16.8867 16.9171 16.8867 16.7494C16.8867 16.5818 16.8312 16.4501 16.7199 16.3548C16.6086 16.2596 16.4557 16.2119 16.2608 16.2119H15.4175V17.2658H16.2742C16.4691 17.2658 16.6199 17.2216 16.7264 17.1332L16.7269 17.1336Z"
            fill="#FE6B01" />
    </g>
    <defs>
        <clipPath id="clip0_1294_2732">
            <rect width="22" height="22" fill="white" />
        </clipPath>
    </defs>
</svg>
