<?xml version="1.0" encoding="UTF-8" standalone="no"?>
<!-- Created with Inkscape (http://www.inkscape.org/) -->

<svg
   version="1.1"
   id="svg459"
   xml:space="preserve"
   width="682.66669"
   height="682.66669"
   viewBox="0 0 682.66669 682.66669"
   xmlns="http://www.w3.org/2000/svg"
   xmlns:svg="http://www.w3.org/2000/svg"><defs
     id="defs463"><clipPath
       clipPathUnits="userSpaceOnUse"
       id="clipPath473"><path
         d="M 0,512 H 512 V 0 H 0 Z"
         id="path471" /></clipPath></defs><g
     id="g465"
     transform="matrix(1.3333333,0,0,-1.3333333,0,682.66667)"><g
       id="g467"><g
         id="g469"
         clip-path="url(#clipPath473)"><g
           id="g475"
           transform="translate(211,10)"><path
             d="m 0,0 h -47.127 v 14.5 c 0,22.92 18.58,41.5 41.5,41.5 h 101 c 22.92,0 41.5,-18.58 41.5,-41.5 V 0 H 90"
             style="fill:none;stroke:#000000;stroke-width:20;stroke-linecap:round;stroke-linejoin:round;stroke-miterlimit:10;stroke-dasharray:none;stroke-opacity:1"
             id="path477" /></g><path
           d="m 291.873,134 h -72 V 66 h 72 z"
           style="fill:none;stroke:#000000;stroke-width:20;stroke-linecap:round;stroke-linejoin:round;stroke-miterlimit:10;stroke-dasharray:none;stroke-opacity:1"
           id="path479" /><g
           id="g481"
           transform="translate(255.8731,374)"><path
             d="M 0,0 V -240"
             style="fill:none;stroke:#000000;stroke-width:20;stroke-linecap:round;stroke-linejoin:round;stroke-miterlimit:10;stroke-dasharray:none;stroke-opacity:1"
             id="path483" /></g><g
           id="g485"
           transform="translate(378.9767,134)"><path
             d="M 0,0 -32.567,240"
             style="fill:none;stroke:#000000;stroke-width:20;stroke-linecap:round;stroke-linejoin:round;stroke-miterlimit:10;stroke-dasharray:none;stroke-opacity:1"
             id="path487" /></g><g
           id="g489"
           transform="translate(132.7694,134)"><path
             d="M 0,0 32.567,240"
             style="fill:none;stroke:#000000;stroke-width:20;stroke-linecap:round;stroke-linejoin:round;stroke-miterlimit:10;stroke-dasharray:none;stroke-opacity:1"
             id="path491" /></g><g
           id="g493"
           transform="translate(453.873,294)"><path
             d="M 0,0 H -396"
             style="fill:none;stroke:#000000;stroke-width:20;stroke-linecap:round;stroke-linejoin:round;stroke-miterlimit:10;stroke-dasharray:none;stroke-opacity:1"
             id="path495" /></g><g
           id="g497"
           transform="translate(477.123,214)"><path
             d="M 0,0 H -442.5"
             style="fill:none;stroke:#000000;stroke-width:20;stroke-linecap:round;stroke-linejoin:round;stroke-miterlimit:10;stroke-dasharray:none;stroke-opacity:1"
             id="path499" /></g><g
           id="g501"
           transform="translate(421.57,374)"><path
             d="m 0,0 h -331.14 c -9.028,0 -16.937,-6.049 -19.302,-14.762 l -54.278,-200 c -3.452,-12.717 6.124,-25.238 19.301,-25.238 H 54.279 c 13.177,0 22.753,12.521 19.301,25.238 l -54.278,200 C 16.937,-6.049 9.028,0 0,0 Z"
             style="fill:none;stroke:#000000;stroke-width:20;stroke-linecap:round;stroke-linejoin:round;stroke-miterlimit:10;stroke-dasharray:none;stroke-opacity:1"
             id="path503" /></g><g
           id="g505"
           transform="translate(329.873,374)"><path
             d="m 0,0 c 0,40.869 -33.131,74 -74,74 -40.869,0 -74,-33.131 -74,-74"
             style="fill:none;stroke:#000000;stroke-width:20;stroke-linecap:round;stroke-linejoin:round;stroke-miterlimit:10;stroke-dasharray:none;stroke-opacity:1"
             id="path507" /></g><g
           id="g509"
           transform="translate(255.8731,502)"><path
             d="M 0,0 V -14"
             style="fill:none;stroke:#000000;stroke-width:20;stroke-linecap:round;stroke-linejoin:round;stroke-miterlimit:10;stroke-dasharray:none;stroke-opacity:1"
             id="path511" /></g><g
           id="g513"
           transform="translate(358.8662,476.9931)"><path
             d="M 0,0 -22.383,-22.383"
             style="fill:none;stroke:#000000;stroke-width:20;stroke-linecap:round;stroke-linejoin:round;stroke-miterlimit:10;stroke-dasharray:none;stroke-opacity:1"
             id="path515" /></g><g
           id="g517"
           transform="translate(152.8799,476.9931)"><path
             d="M 0,0 22.383,-22.383"
             style="fill:none;stroke:#000000;stroke-width:20;stroke-linecap:round;stroke-linejoin:round;stroke-miterlimit:10;stroke-dasharray:none;stroke-opacity:1"
             id="path519" /></g><g
           id="g521"
           transform="translate(256,10)"><path
             d="M 0,0 V 0"
             style="fill:none;stroke:#000000;stroke-width:20;stroke-linecap:round;stroke-linejoin:round;stroke-miterlimit:10;stroke-dasharray:none;stroke-opacity:1"
             id="path523" /></g></g></g></g></svg>
