<svg width="20" height="20" viewBox="0 0 20 20" fill="none" xmlns="http://www.w3.org/2000/svg">
    <g clip-path="url(#clip0_158_2349)">
        <path
            d="M15.7542 0.379917C17.0609 1.68658 18.3609 2.99325 19.6676 4.30658C20.1009 4.73992 20.1142 5.36658 19.7009 5.76658C19.2876 6.16658 18.6876 6.14658 18.2609 5.71992C17.5609 5.01992 16.8609 4.31992 16.1609 3.61992C16.1076 3.56658 16.0542 3.51992 15.9609 3.43325L15.9609 3.74658C15.9609 8.77992 15.9609 13.8132 15.9609 18.8532C15.9609 19.2599 15.8409 19.5932 15.4942 19.8132C14.9009 20.1932 14.1209 19.8532 13.9876 19.1599C13.9609 19.0332 13.9609 18.8932 13.9609 18.7666C13.9609 13.7666 13.9609 8.75992 13.9609 3.75325L13.9609 3.47992C13.9609 3.47992 13.9209 3.46658 13.9009 3.45992C13.1742 4.19325 12.4476 4.91992 11.7276 5.65325C11.4742 5.91325 11.1742 6.05325 10.8009 5.98658C10.4142 5.91992 10.1476 5.69325 10.0276 5.32658C9.9009 4.95325 9.9809 4.61325 10.2476 4.32658C10.5342 4.02658 10.8276 3.73992 11.1209 3.44658C12.1409 2.42658 13.1609 1.40658 14.1809 0.386583C14.6876 -0.120083 15.2476 -0.120083 15.7542 0.386583L15.7542 0.379917Z"
            fill="#1A1A1A" />
        <path
            d="M4.95973 0.0131967C5.4864 -0.000137569 5.9064 0.353195 5.97973 0.879862C5.99307 0.993196 5.99307 1.1132 5.99307 1.22653C5.99307 6.2332 5.99307 11.2332 5.99307 16.2399L5.99307 16.5665C6.09307 16.4732 6.15307 16.4199 6.21307 16.3665C6.89973 15.6799 7.5864 14.9865 8.27974 14.2999C8.83973 13.7465 9.73307 13.9665 9.9464 14.6999C10.0531 15.0599 9.9864 15.4065 9.71307 15.6732C8.37307 17.0265 7.03307 18.3732 5.67974 19.7132C5.2864 20.1065 4.69307 20.0999 4.29307 19.7065C2.95973 18.3665 1.6264 17.0332 0.299735 15.6932C-0.100265 15.2865 -0.100265 14.6799 0.286401 14.2865C0.673068 13.8932 1.27973 13.8799 1.69307 14.2799C2.39307 14.9665 3.0864 15.6665 3.77973 16.3599C3.83973 16.4199 3.89973 16.4732 3.99307 16.5599L3.99307 1.08653C3.99307 0.466528 4.3864 0.0265291 4.95307 0.0131967L4.95973 0.0131967Z"
            fill="#1A1A1A" />
    </g>
    <defs>
        <clipPath id="clip0_158_2349">
            <rect width="20" height="20" fill="white" transform="translate(0 20) rotate(-90)" />
        </clipPath>
    </defs>
</svg>
