<svg width="22" height="22" viewBox="0 0 22 22" fill="none" xmlns="http://www.w3.org/2000/svg">
    <path
        d="M8.50709 10.2303C8.06516 9.79035 7.40228 9.79035 6.96035 10.2303C6.51842 10.6703 6.51842 11.3303 6.96035 11.7703L10.2748 15.0703C10.4958 15.2903 10.7167 15.4003 11.0482 15.4003C11.3796 15.4003 11.6006 15.2903 11.8215 15.0703L19.5552 6.27035C19.8867 5.72035 19.8867 5.06035 19.3343 4.73035C18.8923 4.40035 18.2294 4.40035 17.898 4.84035L11.0482 12.6503L8.50709 10.2303Z"
        fill="#1BCF17" />
    <path
        d="M20.9914 9.9C20.3286 9.9 19.8866 10.34 19.8866 11C19.8866 15.84 15.9093 19.8 11.0481 19.8C6.18695 19.8 2.20963 15.84 2.20963 11C2.20963 8.69 3.09348 6.49 4.7507 4.84C6.40792 3.08 8.61754 2.2 11.0481 2.2C11.711 2.2 12.4844 2.31 13.1473 2.42C13.6997 2.64 14.3626 2.31 14.5835 1.65C14.8045 0.99 14.3626 0.55 13.8102 0.33H13.6997C12.8158 0.11 11.932 0 11.0481 0C4.97166 0 0 4.95 0 11.11C0 13.97 1.21529 16.83 3.20396 18.81C5.3031 20.9 8.06514 22 10.9376 22C17.0141 22 21.9858 17.05 21.9858 11C22.0963 10.34 21.5439 9.9 20.9914 9.9Z"
        fill="#1BCF17" />
</svg>
