<svg width="10" height="10" viewBox="0 0 10 10" fill="none" xmlns="http://www.w3.org/2000/svg">
    <path
        d="M9.97021 3.77382C9.89713 3.53031 9.70001 3.35288 9.46276 3.31697L6.76261 2.90835L5.55779 0.365911C5.45141 0.141467 5.23575 0 5 0C4.76425 0 4.54859 0.141511 4.44221 0.365911L3.23739 2.90835L0.537243 3.31697C0.299994 3.35288 0.102871 3.53031 0.0297881 3.77373C-0.0432947 4.01715 0.0205795 4.28373 0.194161 4.45991L2.13898 6.43421L1.68057 9.2179C1.63953 9.46714 1.73432 9.71972 1.92532 9.86985C2.11627 10.02 2.37048 10.0419 2.58156 9.92634L5 8.60226L7.41844 9.92643C7.62952 10.042 7.88373 10.0201 8.07468 9.86994C8.26564 9.71977 8.36043 9.46723 8.31943 9.21799L7.86102 6.4343L9.80584 4.45999C9.97942 4.28377 10.0433 4.01724 9.97021 3.77382ZM6.75661 5.71475C6.60503 5.86862 6.5357 6.09319 6.57191 6.31301L6.87078 8.12781L5.28541 7.25977C5.19583 7.2107 5.09792 7.18621 5 7.18621C4.90208 7.18621 4.80417 7.21075 4.71459 7.25977L3.12922 8.12781L3.4281 6.31301C3.4643 6.09319 3.39497 5.86862 3.24339 5.71475L1.99123 4.44359L3.73584 4.17955C3.93813 4.14897 4.11367 4.01475 4.20584 3.82026L5 2.14444L5.79416 3.82026C5.88633 4.01479 6.06182 4.14897 6.26416 4.17955L8.00877 4.44359L6.75661 5.71475Z"
        fill="#FE6B01" />
</svg>
