<svg width="22" height="21" viewBox="0 0 22 21" fill="none" xmlns="http://www.w3.org/2000/svg">
    <g clip-path="url(#clip0_1294_2771)">
        <path
            d="M21.54 9.09037C19.62 7.37037 17.69 5.65037 15.76 3.94037C14.39 2.72037 13.03 1.51037 11.66 0.290373C11.44 0.0903731 11.2 -0.0196269 10.9 0.000373105C10.6 0.0303731 10.4 0.220373 10.19 0.410373C8.22997 2.16037 6.26997 3.90037 4.30997 5.64037C2.98997 6.82037 1.65997 7.99037 0.339974 9.17037C-0.0700257 9.54037 -0.120026 10.1004 0.219974 10.5004C0.549974 10.8904 1.08997 10.9204 1.50997 10.5804C1.55997 10.5404 1.60997 10.5104 1.67997 10.4504V19.9704C1.67997 20.6204 2.03997 21.0004 2.67997 21.0004H19.33C19.43 21.0004 19.53 21.0004 19.63 20.9704C20.07 20.8604 20.32 20.5004 20.32 19.9604V10.4504C20.42 10.5304 20.48 10.5904 20.55 10.6404C21.03 11.0104 21.69 10.8304 21.93 10.2704C21.95 10.2204 21.98 10.1704 22 10.1204V9.73037C21.85 9.52037 21.73 9.28037 21.55 9.11037V9.09037H21.54ZM18.49 18.8404V19.1404H3.47997V9.04037C3.47997 8.90037 3.50997 8.80037 3.61997 8.70037C6.05997 6.54037 8.48997 4.37037 10.93 2.20037C10.95 2.20037 10.97 2.18037 11 2.15037C11.98 3.02037 12.94 3.88037 13.91 4.74037C15.37 6.04037 16.82 7.34037 18.29 8.63037C18.45 8.77037 18.51 8.92037 18.51 9.13037V18.8404H18.49Z"
            fill="#013765" />
        <path
            d="M5.86017 12.5796L8.02017 16.4096C8.14017 16.6296 8.36017 16.7796 8.62017 16.8096C8.87017 16.8396 9.12017 16.7496 9.30017 16.5696L15.6902 9.92963C16.0002 9.60963 15.9902 9.10963 15.6702 8.79963C15.3502 8.48963 14.8502 8.49963 14.5402 8.81963L8.89017 14.6796L7.26017 11.7796C7.04017 11.3996 6.56017 11.2596 6.17017 11.4796C5.79017 11.6996 5.65017 12.1796 5.87017 12.5696L5.86017 12.5796Z"
            fill="#013765" />
        <path
            d="M16.4803 10.5197L11.9403 15.2597C11.7503 15.4597 11.7603 15.7797 11.9503 15.9697C12.1503 16.1597 12.4703 16.1497 12.6603 15.9597L17.2003 11.2197C17.3903 11.0197 17.3803 10.6997 17.1903 10.5097C16.9903 10.3197 16.6703 10.3297 16.4803 10.5197Z"
            fill="#013765" />
    </g>
    <defs>
        <clipPath id="clip0_1294_2771">
            <rect width="22" height="21" fill="white" />
        </clipPath>
    </defs>
</svg>
