<svg width="41" height="40" viewBox="0 0 41 40" fill="none" xmlns="http://www.w3.org/2000/svg">
    <path fill-rule="evenodd" clip-rule="evenodd"
        d="M20.2547 10.8084L20.5977 11.7845L21.6388 11.7607L20.8091 12.3877L21.1561 13.3638L20.3025 12.7725L19.4769 13.3995L19.78 12.4075L18.9224 11.8203L19.9635 11.8004L20.2626 10.8084H20.2547Z"
        fill="#FE6B01" />
    <path fill-rule="evenodd" clip-rule="evenodd"
        d="M14.7144 12.717L15.3087 13.2169L15.9948 12.8003L15.6757 13.5225L16.27 14.0184L15.4803 13.9669L15.1651 14.689L14.9976 13.9351L14.2078 13.8835L14.8939 13.4709L14.7224 12.717H14.7144Z"
        fill="#FE6B01" />
    <path fill-rule="evenodd" clip-rule="evenodd"
        d="M25.8709 12.471L25.7312 13.2328L26.4333 13.6137L25.6475 13.701L25.5119 14.4629L25.1649 13.7566L24.3791 13.8478L24.9534 13.3241L24.6024 12.6178L25.3045 13.0027L25.8748 12.4789L25.8709 12.471Z"
        fill="#FE6B01" />
    <path fill-rule="evenodd" clip-rule="evenodd"
        d="M20.7373 28.9892L21.0365 27.9972L22.0776 27.9774L21.22 27.3901L21.5231 26.3982L20.6975 27.0291L19.8439 26.4379L20.1909 27.4139L19.3612 28.0369L20.4023 28.0131L20.7453 28.9892H20.7373Z"
        fill="#FE6B01" />
    <path fill-rule="evenodd" clip-rule="evenodd"
        d="M15.1211 27.3306L15.6915 26.8069L16.3935 27.1917L16.0425 26.4855L16.6169 25.9617L15.8311 26.049L15.4841 25.3427L15.3485 26.1046L14.5627 26.1918L15.2647 26.5728L15.1251 27.3346L15.1211 27.3306Z"
        fill="#FE6B01" />
    <path fill-rule="evenodd" clip-rule="evenodd"
        d="M26.2777 27.0846L26.1061 26.3307L26.7922 25.9181L26.0024 25.8665L25.8349 25.1126L25.5198 25.8347L24.73 25.7792L25.3244 26.2791L25.0053 27.0013L25.6873 26.5847L26.2816 27.0846H26.2777Z"
        fill="#FE6B01" />
    <path
        d="M20.2148 7.39609C16.7127 7.47148 13.5696 8.95546 11.3279 11.2886C10.5661 12.0821 9.90398 12.9749 9.36949 13.947L8.8709 14.8517L10.7057 14.812L10.8732 14.5224C11.32 13.7486 11.8624 13.0305 12.4807 12.3877C14.4471 10.3442 17.1874 9.05069 20.2507 8.98324C20.3345 8.98324 20.4182 8.98324 20.502 8.98324C23.4696 8.98324 26.17 10.1458 28.1683 12.0464C28.8145 12.6614 29.3849 13.3558 29.8675 14.1097L30.047 14.3914L31.8818 14.3518L31.3433 13.4709C30.765 12.5265 30.0669 11.6615 29.2692 10.9037C26.9876 8.73326 23.8924 7.40403 20.502 7.40403C20.4063 7.40403 20.3105 7.40403 20.2148 7.40403V7.39609Z"
        fill="#FE6B01" />
    <path
        d="M30.6254 25.2078L30.2863 25.2158L30.1188 25.5054C29.6721 26.2791 29.1296 26.9973 28.5113 27.6401C26.5449 29.6836 23.8046 30.9771 20.7413 31.0445C20.6576 31.0445 20.5738 31.0445 20.49 31.0445C17.5224 31.0445 14.8221 29.882 12.8237 27.9814C12.1775 27.3663 11.6072 26.672 11.1245 25.9181L10.945 25.6363L9.11022 25.676L9.6487 26.5569C10.2271 27.5012 10.9251 28.3662 11.7228 29.1241C14.0044 31.2945 17.0996 32.6237 20.49 32.6237C20.5858 32.6237 20.6815 32.6237 20.7772 32.6237C24.2793 32.5484 27.4224 31.0644 29.6641 28.7313C30.4259 27.9377 31.088 27.0449 31.6225 26.0728L32.1211 25.1681L31.0841 25.1919L30.6254 25.2039V25.2078Z"
        fill="#FE6B01" />
    <path
        d="M40.9801 18.4704C40.9362 17.7879 40.7527 17.1451 40.4376 16.5698C40.1225 15.9944 39.6757 15.4945 39.1213 15.0858L38.1241 14.3518C37.6614 14.0105 37.3304 13.582 37.1389 13.1019C37.0073 12.7765 36.9395 12.4273 36.9395 12.0544C36.9395 11.8798 36.9554 11.6973 36.9874 11.5147L37.1629 10.5069C37.2107 10.2291 37.2347 9.95139 37.2347 9.67761C37.2347 9.28876 37.1868 8.90388 37.0871 8.53487C36.9195 7.90398 36.6044 7.3088 36.1657 6.78504C35.7269 6.25732 35.1964 5.84466 34.6021 5.56691C34.0078 5.28519 33.3496 5.14235 32.6636 5.13441L31.4191 5.12251C30.8407 5.11854 30.3222 4.96379 29.8835 4.68604C29.4447 4.40829 29.0777 4.01151 28.8264 3.49569L28.3757 2.57514C28.0726 1.96012 27.6577 1.4324 27.1472 1.01974C26.6366 0.607083 26.0343 0.313461 25.3682 0.146811C24.9694 0.0515822 24.5785 0 24.1876 0C23.9123 0 23.6411 0.0238072 23.3739 0.0753893C22.7277 0.194425 22.1094 0.46424 21.551 0.861026L20.5379 1.57921C20.0672 1.91251 19.5567 2.09106 19.0381 2.12677C18.9783 2.12677 18.9185 2.13074 18.8586 2.13074C18.396 2.13074 17.9293 2.01567 17.4785 1.7776L16.5691 1.29749C15.9628 0.976094 15.3167 0.793572 14.6585 0.757861C14.5827 0.753893 14.503 0.749926 14.4272 0.749926C13.8488 0.749926 13.2665 0.864994 12.7001 1.09116C12.0619 1.3451 11.5035 1.71808 11.0487 2.19026C10.598 2.6664 10.255 3.24174 10.0396 3.89247L9.64471 5.06299C9.46123 5.60659 9.1541 6.05099 8.75124 6.38429C8.35237 6.71362 7.85777 6.93582 7.28339 7.01915L6.26627 7.16199C5.5842 7.25722 4.95398 7.48735 4.39955 7.84446C3.84911 8.20157 3.37844 8.67771 3.01148 9.25702C2.64452 9.83633 2.40918 10.4632 2.32542 11.114C2.30149 11.2965 2.28952 11.483 2.28952 11.6695C2.28952 12.1377 2.36531 12.6099 2.51289 13.0781L2.88783 14.2565C2.98356 14.566 3.03142 14.8676 3.03142 15.1652C3.03142 15.3993 3.0035 15.6254 2.94766 15.8476C2.82002 16.3476 2.54879 16.8158 2.13396 17.2165L1.39605 17.9268C0.90145 18.4029 0.52651 18.9584 0.291176 19.5695C0.0997179 20.0893 0 20.6368 0 21.2042C0 21.3114 0 21.4225 0.0119661 21.5336C0.055842 22.2161 0.239323 22.8588 0.554431 23.4342C0.86954 24.0095 1.31628 24.5095 1.87071 24.9182L2.86789 25.6522C3.33457 25.9935 3.66164 26.422 3.8531 26.9021C3.98473 27.2275 4.05253 27.5766 4.05253 27.9496C4.05253 28.1242 4.03658 28.3067 4.00467 28.4892L3.82917 29.4971C3.7813 29.7748 3.75737 30.0526 3.75737 30.3264C3.75737 30.7152 3.80523 31.1001 3.90495 31.4691C4.07248 32.1 4.38759 32.6912 4.82634 33.2189C5.2651 33.7467 5.7956 34.1593 6.38992 34.4371C6.98424 34.7188 7.63839 34.8616 8.32844 34.8696L9.57292 34.8815C10.1513 34.8854 10.6698 35.0402 11.1086 35.3179C11.5473 35.5957 11.9143 35.9925 12.1656 36.5083L12.1775 36.5281L12.6203 37.4288C12.9234 38.0399 13.3383 38.5676 13.8488 38.9803C14.3594 39.3929 14.9617 39.6865 15.6278 39.8532C16.0187 39.9524 16.4096 40 16.8005 40C17.0757 40 17.3469 39.9762 17.6142 39.9246C18.2603 39.8056 18.8746 39.5358 19.437 39.139L20.4501 38.4208C20.9208 38.0875 21.4314 37.9089 21.9499 37.8732C22.0097 37.8693 22.0696 37.8653 22.1334 37.8653C22.5961 37.8653 23.0627 37.9804 23.5135 38.2184L24.4229 38.6985C25.0292 39.0199 25.6793 39.2025 26.3335 39.2382C26.4093 39.2421 26.4891 39.2461 26.5648 39.2461C27.1432 39.2461 27.7256 39.131 28.292 38.9049C28.9301 38.6509 29.4926 38.278 29.9433 37.8018C30.394 37.3257 30.737 36.7503 30.9524 36.0996L31.3473 34.9251C31.5308 34.3815 31.8379 33.9371 32.2408 33.6038C32.6397 33.2745 33.1343 33.0523 33.7086 32.969L34.7257 32.8261C35.4078 32.7309 36.038 32.5007 36.5925 32.1436C37.1429 31.7865 37.6136 31.3104 37.9805 30.7311C38.3475 30.1518 38.5828 29.5248 38.6666 28.8741C38.6905 28.6916 38.7025 28.5051 38.7025 28.3186C38.7025 27.8504 38.6267 27.3782 38.4791 26.91L38.1042 25.7316C38.0085 25.4221 37.9606 25.1205 37.9606 24.8229C37.9606 24.5888 37.9885 24.3627 38.0444 24.1405C38.172 23.6405 38.4432 23.1723 38.8581 22.7716L39.596 22.0613C40.0906 21.5852 40.4655 21.0297 40.7008 20.4186C40.9003 19.9068 41 19.3592 41 18.7958C41 18.6847 41 18.5775 40.988 18.4664L40.9801 18.4704ZM27.3067 4.23371C27.6936 5.02331 28.276 5.6661 28.982 6.11051C29.688 6.55491 30.5216 6.79695 31.4071 6.80488L32.6516 6.81678C33.1103 6.82075 33.5172 6.91201 33.8801 7.0866C34.2431 7.25722 34.5742 7.51513 34.8693 7.8643C35.1605 8.21347 35.356 8.58248 35.4597 8.97133C35.5195 9.1975 35.5514 9.4316 35.5514 9.67761C35.5514 9.8522 35.5355 10.0347 35.5036 10.2212L35.328 11.229C35.2802 11.5068 35.2562 11.7806 35.2562 12.0544C35.2562 12.6337 35.3639 13.2011 35.5753 13.7248C35.8865 14.4986 36.417 15.181 37.127 15.7048L38.1241 16.4388C38.4911 16.7087 38.7663 17.0221 38.9578 17.3753C39.1532 17.7284 39.2689 18.1292 39.2968 18.5815C39.3008 18.6569 39.3048 18.7283 39.3048 18.8037C39.3048 19.1727 39.241 19.51 39.1213 19.8234C38.9777 20.1964 38.7464 20.5456 38.4153 20.863L37.6774 21.5733C37.0432 22.1843 36.6084 22.9303 36.405 23.7357C36.3133 24.0928 36.2694 24.4579 36.2694 24.8269C36.2694 25.2951 36.3412 25.7713 36.4928 26.2395L36.8677 27.4179C36.9674 27.7274 37.0113 28.029 37.0113 28.3186C37.0113 28.4337 37.0033 28.5488 36.9874 28.6638C36.9355 29.0646 36.7919 29.4534 36.5486 29.8383C36.3053 30.2232 36.0101 30.5208 35.6711 30.739C35.332 30.9573 34.9411 31.1001 34.4864 31.1675L33.4693 31.3104C32.5958 31.4334 31.802 31.7826 31.1598 32.3182C30.5177 32.8499 30.027 33.5641 29.7478 34.3974L29.353 35.5679C29.2094 36.0004 28.994 36.3535 28.7148 36.6472C28.4356 36.9408 28.0925 37.1709 27.6657 37.3415C27.2908 37.4923 26.9238 37.5598 26.5648 37.5598C26.521 37.5598 26.4731 37.5598 26.4252 37.5598C26.0224 37.5399 25.6195 37.4249 25.2127 37.2146L24.3032 36.7345C23.6132 36.3734 22.8713 36.1869 22.1334 36.1869C22.0337 36.1869 21.9379 36.1869 21.8382 36.1948C21.0046 36.2504 20.1869 36.54 19.4689 37.0519L18.4558 37.7701C18.0848 38.0319 17.6979 38.1986 17.303 38.27C17.1395 38.3018 16.972 38.3176 16.8005 38.3176C16.5572 38.3176 16.3059 38.2859 16.0426 38.2224C15.5999 38.1113 15.2249 37.9248 14.9098 37.6709C14.5947 37.4169 14.3354 37.0916 14.136 36.6829L13.6733 35.7465L13.6813 35.7663C13.2944 34.9767 12.712 34.3339 12.006 33.8895C11.3 33.4451 10.4664 33.2031 9.58089 33.1951L8.33641 33.1832C7.87771 33.1792 7.47086 33.088 7.10789 32.9134C6.74492 32.7428 6.41385 32.4849 6.12268 32.1357C5.8315 31.7865 5.63605 31.4175 5.53235 31.0287C5.47252 30.8025 5.44061 30.5684 5.44061 30.3224C5.44061 30.1478 5.45656 29.9653 5.48847 29.7788L5.66397 28.771C5.71184 28.4932 5.73577 28.2194 5.73577 27.9456C5.73577 27.3663 5.62808 26.7989 5.41668 26.2752C5.10556 25.5014 4.57506 24.819 3.86506 24.2952L2.86789 23.5612C2.50092 23.2913 2.2257 22.9779 2.03424 22.6247C1.8388 22.2716 1.72312 21.8708 1.6952 21.4185C1.69122 21.3431 1.68723 21.2717 1.68723 21.1963C1.68723 20.8273 1.75105 20.49 1.87071 20.1766C2.0143 19.8036 2.24565 19.4544 2.57671 19.137H2.5807L3.31462 18.4267C3.94883 17.8157 4.3836 17.0697 4.58702 16.2643C4.67876 15.9072 4.72264 15.5421 4.72264 15.1731C4.72264 14.7049 4.65084 14.2287 4.49927 13.7605L4.12433 12.5821C4.02461 12.2726 3.98074 11.971 3.98074 11.6814C3.98074 11.5663 3.98871 11.4512 4.00467 11.3362C4.05652 10.9354 4.20012 10.5466 4.44343 10.1617C4.68674 9.77681 4.98191 9.47922 5.32095 9.26099C5.65999 9.04275 6.05088 8.89991 6.50559 8.83246L7.52272 8.68962C8.39625 8.56661 9.19 8.21744 9.83218 7.68178C10.4744 7.15008 10.965 6.43587 11.2442 5.60262L11.6391 4.4321C11.7827 4.00357 11.9981 3.64646 12.2773 3.35284C12.5565 3.05922 12.8995 2.82908 13.3263 2.65847C13.7012 2.51166 14.0642 2.44023 14.4232 2.44023C14.4711 2.44023 14.5189 2.44023 14.5668 2.44023C14.9696 2.46007 15.3725 2.57514 15.7794 2.78544L16.6888 3.26555C17.3788 3.62662 18.1207 3.81311 18.8586 3.81311C18.9584 3.81311 19.0541 3.81311 19.1538 3.80518C19.9875 3.74963 20.8051 3.45997 21.5231 2.94812H21.5271L22.5402 2.22597H22.5323C22.9032 1.96806 23.2901 1.80538 23.685 1.72999C23.8485 1.69824 24.0161 1.68237 24.1876 1.68237C24.4309 1.68237 24.6822 1.71412 24.9454 1.7776C25.3882 1.8887 25.7631 2.07519 26.0782 2.32913C26.3933 2.58308 26.6526 2.90844 26.852 3.31713L27.3028 4.23371H27.3067Z"
        fill="#FE6B01" />
    <path
        d="M5.82861 17.519H7.58345C8.31062 17.519 8.82904 17.6267 9.13872 17.8421C9.4484 18.0575 9.60323 18.3669 9.60323 18.7703C9.60323 18.9903 9.56309 19.177 9.4828 19.3306C9.40481 19.4841 9.30503 19.6056 9.18345 19.6949C9.06417 19.7843 8.94144 19.845 8.81528 19.8771V19.9115C8.95291 19.9459 9.0894 20.0032 9.22474 20.0834C9.36237 20.1613 9.47592 20.2793 9.56538 20.4374C9.65714 20.5933 9.70302 20.8053 9.70302 21.0734C9.70302 21.3782 9.62503 21.6406 9.46904 21.8606C9.31535 22.0806 9.09513 22.2501 8.8084 22.3693C8.52166 22.4862 8.18101 22.5446 7.78646 22.5446H5.82861V17.519ZM7.18775 19.4474H7.59721C7.82202 19.4474 7.9803 19.4016 8.07205 19.3099C8.16381 19.216 8.20969 19.1025 8.20969 18.9696C8.20969 18.8321 8.15693 18.7279 8.05141 18.6568C7.94818 18.5835 7.78761 18.5468 7.56969 18.5468H7.18775V19.4474ZM7.18775 20.4409V21.4962H7.66603C7.9023 21.4962 8.06746 21.4458 8.16151 21.3449C8.25556 21.2418 8.30259 21.1135 8.30259 20.9599C8.30259 20.8706 8.28194 20.7869 8.24065 20.709C8.20166 20.6288 8.13399 20.5646 8.03764 20.5165C7.9413 20.4661 7.80825 20.4409 7.6385 20.4409H7.18775Z"
        fill="#FE6B01" />
    <path
        d="M15.2841 20.0249C15.2841 20.4122 15.2371 20.7651 15.143 21.0837C15.0513 21.3999 14.9067 21.6726 14.7095 21.9018C14.5122 22.131 14.2587 22.3074 13.949 22.4312C13.6394 22.5526 13.2689 22.6134 12.8376 22.6134C12.4156 22.6134 12.0497 22.5526 11.74 22.4312C11.4326 22.3074 11.1791 22.1321 10.9796 21.9053C10.78 21.6761 10.6321 21.4022 10.5357 21.0837C10.4394 20.7651 10.3912 20.4099 10.3912 20.0181C10.3912 19.4956 10.4772 19.0418 10.6493 18.6568C10.8236 18.2695 11.092 17.9705 11.4544 17.7596C11.8169 17.5465 12.2802 17.4399 12.8445 17.4399C13.418 17.4399 13.8837 17.5465 14.2415 17.7596C14.6017 17.9728 14.8655 18.273 15.0329 18.6603C15.2004 19.0475 15.2841 19.5024 15.2841 20.0249ZM11.8226 20.0249C11.8226 20.3274 11.857 20.5875 11.9258 20.8053C11.9946 21.023 12.1036 21.1903 12.2527 21.3071C12.4018 21.424 12.5968 21.4824 12.8376 21.4824C13.0877 21.4824 13.2861 21.424 13.4329 21.3071C13.582 21.1903 13.6887 21.023 13.7529 20.8053C13.8194 20.5875 13.8527 20.3274 13.8527 20.0249C13.8527 19.5712 13.777 19.2125 13.6256 18.949C13.4742 18.6855 13.2138 18.5537 12.8445 18.5537C12.5991 18.5537 12.4007 18.6133 12.2493 18.7324C12.1001 18.8516 11.9912 19.0212 11.9224 19.2412C11.8558 19.4612 11.8226 19.7224 11.8226 20.0249Z"
        fill="#FE6B01" />
    <path
        d="M20.4695 17.519V20.544C20.4695 20.9657 20.3892 21.3323 20.2286 21.644C20.068 21.9534 19.8272 22.1929 19.506 22.3624C19.1849 22.5297 18.7823 22.6134 18.2983 22.6134C17.6055 22.6134 17.0768 22.4358 16.712 22.0806C16.3473 21.7254 16.1649 21.2235 16.1649 20.5749V17.519H17.531V20.4684C17.531 20.8236 17.5975 21.0814 17.7305 21.2418C17.8636 21.4022 18.0597 21.4824 18.3189 21.4824C18.5047 21.4824 18.6561 21.4481 18.7731 21.3793C18.8901 21.3083 18.975 21.1971 19.0277 21.0459C19.0828 20.8946 19.1103 20.6998 19.1103 20.4615V17.519H20.4695Z"
        fill="#FE6B01" />
    <path
        d="M23.5456 19.6021H25.7168V22.3109C25.4576 22.4003 25.1605 22.4736 24.8256 22.5309C24.4907 22.5859 24.1397 22.6134 23.7727 22.6134C23.2887 22.6134 22.8643 22.5194 22.4996 22.3315C22.1348 22.1436 21.8504 21.8583 21.6462 21.4756C21.4421 21.0906 21.34 20.6047 21.34 20.0181C21.34 19.491 21.4409 19.0361 21.6428 18.6534C21.8447 18.2684 22.1417 17.9716 22.534 17.7631C22.9285 17.5522 23.4114 17.4468 23.9826 17.4468C24.2968 17.4468 24.595 17.4766 24.8772 17.5362C25.1593 17.5958 25.4048 17.6714 25.6135 17.7631L25.1834 18.8287C25.0022 18.7393 24.8141 18.6729 24.6191 18.6293C24.4242 18.5835 24.2143 18.5606 23.9895 18.5606C23.689 18.5606 23.4469 18.6282 23.2634 18.7634C23.0822 18.8986 22.9503 19.0796 22.8677 19.3065C22.7852 19.5311 22.7439 19.7797 22.7439 20.0524C22.7439 20.3641 22.7875 20.6276 22.8746 20.8431C22.9641 21.0562 23.0937 21.2189 23.2634 21.3312C23.4355 21.4412 23.6431 21.4962 23.8862 21.4962C23.9665 21.4962 24.064 21.4905 24.1787 21.479C24.2957 21.4675 24.384 21.4538 24.4437 21.4378V20.6506H23.5456V19.6021Z"
        fill="#FE6B01" />
    <path
        d="M31.0535 22.5446H29.6875V20.4959H28.1082V22.5446H26.7421V17.519H28.1082V19.3821H29.6875V17.519H31.0535V22.5446Z"
        fill="#FE6B01" />
    <path d="M34.3636 22.5446H33.0045V18.6293H31.7761V17.519H35.5886V18.6293H34.3636V22.5446Z"
        fill="#FE6B01" />
</svg>
