<svg width="13" height="10" viewBox="0 0 13 10" fill="none" xmlns="http://www.w3.org/2000/svg">
    <path
        d="M12.042 2.31732C9.68516 4.7244 7.32676 7.13066 4.96676 9.53529C4.35814 10.1546 3.62059 10.1546 3.01197 9.53693C2.1551 8.66757 1.30063 7.79657 0.449362 6.92149C-0.125623 6.33075 -0.149647 5.52512 0.382094 4.99321C0.908229 4.46702 1.68182 4.49644 2.252 5.07084C2.81337 5.63706 3.36913 6.20819 3.9273 6.77606C3.94091 6.78995 3.96093 6.7973 4.01699 6.83243C4.38537 6.45168 4.74733 6.07256 5.11411 5.69753C6.82225 3.9539 8.53038 2.21028 10.2409 0.468293C10.8239 -0.125716 11.6023 -0.156764 12.1308 0.387403C12.653 0.924216 12.6193 1.72821 12.042 2.31732Z"
        fill="white" />
</svg>
