<svg width="20" height="20" viewBox="0 0 20 20" fill="none" xmlns="http://www.w3.org/2000/svg">
    <path
        d="M19.9973 2.74357C19.9947 1.17186 18.8352 0.00466238 17.2693 0.00337621C12.423 -0.0011254 7.57733 -0.0011254 2.73103 0.00337621C1.16447 0.00466238 0.00305466 1.17251 0.00241158 2.74228C-0.000803859 7.58087 -0.000803859 12.4188 0.00241158 17.2568C0.00241158 18.8368 1.16961 19.9976 2.75418 19.9982C7.58441 20.0014 12.414 20.0008 17.2436 19.9963C17.4744 19.9963 17.7098 19.9751 17.9336 19.9217C19.1741 19.624 19.9947 18.577 19.9973 17.2818C20.0024 14.8548 19.9992 12.4278 19.9992 10.0008C19.9992 7.57379 20.0024 5.16286 19.9979 2.74357H19.9973ZM1.53939 2.74228C1.53939 2.01945 2.02042 1.54035 2.74646 1.54035C7.58505 1.53907 12.4223 1.53907 17.2603 1.54035C17.9741 1.541 18.4584 2.01945 18.4584 2.72814C18.4603 6.31592 18.4596 9.90499 18.4584 13.4934C18.4584 13.5468 18.4539 13.6008 18.4494 13.7024C17.7715 13.1622 17.133 12.6542 16.4944 12.1455C15.6526 11.4741 14.7124 11.4478 13.8423 12.076C13.0635 12.6381 12.286 13.204 11.5079 13.7661C11.1786 14.0034 10.9715 13.986 10.6847 13.6992C9.92524 12.941 9.16769 12.1802 8.40756 11.4227C7.49823 10.5166 6.38312 10.4754 5.40177 11.3056C4.16704 12.3506 2.9291 13.3931 1.69309 14.4355C1.65643 14.4658 1.61913 14.4953 1.55804 14.5449C1.54968 14.4638 1.5381 14.4059 1.5381 14.3487C1.5381 10.4793 1.53682 6.61045 1.5381 2.74228H1.53939ZM18.4596 17.2574C18.4558 17.9822 17.9793 18.4593 17.2526 18.46C14.8333 18.4619 12.4146 18.46 9.99598 18.46H2.81206C1.99212 18.46 1.5664 18.0021 1.52846 17.1783C1.50852 16.7436 1.64357 16.469 1.98119 16.1931C3.48215 14.9687 4.95804 13.7114 6.44357 12.467C6.78183 12.1841 7.01077 12.195 7.31817 12.5082C8.07444 13.2805 8.832 14.0529 9.58826 14.8252C10.4436 15.6998 11.531 15.7789 12.5014 15.0317C13.2436 14.46 13.9825 13.8838 14.724 13.3121C15.014 13.0876 15.2191 13.087 15.5008 13.3121C16.4449 14.0664 17.3896 14.822 18.3272 15.5854C18.3992 15.6439 18.4519 15.768 18.4545 15.8625C18.468 16.3269 18.4629 16.7918 18.4603 17.2561L18.4596 17.2574Z"
        fill="white" />
    <path
        d="M13.0886 4.10109C11.5343 4.09595 10.2546 5.3699 10.2539 6.92295C10.2526 8.47472 11.5311 9.74932 13.0873 9.74739C14.6153 9.74546 15.8861 8.48115 15.8989 6.94868C15.9124 5.39627 14.6391 4.10559 13.0886 4.10109ZM13.0751 8.20527C12.3793 8.20463 11.807 7.63871 11.7941 6.94032C11.7819 6.24193 12.3632 5.64771 13.0661 5.64C13.7658 5.63164 14.3542 6.21427 14.36 6.91845C14.3658 7.61749 13.7774 8.20591 13.0751 8.20527Z"
        fill="white" />
</svg>
