<svg width="17" height="20" viewBox="0 0 17 20" fill="none" xmlns="http://www.w3.org/2000/svg">
    <g clip-path="url(#clip0_157_6887)">
        <path
            d="M16.8772 19.1726C16.83 19.5454 16.6033 19.7817 16.2633 19.9181C16.1877 19.9454 16.1216 19.9726 16.0461 19.9999H0.812196C0.689419 19.9454 0.557196 19.8999 0.443863 19.8272C0.0755298 19.5908 -0.0661369 19.1454 0.0755298 18.709C0.188863 18.3272 0.519419 18.0908 0.963307 18.0908C2.55942 18.0908 4.14608 18.0908 5.7422 18.0908C9.11386 18.0908 12.4855 18.0908 15.8666 18.0908C16.5089 18.0908 16.9716 18.5817 16.8961 19.1817L16.8772 19.1726Z"
            fill="#013765" />
        <path
            d="M16.0264 1.83655C15.8092 1.60019 15.5825 1.37291 15.3653 1.14564C14.6475 0.382005 13.7597 0.0274592 12.7209 0.00927734C11.7197 0.0274592 10.8509 0.354732 10.1425 1.06382C7.23364 3.93655 4.32475 6.81837 1.41586 9.70019C1.07586 10.0365 0.868082 10.4365 0.764193 10.9002C0.54697 11.9365 0.329748 12.9729 0.103082 14.0093C0.00863715 14.4365 -0.057474 14.8638 0.0558594 15.3002C0.320304 16.3456 1.37808 17.0002 2.43586 16.782C3.5503 16.5547 4.66475 16.3365 5.77919 16.1184C6.31753 16.0184 6.80864 15.8275 7.2053 15.4365C10.1236 12.5456 13.0514 9.66382 15.9603 6.76382C17.3203 5.41837 17.3392 3.20928 16.017 1.81837L16.0264 1.83655ZM14.5436 5.4911C11.6442 8.382 8.74475 11.2638 5.83586 14.1456C5.78864 14.1911 5.72253 14.2456 5.65641 14.2547C4.47586 14.4547 3.30475 14.6456 2.12419 14.8456C2.09586 14.8456 2.05808 14.8456 2.01086 14.8456C2.14308 14.1547 2.2753 13.482 2.40753 12.8093C2.50197 12.3184 2.59642 11.8275 2.70975 11.3365C2.72864 11.2456 2.77586 11.1547 2.84197 11.0911C5.73197 8.21837 8.62197 5.34564 11.5214 2.482C12.1542 1.85473 13.1647 1.85473 13.807 2.482C14.062 2.72746 14.317 2.97291 14.5625 3.22746C15.2331 3.91837 15.2331 4.81837 14.5625 5.4911H14.5436Z"
            fill="#013765" />
    </g>
    <defs>
        <clipPath id="clip0_157_6887">
            <rect width="17" height="20" fill="white" />
        </clipPath>
    </defs>
</svg>
