<svg width="22" height="16" viewBox="0 0 22 16" fill="none" xmlns="http://www.w3.org/2000/svg">
    <path
        d="M20.7785 2.28587H1.22206C0.488711 2.28587 0 1.82837 0 1.14267C0 0.456959 0.488711 0 1.22206 0H20.7779C21.5113 0 22 0.456959 22 1.14267C22 1.82837 21.5113 2.28533 20.7779 2.28533L20.7785 2.28587Z"
        fill="#1A1A1A" />
    <path
        d="M20.7785 9.14293H1.22206C0.488711 9.14293 0 8.68598 0 8.00027C0 7.31456 0.488711 6.8576 1.22206 6.8576H20.7779C21.5113 6.8576 22 7.31456 22 8.00027C22 8.68598 21.5113 9.14293 20.7779 9.14293H20.7785Z"
        fill="#1A1A1A" />
    <path
        d="M20.7785 16H1.22206C0.488711 16 0 15.543 0 14.8573C0 14.1716 0.488711 13.7147 1.22206 13.7147H20.7779C21.5113 13.7147 22 14.1716 22 14.8573C22 15.543 21.5113 16 20.7779 16H20.7785Z"
        fill="#1A1A1A" />
</svg>
