<svg width="10" height="7" viewBox="0 0 10 7" fill="none" xmlns="http://www.w3.org/2000/svg">
    <path
        d="M0.0817025 3.40263L1.94823 6.65545C2.05192 6.8423 2.24203 6.96969 2.46671 6.99517C2.68274 7.02065 2.89877 6.94421 3.05432 6.79134L8.57612 1.15198C8.844 0.880203 8.83536 0.455552 8.55884 0.192268C8.28231 -0.0710151 7.85025 -0.0625225 7.58237 0.209254L2.70002 5.18616L1.29149 2.72319C1.10138 2.40045 0.686595 2.28155 0.349583 2.4684C0.0212132 2.65524 -0.0997654 3.06291 0.0903436 3.39413L0.0817025 3.40263Z"
        fill="#FE6B01" />
    <path
        d="M9.25892 1.6531L5.33576 5.67879C5.17158 5.84865 5.18022 6.12043 5.3444 6.2818C5.51723 6.44316 5.79375 6.43467 5.95794 6.2733L9.8811 2.24761C10.0453 2.07775 10.0366 1.80598 9.87246 1.64461C9.69963 1.48324 9.42311 1.49174 9.25892 1.6531Z"
        fill="#FE6B01" />
</svg>