<svg width="50" height="50" viewBox="0 0 50 50" fill="none" xmlns="http://www.w3.org/2000/svg">
    <g clip-path="url(#clip0_157_6723)">
        <path
            d="M35.4167 18.2833C35.4167 19.2667 34.7333 19.9833 33.85 19.9833C32.95 19.9833 32.3 19.2833 32.3 18.2833C32.3 14.2333 32.3 10.1833 32.3 6.13333C32.3 4.18333 31.2667 3.15 29.3333 3.15H6.05C4.16667 3.15 3.13333 4.2 3.13333 6.08333V37.7167C3.13333 39.6 4.16667 40.65 6.05 40.65C10.3833 40.65 14.7 40.65 19.0333 40.65C20.2333 40.65 21 41.7 20.6 42.75C20.35 43.4 19.8 43.7667 19.0333 43.7667C15.4333 43.7667 11.8333 43.7667 8.25 43.7667C7.15 43.7667 6.03333 43.8333 4.93333 43.6833C2.38333 43.35 0.583333 41.5333 0.0833333 39C0.0833333 38.9167 0.0333333 38.85 0 38.7833V4.98333C0.0333333 4.88333 0.0833333 4.76667 0.1 4.66667C0.516667 2.71667 1.63333 1.3 3.46667 0.483333C3.95 0.266667 4.48333 0.166667 4.98333 0H30.4667C30.7667 0.0833333 31.05 0.166667 31.35 0.25C33.7333 0.966667 35.4 3.13333 35.4167 5.68333C35.45 9.88333 35.4167 14.0833 35.4167 18.2833Z"
            fill="#AEAEAE" />
        <path
            d="M36.5004 22.9332C29.0337 22.8999 22.9671 28.9332 22.9337 36.4332C22.9004 43.8999 28.9504 49.9832 36.4171 50.0166C43.8671 50.0499 49.9671 43.9832 50.0004 36.5166C50.0171 29.0499 43.9837 22.9832 36.5004 22.9499V22.9332ZM36.4504 46.8832C30.7004 46.8832 26.0337 42.1999 26.0504 36.4332C26.0671 30.6832 30.7171 26.0499 36.4671 26.0499C42.2337 26.0499 46.9004 30.7332 46.8837 36.4832C46.8837 42.2166 42.1837 46.8666 36.4671 46.8666L36.4504 46.8832Z"
            fill="#AEAEAE" />
        <path
            d="M29.1002 18.6498C28.9335 19.1998 28.5669 19.5832 28.0002 19.7165C27.7502 19.7832 27.4835 19.7832 27.2335 19.7832C20.8835 19.7832 14.5502 19.7832 8.20018 19.7832C8.05018 19.7832 7.90018 19.7832 7.76685 19.7832C6.88352 19.6998 6.23352 19.0165 6.26685 18.1665C6.28352 17.3165 6.95018 16.6665 7.86685 16.6665C10.0169 16.6665 12.1669 16.6665 14.3002 16.6665C15.4502 16.6665 16.6169 16.6665 17.7669 16.6665C18.7169 16.6665 19.6835 16.6665 20.6335 16.6665C22.9335 16.6665 25.2335 16.6665 27.5169 16.6665C28.6502 16.6665 29.4002 17.6165 29.1002 18.6498Z"
            fill="#AEAEAE" />
        <path
            d="M20.8167 26.5499C20.8167 27.4999 20.1167 28.1333 19.05 28.1333C17.2 28.1333 15.35 28.1333 13.5 28.1333C11.65 28.1333 9.83333 28.1333 7.98333 28.1333C6.95 28.1333 6.25 27.4833 6.25 26.5666C6.25 25.6499 6.96667 25.0166 8 25.0166C11.6833 25.0166 15.3833 25.0166 19.0667 25.0166C20.1167 25.0166 20.8167 25.6333 20.8167 26.5666V26.5499Z"
            fill="#AEAEAE" />
        <path
            d="M18.7504 9.91676C18.7504 10.8001 18.0504 11.4334 17.0838 11.4501C15.5504 11.4501 14.0338 11.4501 12.5004 11.4501C10.9171 11.4501 9.35045 11.4501 7.76711 11.4501C7.01711 11.4501 6.40045 10.8668 6.28378 10.1501C6.16711 9.4501 6.56711 8.71676 7.25045 8.46676C7.46711 8.38343 7.73378 8.3501 7.96711 8.3501C11.0171 8.3501 14.0504 8.3501 17.1004 8.3501C18.0838 8.3501 18.7838 9.03343 18.7838 9.93343L18.7504 9.91676Z"
            fill="#AEAEAE" />
        <path
            d="M42.6836 37.9332C42.4503 37.9998 42.2003 38.0165 41.9669 38.0165C40.8503 38.0165 39.7169 38.0165 38.6003 38.0165H38.0003C38.0003 39.4832 38.0003 40.8665 38.0003 42.2498C38.0003 42.9665 37.4836 43.5498 36.8003 43.7165C36.1669 43.8665 35.4503 43.5832 35.1336 42.9832C34.9836 42.6998 34.9003 42.3332 34.9003 41.9998C34.8669 40.8665 34.9003 39.7165 34.9003 38.5832V37.9998C33.9669 37.9998 33.1003 37.9998 32.2169 37.9998C31.7336 37.9998 31.2336 37.9998 30.7503 37.9998C29.8503 37.9832 29.2003 37.3332 29.1836 36.4665C29.1836 35.5998 29.8003 34.9165 30.7003 34.8832C31.5669 34.8498 32.4169 34.8832 33.2836 34.8832C33.8003 34.8832 34.3169 34.8832 34.8836 34.8832V33.2332C34.8836 32.3998 34.8669 31.5665 34.8836 30.7498C34.9169 29.8165 35.5669 29.1665 36.4503 29.1665C37.3336 29.1665 37.9836 29.8332 37.9836 30.7665C37.9836 31.9332 37.9836 33.1165 37.9836 34.2832V34.8498C38.2003 34.8498 38.3669 34.8665 38.5503 34.8665C39.7336 34.8665 40.9169 34.8665 42.1169 34.8665C42.9669 34.8665 43.6003 35.4332 43.7169 36.2165C43.8169 36.9332 43.3669 37.6665 42.6669 37.8998L42.6836 37.9332Z"
            fill="#AEAEAE" />
    </g>
    <defs>
        <clipPath id="clip0_157_6723">
            <rect width="50" height="50" fill="white" />
        </clipPath>
    </defs>
</svg>
