<svg width="20" height="16" viewBox="0 0 20 16" fill="none" xmlns="http://www.w3.org/2000/svg">
    <path fill-rule="evenodd" clip-rule="evenodd"
        d="M0 14.7386C0 15.4744 0.607225 16 1.2685 16H16.0048C16.3283 16 16.5906 15.7293 16.5906 15.3955C16.5906 15.0616 16.3283 14.791 16.0048 14.791H1.2685C1.22861 14.791 1.20059 14.7757 1.18523 14.7609C1.17097 14.7472 1.17153 14.7392 1.17157 14.7386C1.17157 14.7386 1.17157 14.7386 1.17157 14.7386V1.23602C1.17245 1.23475 1.17396 1.23286 1.17637 1.23055C1.18626 1.22103 1.20672 1.20903 1.23827 1.20903H5.97533C5.99362 1.20903 6.00954 1.21349 6.02163 1.21971C6.0337 1.22593 6.03956 1.23256 6.04178 1.23578L7.34669 3.11915C7.57326 3.44618 7.94128 3.6271 8.31851 3.6271H15.5993C15.6308 3.6271 15.6513 3.6391 15.6612 3.64862C15.6636 3.65093 15.6651 3.65282 15.666 3.65409V7.03005C15.666 7.36392 15.9282 7.63457 16.2518 7.63457C16.5753 7.63457 16.8376 7.36392 16.8376 7.03005V3.6504C16.8376 2.93067 16.2439 2.41807 15.5993 2.41807H8.31851C8.30972 2.41807 8.30302 2.4159 8.29913 2.4139C8.29857 2.41361 8.29812 2.41335 8.29776 2.41314L6.99474 0.532482L6.99468 0.532395C6.75753 0.190242 6.37177 0 5.97533 0H1.23827C0.593668 0 0 0.512597 0 1.23233V14.7386Z"
        fill="#FE6B01" />
    <path fill-rule="evenodd" clip-rule="evenodd"
        d="M18.7827 8.28162L15.4804 15.126L16.5292 15.6649L19.8314 8.8205C20.3884 7.66604 19.4822 6.46584 18.3248 6.46584H5.0649C4.42394 6.46584 3.81693 6.83171 3.54141 7.44023C3.5414 7.44024 3.54141 7.44022 3.54141 7.44023L0.150059 14.9298L1.21146 15.4416L4.60281 7.95207C4.67143 7.80052 4.84414 7.67487 5.0649 7.67487H18.3248C18.5254 7.67487 18.6742 7.77249 18.7543 7.89321C18.8324 8.01097 18.8471 8.14812 18.7827 8.28162Z"
        fill="#FE6B01" />
</svg>
