<svg width="24" height="21" viewBox="0 0 24 21" fill="none" xmlns="http://www.w3.org/2000/svg">
    <g clip-path="url(#clip0_211_4247)">
        <path
            d="M23.73 7.75997C22.01 7.75997 20.29 7.75997 18.57 7.75997C18.42 7.75997 18.31 7.72997 18.2 7.60997C17.03 6.39997 15.85 5.19997 14.67 4.00997C14.55 3.88997 14.51 3.79997 14.57 3.61997C15.12 1.92997 13.95 0.139967 12.22 -3.28673e-05C10.28 -0.140033 8.84 1.75997 9.46 3.63997C9.51 3.77997 9.48 3.86997 9.38 3.96997C8.19 5.17997 7 6.38997 5.81 7.59997C5.73 7.67997 5.6 7.73997 5.49 7.73997C3.75 7.73997 2.01 7.73997 0.27 7.73997C0.12 7.73997 0 7.85997 0 8.01997V20.71C0 20.86 0.12 20.99 0.28 20.99C0.3 20.99 0.31 20.99 0.33 20.99C8.11 20.99 15.9 20.99 23.68 20.99H23.73C23.88 20.99 24 20.87 24 20.71V8.01997C24 7.86997 23.88 7.73997 23.73 7.73997V7.75997ZM12.01 1.43997C12.72 1.43997 13.31 2.03997 13.31 2.76997C13.31 3.49997 12.72 4.08997 12.01 4.08997C11.29 4.08997 10.71 3.48997 10.71 2.76997C10.71 2.03997 11.3 1.44997 12.01 1.44997V1.43997ZM10.4 4.98997C10.87 5.32997 11.41 5.51997 12 5.51997C12.59 5.51997 13.12 5.32997 13.58 4.99997C14.38 5.80997 15.16 6.61997 15.95 7.41997C16.06 7.53997 15.98 7.72997 15.82 7.72997H8.14C7.98 7.72997 7.9 7.52997 8.01 7.41997C8.81 6.60997 9.6 5.79997 10.4 4.97997V4.98997ZM22.32 19.55H1.69C1.54 19.55 1.42 19.43 1.42 19.27V9.47997C1.42 9.32997 1.54 9.19997 1.69 9.19997H22.33C22.48 9.19997 22.6 9.31997 22.6 9.47997V19.27C22.6 19.42 22.48 19.55 22.33 19.55H22.32Z"
            fill="#FE6B01" />
        <path
            d="M19.4501 12.3698C19.1801 12.2798 18.8901 12.2198 18.6001 12.2098C17.8901 12.1898 17.1801 12.1998 16.4701 12.1998C16.4201 12.1998 16.3701 12.2198 16.3201 12.2198V16.5498C16.8501 16.5498 17.3501 16.5598 17.8501 16.5498C18.2801 16.5398 18.7101 16.5498 19.1301 16.4598C20.1201 16.2698 20.7401 15.5298 20.8201 14.5298C20.8901 13.5298 20.3801 12.6898 19.4601 12.3698H19.4501ZM19.3701 14.4198C19.3501 14.9298 19.0801 15.2898 18.6101 15.3598C18.3401 15.3998 18.0601 15.3898 17.7601 15.4098V13.3198C18.0801 13.3398 18.4001 13.3198 18.6901 13.3898C19.1501 13.4898 19.3901 13.8898 19.3701 14.4198Z"
            fill="#FE6B01" />
        <path
            d="M11.91 13.6601C11.61 12.7001 10.71 12.0901 9.59996 12.0801C9.38996 12.1101 9.17996 12.1201 8.97996 12.1701C7.31996 12.5401 6.62996 14.5501 7.73996 15.8301C8.35996 16.5401 9.16996 16.7301 10.06 16.6101C11.47 16.4301 12.35 15.0301 11.92 13.6601H11.91ZM9.31996 15.4101C8.81996 15.2501 8.53996 14.6501 8.68996 14.0401C8.81996 13.5001 9.28996 13.2001 9.81996 13.3101C10.27 13.4101 10.56 13.8201 10.56 14.3801C10.56 15.1401 9.97996 15.6201 9.31996 15.4101Z"
            fill="#FE6B01" />
        <path
            d="M6.4401 16.2201C6.0901 16.4901 5.6901 16.6001 5.2601 16.6301C4.5101 16.6801 3.8001 16.5601 3.1001 16.2001C3.2601 15.8401 3.4101 15.4901 3.5601 15.1301C4.0401 15.3901 4.5201 15.5301 5.0301 15.5201C5.1001 15.5201 5.1801 15.5301 5.2401 15.5001C5.3401 15.4501 5.4301 15.3701 5.5301 15.3001C5.4501 15.2201 5.3901 15.1001 5.3001 15.0701C5.0201 14.9801 4.7301 14.9201 4.4401 14.8401C4.2801 14.8001 4.1201 14.7501 3.9701 14.6901C3.5601 14.5201 3.2601 14.2501 3.2001 13.7801C3.1301 13.2501 3.2701 12.7901 3.7101 12.5101C3.9801 12.3301 4.3001 12.2001 4.6101 12.1501C5.3501 12.0201 6.0701 12.1101 6.7701 12.4701C6.6301 12.8201 6.4901 13.1601 6.3501 13.5001C6.0401 13.4101 5.7601 13.3001 5.4601 13.2501C5.2501 13.2101 5.0201 13.2301 4.8101 13.2701C4.7301 13.2801 4.6301 13.4001 4.6101 13.4801C4.6001 13.5301 4.7101 13.6601 4.7901 13.6801C5.0401 13.7601 5.3001 13.8101 5.5601 13.8801C5.7601 13.9301 5.9701 13.9901 6.1601 14.0601C7.2101 14.4601 7.1201 15.7001 6.4301 16.2201H6.4401Z"
            fill="#FE6B01" />
        <path d="M15.8901 15.4V16.53H12.5601V12.21H13.9701V15.4H15.8901Z" fill="#FE6B01" />
    </g>
    <defs>
        <clipPath id="clip0_211_4247">
            <rect width="24" height="21" fill="white" />
        </clipPath>
    </defs>
</svg>
