<svg width="22" height="22" viewBox="0 0 22 22" fill="none" xmlns="http://www.w3.org/2000/svg">
    <g clip-path="url(#clip0_1294_2747)">
        <path fill-rule="evenodd" clip-rule="evenodd"
            d="M8.82052 1.51212C6.73275 1.51212 5.04044 3.20443 5.04044 5.2922C5.04044 7.37997 6.73275 9.07228 8.82052 9.07228C10.9083 9.07228 12.6006 7.37997 12.6006 5.2922C12.6006 3.20443 10.9083 1.51212 8.82052 1.51212ZM3.52832 5.2922C3.52789 2.36932 5.89764 0 8.82052 0C11.7434 0 14.1127 2.36932 14.1127 5.2922C14.1127 8.21508 11.7434 10.5844 8.82052 10.5844C5.89764 10.5844 3.52832 8.21508 3.52832 5.2922Z"
            fill="#FE6B01" />
        <path fill-rule="evenodd" clip-rule="evenodd"
            d="M8.82067 10.5844C4.78417 10.5844 1.51217 13.8564 1.51217 17.8929C1.51217 18.3104 1.17389 18.6487 0.756331 18.6487C0.338776 18.6487 0.000488281 18.3104 0.000488281 17.8929C0.000488281 13.0213 3.94949 9.07227 8.82111 9.07227C9.23866 9.07227 9.57695 9.41055 9.57695 9.82811C9.57695 10.2457 9.23866 10.584 8.82111 10.584L8.82067 10.5844Z"
            fill="#FE6B01" />
        <path fill-rule="evenodd" clip-rule="evenodd"
            d="M15.8769 11.3515C13.3772 11.3515 11.351 13.3777 11.351 15.8774C11.351 18.3771 13.3772 20.4034 15.8769 20.4034C17.357 20.4034 18.6707 19.6939 19.498 18.5933C19.7631 18.2407 20.2634 18.1696 20.6164 18.4343C20.969 18.6994 21.0401 19.1997 20.7754 19.5527C19.6596 21.0379 17.8807 22.0008 15.8774 22.0008C12.4958 22.0008 9.75439 19.2594 9.75439 15.8779C9.75439 12.4963 12.4958 9.75488 15.8774 9.75488C19.259 9.75488 22.0003 12.4963 22.0003 15.8779C22.0003 16.3188 21.6426 16.6766 21.2016 16.6766C20.7607 16.6766 20.4029 16.3188 20.4029 15.8779C20.4029 13.3782 18.3766 11.3519 15.8769 11.3519V11.3515Z"
            fill="#FE6B01" />
        <path
            d="M15.0434 18.0824C14.7671 17.9689 14.5457 17.8013 14.3803 17.5791C14.2148 17.3569 14.1273 17.0897 14.1187 16.7765H15.3562C15.3743 16.9532 15.4354 17.0884 15.5398 17.181C15.6442 17.2742 15.7802 17.3205 15.9478 17.3205C16.1155 17.3205 16.2562 17.2811 16.3559 17.2014C16.4555 17.1221 16.5053 17.0121 16.5053 16.8718C16.5053 16.754 16.4654 16.6565 16.3862 16.5794C16.3069 16.5023 16.2095 16.4391 16.0938 16.3888C15.9782 16.339 15.814 16.2823 15.6009 16.219C15.2925 16.1237 15.0408 16.0284 14.8459 15.9336C14.651 15.8383 14.4829 15.6979 14.3426 15.5121C14.2018 15.3263 14.1316 15.0837 14.1316 14.7844C14.1316 14.34 14.2923 13.9922 14.6146 13.7406C14.9364 13.4889 15.3557 13.3633 15.8725 13.3633C16.3892 13.3633 16.8224 13.4889 17.1442 13.7406C17.466 13.9922 17.6384 14.3422 17.6609 14.7914H16.4031C16.394 14.6372 16.3372 14.5159 16.2333 14.4275C16.1289 14.3392 15.995 14.295 15.8322 14.295C15.6914 14.295 15.5784 14.3322 15.4922 14.4072C15.406 14.4821 15.3631 14.5895 15.3631 14.7303C15.3631 14.8845 15.4354 15.0045 15.5805 15.0907C15.7256 15.1769 15.9522 15.27 16.2606 15.3696C16.569 15.474 16.8193 15.5736 17.0121 15.6689C17.2048 15.7642 17.3712 15.9024 17.5119 16.0839C17.6523 16.2654 17.7229 16.4988 17.7229 16.7843C17.7229 17.0697 17.6536 17.3036 17.5154 17.5254C17.3772 17.7476 17.1762 17.9243 16.9138 18.056C16.6508 18.1877 16.3403 18.2531 15.9821 18.2531C15.6238 18.2531 15.3202 18.1963 15.0434 18.0833V18.0824Z"
            fill="#FE6B01" />
    </g>
    <defs>
        <clipPath id="clip0_1294_2747">
            <rect width="22" height="22" fill="white" />
        </clipPath>
    </defs>
</svg>