<svg width="22" height="22" viewBox="0 0 22 22" fill="none" xmlns="http://www.w3.org/2000/svg">
    <g clip-path="url(#clip0_152_5292)">
        <path
            d="M21.59 16.5099C19.13 14.0399 16.66 11.5799 14.19 9.10988C14.12 9.03988 14.02 8.99988 13.92 8.92988C14.27 8.58988 14.54 8.30988 14.83 8.03988C14.87 7.99988 14.97 7.99988 15.04 8.00988C15.6 8.09988 16.09 7.95988 16.5 7.56988C16.87 7.20988 17.23 6.84988 17.59 6.47988C17.89 6.17988 17.89 5.80988 17.59 5.50988C15.83 3.74988 14.07 1.97988 12.31 0.229883C12.01 -0.0701172 11.64 -0.0701172 11.34 0.229883C10.98 0.589883 10.62 0.949883 10.26 1.30988C9.85002 1.72988 9.72002 2.22988 9.80002 2.80988C9.81002 2.88988 9.78002 2.98988 9.73002 3.04988C8.29002 4.49988 6.84002 5.94988 5.39002 7.38988C5.33002 7.44988 5.21002 7.48988 5.13002 7.47988C4.53002 7.37988 4.03002 7.54988 3.60002 7.96988C3.26002 8.30988 2.92002 8.64988 2.58002 8.98988C2.25002 9.31988 2.25002 9.67988 2.58002 10.0099C4.33002 11.7599 6.07002 13.4999 7.82002 15.2499C8.15002 15.5799 8.51002 15.5799 8.84002 15.2499C9.17002 14.9299 9.48002 14.5999 9.81002 14.2799C10.26 13.8399 10.45 13.3099 10.35 12.6799C10.35 12.6199 10.35 12.5399 10.37 12.5099C10.65 12.2199 10.94 11.9299 11.25 11.6199C11.32 11.7099 11.37 11.7799 11.43 11.8399C13.94 14.3499 16.45 16.8599 18.96 19.3699C19.36 19.7699 19.68 19.7699 20.08 19.3699C20.57 18.8799 21.07 18.3899 21.55 17.8899C21.71 17.7299 21.84 17.5399 21.98 17.3699V17.0299C21.84 16.8599 21.72 16.6799 21.57 16.5199L21.59 16.5099ZM11.28 2.10988C11.45 1.92988 11.62 1.74988 11.8 1.55988C13.3 3.05988 14.76 4.52988 16.23 5.98988C16.01 6.21988 15.8 6.46988 15.56 6.67988C15.42 6.80988 15.23 6.76988 15.06 6.60988C14.7 6.25988 14.35 5.89988 14 5.54988C13.09 4.63988 12.19 3.73988 11.28 2.82988C11 2.54988 11 2.38988 11.28 2.10988ZM8.99002 13.2599C8.79002 13.4799 8.57002 13.6899 8.38002 13.8799C6.90002 12.3999 5.43002 10.9299 3.94002 9.43988C4.13002 9.25988 4.33002 9.05988 4.53002 8.85988C4.72002 8.67988 4.91002 8.66988 5.10002 8.85988C6.39002 10.1499 7.68002 11.4399 8.97002 12.7299C9.14002 12.8999 9.15002 13.0999 8.99002 13.2699V13.2599ZM9.54002 11.4199C8.51002 10.3899 7.44002 9.31988 6.39002 8.26988C7.79002 6.86988 9.20002 5.45988 10.62 4.03988C11.66 5.08988 12.73 6.14988 13.77 7.18988C12.37 8.58988 10.94 10.0099 9.54002 11.4199ZM19.52 18.0199C17.11 15.6099 14.65 13.1499 12.21 10.7099C12.49 10.4299 12.78 10.1399 13.05 9.86988C15.49 12.3099 17.94 14.7599 20.37 17.1899C20.1 17.4599 19.8 17.7499 19.52 18.0299V18.0199Z"
            fill="#FE6B01" />
        <path
            d="M16.87 21.2202C16.8 20.9302 16.57 20.7302 16.28 20.7102C16.12 20.7102 15.97 20.7102 15.81 20.7102H15.04C15.04 20.5502 15.04 20.4202 15.04 20.2902C15.01 19.1102 14.07 18.1402 12.89 18.1402C9.92995 18.1302 6.96995 18.1402 3.99995 18.1402C2.93995 18.1402 2.04995 18.9302 1.87995 19.9802C1.83995 20.2202 1.83995 20.4602 1.81995 20.7202C1.42995 20.7202 1.04995 20.7202 0.659952 20.7202C0.329952 20.7202 0.0799517 20.9202 -4.83282e-05 21.2302C-0.0700483 21.5102 0.0799517 21.8002 0.369952 21.9502C0.399952 21.9702 0.429952 21.9902 0.449952 22.0102H16.39C16.39 22.0102 16.48 21.9502 16.53 21.9202C16.78 21.7802 16.91 21.4902 16.85 21.2302L16.87 21.2202ZM13.75 20.6902H3.14995C3.14995 20.5102 3.12995 20.3402 3.14995 20.1802C3.21995 19.7202 3.59995 19.4102 4.08995 19.4102C6.11995 19.4102 8.13995 19.4102 10.17 19.4102C11.01 19.4102 11.86 19.4102 12.71 19.4102C13.4 19.4102 13.75 19.7702 13.75 20.4502C13.75 20.5202 13.75 20.5902 13.75 20.6802V20.6902Z"
            fill="#FE6B01" />
    </g>
    <defs>
        <clipPath id="clip0_152_5292">
            <rect width="22" height="22" fill="white" />
        </clipPath>
    </defs>
</svg>
