<svg width="21" height="22" viewBox="0 0 21 22" fill="none" xmlns="http://www.w3.org/2000/svg">
    <path
        d="M19.9352 16.8653C19.6515 15.4451 18.7844 14.4899 17.3712 14.1109C15.9318 13.7245 14.6927 14.1402 13.7066 15.2485C13.5999 15.3688 13.5345 15.3873 13.3862 15.312C11.6446 14.4268 9.89859 13.5489 8.15108 12.6754C8.01319 12.6065 7.97896 12.538 8.01616 12.3922C8.18828 11.7251 8.15009 11.0644 7.91249 10.4183C7.86785 10.297 7.90059 10.2496 8.00079 10.1909C9.86386 9.08999 11.7259 7.98761 13.5851 6.88082C13.7011 6.81186 13.7577 6.83094 13.8445 6.92191C14.905 8.0326 16.5612 8.35295 17.9223 7.71715C19.3593 7.04516 20.1817 5.6058 19.958 4.07108C19.7502 2.64493 18.9332 1.66139 17.5513 1.20459C16.1887 0.754152 14.9392 1.05249 13.9283 2.05021C12.9129 3.05233 12.6352 4.27795 13.0667 5.6415C13.1034 5.75741 13.093 5.81561 12.9779 5.8836C11.1129 6.98157 9.25127 8.08396 7.39216 9.19123C7.27262 9.26214 7.21061 9.25676 7.11339 9.1565C6.5886 8.6146 5.94823 8.27959 5.19922 8.14167C3.10946 7.75725 1.11394 9.29882 1.00482 11.3857C0.925454 12.9043 1.83318 14.3138 3.23644 14.8508C4.72453 15.4201 6.33364 15.0034 7.33264 13.7822C7.43085 13.6619 7.49682 13.6516 7.63521 13.722C9.37726 14.6063 11.1228 15.4842 12.8703 16.3587C12.9958 16.4213 13.03 16.477 12.9923 16.6198C12.533 18.3668 13.4928 20.1519 15.2145 20.7843C15.4724 20.8787 15.7472 20.9002 16.0012 21H16.7929C16.8023 20.9702 16.8266 20.9682 16.8539 20.9648C18.8851 20.7403 20.3285 18.8368 19.9352 16.8653ZM18.8112 4.52543C18.8122 5.81512 17.7418 6.87055 16.4337 6.8686C15.1257 6.86713 14.0578 5.80926 14.0617 4.51907C14.0662 3.23769 15.1302 2.18911 16.4298 2.18568C17.7383 2.18226 18.8102 3.23524 18.8112 4.52543ZM2.18586 11.5857C2.18933 10.2965 3.26373 9.24503 4.57225 9.25089C5.87184 9.25676 6.93334 10.3073 6.93532 11.5892C6.93681 12.8794 5.86688 13.9353 4.55885 13.9343C3.25083 13.9333 2.18239 12.8759 2.18586 11.5857ZM16.4228 19.8287C15.1232 19.8218 14.0627 18.7703 14.0617 17.4879C14.0612 16.1982 15.1322 15.1433 16.4402 15.1453C17.7482 15.1472 18.8157 16.2056 18.8112 17.4953C18.8067 18.785 17.7313 19.8355 16.4228 19.8287Z"
        fill="#013765" stroke="#013765" stroke-width="0.3" />
</svg>
