<svg width="15" height="14" viewBox="0 0 15 14" fill="none" xmlns="http://www.w3.org/2000/svg">
    <path fill-rule="evenodd" clip-rule="evenodd"
        d="M4.95751 0.000811652C5.26495 -0.00747453 5.60333 0.0470069 5.89021 0.195478L5.89355 0.197206L9.60764 2.15263C9.69123 2.19755 9.83616 2.23261 10.0117 2.2272C10.187 2.2218 10.3326 2.1779 10.4161 2.12784L12.0752 1.1298C12.7571 0.717663 13.509 0.611035 14.1212 0.986026C14.7236 1.35504 15 2.07497 15 2.88842V10.1424C15 10.4944 14.8836 10.8488 14.7214 11.142C14.5598 11.4344 14.3233 11.719 14.0297 11.8992L14.0266 11.9011L10.9667 13.75L10.9652 13.7509C10.686 13.9184 10.3496 13.9909 10.0425 13.9992C9.73505 14.0075 9.39667 13.953 9.10979 13.8045L9.1057 13.8024L5.39566 11.8417L5.39237 11.8399C5.30878 11.795 5.16384 11.7599 4.98828 11.7653C4.81307 11.7707 4.66749 11.8146 4.58403 11.8646L2.92484 12.8627C2.24292 13.2749 1.49095 13.3815 0.878797 13.0065C0.276397 12.6375 0 11.9176 0 11.1041V3.85015C0 3.50288 0.114051 3.15062 0.275613 2.85759C0.436718 2.5654 0.674202 2.27939 0.973601 2.0988L4.03481 0.249108C4.314 0.081626 4.65044 0.00908775 4.95751 0.000811652ZM1.52547 3.02188L4.43137 1.26602V10.7239C4.43137 10.7392 4.43201 10.7545 4.43327 10.7695C4.29364 10.8098 4.1581 10.866 4.03425 10.9403L2.37356 11.9393L2.37251 11.9399C1.89565 12.2283 1.59078 12.1815 1.43638 12.0869C1.27204 11.9862 1.07143 11.7072 1.07143 11.1041V3.85015C1.07143 3.72774 1.11638 3.5544 1.21275 3.37961C1.30953 3.20409 1.42928 3.07987 1.52547 3.02188ZM5.89569 10.8892C5.77175 10.8228 5.63848 10.7749 5.50249 10.7425C5.5027 10.7363 5.5028 10.7301 5.5028 10.7239V1.20721L9.10465 3.10353C9.22869 3.16991 9.36207 3.21781 9.49816 3.25018V12.7931L5.89758 10.8902L5.89569 10.8892ZM10.5696 12.7334L13.4713 10.9801L13.4726 10.9793C13.5675 10.9206 13.6873 10.7954 13.7849 10.6189C13.8825 10.4424 13.9286 10.2675 13.9286 10.1424V2.88842C13.9286 2.28537 13.728 2.0063 13.5636 1.90563C13.4092 1.81105 13.1044 1.76426 12.6275 2.05261L12.6264 2.05324L10.9658 3.05224C10.8427 3.12603 10.7082 3.18198 10.5696 3.22222V12.7334Z"
        fill="white" />
</svg>
