<svg width="22" height="22" viewBox="0 0 22 22" fill="none" xmlns="http://www.w3.org/2000/svg">
    <g clip-path="url(#clip0_152_5289)">
        <path
            d="M21.35 12.75C21.05 12.5 20.73 12.26 20.43 12.01C19.75 11.45 19.75 10.55 20.43 9.99C20.73 9.74 21.04 9.51 21.33 9.26C22.05 8.67 22.2 7.81 21.73 7.02C21.13 6 20.52 4.99 19.92 3.97C19.44 3.17 18.58 2.88 17.69 3.2C17.32 3.33 16.96 3.47 16.59 3.6C15.77 3.87 14.96 3.41 14.81 2.58C14.75 2.23 14.69 1.87 14.63 1.52C14.52 0.89 14.19 0.42 13.59 0.15C13.44 0.09 13.29 0.05 13.13 0H8.87997C8.87997 0 8.82997 0.03 8.79997 0.03C8.00997 0.21 7.54997 0.69 7.38997 1.45C7.31997 1.81 7.25997 2.18 7.19997 2.55C7.04997 3.42 6.22997 3.88 5.37997 3.58C5.00997 3.45 4.64997 3.31 4.27997 3.18C3.42997 2.89 2.56997 3.18 2.11997 3.93C1.48997 4.97 0.869972 6.01 0.259972 7.05C-0.190028 7.81 -0.0200282 8.67 0.669972 9.24C0.969972 9.49 1.28997 9.73 1.58997 9.98C2.25997 10.54 2.25997 11.44 1.58997 12C1.28997 12.25 0.979972 12.48 0.689972 12.73C-0.0200282 13.31 -0.180028 14.17 0.279972 14.95C0.879972 15.97 1.48997 17 2.10997 18.02C2.58997 18.81 3.44997 19.11 4.33997 18.79C4.70997 18.66 5.06997 18.52 5.43997 18.39C6.25997 18.12 7.06997 18.59 7.21997 19.42C7.27997 19.77 7.33997 20.13 7.39997 20.48C7.54997 21.36 8.23997 21.98 9.10997 21.99C10.39 22 11.67 22 12.94 21.99C13.75 21.99 14.45 21.42 14.61 20.64C14.7 20.24 14.76 19.84 14.83 19.44C14.98 18.57 15.79 18.11 16.65 18.41C17.02 18.54 17.39 18.69 17.77 18.81C18.61 19.09 19.46 18.8 19.91 18.06C20.54 17.02 21.16 15.98 21.77 14.94C22.22 14.18 22.05 13.32 21.37 12.75H21.35ZM19.02 16.11C18.83 16.43 18.64 16.74 18.46 17.06C18.39 17.18 18.33 17.2 18.2 17.15C17.75 16.98 17.29 16.79 16.82 16.68C15.02 16.27 13.33 17.43 13.04 19.24C12.99 19.58 12.92 19.92 12.86 20.26H9.12997C9.05997 19.86 8.98997 19.45 8.90997 19.04C8.55997 17.22 6.61997 16.14 4.80997 16.76C4.45997 16.88 4.11997 17.01 3.76997 17.14C3.66997 17.18 3.60997 17.17 3.55997 17.08C2.96997 16.09 2.37997 15.1 1.78997 14.1C1.78997 14.09 1.78997 14.07 1.77997 14.05C2.06997 13.82 2.36997 13.58 2.65997 13.34C4.22997 12.09 4.22997 9.88 2.65997 8.63C2.35997 8.39 2.06997 8.16 1.75997 7.91C2.35997 6.9 2.95997 5.9 3.54997 4.9C3.59997 4.81 3.64997 4.78 3.75997 4.83C4.06997 4.95 4.37997 5.06 4.68997 5.17C6.65997 5.88 8.62997 4.75 8.93997 2.73C8.98997 2.39 9.05997 2.06 9.11997 1.72H12.84C12.91 2.13 12.98 2.53 13.06 2.93C13.41 4.74 15.29 5.82 17.09 5.24C17.46 5.12 17.82 4.98 18.19 4.85C18.28 4.82 18.35 4.8 18.41 4.9C19 5.9 19.6 6.91 20.21 7.92C19.91 8.16 19.63 8.39 19.34 8.62C17.74 9.9 17.73 12.09 19.34 13.37C19.63 13.6 19.92 13.83 20.22 14.07C19.81 14.75 19.41 15.43 19.01 16.1L19.02 16.11Z"
            fill="#FE6B01" />
        <path
            d="M11.15 6.77004C8.76005 6.67004 6.74005 8.49004 6.62005 10.85C6.51005 13.15 8.40005 15.12 10.85 15.24C13.26 15.31 15.26 13.5 15.37 11.14C15.48 8.85004 13.6 6.87004 11.15 6.77004ZM11 13.53C9.58005 13.53 8.39005 12.38 8.39005 11C8.39005 9.62004 9.57005 8.49004 10.99 8.48004C12.42 8.48004 13.6 9.63004 13.6 11.01C13.6 12.39 12.42 13.52 11 13.53Z"
            fill="#FE6B01" />
    </g>
    <defs>
        <clipPath id="clip0_152_5289">
            <rect width="22" height="22" fill="white" />
        </clipPath>
    </defs>
</svg>
