<svg width="23" height="22" viewBox="0 0 23 22" fill="none" xmlns="http://www.w3.org/2000/svg">
    <path
        d="M21.5449 10.0904C19.6249 8.37037 17.6949 6.65037 15.7649 4.94037C14.3949 3.72037 13.0349 2.51037 11.6649 1.29037C11.4449 1.09037 11.2049 0.980373 10.9049 1.00037C10.6049 1.03037 10.4049 1.22037 10.1949 1.41037C8.23486 3.16037 6.27486 4.90037 4.31486 6.64037C2.99486 7.82037 1.66486 8.99037 0.344857 10.1704C-0.0651429 10.5404 -0.115143 11.1004 0.224857 11.5004C0.554857 11.8904 1.09486 11.9204 1.51486 11.5804C1.56486 11.5404 1.61486 11.5104 1.68486 11.4504V20.9704C1.68486 21.6204 2.04486 22.0004 2.68486 22.0004H19.3349C19.4349 22.0004 19.5349 22.0004 19.6349 21.9704C20.0749 21.8604 20.3249 21.5004 20.3249 20.9604V11.4504C20.4249 11.5304 20.4849 11.5904 20.5549 11.6404C21.0349 12.0104 21.6949 11.8304 21.9349 11.2704C21.9549 11.2204 21.9849 11.1704 22.0049 11.1204V10.7304C21.8549 10.5204 21.7349 10.2804 21.5549 10.1104V10.0904H21.5449ZM18.4949 19.8404V20.1404H3.48486V10.0404C3.48486 9.90037 3.51486 9.80037 3.62486 9.70037C6.06486 7.54037 8.49486 5.37037 10.9349 3.20037C10.9549 3.20037 10.9749 3.18037 11.0049 3.15037C11.9849 4.02037 12.9449 4.88037 13.9149 5.74037C15.3749 7.04037 16.8249 8.34037 18.2949 9.63037C18.4549 9.77037 18.5149 9.92037 18.5149 10.1304V19.8404H18.5049H18.4949Z"
        fill="#FE6B01" />
    <path
        d="M14.0501 12.86C14.0501 13.36 13.6701 13.72 13.1301 13.72C12.4401 13.72 11.7601 13.72 11.0701 13.72C10.3801 13.72 9.70008 13.72 9.01008 13.72C8.47008 13.72 8.08008 13.36 8.08008 12.86C8.08008 12.36 8.46008 12 9.00008 12C10.3701 12 11.7501 12 13.1201 12C13.6601 12 14.0501 12.36 14.0501 12.86Z"
        fill="#FE6B01" />
    <path
        d="M14.0501 16.86C14.0501 17.36 13.6701 17.72 13.1301 17.72C12.4401 17.72 11.7601 17.72 11.0701 17.72C10.3801 17.72 9.70008 17.72 9.01008 17.72C8.47008 17.72 8.08008 17.36 8.08008 16.86C8.08008 16.36 8.46008 16 9.00008 16C10.3701 16 11.7501 16 13.1201 16C13.6601 16 14.0501 16.36 14.0501 16.86Z"
        fill="#FE6B01" />
    <path d="M14.095 17.72L14.085 17.71L14.095 17.72Z" fill="#FE6B01" />
</svg>
