<svg width="18" height="20" viewBox="0 0 18 20" fill="none" xmlns="http://www.w3.org/2000/svg">
<g clip-path="url(#clip0_152_5434)">
<path d="M18.0002 2.09091C18.0002 1.48182 17.8022 0.945454 17.4422 0.572727C17.0822 0.209091 16.5692 0 15.9662 0C15.4982 0 15.0302 0 14.5622 0C13.6262 0 12.6992 0 11.7632 0C10.1522 0 8.54121 0 6.92121 0C5.83221 0 4.75221 0 3.66321 0C2.73621 0 1.94421 0.609091 1.76421 1.53636C1.69221 1.88182 1.71921 2.20909 1.71021 2.50909V2.7C1.71021 2.7 1.71021 2.76364 1.71021 2.79091C1.62921 2.79091 1.54821 2.79091 1.46721 2.79091C1.38621 2.79091 1.30521 2.79091 1.21521 2.79091C0.540211 2.80909 0.0182109 3.35455 0.000210936 4.04545C0.000210936 4.13636 0.000210936 4.22727 0.000210936 4.30909C0.000210936 4.43636 0.000210936 4.55455 0.000210936 4.68182C0.000210936 5.07273 0.126211 5.41818 0.360211 5.66364C0.594211 5.90909 0.936211 6.03636 1.31421 6.03636H1.51221C1.57521 6.03636 1.63821 6.03636 1.70121 6.03636V8.38182C1.62021 8.38182 1.53921 8.38182 1.45821 8.38182C1.36821 8.38182 1.27821 8.38182 1.18821 8.38182C0.531211 8.4 0.00921093 8.94545 -0.00878906 9.61818C-0.00878906 9.72727 -0.00878906 9.83636 -0.00878906 9.93636C-0.00878906 10.0545 -0.00878906 10.1818 -0.00878906 10.3C-0.00878906 10.6727 0.117211 11.0091 0.351211 11.2455C0.585211 11.4818 0.909211 11.6182 1.27821 11.6182H1.48521C1.54821 11.6182 1.62021 11.6182 1.68321 11.6182V13.9636C1.61121 13.9636 1.53921 13.9636 1.47621 13.9636C1.39521 13.9636 1.30521 13.9636 1.22421 13.9636C0.531211 13.9636 0.000210936 14.5273 -0.00878906 15.2364C-0.00878906 15.3273 -0.00878906 15.4273 -0.00878906 15.5182C-0.00878906 15.6364 -0.00878906 15.7545 -0.00878906 15.8727C-0.00878906 16.2545 0.117211 16.5909 0.351211 16.8273C0.585211 17.0636 0.918211 17.2 1.28721 17.2H1.49421C1.55721 17.2 1.62921 17.2 1.70121 17.2C1.70121 17.3273 1.70121 17.4545 1.70121 17.5727C1.70121 17.7 1.70121 17.8273 1.70121 17.9545C1.70121 18.5455 1.90821 19.0636 2.26821 19.4182C2.61921 19.7818 3.12321 19.9909 3.69921 19.9818C5.74221 19.9818 7.79421 19.9818 9.83721 19.9818C11.8802 19.9818 13.9322 19.9818 15.9752 19.9818C16.5602 19.9818 17.0732 19.7727 17.4332 19.4C17.7932 19.0273 17.9912 18.5 17.9912 17.8909C17.9912 15.2545 17.9912 12.6182 17.9912 9.98182C17.9912 7.34545 17.9912 4.70909 17.9912 2.07273L18.0002 2.09091ZM15.9482 17.4818C15.9482 14.8 15.9482 12.1182 15.9482 9.43636C15.9482 7.13636 15.9482 4.82727 15.9482 2.52727C15.9482 2.44545 15.9482 2.35455 15.9482 2.26364C15.9482 1.90909 15.9302 1.50909 15.7592 1.12727C15.9482 1.12727 16.1282 1.13636 16.2812 1.17273C16.6232 1.23636 16.8662 1.55455 16.8842 1.94545V2.13636V17.8455C16.8842 18.2182 16.7942 18.4545 16.6502 18.6091C16.5062 18.7545 16.2812 18.8455 15.9212 18.8455H15.7592C15.9302 18.4545 15.9482 18.0545 15.9482 17.6909V17.4727V17.4818ZM14.8322 17.8909C14.8322 18.2455 14.7422 18.4727 14.6072 18.6182C14.4632 18.7636 14.2472 18.8545 13.9142 18.8545H3.76221C3.42021 18.8545 3.19521 18.7636 3.06021 18.6182C2.91621 18.4727 2.82621 18.2364 2.82621 17.8818C2.82621 17.7818 2.82621 17.6909 2.82621 17.5909C2.82621 17.4636 2.82621 17.3364 2.82621 17.2091C2.89821 17.2091 2.97021 17.2091 3.04221 17.2091H3.24921C3.61821 17.2091 3.94221 17.0727 4.17621 16.8364C4.41021 16.6 4.53621 16.2636 4.53621 15.8909C4.53621 15.7727 4.53621 15.6455 4.53621 15.5273C4.53621 15.4182 4.53621 15.3182 4.53621 15.2091C4.51821 14.5273 3.98721 13.9818 3.31221 13.9727C3.23121 13.9727 3.14121 13.9727 3.06021 13.9727C2.98821 13.9727 2.91621 13.9727 2.83521 13.9727V11.6273C2.89821 11.6273 2.96121 11.6273 3.02421 11.6273C3.10521 11.6273 3.19521 11.6273 3.27621 11.6273C3.97821 11.6273 4.52721 11.0727 4.52721 10.3545C4.52721 10.2364 4.52721 10.1182 4.52721 10C4.52721 9.88182 4.52721 9.76364 4.52721 9.64545C4.51821 8.94545 3.97821 8.4 3.30321 8.39091C3.22221 8.39091 3.14121 8.39091 3.05121 8.39091C2.97921 8.39091 2.90721 8.39091 2.83521 8.39091V6.04545C2.89821 6.04545 2.97021 6.04545 3.03321 6.04545C3.11421 6.04545 3.19521 6.04545 3.28521 6.04545C3.98721 6.04545 4.52721 5.48182 4.53621 4.76364C4.53621 4.65455 4.53621 4.53636 4.53621 4.41818C4.53621 4.3 4.53621 4.19091 4.53621 4.07273C4.53621 3.36364 3.99621 2.80909 3.30321 2.8C3.22221 2.8 3.14121 2.8 3.06021 2.8C2.98821 2.8 2.92521 2.8 2.85321 2.8C2.85321 2.60909 2.85321 2.41818 2.85321 2.23636C2.85321 2.08182 2.85321 1.92727 2.87121 1.78182C2.89821 1.46364 3.23121 1.17273 3.57321 1.15455H3.77121C7.15521 1.15455 10.5392 1.15455 13.9142 1.15455C14.2562 1.15455 14.4722 1.24545 14.6162 1.39091C14.7602 1.53636 14.8412 1.76364 14.8502 2.10909C14.8502 4.74545 14.8502 7.37273 14.8502 10.0091C14.8502 12.6455 14.8502 15.2727 14.8502 17.9091H15.0662H14.8502L14.8322 17.8909ZM3.42021 9.71818C3.42021 9.82727 3.42021 9.92727 3.42021 10.0364C3.42021 10.1273 3.42021 10.2273 3.42021 10.3182L3.38421 10.4455L3.27621 10.4727C2.94321 10.4727 2.60121 10.4727 2.26821 10.4727C1.93521 10.4727 1.59321 10.4727 1.26021 10.4727L1.16121 10.4455L1.12521 10.3182C1.12521 10.2182 1.12521 10.1182 1.12521 10.0182C1.12521 9.90909 1.12521 9.8 1.12521 9.7C1.12521 9.6 1.15221 9.57273 1.16121 9.56364C1.17021 9.55455 1.19721 9.53636 1.28721 9.52727C1.42221 9.52727 1.54821 9.52727 1.68321 9.52727C1.88121 9.52727 2.07921 9.52727 2.27721 9.52727C2.47521 9.52727 2.67321 9.52727 2.87121 9.52727C2.99721 9.52727 3.11421 9.52727 3.24021 9.52727C3.34821 9.52727 3.37521 9.55455 3.38421 9.56364C3.39321 9.57273 3.42021 9.60909 3.42021 9.72727V9.71818ZM3.42021 15.2636C3.42021 15.3727 3.42021 15.4818 3.42021 15.5909C3.42021 15.6909 3.42021 15.8 3.42021 15.9L3.38421 16.0182L3.27621 16.0545C3.14121 16.0545 2.99721 16.0545 2.86221 16.0545C2.66421 16.0545 2.46621 16.0545 2.26821 16.0545C2.07021 16.0545 1.86321 16.0545 1.66521 16.0545C1.54821 16.0545 1.42221 16.0545 1.30521 16.0545C1.19721 16.0545 1.17021 16.0273 1.16121 16.0182C1.15221 16.0182 1.12521 15.9727 1.12521 15.8545C1.12521 15.7455 1.12521 15.6364 1.12521 15.5182C1.12521 15.4273 1.12521 15.3364 1.12521 15.2455L1.16121 15.1273L1.26921 15.1C1.59321 15.1 1.92621 15.1 2.25021 15.1C2.60121 15.1 2.94321 15.1 3.28521 15.1L3.38421 15.1273L3.42021 15.2545V15.2636ZM1.15221 4.85455C1.15221 4.85455 1.11621 4.80909 1.11621 4.69091C1.11621 4.58182 1.11621 4.47273 1.11621 4.36364C1.11621 4.27273 1.11621 4.18182 1.11621 4.08182L1.15221 3.95455L1.25121 3.92727C1.58421 3.92727 1.92621 3.92727 2.25921 3.92727C2.59221 3.92727 2.93421 3.92727 3.26721 3.92727L3.37521 3.95455L3.41121 4.07273C3.41121 4.18182 3.41121 4.28182 3.41121 4.39091C3.41121 4.5 3.41121 4.6 3.41121 4.70909C3.41121 4.79091 3.38421 4.81818 3.37521 4.82727C3.35721 4.83636 3.33021 4.86364 3.24921 4.86364C3.11421 4.86364 2.98821 4.86364 2.85321 4.86364C2.65521 4.86364 2.45721 4.86364 2.25921 4.86364C2.06121 4.86364 1.86321 4.86364 1.66521 4.86364C1.53921 4.86364 1.42221 4.86364 1.29621 4.86364V5.08182V4.86364C1.18821 4.86364 1.16121 4.83636 1.15221 4.82727V4.85455Z" fill="#FE6B01"/>
<path d="M13.1215 10.9818C12.9415 10.7727 12.7435 10.5636 12.5365 10.3727C12.2935 10.1455 11.9875 10.0273 11.6905 10.0273C11.3755 10.0273 11.0515 10.1545 10.8085 10.4C10.7815 10.4273 10.7545 10.4636 10.7275 10.4909C10.1515 9.9 9.59352 9.31819 9.02652 8.72728C9.06252 8.7 9.08952 8.67273 9.12552 8.63637C9.35952 8.38182 9.48552 8.05455 9.48552 7.72728C9.48552 7.41819 9.36852 7.10909 9.15252 6.85455C8.97252 6.64546 8.78352 6.45455 8.58552 6.27273C8.34252 6.04546 8.03652 5.92728 7.73052 5.92728C7.42452 5.92728 7.10952 6.05455 6.86652 6.29091C6.65952 6.49091 6.46152 6.69091 6.27252 6.90909C5.80452 7.43637 5.56152 8.10909 5.56152 8.78182C5.56152 9.43637 5.78652 10.0909 6.25452 10.6C7.11852 11.5364 8.00052 12.4455 8.90052 13.3364C9.38652 13.8182 10.0255 14.0636 10.6645 14.0636C11.0605 14.0636 11.4655 13.9727 11.8345 13.7818C12.4195 13.4909 12.8335 13.0273 13.2025 12.5455C13.3645 12.3364 13.4365 12.0818 13.4365 11.8364C13.4365 11.5273 13.3195 11.2182 13.1125 10.9727L13.1215 10.9818ZM11.5645 12.6364C11.3305 12.8364 11.0335 12.9091 10.6825 12.9182C10.2955 12.9091 9.96252 12.7909 9.68352 12.5091C8.80152 11.6182 7.92852 10.7273 7.08252 9.81819C6.81252 9.52728 6.67752 9.15455 6.67752 8.77273C6.67752 8.38182 6.82152 7.99091 7.09152 7.68182C7.25352 7.5 7.42452 7.32728 7.60452 7.15455L7.73052 7.07273L7.85652 7.14546C8.00952 7.3 8.16252 7.45455 8.30652 7.60909L8.36952 7.73637L8.30652 7.86364C8.17152 8.01819 8.01852 8.16364 7.86552 8.32728C7.74852 8.44546 7.66752 8.6 7.66752 8.77273C7.66752 8.94546 7.74852 9.09091 7.86552 9.20909C8.66652 10.0364 9.46752 10.8636 10.2685 11.6909C10.3855 11.8091 10.5295 11.9 10.6915 11.9C10.8625 11.9 11.0065 11.8091 11.1235 11.6909C11.2765 11.5364 11.4115 11.3818 11.5555 11.2455L11.6815 11.1727L11.8075 11.2455C11.9605 11.4 12.1135 11.5545 12.2575 11.7182L12.3205 11.8455L12.2845 11.9273C12.0505 12.1818 11.8075 12.4273 11.5555 12.6455L11.5645 12.6364Z" fill="#FE6B01"/>
</g>
<defs>
<clipPath id="clip0_152_5434">
<rect width="18" height="20" fill="white"/>
</clipPath>
</defs>
</svg>
