<svg width="22" height="21" viewBox="0 0 22 21" fill="none" xmlns="http://www.w3.org/2000/svg">
    <g clip-path="url(#clip0_155_4404)">
        <path
            d="M21.5502 9.08988C19.6302 7.36988 17.7002 5.64988 15.7702 3.93988C14.4002 2.71988 13.0402 1.50988 11.6702 0.289885C11.4502 0.0898848 11.2102 -0.0201152 10.9102 -0.000115176C10.6102 0.0298848 10.4102 0.219885 10.2002 0.409885C8.24023 2.15988 6.28023 3.89988 4.32023 5.63988C3.00023 6.81988 1.67023 7.98988 0.350228 9.16988C-0.0597718 9.53988 -0.109772 10.0999 0.230228 10.4999C0.560228 10.8899 1.10023 10.9199 1.52023 10.5799C1.57023 10.5399 1.62023 10.5099 1.69023 10.4499V10.7499C1.69023 13.8199 1.69023 16.8999 1.69023 19.9699C1.69023 20.6199 2.05023 20.9999 2.69023 20.9999C8.24023 20.9999 13.7902 20.9999 19.3402 20.9999C19.4402 20.9999 19.5402 20.9999 19.6402 20.9699C20.0802 20.8599 20.3302 20.4999 20.3302 19.9599C20.3302 16.8899 20.3302 13.8099 20.3302 10.7399V10.4499C20.4302 10.5299 20.4902 10.5899 20.5602 10.6399C21.0402 11.0099 21.7002 10.8299 21.9402 10.2699C21.9602 10.2199 21.9902 10.1699 22.0102 10.1199V9.72988C21.8602 9.51988 21.7402 9.27988 21.5602 9.10988L21.5502 9.08988ZM18.5102 18.8399V19.1399H3.49023V18.8999C3.49023 15.6099 3.49023 12.3299 3.49023 9.03988C3.49023 8.89988 3.52023 8.79988 3.63023 8.69988C6.07023 6.53988 8.50023 4.36988 10.9402 2.19988C10.9602 2.18988 10.9802 2.17988 11.0102 2.14988C11.9902 3.01988 12.9502 3.87988 13.9202 4.73988C15.3802 6.03988 16.8302 7.33988 18.3002 8.62988C18.4602 8.76988 18.5202 8.91988 18.5202 9.12988C18.5202 12.3699 18.5202 15.5999 18.5202 18.8399H18.5102Z"
            fill="#FE6B01" />
        <path
            d="M15.3198 13.3701C15.1398 13.5701 14.8998 13.6601 14.6298 13.6601C13.8098 13.6601 12.9798 13.6601 12.1598 13.6601H11.8998V13.9101C11.8998 14.7401 11.8998 15.5801 11.8998 16.4101C11.8998 16.9901 11.5298 17.4001 11.0098 17.4001C10.4698 17.4001 10.0998 17.0001 10.0998 16.4001C10.0998 15.4901 10.0998 14.5901 10.0998 13.6501H9.85976C9.01976 13.6501 8.16977 13.6501 7.32977 13.6501C6.86977 13.6501 6.49977 13.3001 6.44977 12.8501C6.39977 12.3601 6.66977 11.9401 7.13977 11.8301C7.23977 11.8101 7.34977 11.8001 7.45977 11.8001C8.32977 11.8001 9.20976 11.8001 10.1098 11.8001V11.5601C10.1098 10.7001 10.1098 9.83011 10.1098 8.97011C10.1098 8.48011 10.4598 8.10011 10.9298 8.06011C11.3998 8.02011 11.8098 8.33011 11.8998 8.80011C11.9198 8.89011 11.9198 8.99011 11.9198 9.08011C11.9198 9.90011 11.9198 10.7201 11.9198 11.5401V11.8001C12.8698 11.8001 13.7898 11.8001 14.6998 11.8001C15.0898 11.8001 15.3698 12.0101 15.5198 12.3701C15.6598 12.7201 15.5998 13.0601 15.3398 13.3501L15.3198 13.3701Z"
            fill="#FE6B01" />
    </g>
    <defs>
        <clipPath id="clip0_155_4404">
            <rect width="22" height="21" fill="white" />
        </clipPath>
    </defs>
</svg>
