<svg width="22" height="22" viewBox="0 0 22 22" fill="none" xmlns="http://www.w3.org/2000/svg">
    <g clip-path="url(#clip0_152_5314)">
        <path
            d="M18.5299 19.01C16.0399 21.37 13.0199 22.31 9.5999 21.9C4.9699 21.36 1.0599 17.8 0.209903 13.1C-0.520097 9.06 0.669903 5.62 3.6699 2.81C4.1999 2.31 4.9799 2.34 5.4399 2.85C5.8999 3.36 5.8599 4.12 5.3199 4.62C4.1199 5.71 3.2699 7.02 2.7999 8.58C1.3299 13.46 4.5299 18.62 9.5599 19.44C14.3299 20.23 18.7199 17.06 19.4699 12.28C19.5399 11.86 19.5499 11.43 19.5699 11.12C19.5199 8.49 18.6099 6.36 16.7399 4.67C15.9499 3.96 16.1899 2.78 17.0999 2.51C17.5499 2.37 17.9499 2.46 18.2999 2.77C20.3099 4.59 21.5499 6.83 21.8899 9.52C22.3599 13.24 21.2399 16.44 18.5199 19.01H18.5299Z"
            fill="#F11E1E" />
        <path
            d="M12.22 2.24988C12.22 5.09988 12.22 7.93988 12.22 10.7799C12.22 10.9599 12.22 11.1499 12.18 11.3199C12.02 11.9199 11.45 12.2799 10.82 12.1999C10.24 12.1299 9.80004 11.6299 9.79004 11.0099C9.79004 9.37988 9.79004 7.73988 9.79004 6.10988C9.79004 4.48988 9.79004 2.85988 9.79004 1.23988C9.79004 0.369877 10.57 -0.200123 11.37 0.0498774C11.85 0.199877 12.19 0.629877 12.21 1.12988C12.23 1.49988 12.21 1.86988 12.21 2.24988H12.22Z"
            fill="#F11E1E" />
    </g>
    <defs>
        <clipPath id="clip0_152_5314">
            <rect width="22" height="22" fill="white" />
        </clipPath>
    </defs>
</svg>
