<svg width="20" height="20" viewBox="0 0 20 20" fill="none" xmlns="http://www.w3.org/2000/svg">
    <path
        d="M17.6562 20H7.03125C5.73877 20 4.6875 18.9487 4.6875 17.6562V7.03125C4.6875 5.73877 5.73877 4.6875 7.03125 4.6875H17.6562C18.9487 4.6875 20 5.73877 20 7.03125V17.6562C20 18.9487 18.9487 20 17.6562 20ZM7.03125 6.25C6.60046 6.25 6.25 6.60046 6.25 7.03125V17.6562C6.25 18.087 6.60046 18.4375 7.03125 18.4375H17.6562C18.087 18.4375 18.4375 18.087 18.4375 17.6562V7.03125C18.4375 6.60046 18.087 6.25 17.6562 6.25H7.03125ZM3.125 13.75H2.34375C1.91296 13.75 1.5625 13.3995 1.5625 12.9688V2.34375C1.5625 1.91296 1.91296 1.5625 2.34375 1.5625H12.9688C13.3995 1.5625 13.75 1.91296 13.75 2.34375V3.08594H15.3125V2.34375C15.3125 1.05127 14.2612 0 12.9688 0H2.34375C1.05127 0 0 1.05127 0 2.34375V12.9688C0 14.2612 1.05127 15.3125 2.34375 15.3125H3.125V13.75Z"
        fill="#013765" />
</svg>
