<svg width="22" height="22" viewBox="0 0 22 22" fill="none" xmlns="http://www.w3.org/2000/svg">
    <g clip-path="url(#clip0_152_5295)">
        <path
            d="M18.4201 8.23008C18.4201 7.66008 18.4201 7.09008 18.3301 6.53008C18.1501 5.22008 17.5001 4.24008 16.1801 3.83008C15.8101 3.72008 15.4201 3.63008 15.0301 3.62008C14.0601 3.58008 13.1001 3.58008 12.1301 3.58008C11.5901 3.58008 11.0401 3.59008 10.5001 3.67008C9.22008 3.85008 8.24008 4.47008 7.84008 5.76008C7.68008 6.27008 7.65008 6.82008 7.58008 7.36008C7.56008 7.52008 7.53008 7.58008 7.36008 7.58008C7.10008 7.58008 6.85008 7.61008 6.60008 7.64008C4.92008 7.84008 3.84008 8.87008 3.67008 10.5501C3.57008 11.4801 3.59008 12.4301 3.58008 13.3701C3.58008 14.0601 3.58008 14.7601 3.66008 15.4501C3.85008 17.0801 4.89008 18.1301 6.52008 18.3201C7.34008 18.4201 8.18008 18.4101 9.00008 18.4501C9.83008 18.4101 10.6601 18.4201 11.4701 18.3201C12.7601 18.1601 13.7401 17.5301 14.1401 16.2401C14.3001 15.7301 14.3401 15.1801 14.4001 14.6401C14.4201 14.4701 14.4501 14.4001 14.6301 14.4001C14.8901 14.4001 15.1401 14.3801 15.3901 14.3401C16.7301 14.1501 17.7401 13.5201 18.1501 12.1701C18.2601 11.8001 18.3501 11.4101 18.3601 11.0201C18.4001 10.0901 18.4001 9.15008 18.4001 8.21008L18.4201 8.23008ZM12.8601 15.0301C12.8601 15.2301 12.8001 15.4401 12.7501 15.6401C12.5701 16.3401 12.0801 16.7301 11.3801 16.8001C10.5901 16.8801 9.79008 16.8901 9.10008 16.9201C8.24008 16.8901 7.48008 16.9101 6.74008 16.8201C5.68008 16.6901 5.18008 16.1601 5.15008 15.0901C5.10008 13.7001 5.13008 12.3101 5.15008 10.9201C5.15008 10.7201 5.20008 10.5201 5.26008 10.3301C5.42008 9.73008 5.83008 9.36008 6.43008 9.23008C6.70008 9.17008 6.98008 9.13008 7.26008 9.12008C8.48008 9.12008 9.71008 9.12008 10.9301 9.12008C11.1101 9.12008 11.3001 9.15008 11.4801 9.19008C12.3901 9.39008 12.8401 9.92008 12.8701 10.9701C12.9101 12.3201 12.8801 13.6701 12.8701 15.0201L12.8601 15.0301ZM16.8501 11.0201C16.8501 11.2201 16.8001 11.4201 16.7501 11.6101C16.5901 12.2501 16.1901 12.6401 15.5501 12.7701C15.1901 12.8401 14.8301 12.8701 14.4201 12.9201C14.4201 12.7701 14.4201 12.6701 14.4201 12.5701C14.3801 11.8301 14.4201 11.0801 14.3001 10.3501C14.0501 8.77008 13.0201 7.82008 11.4101 7.65008C10.7601 7.58008 10.1001 7.60008 9.45008 7.58008C9.35008 7.58008 9.24008 7.58008 9.11008 7.58008C9.10008 7.05008 9.13008 6.57008 9.32008 6.11008C9.61008 5.43008 10.2101 5.19008 10.8701 5.17008C12.2801 5.13008 13.7001 5.16008 15.1101 5.17008C15.2301 5.17008 15.3501 5.20008 15.4601 5.23008C16.2001 5.38008 16.6401 5.83008 16.7801 6.57008C16.8101 6.73008 16.8401 6.90008 16.8401 7.07008C16.8401 8.40008 16.8401 9.72008 16.8401 11.0501L16.8501 11.0201Z"
            fill="#FE6B01" />
        <path
            d="M22 14.1198C22 15.7198 21.55 17.1998 20.63 18.5098C19.07 20.7398 16.92 21.9098 14.19 21.9998C13.86 22.0098 13.59 21.9198 13.41 21.6298C13.23 21.3298 13.29 21.0398 13.46 20.7498C13.79 20.2098 14.12 19.6498 14.45 19.1098C14.71 18.6898 15.15 18.5598 15.53 18.7798C15.91 18.9998 16.01 19.4598 15.77 19.8898C15.7 20.0098 15.63 20.1198 15.56 20.2398C15.57 20.2598 15.58 20.2898 15.59 20.3098C15.96 20.1698 16.35 20.0698 16.7 19.8898C19.06 18.7298 20.32 16.8298 20.45 14.1998C20.47 13.8398 20.56 13.5398 20.91 13.3698C21.43 13.1198 21.99 13.5098 21.99 14.1098L22 14.1198Z"
            fill="#FE6B01" />
        <path
            d="M8.53999 1.24976C8.20999 1.78976 7.88999 2.32976 7.55999 2.86976C7.29999 3.30976 6.84999 3.43976 6.45999 3.19976C6.06999 2.95976 5.98999 2.50976 6.24999 2.06976C6.30999 1.96976 6.36999 1.86976 6.42999 1.75976C6.41999 1.72976 6.40999 1.70976 6.38999 1.67976C5.97999 1.83976 5.55999 1.95976 5.16999 2.14976C2.88999 3.31976 1.66999 5.18976 1.52999 7.75976C1.52999 7.90976 1.50999 8.06976 1.45999 8.20976C1.33999 8.53976 0.96999 8.73976 0.62999 8.67976C0.24999 8.61976 -0.0100098 8.29976 -0.0100098 7.89976C-0.0100098 6.28976 0.42999 4.79976 1.34999 3.47976C2.91999 1.25976 5.07999 0.0897614 7.80999 -0.000238616C8.13999 -0.0102386 8.40999 0.0797614 8.58999 0.369761C8.76999 0.669761 8.71999 0.959761 8.53999 1.24976Z"
            fill="#FE6B01" />
    </g>
    <defs>
        <clipPath id="clip0_152_5295">
            <rect width="22" height="22" fill="white" />
        </clipPath>
    </defs>
</svg>
