<svg width="10" height="10" viewBox="0 0 10 10" fill="none" xmlns="http://www.w3.org/2000/svg">
    <path
        d="M5 0C2.23447 0 0 2.24449 0 5C0 7.76553 2.24449 10 5 10C7.76553 10 10 7.75551 10 5C10 2.23447 7.75551 0 5 0ZM5 1.60321C5.53106 1.60321 6.02204 1.73347 6.46293 1.95391L2.29459 7.04409C1.86373 6.47295 1.60321 5.77154 1.60321 5.01002C1.60321 3.13627 3.12625 1.61323 5 1.61323V1.60321ZM5 8.40681C4.46894 8.40681 3.97796 8.27655 3.53707 8.05611L7.70541 2.96593C8.13627 3.53707 8.39679 4.23848 8.39679 5C8.39679 6.87375 6.87375 8.39679 5 8.39679V8.40681Z"
        fill="#FE6B01" />
</svg>
