<svg width="100" height="100" viewBox="0 0 100 100" fill="none" xmlns="http://www.w3.org/2000/svg">
    <defs>
        <linearGradient id="paint0_linear_9_13752" x1="24.4051" y1="50" x2="80.0722" y2="50"
            gradientUnits="userSpaceOnUse">
            <stop stop-color="#9E7549" />
            <stop offset="1" stop-color="#B98E5B" />
        </linearGradient>
    </defs>
    <path
        d="M98.0494 46.0093C100.936 36.5807 101.417 36.5878 93.8787 29.49C90.6601 26.4593 89.8115 23.6185 88.7715 19.5243C87.3165 13.7978 87.5372 12.5043 77.6158 10.22C73.0987 9.17998 71.1501 6.61926 69.0365 4.31784C65.1037 0.0321219 61.4287 -0.790737 55.9451 0.954263C53.0637 1.87141 50.1515 2.99069 45.8622 1.66284C36.1344 -1.34716 35.6822 -0.115736 31.5765 4.11141C28.6401 7.13426 26.4929 9.16783 22.1987 10.1735C12.1415 12.5307 12.5615 12.7678 10.3737 22.3821C9.28508 27.1743 6.90294 28.7835 4.60437 30.83C-0.141349 35.055 -0.609919 38.7014 1.42722 44.57C2.33651 47.1935 3.25866 49.7228 1.95152 53.9914C-0.934199 63.42 -1.41563 63.4128 6.12294 70.5107C9.34151 73.5414 10.1901 76.3814 11.2301 80.4757C12.6851 86.2021 12.4644 87.4964 22.3858 89.7807C26.7608 90.7878 28.7265 93.2214 30.7658 95.465C34.6472 99.7336 38.2401 100.866 43.7751 99.135C46.7501 98.2064 49.7101 96.9664 54.1394 98.3371C63.8672 101.348 64.3194 100.116 68.4251 95.8893C71.3615 92.8657 73.5087 90.8328 77.8022 89.8264C87.8601 87.4693 87.4401 87.2328 89.6279 77.6178C90.6579 73.085 92.8422 71.4 95.0244 69.4985C99.9994 65.1578 100.706 61.575 98.5637 55.3993C97.6572 52.7864 96.7479 50.2607 98.0494 46.0093ZM44.1837 70.4085L22.9908 53.8221L29.4715 45.4471L43.2629 56.2407L69.5115 29.5007L77.0201 36.9543L44.1837 70.4085Z"
        fill="url(#paint0_linear_9_13752)" />
</svg>
