<svg width="20" height="20" viewBox="0 0 20 20" fill="none" xmlns="http://www.w3.org/2000/svg">
    <path
        d="M15.4252 10.5702C15.2071 10.5702 14.9891 10.5695 14.771 10.5688C14.9897 10.5702 15.2078 10.5709 15.4252 10.5709C15.6112 10.5702 15.7972 10.5702 15.9831 10.5702H15.4252Z"
        fill="white" />
    <path
        d="M19.965 2.2604C19.9309 1.04451 18.9147 0.060937 17.7267 0.0190097C16.9521 -0.00779628 16.1754 0.0141984 15.3994 0.0141984V0.00801236C14.6656 0.00801236 13.9311 -0.00917095 13.1973 0.0121364C11.846 0.0520016 10.846 1.0665 10.8225 2.45079C10.7965 3.95949 10.7971 5.46887 10.8225 6.97688C10.8453 8.34673 11.8527 9.39697 13.1699 9.42103C14.6629 9.44852 16.1574 9.44921 17.6498 9.42034C18.9228 9.39629 19.9349 8.39965 19.9697 7.09441C20.0125 5.48399 20.0105 3.87082 19.9643 2.2604H19.965ZM18.3889 6.86209C18.3876 7.4587 18.0645 7.78312 17.4865 7.7838C16.1018 7.78587 14.7185 7.78587 13.3337 7.78449C12.7391 7.7838 12.418 7.45663 12.4173 6.84834C12.4153 5.42557 12.4153 4.00348 12.4173 2.58138C12.418 1.98409 12.7324 1.65692 13.3103 1.65211C13.7893 1.64867 14.2689 1.65005 14.7479 1.65074C14.9693 1.65074 15.1907 1.65142 15.4115 1.65142C15.6155 1.65142 15.8189 1.65074 16.0222 1.65005C16.5099 1.64936 16.9989 1.64867 17.4872 1.65211C18.0766 1.65624 18.3863 1.96828 18.3876 2.5697C18.3923 4.00073 18.3923 5.43175 18.3876 6.86209H18.3889Z"
        fill="#FE6B01" />
    <path
        d="M9.18566 2.46577C9.16292 1.06499 8.16486 0.0491093 6.79955 0.0106187C6.06572 -0.0100013 5.33122 0.00718202 4.59672 0.00718202V0.00580735C3.87092 0.00580735 3.14512 -0.00931396 2.41931 0.00924401C1.06604 0.0429233 0.0679818 1.01206 0.0311899 2.3991C-0.0102845 3.94078 -0.0102845 5.48591 0.030521 7.02759C0.0679818 8.427 1.1035 9.41745 2.46681 9.42776C3.89366 9.43876 5.32052 9.44013 6.7467 9.42707C8.12539 9.41539 9.16024 8.38301 9.18433 6.96642C9.20975 5.46666 9.20908 3.96553 9.18499 2.46577H9.18566ZM7.59024 6.82139C7.58957 7.46474 7.2765 7.78366 6.64903 7.78435C5.28105 7.78503 3.91373 7.78572 2.54641 7.78435C1.93366 7.78366 1.61859 7.46543 1.61792 6.8372C1.61458 5.42405 1.61525 4.01021 1.61725 2.59636C1.61859 1.96677 1.9263 1.65403 2.54374 1.65128C3.23542 1.64853 3.92778 1.65059 4.62013 1.65059C5.31249 1.65059 5.98745 1.64784 6.67111 1.65197C7.2852 1.65472 7.58957 1.97226 7.59024 2.60667C7.59157 4.01158 7.59157 5.41649 7.59024 6.82139Z"
        fill="#FE6B01" />
    <path
        d="M9.18496 13.0301C9.16222 11.6754 8.18355 10.6169 6.89317 10.5846C5.36798 10.5468 3.83944 10.5481 2.31359 10.5839C1.06869 10.6134 0.0706234 11.6176 0.0365073 12.8988C-0.00630499 14.5085 -0.00496711 16.1224 0.040521 17.7321C0.074637 18.9508 1.08808 19.9378 2.27278 19.9811C3.03939 20.0086 3.80733 19.9859 4.57528 19.9859V19.9928C5.31781 19.9928 6.06033 20.0106 6.80286 19.9886C8.1675 19.9495 9.16422 18.9315 9.18563 17.5307C9.20904 16.031 9.20971 14.5299 9.18496 13.0301ZM7.58953 17.4441C7.5882 18.0215 7.26777 18.3445 6.6985 18.3487C5.99812 18.3535 5.29774 18.35 4.59669 18.35C3.89564 18.35 3.21198 18.3528 2.52029 18.3487C1.93162 18.3459 1.61989 18.0325 1.61789 17.4325C1.61387 16.0021 1.61454 14.5711 1.61789 13.1401C1.61989 12.5462 1.94366 12.2177 2.51895 12.217C3.91102 12.2149 5.30443 12.2142 6.6965 12.217C7.25774 12.2184 7.58686 12.551 7.58886 13.1256C7.59221 14.5656 7.59221 16.0049 7.58886 17.4441H7.58953Z"
        fill="#FE6B01" />
    <path
        d="M19.9891 16.7633C19.9871 17.1936 19.7423 17.5139 19.3824 17.6018C19.0318 17.6878 18.6472 17.5262 18.494 17.1908C18.4231 17.0348 18.3963 16.8451 18.395 16.6698C18.387 15.522 18.3917 14.3734 18.3903 13.2242C18.3897 12.5115 18.0967 12.2152 17.3956 12.2152C16.053 12.2145 14.7105 12.2145 13.3672 12.2152C12.7297 12.2159 12.4173 12.5383 12.4167 13.1954C12.416 14.592 12.416 15.9894 12.4167 17.386C12.4173 18.0349 12.721 18.3469 13.3539 18.3483C14.372 18.3504 15.3895 18.3455 16.4069 18.3504C16.9441 18.3524 17.3033 18.7167 17.2785 19.2185C17.2591 19.6226 16.9615 19.9759 16.5688 19.98C15.3513 19.9924 14.1318 20.0261 12.917 19.9608C11.7651 19.8989 10.8473 18.8239 10.8239 17.5675C10.7958 16.043 10.7925 14.5164 10.8253 12.9912C10.856 11.6021 11.8942 10.5911 13.2488 10.5704C13.5224 10.5663 13.7954 10.5649 14.069 10.5649C14.2797 10.5649 14.4897 10.5656 14.6991 10.567H14.7707C14.9894 10.5677 15.2075 10.5684 15.4249 10.5684C15.9828 10.5684 16.5414 10.5663 17.0993 10.5684C17.2257 10.5677 17.3515 10.5684 17.4772 10.5691C18.9248 10.5753 19.9536 11.5794 19.9851 13.0593C20.0105 14.293 19.9945 15.5275 19.9884 16.7612L19.9891 16.7633Z"
        fill="#FE6B01" />
    <path
        d="M16.0229 1.64941C15.8188 1.6501 15.6155 1.65079 15.4121 1.65079C15.1907 1.65079 14.9693 1.6501 14.7485 1.6501H15.4121C15.6155 1.6501 15.8195 1.6501 16.0229 1.64941Z"
        fill="white" />
</svg>
