<svg width="22" height="19" viewBox="0 0 22 19" fill="none" xmlns="http://www.w3.org/2000/svg">
    <g clip-path="url(#clip0_152_5299)">
        <path
            d="M21.9701 10.2299C21.8001 11.9799 20.4001 13.4799 18.5701 13.8799C18.4901 13.8999 18.4101 13.9099 18.3201 13.9199V12.2099C18.6501 12.0199 19.0001 11.8699 19.2801 11.6499C20.0601 11.0199 20.3601 10.1899 20.1801 9.21991C19.9901 8.21991 19.3701 7.55991 18.3801 7.26991C17.7101 7.06991 17.5501 6.88991 17.5101 6.16991C17.4001 4.45991 15.5101 3.35991 13.9101 4.05991C13.2801 4.33991 12.9201 4.22991 12.5501 3.65991C11.8201 2.53991 10.7601 1.92991 9.45011 1.77991C7.78011 1.58991 6.34011 2.08991 5.22011 3.35991C4.51011 4.16991 4.19011 5.11991 4.32011 6.20991C4.38011 6.72991 4.16011 7.09991 3.67011 7.22991C2.55011 7.52991 1.75011 8.48991 1.74011 9.66991C1.73011 10.9699 2.65011 11.8899 3.61011 12.1299C3.63011 12.1299 3.65011 12.1499 3.65011 12.1499V13.9099C3.51011 13.8799 3.37011 13.8599 3.23011 13.8299C1.53011 13.3999 0.220109 11.9399 0.0301093 10.2499C-0.179891 8.38991 0.720109 6.71991 2.37011 5.86991C2.44011 5.82991 2.53011 5.72991 2.54011 5.65991C2.64011 3.67991 3.57011 2.16991 5.21011 1.07991C7.65011 -0.550091 10.9801 -0.330091 13.0901 1.56991C13.2801 1.74991 13.4601 1.93991 13.6401 2.13991C13.7301 2.23991 13.8001 2.25991 13.9201 2.22991C16.3401 1.63991 18.6801 3.09991 19.2201 5.52991C19.2401 5.61991 19.3301 5.71991 19.4101 5.75991C21.2101 6.56991 22.1801 8.24991 21.9801 10.2299H21.9701Z"
            fill="#FE6B01" />
        <path
            d="M11.89 18.9401C8.59998 19.4201 5.55998 17.1701 5.10998 13.9201C4.94998 12.7801 5.10998 11.6901 5.60998 10.6501C5.84998 10.1401 6.32998 9.94014 6.79998 10.1501C7.26998 10.3601 7.43998 10.8701 7.20998 11.3901C6.22998 13.5601 7.17998 16.0001 9.36998 16.9501C11.9 18.0401 14.85 16.3401 15.15 13.6301C15.44 11.0101 13.33 8.83014 10.68 9.01014C10.48 9.02014 10.28 9.07014 10.01 9.10014C10.14 9.18014 10.2 9.22014 10.27 9.27014C10.61 9.52014 10.71 9.96014 10.49 10.3201C10.28 10.6701 9.82998 10.8201 9.46998 10.6101C8.75998 10.2001 8.05998 9.78014 7.36998 9.33014C7.01998 9.11014 6.93998 8.62014 7.18998 8.28014C7.64998 7.64014 8.12998 7.01014 8.60998 6.39014C8.84998 6.09014 9.26998 6.02014 9.60998 6.21014C9.93998 6.39014 10.09 6.79014 9.96998 7.15014C9.94998 7.20014 9.92998 7.26014 9.89998 7.34014C10.05 7.32014 10.19 7.31014 10.32 7.29014C12.88 7.01014 15.27 8.31014 16.38 10.5801C18.11 14.1301 15.85 18.3701 11.9 18.9501L11.89 18.9401Z"
            fill="#FE6B01" />
    </g>
    <defs>
        <clipPath id="clip0_152_5299">
            <rect width="22" height="19" fill="white" />
        </clipPath>
    </defs>
</svg>
