<svg width="18" height="20" viewBox="0 0 18 20" fill="none" xmlns="http://www.w3.org/2000/svg">
    <path fill-rule="evenodd" clip-rule="evenodd"
        d="M8.88436 4.04327C9.33792 4.04327 9.7056 4.41276 9.7056 4.86854V7.90098C9.7056 8.35676 9.33792 8.72625 8.88436 8.72625C8.4308 8.72625 8.06311 8.35676 8.06311 7.90098V4.86854C8.06311 4.41276 8.4308 4.04327 8.88436 4.04327Z"
        fill="#AEAEAE" />
    <path fill-rule="evenodd" clip-rule="evenodd"
        d="M2.04574 6.89015C2.04574 3.0832 5.1139 0 8.90227 0C12.673 0 15.7576 3.10136 15.7679 6.88789L15.7679 6.89015L15.7679 8.8025C15.7679 9.01005 15.814 9.32005 15.905 9.6526C15.9961 9.98557 16.114 10.2747 16.2207 10.4524L16.222 10.4547L17.3729 12.3852C18.3023 13.9461 17.5651 15.9742 15.8407 16.5518C11.3407 18.056 6.47334 18.0562 1.97343 16.552C1.10623 16.2615 0.455247 15.6504 0.164157 14.8585C-0.126805 14.0671 -0.0285462 13.1772 0.439572 12.3871L0.440701 12.3852L1.59157 10.4547L1.59294 10.4524C1.70025 10.2737 1.81802 9.98613 1.90877 9.65539C1.99941 9.32512 2.04574 9.01507 2.04574 8.8025V6.89015ZM8.90227 1.65054C6.02102 1.65054 3.68823 3.99477 3.68823 6.89015V8.8025C3.68823 9.20916 3.60769 9.67316 3.49216 10.0942C3.3769 10.5142 3.20947 10.9546 2.99995 11.3039L2.99921 11.3052L1.85084 13.2315C1.61262 13.6341 1.60171 14.006 1.70487 14.2866C1.80795 14.567 2.05452 14.8393 2.49207 14.9859C6.65521 16.3774 11.1581 16.3775 15.3213 14.986C16.0434 14.7441 16.3572 13.8944 15.9639 13.2334L14.8144 11.3052L14.8137 11.304C14.6035 10.9537 14.4362 10.5102 14.3213 10.0901C14.2061 9.66912 14.1254 9.20507 14.1254 8.8025V6.89129C14.1169 4.01243 11.7646 1.65054 8.90227 1.65054Z"
        fill="#AEAEAE" />
    <path fill-rule="evenodd" clip-rule="evenodd"
        d="M6.68769 16.1423C6.68769 16.74 6.93678 17.2983 7.33523 17.6987C7.73367 18.0991 8.28931 18.3495 8.88409 18.3495C10.0889 18.3495 11.0805 17.353 11.0805 16.1423H12.723C12.723 18.2646 10.996 20 8.88409 20C7.82959 20 6.86281 19.5582 6.17382 18.8659C5.48482 18.1735 5.04521 17.202 5.04521 16.1423H6.68769Z"
        fill="#AEAEAE" />
</svg>
