<svg width="18" height="18" viewBox="0 0 18 18" fill="none" xmlns="http://www.w3.org/2000/svg">
    <path
        d="M11.6845 8.99999C11.6845 10.485 10.4845 11.685 8.99945 11.685C7.51445 11.685 6.31445 10.485 6.31445 8.99999C6.31445 7.51499 7.51445 6.31499 8.99945 6.31499C10.4845 6.31499 11.6845 7.51499 11.6845 8.99999Z"
        stroke="#FE6B01" stroke-width="1.4" stroke-linecap="round" stroke-linejoin="round" />
    <path
        d="M8.99988 15.2025C11.6474 15.2025 14.1149 13.6425 15.8324 10.9425C16.5074 9.88499 16.5074 8.10749 15.8324 7.04999C14.1149 4.34999 11.6474 2.78999 8.99988 2.78999C6.35238 2.78999 3.88488 4.34999 2.16738 7.04999C1.49238 8.10749 1.49238 9.88499 2.16738 10.9425C3.88488 13.6425 6.35238 15.2025 8.99988 15.2025Z"
        stroke="#FE6B01" stroke-width="1.4" stroke-linecap="round" stroke-linejoin="round" />
</svg>
