<svg width="10" height="11" viewBox="0 0 10 11" fill="none" xmlns="http://www.w3.org/2000/svg">
    <path
        d="M0.684846 2.95028L9.35741 2.98002C9.72186 2.98261 10.0062 3.25583 9.9999 3.57578C9.98408 3.9043 9.67042 4.17024 9.31516 4.17592L0.642589 4.14618C0.278143 4.14359 -0.00620149 3.87037 0.000102828 3.55042C0.0159221 3.2219 0.329584 2.95596 0.684846 2.95028Z"
        fill="#FE6B01" />
    <path
        d="M0.684846 6.30422L9.35741 6.33396C9.72186 6.33655 10.0062 6.60977 9.9999 6.92972C9.98408 7.25824 9.67042 7.52418 9.31516 7.52986L0.642589 7.50012C0.278143 7.49753 -0.00620149 7.22431 0.000102828 6.90436C0.0159221 6.57584 0.329584 6.3099 0.684846 6.30422Z"
        fill="#FE6B01" />
    <path
        d="M7.24918 0.857369L1.50755 9.30233C1.26763 9.65826 1.35596 10.1487 1.68519 10.3935C2.02946 10.6358 2.50839 10.5398 2.75059 10.1993L8.49223 1.75431C8.73214 1.39838 8.64382 0.907967 8.31458 0.663144C7.97031 0.420839 7.49138 0.516839 7.24918 0.857369Z"
        fill="#FE6B01" />
</svg>
