<svg width="23" height="22" viewBox="0 0 23 22" fill="none" xmlns="http://www.w3.org/2000/svg">
    <g clip-path="url(#clip0_1422_2808)">
        <circle cx="7.25" cy="14.25" r="1.25" fill="#FE6B01" />
        <circle cx="11.25" cy="14.25" r="1.25" fill="#FE6B01" />
        <circle cx="15.25" cy="14.25" r="1.25" fill="#FE6B01" />
        <path
            d="M21.5449 9.09233C19.6249 7.37233 17.6949 5.65233 15.7649 3.94233C14.3949 2.72233 13.0349 1.51233 11.6649 0.292326C11.4449 0.0923262 11.2049 -0.0176738 10.9049 0.00232623C10.6049 0.0323262 10.4049 0.222326 10.1949 0.412326C8.23486 2.16233 6.27486 3.90233 4.31486 5.64233C2.99486 6.82233 1.66486 7.99233 0.344857 9.17233C-0.0651429 9.54233 -0.115143 10.1023 0.224857 10.5023C0.554857 10.8923 1.09486 10.9223 1.51486 10.5823C1.56486 10.5423 1.61486 10.5123 1.68486 10.4523V19.9723C1.68486 20.6223 2.04486 21.0023 2.68486 21.0023H19.3349C19.4349 21.0023 19.5349 21.0023 19.6349 20.9723C20.0749 20.8623 20.3249 20.5023 20.3249 19.9623V10.4523C20.4249 10.5323 20.4849 10.5923 20.5549 10.6423C21.0349 11.0123 21.6949 10.8323 21.9349 10.2723C21.9549 10.2223 21.9849 10.1723 22.0049 10.1223V9.73233C21.8549 9.52233 21.7349 9.28233 21.5549 9.11233V9.09233H21.5449ZM18.4949 18.8423V19.1423H3.48486V9.04233C3.48486 8.90233 3.51486 8.80233 3.62486 8.70233C6.06486 6.54233 8.49486 4.37233 10.9349 2.20233C10.9549 2.20233 10.9749 2.18233 11.0049 2.15233C11.9849 3.02233 12.9449 3.88233 13.9149 4.74233C15.3749 6.04233 16.8249 7.34233 18.2949 8.63233C18.4549 8.77233 18.5149 8.92233 18.5149 9.13233V18.8423H18.4949Z"
            fill="#FE6B01" />
    </g>
    <defs>
        <clipPath id="clip0_1422_2808">
            <rect width="22.0049" height="21.0023" fill="white" />
        </clipPath>
    </defs>
</svg>
