<svg width="24" height="24" viewBox="0 0 24 24" fill="none" xmlns="http://www.w3.org/2000/svg">
    <mask id="mask0_416_4579" style="mask-type:alpha" maskUnits="userSpaceOnUse" x="0" y="0"
        width="24" height="24">
        <rect width="24" height="24" rx="5" fill="white" />
    </mask>
    <g mask="url(#mask0_416_4579)">
        <path
            d="M21.6699 17.8653C21.3901 16.4451 20.5352 15.4899 19.1419 15.1109C17.7226 14.7245 16.5008 15.1402 15.5286 16.2485C15.4234 16.3688 15.3588 16.3873 15.2126 16.312C13.4955 15.4268 11.7739 14.5489 10.0509 13.6754C9.91493 13.6065 9.88118 13.538 9.91786 13.3922C10.0876 12.7251 10.0499 12.0644 9.81564 11.4183C9.77163 11.297 9.8039 11.2496 9.9027 11.1909C11.7397 10.09 13.5757 8.98761 15.4087 7.88082C15.5232 7.81186 15.5789 7.83094 15.6645 7.92191C16.7102 9.0326 18.3432 9.35295 19.6852 8.71715C21.1021 8.04516 21.913 6.6058 21.6924 5.07108C21.4875 3.64493 20.682 2.66139 19.3194 2.20459C17.9759 1.75415 16.7439 2.05249 15.7472 3.05021C14.746 4.05233 14.4721 5.27795 14.8976 6.6415C14.9338 6.75741 14.9236 6.81561 14.8101 6.8836C12.9712 7.98157 11.1357 9.08396 9.3026 10.1912C9.18473 10.2621 9.1236 10.2568 9.02774 10.1565C8.5103 9.6146 7.8789 9.27959 7.14039 9.14167C5.07991 8.75725 3.11235 10.2988 3.00475 12.3857C2.9265 13.9043 3.82151 15.3138 5.20511 15.8508C6.67234 16.4201 8.25891 16.0034 9.24391 14.7822C9.34075 14.6619 9.4058 14.6516 9.54225 14.722C11.2599 15.6063 12.981 16.4842 14.704 17.3587C14.8277 17.4213 14.8615 17.477 14.8243 17.6198C14.3714 19.3668 15.3178 21.1519 17.0154 21.7843C17.2697 21.8787 17.5406 21.9002 17.791 22H18.5716C18.5809 21.9702 18.6049 21.9682 18.6318 21.9648C20.6345 21.7403 22.0577 19.8368 21.6699 17.8653ZM20.5617 5.52543C20.5626 6.81512 19.5072 7.87055 18.2175 7.8686C16.9278 7.86713 15.8748 6.80926 15.8787 5.51907C15.8831 4.23769 16.9322 3.18911 18.2136 3.18568C19.5038 3.18226 20.5607 4.23524 20.5617 5.52543ZM4.16924 12.5857C4.17267 11.2965 5.23201 10.245 6.5222 10.2509C7.80358 10.2568 8.8502 11.3073 8.85216 12.5892C8.85363 13.8794 7.79869 14.9353 6.50899 14.9343C5.21929 14.9333 4.16582 13.8759 4.16924 12.5857ZM18.2067 20.8287C16.9254 20.8218 15.8797 19.7703 15.8787 18.4879C15.8782 17.1982 16.9342 16.1433 18.2239 16.1453C19.5136 16.1472 20.5661 17.2056 20.5617 18.4953C20.5572 19.785 19.4969 20.8355 18.2067 20.8287Z"
            fill="white" stroke="white" stroke-width="0.3" />
    </g>
</svg>
