<svg height="426pt" viewBox="0 0 426 426.67131" width="426pt" xmlns="http://www.w3.org/2000/svg"><path d="m416.335938 362.671875c-37.664063 0-62.019532-29.21875-87.800782-60.167969-9.476562-11.367187-19.121094-22.773437-29.53125-32.996094v-45.503906c-.035156-29.441406-23.890625-53.296875-53.332031-53.332031h-10.667969v-64h10.667969c4.621094.003906 8.71875-2.972656 10.144531-7.367187 1.429688-4.394532-.136718-9.210938-3.875-11.925782l-117.332031-85.332031c-3.734375-2.730469-8.808594-2.730469-12.542969 0l-117.332031 85.332031c-3.738281 2.714844-5.304687 7.53125-3.875 11.925782 1.425781 4.394531 5.523437 7.371093 10.144531 7.367187h10.667969v181.332031c-.003906 2.832032 1.121094 5.542969 3.121094 7.546875 2 2 4.714843 3.121094 7.542969 3.121094h10.667968v117.332031c0 5.890625 4.777344 10.667969 10.667969 10.667969s10.664063-4.777344 10.664063-10.667969v-32h128v32c0 5.890625 4.777343 10.667969 10.667968 10.667969s10.667969-4.777344 10.667969-10.667969v-117.332031h10.664063c22.855468 0 40.898437 22.207031 61.78125 47.925781 28.980468 35.679688 65.035156 80.074219 130.21875 80.074219 2.832031 0 5.546874-1.121094 7.546874-3.121094 2-2.003906 3.125-4.714843 3.121094-7.546875v-42.664062c.003906-2.832032-1.121094-5.546875-3.121094-7.546875s-4.714843-3.125-7.546874-3.121094zm-170.664063-170.667969c17.664063.019532 31.980469 14.335938 32 32v27.886719c-12.671875-8.84375-27.324219-14.425781-42.667969-16.25v-43.636719zm-117.335937-168.140625 84.535156 61.476563h-169.0625zm-85.332032 82.808594h170.667969v128h-21.335937v-42.667969c0-35.34375-28.652344-64-64-64-35.34375 0-64 28.65625-64 64v42.667969h-21.332032zm128 85.332031v42.667969h-85.332031v-42.667969c0-23.5625 19.101563-42.664062 42.664063-42.664062 23.566406 0 42.667968 19.101562 42.667968 42.664062zm-128 85.335938v-21.335938h170.667969v21.335938zm21.332032 85.332031v-21.332031h128v21.332031zm128-42.667969h-128v-21.332031h128zm213.335937 84.855469c-48.335937-4.40625-76.082031-38.585937-102.988281-71.710937-20.710938-25.496094-40.398438-49.734376-67.679688-54.828126v-21.5c31.769532 4.90625 53.875 31.425782 77.136719 59.351563 25.65625 30.78125 52.125 62.53125 93.53125 67.238281zm0 0"/></svg>