<svg width="46" height="38" viewBox="0 0 46 38" fill="none" xmlns="http://www.w3.org/2000/svg">
    <g clip-path="url(#clip0_161_3431)">
        <path
            d="M45.2228 21.6295V23.3036C45.2228 23.3036 45.2228 23.3776 45.2228 23.4073C45.0598 24.1036 44.9413 24.8147 44.7191 25.4961C43.5191 29.1258 40.1709 31.6147 36.3487 31.7036C35.1635 31.7332 33.9931 31.7036 32.7931 31.7036C32.5265 31.7036 32.3042 31.4813 32.3042 31.1999V28.5036C32.3042 28.2369 32.5265 28.0147 32.7931 27.9999C32.7931 27.9999 32.7931 27.9999 32.8079 27.9999C34.0524 27.985 35.2968 28.0443 36.5413 27.9406C39.1783 27.7036 41.4005 25.3332 41.5042 22.7406C41.6228 20.0295 39.6524 17.4961 37.0005 16.9924C36.5561 16.9036 36.1116 16.9036 35.6672 16.8887C35.3265 16.8887 34.9709 16.8887 34.6154 16.8887C34.3339 16.8887 34.1116 16.6665 34.1116 16.385C34.1116 15.9554 34.1116 15.5258 34.1116 15.111C34.0079 10.6073 31.9931 7.22948 28.0228 5.12578C21.4894 1.65911 13.2376 5.82207 12.082 13.1406C11.9191 14.1924 11.9487 15.2739 11.9042 16.3406C11.9042 16.3702 11.9042 16.385 11.9042 16.4147C11.9042 16.6813 11.682 16.8887 11.4154 16.8887C10.9709 16.8887 10.5265 16.8887 10.082 16.8887C8.48202 16.8887 7.14869 17.511 6.08202 18.6665C4.52646 20.3406 4.02276 22.2961 4.92646 24.4295C5.8598 26.6665 7.60795 27.8961 10.0672 27.9999C11.1191 28.0443 12.1857 27.9999 13.2376 27.9999C13.5042 27.9999 13.7265 28.2221 13.7265 28.5036V31.6295C13.7265 31.6295 13.682 31.6739 13.6672 31.6739C11.5783 31.6295 9.47461 31.911 7.41535 31.3332C3.14869 30.1628 0.259798 25.8517 0.85239 21.4813C1.37091 17.585 3.44498 14.8887 7.22276 13.6591C7.97832 13.4073 8.24498 13.111 8.39313 12.3406C9.59313 6.11837 14.4524 1.40726 20.7339 0.414665C28.1116 -0.755705 35.0894 3.61467 37.2228 10.548C37.4746 11.3628 37.5931 12.2073 37.7561 13.0517C37.8005 13.2887 37.8746 13.3924 38.1116 13.4517C41.9191 14.3406 44.645 17.3924 45.1339 21.3036C45.1339 21.348 45.1635 21.4073 45.1783 21.4517C45.2079 21.511 45.2079 21.5702 45.2079 21.6295H45.2228Z"
            fill="#013765" />
        <path
            d="M31.2069 25.2741C30.6439 25.8371 30.0513 26.4297 29.4291 27.0519C29.2365 27.2445 28.9254 27.2445 28.7328 27.0519C27.755 26.0741 26.7624 25.0667 25.7106 24.0297C25.3995 23.7186 24.8661 23.9408 24.8661 24.3853V36.7704C24.8661 37.0519 24.6439 37.2741 24.3773 37.2741H21.6513C21.3847 37.2741 21.1624 37.0519 21.1624 36.7704V24.489C21.1624 24.0445 20.6291 23.8223 20.318 24.1334C19.3106 25.1408 18.318 26.1334 17.3402 27.126C17.1476 27.3186 16.8365 27.3186 16.6439 27.126C15.9921 26.4741 15.3698 25.8519 14.7773 25.2445C14.5847 25.0519 14.5847 24.7408 14.7773 24.5482C17.1921 22.1334 19.6365 19.689 22.0365 17.2741C22.555 16.7556 23.3995 16.7556 23.9328 17.2741C26.3476 19.689 28.7921 22.1482 31.2217 24.5778C31.4143 24.7704 31.4143 25.0815 31.2217 25.2741H31.2069Z"
            fill="#013765" />
    </g>
    <defs>
        <clipPath id="clip0_161_3431">
            <rect width="44.4444" height="37.037" fill="white"
                transform="translate(0.777344 0.222168)" />
        </clipPath>
    </defs>
</svg>
