<svg width="20" height="22" viewBox="0 0 20 22" fill="none" xmlns="http://www.w3.org/2000/svg">
    <path
        d="M19.9883 16.3861C19.8635 15.095 18.7094 14.0837 17.361 14.0837C17.2521 14.0837 17.1672 13.9988 17.1672 13.891V9.74329C17.1672 8.23268 16.7011 6.77579 15.8188 5.52995C15.3947 4.93091 14.8867 4.40051 14.3092 3.95326C13.7436 3.51538 13.1241 3.16746 12.466 2.91761C12.4913 2.77265 12.5037 2.62939 12.5037 2.48997C12.5037 1.82527 12.243 1.20022 11.7701 0.72951C11.2968 0.25923 10.6683 0 9.99985 0C8.6193 0 7.49599 1.11708 7.49599 2.48997C7.49599 2.62086 7.50756 2.75943 7.53114 2.90227C6.58748 3.24549 5.74371 3.77077 5.02256 4.46361C3.6107 5.81775 2.83296 7.63875 2.83296 9.5915V13.891C2.83296 13.9971 2.74593 14.0837 2.63917 14.0837C1.29034 14.0837 0.136161 15.095 0.0118256 16.3861C-0.0576309 17.1028 0.18118 17.8186 0.667376 18.3495C1.15271 18.8794 1.84428 19.1834 2.56457 19.1834H6.75854C6.86187 19.9436 7.23445 20.6442 7.8124 21.1626C8.41436 21.7028 9.19124 22 9.99942 22C10.8076 22 11.5845 21.7024 12.1864 21.1626C12.7648 20.6442 13.137 19.9436 13.2403 19.1834H17.4343C18.155 19.1834 18.8466 18.8794 19.3319 18.349C19.8185 17.8148 20.0573 17.0994 19.9883 16.3861ZM11.6261 19.1839C11.4276 19.907 10.76 20.4216 9.99985 20.4216C9.23969 20.4216 8.57213 19.907 8.37362 19.1839H11.6261ZM10.9139 2.52749C10.6811 2.49594 10.4668 2.47761 10.2605 2.47164C10.1885 2.46908 10.1148 2.4678 10.0419 2.4678C9.73403 2.4678 9.42019 2.48869 9.08534 2.53133C9.08405 2.51854 9.08362 2.50617 9.08362 2.49338C9.08362 1.98899 9.49479 1.57883 9.99985 1.57883C10.5049 1.57883 10.9161 1.98771 10.9161 2.48997C10.9161 2.50234 10.9152 2.5147 10.9139 2.52749ZM17.3605 15.6625C17.9025 15.6625 18.3625 16.0462 18.408 16.5357C18.4341 16.8146 18.3449 17.0815 18.1571 17.2874C17.9681 17.4916 17.7112 17.6046 17.4347 17.6046H2.56457C2.28803 17.6046 2.03121 17.492 1.84171 17.287C1.65306 17.0832 1.56517 16.8167 1.59475 16.537C1.64062 16.0462 2.10067 15.6625 2.6426 15.6625C3.62485 15.6625 4.42446 14.8678 4.42446 13.8905V9.59193C4.42446 8.07322 5.02985 6.65598 6.12958 5.60073C7.17057 4.59664 8.54512 4.04364 10.0003 4.04364C10.0702 4.04364 10.1362 4.04364 10.2048 4.04706C13.1691 4.15109 15.5795 6.70629 15.5795 9.74329V13.891C15.5791 14.8678 16.3783 15.6625 17.3605 15.6625Z"
        fill="#1A1A1A" />
</svg>
