<svg width="22" height="22" viewBox="0 0 22 22" fill="none" xmlns="http://www.w3.org/2000/svg">
    <g clip-path="url(#clip0_152_5267)">
        <path
            d="M21.97 10.51C21.81 11.14 21.07 11.38 20.58 10.96C20.49 10.88 20.41 10.8 20.28 10.68V10.95C20.28 12.05 20.28 13.16 20.28 14.26C20.28 14.63 20.1 14.91 19.76 15.06C19.43 15.2 19.13 15.15 18.86 14.92C18.64 14.74 18.56 14.49 18.56 14.21C18.56 12.53 18.56 10.85 18.56 9.15996C18.56 8.99996 18.52 8.89996 18.41 8.78996C16.19 6.55996 13.97 4.31996 11.75 2.08996C11.26 1.59996 10.81 1.59996 10.32 2.08996C8.07998 4.32996 5.82998 6.56996 3.57998 8.80996C3.46998 8.91996 3.42998 9.02996 3.42998 9.17996C3.42998 12.27 3.42998 15.35 3.42998 18.44C3.42998 19.57 4.14998 20.29 5.27998 20.29H7.80998V20.04C7.80998 18.49 7.80998 16.95 7.80998 15.4C7.80998 13.58 9.26998 12.15 11.09 12.17C12.8 12.19 14.23 13.61 14.25 15.33C14.26 16.89 14.25 18.45 14.25 20.01V20.28C14.31 20.28 14.36 20.29 14.41 20.29C15.21 20.29 16.01 20.29 16.82 20.29C17.78 20.29 18.52 19.56 18.55 18.6C18.57 18.07 18.93 17.7 19.42 17.71C19.92 17.71 20.27 18.11 20.26 18.65C20.24 20.27 18.98 21.71 17.37 21.96C17.32 21.96 17.26 21.99 17.21 22H13.21C12.7 21.83 12.48 21.46 12.52 20.93C12.52 20.81 12.52 20.69 12.52 20.57C12.52 18.85 12.52 17.12 12.52 15.4C12.52 14.56 11.86 13.9 11.05 13.89C10.2 13.88 9.51998 14.54 9.50998 15.4C9.50998 17.25 9.49998 19.09 9.50998 20.94C9.50998 21.47 9.32998 21.84 8.81998 22.01H4.73998C4.73998 22.01 4.68998 21.98 4.65998 21.98C2.84998 21.67 1.68998 20.3 1.68998 18.47C1.68998 15.97 1.68998 13.47 1.68998 10.97V10.7C1.56998 10.81 1.48998 10.9 1.39998 10.97C0.99998 11.31 0.42998 11.24 0.13998 10.82C0.0699805 10.72 0.0299805 10.61 -0.0200195 10.5V10.16C0.11998 9.95996 0.23998 9.72996 0.40998 9.55996C3.33998 6.61996 6.25998 3.70996 9.17998 0.799959C10.25 -0.270041 11.83 -0.260041 12.9 0.809959C15.82 3.73996 18.73 6.67996 21.65 9.60996C21.9 9.85996 22.06 10.15 21.97 10.51Z"
            fill="#FE6B01" />
        <path
            d="M14.0501 9.19008C14.0501 9.69008 13.6701 10.0501 13.1301 10.0501C12.4401 10.0501 11.7601 10.0501 11.0701 10.0501C10.3801 10.0501 9.70008 10.0501 9.01008 10.0501C8.47008 10.0501 8.08008 9.69008 8.08008 9.19008C8.08008 8.69008 8.46008 8.33008 9.00008 8.33008C10.3701 8.33008 11.7501 8.33008 13.1201 8.33008C13.6601 8.33008 14.0501 8.69008 14.0501 9.19008Z"
            fill="#FE6B01" />
    </g>
    <defs>
        <clipPath id="clip0_152_5267">
            <rect width="22" height="22" fill="white" />
        </clipPath>
    </defs>
</svg>
