<svg width="18" height="18" viewBox="0 0 18 18" fill="none" xmlns="http://www.w3.org/2000/svg">
    <mask id="mask0_148_4107" style="mask-type:alpha" maskUnits="userSpaceOnUse" x="0" y="0"
        width="18" height="18">
        <rect width="18" height="18" rx="5" fill="#D9D9D9" />
    </mask>
    <g mask="url(#mask0_148_4107)">
        <path
            d="M16.2524 13.399C16.0426 12.3338 15.4014 11.6174 14.3564 11.3332C13.2919 11.0434 12.3756 11.3552 11.6464 12.1864C11.5676 12.2766 11.5191 12.2905 11.4095 12.234C10.1216 11.5701 8.83043 10.9117 7.53817 10.2566C7.43619 10.2049 7.41088 10.1535 7.43839 10.0442C7.56568 9.54387 7.53743 9.04831 7.36173 8.56376C7.32872 8.47279 7.35293 8.43721 7.42702 8.39319C8.80475 7.56751 10.1818 6.74072 11.5565 5.91063C11.6424 5.85891 11.6842 5.87322 11.7484 5.94145C12.5326 6.77447 13.7574 7.01473 14.7639 6.53788C15.8266 6.03388 16.4347 4.95437 16.2693 3.80332C16.1156 2.73371 15.5115 1.99606 14.4895 1.65346C13.4819 1.31563 12.5579 1.53938 11.8104 2.28767C11.0595 3.03926 10.8541 3.95848 11.1732 4.98114C11.2004 5.06808 11.1927 5.11173 11.1076 5.16271C9.72838 5.9862 8.35175 6.81298 6.97695 7.64344C6.88855 7.69662 6.8427 7.69259 6.7708 7.61739C6.38272 7.21097 5.90917 6.95971 5.35529 6.85627C3.80993 6.56795 2.33426 7.72413 2.25356 9.2893C2.19487 10.4282 2.86613 11.4854 3.90383 11.8881C5.00426 12.3151 6.19418 12.0026 6.93293 11.0867C7.00556 10.9964 7.05435 10.9887 7.15669 11.0415C8.44492 11.7047 9.73571 12.3632 11.028 13.019C11.1208 13.066 11.1461 13.1078 11.1182 13.2149C10.7785 14.5251 11.4883 15.864 12.7615 16.3383C12.9523 16.409 13.1555 16.4252 13.3433 16.5H13.9287C13.9357 16.4776 13.9536 16.4762 13.9738 16.4736C15.4759 16.3052 16.5433 14.8776 16.2524 13.399ZM15.4212 4.14409C15.422 5.11136 14.6304 5.90293 13.6631 5.90146C12.6959 5.90036 11.9061 5.10696 11.9091 4.13932C11.9124 3.17828 12.6992 2.39184 13.6602 2.38928C14.6278 2.38671 15.4205 3.17645 15.4212 4.14409ZM3.12693 9.43933C3.1295 8.47242 3.92401 7.68378 4.89165 7.68819C5.85268 7.69259 6.63765 8.48049 6.63912 9.4419C6.64022 10.4095 5.84902 11.2015 4.88174 11.2007C3.91447 11.2 3.12437 10.407 3.12693 9.43933ZM13.6551 15.6215C12.694 15.6164 11.9098 14.8277 11.9091 13.866C11.9087 12.8987 12.7006 12.1075 13.6679 12.109C14.6352 12.1104 15.4245 12.9042 15.4212 13.8715C15.4179 14.8387 14.6227 15.6266 13.6551 15.6215Z"
            fill="#FE6B01" stroke="#FE6B01" stroke-width="0.4" />
    </g>
</svg>
