<svg width="70" height="67" viewBox="0 0 70 67" fill="none" xmlns="http://www.w3.org/2000/svg">
    <path
        d="M68.7226 31.3513L62.0044 24.7337V13.758C62.0044 12.342 60.8623 11.1941 59.4533 11.1941H55.8979C54.5743 11.1941 53.5011 12.2727 53.5011 13.6029V16.3581L38.2511 1.33468C37.3488 0.44439 36.1736 0 35 0C33.8263 0 32.6512 0.44439 31.7489 1.33468L1.27892 31.3513C0.0423204 32.57 -0.338404 34.4184 0.316622 36.0302C0.971647 37.6421 2.53052 38.6951 4.26176 38.6951H5.88359V62.3894C5.88359 64.8342 7.85616 66.8182 10.2904 66.8182H59.7111C62.1438 66.8182 64.1164 64.8358 64.1164 62.3894V38.6951H65.7382C67.4695 38.6951 69.0299 37.6421 69.6834 36.0302C70.3384 34.4184 69.9577 32.57 68.7211 31.3513H68.7226Z"
        fill="#013765" fill-opacity="0.1" />
    <path
        d="M50.4211 50.4305C50.2097 50.1345 49.9489 49.8697 49.6927 49.6097C47.938 47.8257 46.1957 46.0369 44.4209 44.2811C43.9934 43.855 43.8823 43.5386 44.177 42.9591C46.0598 39.2328 46.029 35.53 44.0104 31.835C40.2818 25.0121 30.6518 24.0801 25.6979 30.0479C24.2225 31.8288 23.4169 33.8775 22.9092 36.0892V38.9806C22.9802 39.225 23.0728 39.4662 23.1206 39.7168C24.4849 46.8264 31.8802 50.891 38.5009 48.1515C39.2648 47.8351 39.9901 47.4216 40.7664 47.0347C42.6724 48.9722 44.5521 50.8847 46.4333 52.7957C46.6895 53.0588 46.941 53.3298 47.2296 53.5538C48.2081 54.3087 49.4026 54.2602 50.2236 53.4566C51.0554 52.639 51.1418 51.4502 50.4196 50.4305H50.4211ZM34.1936 45.3149C30.0129 45.2694 26.63 41.8266 26.6084 37.596C26.5853 33.3043 29.9944 29.8254 34.226 29.816C38.4392 29.8098 41.9177 33.3262 41.8945 37.5709C41.8745 41.8266 38.3589 45.3603 34.1936 45.3149Z"
        fill="#013765" />
</svg>
