<svg width="22" height="21" viewBox="0 0 22 21" fill="none" xmlns="http://www.w3.org/2000/svg">
    <g clip-path="url(#clip0_1294_2759)">
        <path
            d="M1.50997 10.5804C1.55997 10.5404 1.53997 10.5104 1.60997 10.4504V12.4104H3.57997V9.04037C3.57997 8.90037 3.57997 8.73037 3.68997 8.63037C6.12997 6.47037 8.48997 4.37037 10.93 2.20037C10.95 2.20037 10.97 2.18037 11 2.15037C11.98 3.02037 12.94 3.88037 13.91 4.74037C15.37 6.04037 16.82 7.34037 18.29 8.63037C18.45 8.77037 18.51 8.92037 18.51 9.13037V11.4104L20.32 12.5204V10.4504C20.42 10.5304 20.48 10.5904 20.55 10.6404C21.03 11.0104 21.69 10.8304 21.93 10.2704C21.95 10.2204 21.98 10.1704 22 10.1204V9.73037C21.85 9.52037 21.73 9.28037 21.55 9.11037V9.09037H21.54C19.62 7.37037 17.69 5.65037 15.76 3.94037C14.39 2.72037 13.03 1.51037 11.66 0.290373C11.44 0.0903731 11.2 -0.0196269 10.9 0.000373105C10.6 0.0303731 10.4 0.220373 10.19 0.410373C8.22997 2.16037 6.26997 3.90037 4.30997 5.64037C2.98997 6.82037 1.65997 7.99037 0.339974 9.17037C-0.0700257 9.54037 -0.120026 10.1004 0.219974 10.5004C0.549974 10.8904 1.08997 10.9204 1.50997 10.5804Z"
            fill="#FE6B01" />
        <path d="M3.57986 11.46V19.54H1.60986V11.46H3.57986Z" fill="#FE6B01" />
        <path
            d="M12.23 19.5302H10.26L6.97 14.5502V19.5302H5V11.4502H6.97L10.26 16.4502V11.4502H12.23V19.5302Z"
            fill="#FE6B01" />
        <path
            d="M19.4101 20.9098L18.3701 19.5198C18.0601 19.5798 17.7601 19.6098 17.4701 19.6098C16.7101 19.6098 16.0101 19.4298 15.3801 19.0798C14.7501 18.7298 14.2501 18.2298 13.8701 17.5998C13.4901 16.9698 13.3101 16.2598 13.3101 15.4698C13.3101 14.6798 13.5001 13.9698 13.8701 13.3398C14.2401 12.7098 14.7401 12.2198 15.3801 11.8698C16.0201 11.5198 16.7101 11.3398 17.4701 11.3398C18.2301 11.3398 18.9301 11.5198 19.5601 11.8698C20.1901 12.2198 20.6901 12.7098 21.0601 13.3398C21.4301 13.9698 21.6101 14.6798 21.6101 15.4698C21.6101 16.1598 21.4701 16.7898 21.1901 17.3598C20.9101 17.9298 20.5201 18.3998 20.0201 18.7798L21.7901 20.9098H19.4101ZM15.9201 17.1798C16.3101 17.6098 16.8301 17.8198 17.4801 17.8198C18.1301 17.8198 18.6401 17.6098 19.0301 17.1798C19.4201 16.7498 19.6101 16.1798 19.6101 15.4798C19.6101 14.7798 19.4201 14.1998 19.0301 13.7698C18.6401 13.3398 18.1301 13.1298 17.4801 13.1298C16.8301 13.1298 16.3101 13.3398 15.9201 13.7598C15.5301 14.1798 15.3401 14.7498 15.3401 15.4698C15.3401 16.1898 15.5301 16.7498 15.9201 17.1798Z"
            fill="#FE6B01" />
    </g>
    <defs>
        <clipPath id="clip0_1294_2759">
            <rect width="22" height="20.91" fill="white" />
        </clipPath>
    </defs>
</svg>
