<svg width="22" height="20" viewBox="0 0 22 20" fill="none" xmlns="http://www.w3.org/2000/svg">
    <g clip-path="url(#clip0_243_3974)">
        <path
            d="M21.7525 7.11333C20.1758 7.11333 18.5992 7.11333 17.0225 7.11333C16.885 7.11333 16.7842 7.08583 16.6833 6.97583C15.6108 5.86667 14.5292 4.76667 13.4475 3.67583C13.3375 3.56583 13.3008 3.48333 13.3558 3.31833C13.86 1.76917 12.7875 0.128334 11.2017 3.88827e-07C9.42333 -0.128333 8.10333 1.61333 8.67167 3.33667C8.7175 3.465 8.69 3.5475 8.59833 3.63917C7.5075 4.74833 6.41667 5.8575 5.32583 6.96667C5.2525 7.04 5.13333 7.095 5.0325 7.095C3.4375 7.095 1.8425 7.095 0.2475 7.095C0.11 7.095 0 7.205 0 7.35167V18.9842C0 19.1217 0.11 19.2408 0.256667 19.2408C0.275 19.2408 0.284167 19.2408 0.3025 19.2408C7.43417 19.2408 14.575 19.2408 21.7067 19.2408H21.7525C21.89 19.2408 22 19.1308 22 18.9842V7.35167C22 7.21417 21.89 7.095 21.7525 7.095V7.11333ZM11.0092 1.32C11.66 1.32 12.2008 1.87 12.2008 2.53917C12.2008 3.20833 11.66 3.74917 11.0092 3.74917C10.3492 3.74917 9.8175 3.19917 9.8175 2.53917C9.8175 1.87 10.3583 1.32917 11.0092 1.32917V1.32ZM9.53333 4.57417C9.96417 4.88583 10.4592 5.06 11 5.06C11.5408 5.06 12.0267 4.88583 12.4483 4.58333C13.1817 5.32583 13.8967 6.06833 14.6208 6.80167C14.7217 6.91167 14.6483 7.08583 14.5017 7.08583H7.46167C7.315 7.08583 7.24167 6.9025 7.3425 6.80167C8.07583 6.05917 8.8 5.31667 9.53333 4.565V4.57417ZM20.46 17.9208H1.54917C1.41167 17.9208 1.30167 17.8108 1.30167 17.6642V8.69C1.30167 8.5525 1.41167 8.43333 1.54917 8.43333H20.4692C20.6067 8.43333 20.7167 8.54333 20.7167 8.69V17.6642C20.7167 17.8017 20.6067 17.9208 20.4692 17.9208H20.46Z"
            fill="#FE6B01" />
        <path
            d="M17.8291 11.3392C17.5816 11.2567 17.3158 11.2017 17.05 11.1925C16.3991 11.1742 15.7483 11.1833 15.0975 11.1833C15.0516 11.1833 15.0058 11.2017 14.96 11.2017V15.1708C15.4458 15.1708 15.9041 15.18 16.3625 15.1708C16.7566 15.1617 17.1508 15.1708 17.5358 15.0883C18.4433 14.9142 19.0116 14.2358 19.085 13.3192C19.1491 12.4025 18.6816 11.6325 17.8383 11.3392H17.8291ZM17.7558 13.2183C17.7375 13.6858 17.49 14.0158 17.0591 14.08C16.8116 14.1167 16.555 14.1075 16.28 14.1258V12.21C16.5733 12.2283 16.8666 12.21 17.1325 12.2742C17.5541 12.3658 17.7741 12.7325 17.7558 13.2183Z"
            fill="#FE6B01" />
        <path
            d="M10.9178 12.5217C10.6428 11.6417 9.81779 11.0825 8.80029 11.0733C8.60779 11.1008 8.41529 11.11 8.23196 11.1558C6.71029 11.495 6.07779 13.3375 7.09529 14.5108C7.66362 15.1617 8.40612 15.3358 9.22196 15.2258C10.5145 15.0608 11.3211 13.7775 10.927 12.5217H10.9178ZM8.54362 14.1258C8.08529 13.9792 7.82862 13.4292 7.96612 12.87C8.08529 12.375 8.51612 12.1 9.00196 12.2008C9.41446 12.2925 9.68029 12.6683 9.68029 13.1817C9.68029 13.8783 9.14862 14.3183 8.54362 14.1258Z"
            fill="#FE6B01" />
        <path
            d="M5.90346 14.8683C5.58263 15.1158 5.21596 15.2167 4.8218 15.2442C4.1343 15.29 3.48346 15.18 2.8418 14.85C2.98846 14.52 3.12596 14.1992 3.26346 13.8692C3.70346 14.1075 4.14346 14.2358 4.61096 14.2267C4.67513 14.2267 4.74846 14.2358 4.80346 14.2083C4.89513 14.1625 4.97763 14.0892 5.0693 14.025C4.99596 13.9517 4.94096 13.8417 4.85846 13.8142C4.6018 13.7317 4.33596 13.6767 4.07013 13.6033C3.92346 13.5667 3.7768 13.5208 3.6393 13.4658C3.26346 13.31 2.98846 13.0625 2.93346 12.6317C2.8693 12.1458 2.99763 11.7242 3.40096 11.4675C3.64846 11.3025 3.9418 11.1833 4.22596 11.1375C4.9043 11.0183 5.5643 11.1008 6.20596 11.4308C6.07763 11.7517 5.9493 12.0633 5.82096 12.375C5.5368 12.2925 5.28013 12.1917 5.00513 12.1458C4.81263 12.1092 4.6018 12.1275 4.4093 12.1642C4.33596 12.1733 4.2443 12.2833 4.22596 12.3567C4.2168 12.4025 4.31763 12.5217 4.39096 12.54C4.62013 12.6133 4.85846 12.6592 5.0968 12.7233C5.28013 12.7692 5.47263 12.8242 5.6468 12.8883C6.6093 13.255 6.5268 14.3917 5.8943 14.8683H5.90346Z"
            fill="#FE6B01" />
        <path d="M14.5662 14.1167V15.1525H11.5137V11.1925H12.8062V14.1167H14.5662Z"
            fill="#FE6B01" />
    </g>
    <defs>
        <clipPath id="clip0_243_3974">
            <rect width="22" height="19.25" fill="white" />
        </clipPath>
    </defs>
</svg>
