<svg width="14" height="12" viewBox="0 0 14 12" fill="none" xmlns="http://www.w3.org/2000/svg">
    <path
        d="M0 1C0 0.447715 0.324208 0 0.724138 0H13.2759C13.6758 0 14 0.447715 14 1C14 1.55228 13.6758 2 13.2759 2H0.724138C0.324208 2 0 1.55228 0 1Z"
        fill="white" />
    <path
        d="M0 6C0 5.44772 0.324208 5 0.724138 5H13.2759C13.6758 5 14 5.44772 14 6C14 6.55228 13.6758 7 13.2759 7H0.724138C0.324208 7 0 6.55228 0 6Z"
        fill="white" />
    <path
        d="M0.75 10C0.335786 10 0 10.4477 0 11C0 11.5523 0.335786 12 0.75 12H7.25C7.66421 12 8 11.5523 8 11C8 10.4477 7.66421 10 7.25 10H0.75Z"
        fill="white" />
</svg>
