<svg width="20" height="20" viewBox="0 0 20 20" fill="none" xmlns="http://www.w3.org/2000/svg">
    <path
        d="M15.8453 14.3791L15.8454 14.3792C16.3619 14.8899 16.8767 15.4044 17.3918 15.9194C18.1115 16.6387 18.8319 17.3588 19.5586 18.07L19.6635 17.9628L19.5586 18.07C19.8145 18.3204 19.9013 18.7031 19.822 19.0553C19.7432 19.4052 19.5054 19.7043 19.1339 19.8027C18.7404 19.9068 18.4107 19.8463 18.1256 19.562C17.7432 19.18 17.3606 18.7987 16.978 18.4174C16.1248 17.5671 15.272 16.7173 14.424 15.8619L14.4239 15.8618C14.3397 15.7771 14.2426 15.707 14.12 15.7064C14.0046 15.7059 13.9068 15.7687 13.8263 15.8284L13.8262 15.8285C12.8384 16.5619 11.7314 17.027 10.5218 17.2937C9.69262 17.4764 8.85216 17.5039 8.01633 17.4371L8.01631 17.4371C6.65236 17.3283 5.34124 16.8815 4.18633 16.15L4.10607 16.2768L4.18633 16.15C0.616062 13.8888 -0.859122 9.02751 0.879019 5.17613L0.87903 5.1761C2.4175 1.76557 6.31634 -0.281622 10.0125 0.227154C11.8744 0.483626 13.6509 1.3681 14.9655 2.70821C17.8346 5.63349 18.3555 10.5744 15.8093 13.8527C15.7535 13.9245 15.6964 14.015 15.7041 14.1242C15.7118 14.2328 15.7805 14.3149 15.8453 14.3791ZM2.92001 11.8454L2.9201 11.8456C3.02738 12.0482 3.14478 12.2466 3.27313 12.4379C5.7235 16.1034 11.2565 16.3279 13.9902 12.8592L13.8747 12.7682L13.9902 12.8592C16.0141 10.2906 15.7765 6.50941 13.5081 4.17141L13.4004 4.27586L13.5081 4.1714C12.916 3.56116 12.2183 3.09906 11.4323 2.7641C10.2509 2.25933 9.02184 2.08699 7.75844 2.27717C6.71469 2.43401 5.75449 2.8354 4.89268 3.45847L4.89261 3.45852C4.23561 3.93408 3.691 4.51004 3.2454 5.17922L3.24531 5.17936C3.04447 5.48166 2.86952 5.8016 2.72431 6.13465L2.72429 6.13469C1.94086 7.93292 2.00211 10.1069 2.92001 11.8454Z"
        fill="#1A1A1A" />
</svg>
