<svg width="17" height="20" viewBox="0 0 17 20" fill="none" xmlns="http://www.w3.org/2000/svg">
    <path
        d="M16.0578 16.3751C16.0578 18.1762 14.8056 19.6235 12.9653 19.9455C12.7491 19.9831 12.5252 19.9968 12.3054 19.9973C9.76732 20.0007 7.2298 20.0013 4.69229 19.999C2.58302 19.9968 0.943468 18.4218 0.940506 16.3962C0.938137 14.7569 0.940506 13.117 0.940506 11.4777C0.940506 9.83835 0.939321 8.12723 0.940506 6.45259C0.940506 5.92097 1.23963 5.55686 1.73304 5.47367C2.27738 5.38137 2.78856 5.76598 2.82943 6.29988C2.83535 6.37795 2.83239 6.45658 2.83239 6.53407C2.83239 9.81327 2.83239 13.0925 2.83239 16.3717C2.83239 17.4298 3.61189 18.1779 4.7142 18.1785H12.2835C13.3858 18.1785 14.1659 17.4287 14.1659 16.3717V6.4486C14.1659 5.93749 14.4502 5.57225 14.9152 5.47994C15.4489 5.37396 15.9459 5.69988 16.0371 6.22011C16.0537 6.31755 16.0578 6.41726 16.0578 6.51641C16.0578 9.80245 16.0596 13.0891 16.0578 16.3751Z"
        fill="#F11E1E" />
    <path
        d="M15.9999 2.72956C14.9823 2.72329 13.9647 2.72785 12.9465 2.72785H12.2736C12.2736 2.11475 12.2771 1.53469 12.2724 0.953493C12.2671 0.382553 11.8815 0.00534502 11.2862 0.00363562C9.42747 -0.000922789 7.56876 -0.00149259 5.71064 0.00363562C5.11653 0.00534502 4.73212 0.384832 4.72678 0.955772C4.72264 1.46631 4.7256 1.97742 4.7256 2.48797V2.72728H4.42648C3.29099 2.72728 2.15551 2.725 1.01943 2.72842C0.426512 2.7307 0.00477774 3.10905 3.91508e-05 3.63042C-0.00469944 4.16261 0.421182 4.5478 1.0218 4.5478C6.00798 4.54893 10.993 4.5478 15.9786 4.5478C16.0307 4.5478 16.0822 4.5478 16.1338 4.54438C16.5194 4.51304 16.8463 4.2572 16.9577 3.89993C17.1449 3.29708 16.6905 2.73355 16.0005 2.72899L15.9999 2.72956ZM10.3734 2.70848H6.61748V1.83554H10.3734V2.70848Z"
        fill="#F11E1E" />
    <path
        d="M7.5579 14.4696C7.55671 15.0497 7.15334 15.4571 6.6007 15.452C6.05754 15.4468 5.66779 15.0394 5.6672 14.4713C5.6672 14.0269 5.66602 13.5836 5.66602 13.1397C5.66602 12.5477 5.66602 11.9562 5.6672 11.3642C5.6672 11.0662 5.6672 10.7682 5.6672 10.4702C5.66602 9.70382 5.66542 8.93801 5.67016 8.1722C5.67253 7.72718 5.99476 7.3722 6.44551 7.28787C6.85422 7.21151 7.29609 7.42462 7.46253 7.80183C7.52414 7.94143 7.55553 8.10325 7.55612 8.25539C7.56204 10.3272 7.56145 12.3978 7.55908 14.4696H7.5579Z"
        fill="#F11E1E" />
    <path
        d="M11.3315 14.5388C11.3297 14.9685 11.0537 15.3058 10.6343 15.4175C10.2303 15.5246 9.78788 15.3685 9.58945 15.0112C9.50238 14.8551 9.44788 14.6625 9.4467 14.4864C9.43722 12.4009 9.4384 10.3155 9.44255 8.22943C9.44374 7.66875 9.85895 7.26704 10.4045 7.27502C10.9388 7.283 11.3309 7.68699 11.3321 8.23969C11.3332 8.65679 11.3332 9.07388 11.3332 9.49097C11.3332 10.1166 11.3332 10.7423 11.3321 11.3679C11.3321 11.6853 11.3321 12.0021 11.3321 12.3189C11.3321 13.0591 11.3338 13.7981 11.3303 14.5383L11.3315 14.5388Z"
        fill="#F11E1E" />
</svg>
