<svg width="30" height="30" viewBox="0 0 30 30" fill="none" xmlns="http://www.w3.org/2000/svg">
<path d="M0.759766 29.08H29.0898C29.4998 29.08 29.8398 28.74 29.8398 28.33C29.8398 27.92 29.4998 27.58 29.0898 27.58H0.759766C0.349766 27.58 0.00976562 27.92 0.00976562 28.33C0.00976562 28.74 0.349766 29.08 0.759766 29.08Z" fill="#013765"/>
<path d="M2.55153 28L2.62394 11.1644C2.62394 10.542 2.93424 9.93931 3.46177 9.54411L13.7019 1.91673C14.0949 1.6302 14.5501 1.482 15.0259 1.482C15.4913 1.482 15.9671 1.6302 16.3602 1.91673L26.621 9.52435C27.1485 9.91955 27.4485 10.5025 27.4485 11.1546V27.9901H29V11.1546C29 10.0677 28.4828 9.03035 27.5726 8.3585L17.3118 0.741002C16.6395 0.247001 15.8327 0 15.0259 0C14.2191 0 13.4226 0.247001 12.7503 0.741002L2.49982 8.36838C1.62061 9.04023 1.08275 10.0579 1.0724 11.1546L1 27.9901H2.55153V28Z" fill="#013765"/>
<path d="M16.3396 21.25V20.5H13.5096C12.7196 20.5 11.9896 20.82 11.4796 21.34C10.9596 21.86 10.6396 22.58 10.6396 23.37V28.33C10.6396 28.53 10.7196 28.72 10.8596 28.86C10.9996 29 11.1896 29.08 11.3896 29.08H18.4696C18.6696 29.08 18.8596 29 18.9996 28.86C19.1396 28.72 19.2196 28.53 19.2196 28.33V23.37C19.2196 22.58 18.8996 21.85 18.3796 21.34C17.8596 20.82 17.1396 20.5 16.3496 20.5V22C17.1096 22 17.7196 22.61 17.7296 23.38V27.59H12.1496V23.38C12.1496 22.62 12.7596 22.01 13.5296 22H16.3596V21.25H16.3396Z" fill="#013765"/>
<path d="M11.3896 18.71V17.96H8.55965C8.19965 17.96 7.88965 17.66 7.88965 17.29V15.17C7.88965 14.81 8.18965 14.5 8.55965 14.5H11.3896C11.7496 14.5 12.0596 14.81 12.0596 15.17V17.29C12.0596 17.65 11.7596 17.96 11.3896 17.96V19.46C12.5896 19.46 13.5496 18.49 13.5596 17.29V15.17C13.5596 13.97 12.5896 13.01 11.3896 13H8.55965C7.35965 13 6.39965 13.97 6.38965 15.17V17.29C6.38965 18.49 7.35965 19.45 8.55965 19.46H11.3896V18.71Z" fill="#013765"/>
<path d="M21.2998 18.71V17.96H18.4698C18.1098 17.96 17.7998 17.66 17.7998 17.29V15.17C17.7998 14.81 18.0998 14.5 18.4698 14.5H21.2998C21.6598 14.5 21.9698 14.81 21.9698 15.17V17.29C21.9698 17.65 21.6598 17.96 21.2998 17.96V19.46C22.4998 19.46 23.4598 18.49 23.4698 17.29V15.17C23.4698 13.97 22.4998 13.01 21.2998 13H18.4698C17.2698 13 16.3098 13.97 16.2998 15.17V17.29C16.2998 18.49 17.2698 19.45 18.4698 19.46H21.2998V18.71Z" fill="#013765"/>
<path d="M26.77 7.07002L26.73 2.82002C26.73 2.41002 26.39 2.08002 25.98 2.08002H19.75C19.34 2.08002 19 2.42002 19 2.83002C19 3.24002 19.34 3.58002 19.75 3.58002H25.24L25.28 7.09002C25.28 7.50002 25.62 7.84002 26.04 7.83002C26.45 7.83002 26.79 7.49002 26.78 7.07002H26.77Z" fill="#013765"/>
<path d="M23.0745 9.80109H6.90962C5.17701 9.80109 3.77246 11.2286 3.77246 12.9896V17.0419C3.77246 18.8029 5.17701 20.2304 6.90962 20.2304H23.0745C24.8071 20.2304 26.2116 18.8029 26.2116 17.0419V12.9896C26.2116 11.2286 24.8071 9.80109 23.0745 9.80109Z" fill="#013765"/>
<path d="M23.0901 20.2147V19.4293H6.90985C5.61172 19.4293 4.5454 18.3613 4.5454 17.0262V12.9738C4.5454 11.6545 5.59627 10.5707 6.90985 10.5707H23.0901C24.3883 10.5707 25.4546 11.6387 25.4546 12.9738V17.0262C25.4546 18.3456 24.4037 19.4293 23.0901 19.4293V21C25.2537 21 27 19.2251 27 17.0262V12.9738C27 10.7749 25.2537 9 23.0901 9H6.90985C4.7463 9 3 10.7749 3 12.9738V17.0262C3 19.2251 4.7463 21 6.90985 21H23.0901V20.2147Z" fill="#013765"/>
<path fill-rule="evenodd" clip-rule="evenodd" d="M19.5825 18.554L18.8677 17.6879C18.66 17.7366 18.4452 17.7487 18.238 17.7487C17.719 17.7487 17.249 17.6165 16.8141 17.3873L16.8105 17.3854C16.3709 17.1371 16.0282 16.7888 15.784 16.3586C15.5392 15.9273 15.41 15.4314 15.41 14.8743C15.41 14.3164 15.5396 13.8364 15.784 13.4058C16.0291 12.9739 16.3876 12.627 16.8086 12.3802L16.8105 12.379C17.2502 12.1308 17.7219 12.0157 18.238 12.0157C18.7541 12.0157 19.2259 12.1308 19.6655 12.379C20.1072 12.6284 20.4326 12.9771 20.69 13.4023C20.9535 13.8376 21.0661 14.3358 21.0661 14.8743C21.0661 15.3646 20.9695 15.8274 20.7568 16.2432C20.5708 16.6068 20.333 16.9079 20.0328 17.1558L21.3443 18.6597H19.5825V18.554ZM18.238 13.2408C17.9511 13.2408 17.6828 13.3139 17.4751 13.4406L17.4717 13.4426C17.2505 13.5691 17.0828 13.752 16.9546 13.9981C16.829 14.2393 16.7699 14.5291 16.7699 14.8743C16.7699 15.2196 16.829 15.5094 16.9546 15.7506C17.0821 15.9952 17.2499 16.1801 17.4745 16.3234C17.7005 16.452 17.9544 16.5235 18.238 16.5235C18.5229 16.5235 18.7776 16.4514 19.0043 16.3218C19.225 16.1957 19.392 16.0137 19.5199 15.7535L19.5214 15.7506C19.647 15.5094 19.7062 15.2196 19.7062 14.8743C19.7062 14.5291 19.647 14.2393 19.5214 13.9981C19.3932 13.752 19.2256 13.569 19.0043 13.4426C18.7776 13.3129 18.5229 13.2408 18.238 13.2408ZM11.4051 12.0628H10.1401V17.7016H11.4692V14.3708L13.6352 17.7016H14.9V12.0628H13.5709V15.4077L11.4051 12.0628ZM8.03857 12.0785H9.36762V17.7015H8.03857V12.0785ZM22.1939 16.2094C21.9836 16.2094 21.7891 16.2639 21.6319 16.4236C21.4831 16.5749 21.4058 16.7519 21.4058 16.979C21.4058 17.2062 21.4831 17.3831 21.6319 17.5345C21.7719 17.6767 21.9804 17.7486 22.1939 17.7486C22.4042 17.7486 22.5988 17.6942 22.7559 17.5345C22.9048 17.3831 22.9821 17.2062 22.9821 16.979C22.9821 16.7577 22.9083 16.5587 22.7491 16.4171C22.6 16.2845 22.4129 16.2094 22.1939 16.2094Z" fill="white"/>
</svg>
