<svg width="30" height="30" viewBox="0 0 30 30" fill="none" xmlns="http://www.w3.org/2000/svg">
<path d="M16.3398 28.33H5.00977C3.70977 28.33 2.86977 28.01 2.34977 27.49C1.82977 26.97 1.50977 26.13 1.50977 24.83V13.5C1.50977 12.2 1.82977 11.36 2.34977 10.84C2.86977 10.32 3.70977 10 5.00977 10H11.3398V24.83C11.3398 26.36 11.7298 27.65 12.6198 28.55C13.5098 29.44 14.8098 29.83 16.3398 29.83C16.5398 29.83 16.7298 29.75 16.8698 29.61C17.0098 29.47 17.0898 29.28 17.0898 29.08C17.0898 28.88 17.0098 28.69 16.8698 28.55C16.7298 28.41 16.5398 28.33 16.3398 28.33C15.0398 28.33 14.1998 28.01 13.6798 27.49C13.1598 26.97 12.8398 26.13 12.8398 24.83V9.25C12.8398 9.05 12.7598 8.86 12.6198 8.72C12.4798 8.58 12.2898 8.5 12.0898 8.5H5.00977C3.47977 8.5 2.18977 8.89 1.28977 9.78C0.399766 10.68 0.00976562 11.97 0.00976562 13.5V24.83C0.00976562 26.36 0.399766 27.65 1.28977 28.55C2.17977 29.44 3.47977 29.83 5.00977 29.83H16.3398C16.5398 29.83 16.7298 29.75 16.8698 29.61C17.0098 29.47 17.0898 29.28 17.0898 29.08C17.0898 28.88 17.0098 28.69 16.8698 28.55C16.7298 28.41 16.5398 28.33 16.3398 28.33Z" fill="#013765"/>
<path d="M12.2495 3.58003L11.5295 3.39003C11.3895 3.90003 11.3495 4.44003 11.3495 5.00003V8.50003H5.76953V6.42003C5.76953 5.85003 5.99953 5.33003 6.37953 4.95003C6.75953 4.57003 7.27953 4.34003 7.84953 4.34003H12.2595V3.59003V2.84003H7.84953C5.86953 2.84003 4.26953 4.45003 4.26953 6.42003V9.25003C4.26953 9.45003 4.34953 9.64003 4.48953 9.78003C4.62953 9.92003 4.81953 10 5.01953 10H12.0995C12.2995 10 12.4895 9.92003 12.6295 9.78003C12.7695 9.64003 12.8495 9.45003 12.8495 9.25003V5.00003C12.8495 4.52003 12.8895 4.11003 12.9795 3.78003C13.0395 3.55003 12.9895 3.31003 12.8495 3.13003C12.7095 2.95003 12.4895 2.84003 12.2595 2.84003V3.59003L12.2495 3.58003Z" fill="#013765"/>
<path d="M17.0098 9.25V16.33C17.0098 16.74 17.3498 17.08 17.7598 17.08C18.1698 17.08 18.5098 16.74 18.5098 16.33V9.25C18.5098 8.84 18.1698 8.5 17.7598 8.5C17.3498 8.5 17.0098 8.84 17.0098 9.25Z" fill="#013765"/>
<path d="M22.6797 9.25V16.33C22.6797 16.74 23.0197 17.08 23.4297 17.08C23.8397 17.08 24.1797 16.74 24.1797 16.33V9.25C24.1797 8.84 23.8397 8.5 23.4297 8.5C23.0197 8.5 22.6797 8.84 22.6797 9.25Z" fill="#013765"/>
<path d="M22.0098 22V21.25H19.1798C17.9798 21.25 17.0198 22.22 17.0098 23.42V29.09C17.0098 29.29 17.0898 29.48 17.2298 29.62C17.3698 29.76 17.5598 29.84 17.7598 29.84H23.4298C23.6298 29.84 23.8198 29.76 23.9598 29.62C24.0998 29.48 24.1798 29.29 24.1798 29.09V23.42C24.1798 22.22 23.2098 21.26 22.0098 21.25V22.75C22.3698 22.75 22.6798 23.06 22.6798 23.42V28.34H18.5098V23.42C18.5098 23.06 18.8098 22.75 19.1798 22.75H22.0098V22Z" fill="#013765"/>
<path d="M5.67969 16.33V22C5.67969 22.41 6.01969 22.75 6.42969 22.75C6.83969 22.75 7.17969 22.41 7.17969 22V16.33C7.17969 15.92 6.83969 15.58 6.42969 15.58C6.01969 15.58 5.67969 15.92 5.67969 16.33Z" fill="#013765"/>
<path d="M12.0898 24.83H12.8398V5C12.8398 3.7 13.1598 2.86 13.6798 2.34C14.1998 1.82 15.0398 1.5 16.3398 1.5H24.8398C26.1398 1.5 26.9798 1.82 27.4998 2.34C28.0198 2.86 28.3398 3.7 28.3398 5V24.83C28.3398 26.13 28.0198 26.97 27.4998 27.49C26.9798 28.01 26.1398 28.33 24.8398 28.33H16.3398C15.0398 28.33 14.1998 28.01 13.6798 27.49C13.1598 26.97 12.8398 26.13 12.8398 24.83H11.3398C11.3398 26.36 11.7298 27.65 12.6198 28.55C13.5098 29.44 14.8098 29.83 16.3398 29.83H24.8398C26.3698 29.83 27.6598 29.44 28.5598 28.55C29.4498 27.66 29.8398 26.36 29.8398 24.83V5C29.8398 3.47 29.4498 2.18 28.5598 1.28C27.6698 0.39 26.3698 0 24.8398 0H16.3398C14.8098 0 13.5198 0.39 12.6198 1.28C11.7298 2.17 11.3398 3.47 11.3398 5V24.83H12.0898Z" fill="#013765"/>
<path fill-rule="evenodd" clip-rule="evenodd" d="M27 16.0262C27 18.2251 25.2537 20 23.0901 20H6.90985C4.7463 20 3 18.2251 3 16.0262V11.9738C3 9.77487 4.7463 8 6.90985 8H23.0901C25.2537 8 27 9.77487 27 11.9738V16.0262Z" fill="#013765"/>
<path fill-rule="evenodd" clip-rule="evenodd" d="M19.5828 17.5383L18.868 16.6721C18.6603 16.7208 18.4454 16.7329 18.2383 16.7329C17.7193 16.7329 17.2493 16.6007 16.8143 16.3715L16.8108 16.3696C16.3711 16.1214 16.0285 15.773 15.7843 15.3428C15.5395 14.9115 15.4102 14.4157 15.4102 13.8586C15.4102 13.3007 15.5398 12.8207 15.7843 12.39C16.0294 11.9582 16.3879 11.6112 16.8089 11.3644L16.8108 11.3633C17.2505 11.115 17.7222 10.9999 18.2383 10.9999C18.7544 10.9999 19.2261 11.115 19.6658 11.3633L19.6678 11.3644C20.0909 11.6125 20.4318 11.9596 20.6903 12.3866C20.9538 12.8218 21.0664 13.32 21.0664 13.8586C21.0664 14.3488 20.9698 14.8116 20.7571 15.2275C20.5711 15.591 20.3333 15.8921 20.0331 16.14L21.3446 17.6439H19.5828V17.5383ZM18.2383 12.2251C17.9457 12.2251 17.6822 12.2848 17.4809 12.4212L17.4722 12.4272C17.2509 12.5536 17.0831 12.7362 16.9549 12.9823C16.8293 13.2235 16.7702 13.5133 16.7702 13.8586C16.7702 14.2038 16.8293 14.4936 16.9549 14.7348C17.0823 14.9794 17.2502 15.1644 17.4748 15.3077C17.7008 15.4363 17.9546 15.5078 18.2383 15.5078C18.5232 15.5078 18.7779 15.4357 19.0046 15.3061C19.2252 15.1799 19.3922 14.9979 19.5202 14.7378L19.5217 14.7348C19.6473 14.4936 19.7064 14.2038 19.7064 13.8586C19.7064 13.5133 19.6473 13.2235 19.5217 12.9823C19.3935 12.7362 19.2259 12.5533 19.0046 12.4268C18.7779 12.2972 18.5232 12.2251 18.2383 12.2251ZM11.4049 11.0471H10.14V16.6859H11.4691V13.3551L13.6351 16.6859H14.8998V11.0471H13.5708V14.3919L11.4049 11.0471ZM8.03849 11.0627H9.36753V16.6858H8.03849V11.0627ZM22.194 15.1936C21.9837 15.1936 21.7892 15.2481 21.6321 15.4078C21.4832 15.5591 21.4059 15.7361 21.4059 15.9632C21.4059 16.1904 21.4832 16.3674 21.6321 16.5187C21.772 16.6609 21.9806 16.7329 22.194 16.7329C22.4044 16.7329 22.5989 16.6784 22.756 16.5187C22.9049 16.3674 22.9822 16.1904 22.9822 15.9632C22.9822 15.7419 22.9085 15.5429 22.7492 15.4014C22.6002 15.2688 22.4131 15.1936 22.194 15.1936Z" fill="white"/>
</svg>
