<svg width="30" height="30" viewBox="0 0 30 30" fill="none" xmlns="http://www.w3.org/2000/svg">
<path d="M15.6798 29.08V28.33H3.74977C3.12977 28.33 2.56977 28.08 2.15977 27.68C1.74977 27.28 1.50977 26.74 1.50977 26.14V5.13C1.50977 3.89 1.84977 2.99 2.34977 2.4C2.85977 1.82 3.52977 1.51 4.41977 1.5C5.04977 1.5 5.77977 1.67 6.57977 2.06L12.8698 5.15C13.3898 5.4 13.9298 5.92 14.3098 6.53C14.6998 7.14 14.9298 7.85 14.9198 8.41V29.08H15.6698H16.4198V8.41C16.4198 7.47 16.0898 6.54 15.5698 5.73C15.0598 4.92 14.3598 4.22 13.5198 3.8L7.23977 0.71C6.26977 0.24 5.31977 0 4.41977 0C3.14977 0 1.99977 0.5 1.20977 1.42C0.429766 2.34 0.00976562 3.62 0.00976562 5.13V26.15C0.00976562 28.19 1.69977 29.83 3.74977 29.83H15.6798C15.8798 29.83 16.0698 29.75 16.2098 29.61C16.3498 29.47 16.4298 29.28 16.4298 29.08H15.6798Z" fill="#013765"/>
<path d="M29.0899 19.25H28.3399V24.61C28.3399 25.32 28.2599 25.9 28.1099 26.37C27.8799 27.07 27.5299 27.51 26.9999 27.83C26.4599 28.15 25.6799 28.34 24.6199 28.34H16.4299V12.68H15.6799L15.5199 13.41L16.1799 13.55L22.5499 14.98L25.4299 15.62C26.2899 15.81 26.9899 16.11 27.4699 16.6C27.9399 17.09 28.2799 17.78 28.3299 19.01V19.11C28.3299 19.11 28.3399 19.16 28.3399 19.26H29.8399C29.8399 19.16 29.8399 19.03 29.8199 18.87L29.0799 18.99L29.8299 18.97C29.7899 17.48 29.3199 16.33 28.5399 15.55C27.7599 14.77 26.7599 14.39 25.7599 14.16L22.8799 13.52L16.4999 12.09L15.8299 11.95C15.6099 11.9 15.3799 11.95 15.1999 12.1C15.0299 12.24 14.9199 12.46 14.9199 12.68V29.08C14.9199 29.28 14.9999 29.47 15.1399 29.61C15.2799 29.75 15.4699 29.83 15.6699 29.83H24.6099C25.4299 29.83 26.1699 29.74 26.8299 29.53C27.8199 29.22 28.6199 28.61 29.1199 27.75C29.6199 26.89 29.8299 25.84 29.8299 24.61V19.25H29.0799H29.0899Z" fill="#013765"/>
<path d="M5.75977 11.42H10.6798C11.0898 11.42 11.4298 11.08 11.4298 10.67C11.4298 10.26 11.0898 9.91998 10.6798 9.91998H5.75977C5.34977 9.91998 5.00977 10.26 5.00977 10.67C5.00977 11.08 5.34977 11.42 5.75977 11.42Z" fill="#013765"/>
<path d="M5.75977 17.08H10.6798C11.0898 17.08 11.4298 16.74 11.4298 16.33C11.4298 15.92 11.0898 15.58 10.6798 15.58H5.75977C5.34977 15.58 5.00977 15.92 5.00977 16.33C5.00977 16.74 5.34977 17.08 5.75977 17.08Z" fill="#013765"/>
<path d="M22.7196 14.25H21.9696V18.81C21.9696 19.48 21.6996 20.09 21.2496 20.53C20.8096 20.97 20.1996 21.25 19.5296 21.25C18.8596 21.25 18.2496 20.98 17.8096 20.53C17.3696 20.09 17.0896 19.48 17.0896 18.81V13.75L22.5496 14.98L22.7096 14.25L22.8696 13.52L16.4896 12.09C16.2696 12.04 16.0296 12.09 15.8596 12.24C15.6796 12.38 15.5796 12.6 15.5796 12.83V18.82C15.5796 20.99 17.3396 22.76 19.5196 22.76C21.6896 22.76 23.4596 21 23.4596 18.82V14.26C23.4596 13.91 23.2196 13.61 22.8696 13.53L22.7096 14.26L22.7196 14.25Z" fill="#013765"/>
<path d="M29.0797 18.98L28.3297 18.94C28.2697 20.21 27.1997 21.25 25.9097 21.25C25.2397 21.25 24.6297 20.98 24.1897 20.53C23.7497 20.09 23.4697 19.48 23.4697 18.81V15.18L25.4297 15.62C26.2897 15.81 26.9897 16.11 27.4697 16.6C27.9397 17.09 28.2797 17.78 28.3297 19.01L29.0797 18.99L29.8297 18.97C29.7897 17.48 29.3197 16.33 28.5397 15.55C27.7597 14.77 26.7597 14.39 25.7597 14.16L22.8797 13.52C22.6597 13.47 22.4297 13.52 22.2497 13.67C22.0697 13.82 21.9697 14.03 21.9697 14.25V18.81C21.9697 20.98 23.7297 22.75 25.9097 22.75C28.0197 22.75 29.7297 21.09 29.8297 19.02V18.96L29.0797 18.98Z" fill="#013765"/>
<path fill-rule="evenodd" clip-rule="evenodd" d="M27 16.0262C27 18.2251 25.2537 20 23.0901 20H6.90985C4.7463 20 3 18.2251 3 16.0262V11.9738C3 9.77487 4.7463 8 6.90985 8H23.0901C25.2537 8 27 9.77487 27 11.9738V16.0262Z" fill="#013765"/>
<path fill-rule="evenodd" clip-rule="evenodd" d="M18.8677 16.6721L19.5825 17.5383V17.6439H21.3443L20.0328 16.14C20.333 15.8921 20.5708 15.591 20.7568 15.2275C20.9695 14.8116 21.0661 14.3488 21.0661 13.8586C21.0661 13.32 20.9535 12.8218 20.69 12.3866C20.4342 11.964 20.1084 11.5966 19.662 11.3614C19.227 11.1321 18.757 10.9999 18.238 10.9999C17.7219 10.9999 17.2502 11.115 16.8105 11.3633L16.8086 11.3644C16.3876 11.6112 16.0291 11.9582 15.784 12.39C15.5396 12.8207 15.41 13.3007 15.41 13.8586C15.41 14.4157 15.5392 14.9115 15.784 15.3428C16.0282 15.773 16.3709 16.1214 16.8105 16.3696L16.8141 16.3715C17.249 16.6008 17.719 16.7329 18.238 16.7329C18.4452 16.7329 18.66 16.7208 18.8677 16.6721ZM17.4807 12.4212C17.6819 12.2849 17.9454 12.2251 18.238 12.2251C18.5229 12.2251 18.7776 12.2972 19.0044 12.4268C19.2256 12.5533 19.3932 12.7362 19.5214 12.9823C19.6471 13.2235 19.7062 13.5133 19.7062 13.8586C19.7062 14.2039 19.647 14.4936 19.5214 14.7348L19.5199 14.7378C19.392 14.9979 19.225 15.1799 19.0044 15.3061C18.7776 15.4357 18.5229 15.5078 18.238 15.5078C17.9544 15.5078 17.7006 15.4363 17.4745 15.3077C17.2499 15.1644 17.0821 14.9795 16.9546 14.7348C16.829 14.4937 16.7699 14.2039 16.7699 13.8586C16.7699 13.5133 16.829 13.2235 16.9546 12.9823C17.0828 12.7362 17.2507 12.5537 17.4719 12.4272L17.4807 12.4212ZM11.4051 11.0471H10.1401V16.6858H11.4692V13.355L13.6352 16.6858H14.9V11.0471H13.5709V14.3919L11.4051 11.0471ZM9.36762 11.0627H8.03857V16.6858H9.36762V11.0627ZM22.1939 15.1936C21.9836 15.1936 21.7891 15.2481 21.6319 15.4078C21.4831 15.5591 21.4058 15.7361 21.4058 15.9633C21.4058 16.1904 21.4831 16.3674 21.6319 16.5187C21.7719 16.6609 21.9804 16.7329 22.1939 16.7329C22.4042 16.7329 22.5988 16.6784 22.7559 16.5187C22.9048 16.3674 22.9821 16.1904 22.9821 15.9633C22.9821 15.7419 22.9083 15.543 22.7491 15.4014C22.6 15.2688 22.4129 15.1936 22.1939 15.1936Z" fill="white"/>
</svg>
