<svg width="34" height="30" viewBox="0 0 34 30" fill="none" xmlns="http://www.w3.org/2000/svg">
    <path
        d="M33.63 9.84272C33.37 9.51272 33.15 9.15272 32.91 8.81272C31.49 6.76272 30.1 4.69272 28.69 2.63272C28.39 2.20272 28.1 1.74272 27.51 1.66272C27.4 1.56272 27.26 1.60272 27.13 1.60272C24.47 1.60272 21.81 1.60272 19.14 1.60272C18.85 1.26272 18.56 0.932719 18.28 0.592719C17.83 0.0327194 16.87 -0.167281 16.25 0.152719C15.61 0.482719 15.3 1.13272 14.82 1.61272C12.11 1.61272 9.4 1.61272 6.69 1.61272L6.44 1.67272C6.11 1.76272 5.8 1.88272 5.6 2.17272C5.4 2.46272 5.2 2.76272 5 3.05272C3.9 4.63272 2.83 6.22272 1.74 7.81272C1.16 8.67272 0.54 9.50272 0 10.3827V11.1127C0.15 11.3427 0.3 11.5627 0.52 11.7227C0.52 11.8527 0.52 11.9927 0.52 12.1227C0.52 17.2227 0.52 22.3227 0.52 27.4327C0.52 27.5627 0.46 27.7027 0.58 27.8127L0.53 27.9227C0.59 28.6527 1.28 29.4527 2.12 29.4527C2.23 29.4527 2.34 29.4627 2.45 29.4627C12.14 29.4627 21.84 29.4627 31.53 29.4627C31.63 29.4627 31.73 29.4627 31.83 29.4527C32.57 29.4527 33.37 28.7527 33.43 27.8027C33.54 27.6927 33.48 27.5527 33.48 27.4227C33.48 23.3027 33.48 19.1827 33.48 15.0627C33.48 13.9427 33.48 12.8227 33.48 11.7027C34.07 11.1527 34.19 10.5727 33.62 9.84272H33.63ZM16.58 1.28272C16.77 1.05272 17.25 1.09272 17.45 1.34272C18.07 2.07272 18.69 2.80272 19.3 3.53272C20.22 4.62272 21.12 5.71272 22.04 6.80272C22.74 7.62272 23.45 8.43272 24.15 9.25272C24.55 9.71272 24.94 10.1827 25.33 10.6427C25.27 10.7627 25.16 10.7027 25.07 10.7127C24.73 10.7127 24.39 10.7127 24.06 10.7227C23.79 10.6327 23.64 10.4027 23.47 10.2127C22.57 9.18272 21.69 8.13272 20.8 7.09272C19.92 6.06272 19.04 5.02272 18.16 3.99272C17.94 3.73272 17.72 3.48272 17.52 3.21272C17.24 2.84272 16.74 2.82272 16.38 3.27272C15.78 4.00272 15.16 4.72272 14.55 5.44272C13.87 6.25272 13.2 7.06272 12.52 7.86272C11.96 8.52272 11.39 9.16272 10.83 9.82272C10.64 10.0427 10.46 10.2727 10.28 10.5027C10.18 10.6227 10.06 10.7027 9.9 10.7327C9.48 10.7327 9.06 10.7327 8.64 10.7327C8.7 10.4527 8.96 10.3027 9.12 10.0927C9.93 9.11272 10.78 8.15272 11.61 7.18272C12.62 6.00272 13.63 4.81272 14.63 3.62272C15.28 2.85272 15.92 2.07272 16.57 1.29272L16.58 1.28272ZM3.98 6.55272C4.84 5.29272 5.71 4.04272 6.58 2.79272C8.87 2.79272 11.15 2.79272 13.44 2.80272C13.55 2.80272 13.68 2.73272 13.77 2.86272C12.79 4.00272 11.81 5.14272 10.84 6.28272C9.98 7.29272 9.12 8.30272 8.27 9.32272C7.88 9.78272 7.5 10.2327 7.12 10.6927C5.13 10.6927 3.14 10.6927 1.15 10.6927C2.1 9.31272 3.05 7.92272 4 6.54272L3.98 6.55272ZM11.88 28.2527L11.82 28.2027L11.84 28.2527H5.17L5.19 28.2027L5.13 28.2527C5.13 26.3627 5.13 24.4627 5.13 22.5727C5.13 20.6827 5.13 18.8727 5.14 17.0227H11.86L11.84 17.0727L11.9 17.0227C11.9 18.0627 11.91 19.1027 11.9 20.1427C11.9 22.8427 11.9 25.5427 11.9 28.2427L11.88 28.2527ZM12.42 15.8127H4.59V15.7927V14.7027H12.42V15.8127ZM31.91 28.2527C28.23 28.2527 24.54 28.2527 20.86 28.2527C18.27 28.2527 15.68 28.2527 13.1 28.2527V16.7727C13.38 16.5527 13.56 16.2727 13.57 15.9027C13.67 15.4727 13.67 15.0527 13.57 14.6227C13.55 14.0927 13.18 13.6927 12.74 13.6327L12.5 13.5527C12.41 13.4627 12.29 13.5027 12.18 13.5027C9.73 13.5027 7.29 13.5027 4.84 13.5027C4.73 13.5027 4.62 13.4727 4.52 13.5527C3.76 13.7027 3.45 13.9827 3.4 14.5627V15.9627C3.4 16.3527 3.62 16.6127 3.93 16.8227C3.93 20.6327 3.93 24.4527 3.93 28.2627C3.7 28.2627 3.47 28.2527 3.24 28.2627C2.94 28.2827 2.63 28.2227 2.33 28.2627H2.32L2.2 28.2927H2.14C1.91 28.2027 1.69 28.1127 1.73 27.7927C1.73 25.2127 1.73 22.6327 1.73 20.0527C1.73 17.3427 1.73 14.6227 1.73 11.9127C4.34 11.9127 6.94 11.9127 9.55 11.9127C9.69 11.9127 9.84 11.9627 9.96 11.8527C10.34 11.8527 10.67 11.7027 10.91 11.4427C11.52 10.7627 12.1 10.0527 12.69 9.36272C13.13 8.85272 13.58 8.34272 14.01 7.82272C14.57 7.16272 15.12 6.48272 15.69 5.83272C16.07 5.39272 16.47 4.96272 16.83 4.49272C16.95 4.33272 17.06 4.42272 17.15 4.53272C18.03 5.56272 18.91 6.60272 19.79 7.63272C20.66 8.65272 21.52 9.67272 22.38 10.6927C22.72 11.0927 23.01 11.5427 23.52 11.7727C23.69 11.8527 23.88 11.8127 24.04 11.9127C26.79 11.9127 29.54 11.9127 32.29 11.9127C32.29 16.6127 32.29 21.3127 32.29 26.0127C32.29 26.6127 32.29 27.2027 32.29 27.8027C32.23 28.0227 32.13 28.2027 31.89 28.2727L31.91 28.2527ZM26.92 10.7127C26.46 10.1927 26 9.67272 25.54 9.14272C25.09 8.61272 24.65 8.08272 24.2 7.55272C23.64 6.88272 23.08 6.20272 22.51 5.53272C22.07 5.02272 21.62 4.52272 21.19 4.00272C20.86 3.60272 20.46 3.26272 20.21 2.79272C22.62 2.79272 25.03 2.79272 27.44 2.79272C28.21 3.92272 28.98 5.06272 29.76 6.19272C30.74 7.62272 31.72 9.04272 32.7 10.4627L32.82 10.6827C30.85 10.6827 28.88 10.6827 26.91 10.6927L26.92 10.7127Z"
        fill="#013765" />
    <path fill-rule="evenodd" clip-rule="evenodd"
        d="M29.7196 15.52V15.43L29.6567 15.31H29.6596C29.6496 14.69 29.2396 14.27 28.5796 14.15L28.5779 14.1584L28.3896 14.08H28.2196C27.0066 14.0866 25.7981 14.0844 24.5881 14.0822C23.9826 14.0811 23.3766 14.08 22.7696 14.08H17.3296H17.1596L16.9896 14.1437V14.14C16.4096 14.2 15.8896 14.66 15.8896 15.25V15.32H15.8933L15.8296 15.49V15.63V19.04V22.44V22.58L15.8933 22.75H15.8896C15.9196 23.39 16.2996 23.81 16.9696 23.97H17.0796H24.9896H28.3196H28.4296L28.5696 23.9063V23.91H28.6196C29.1696 23.91 29.6496 23.37 29.6696 22.75H29.6653L29.7396 22.62V22.5V19.01V15.52H29.7196ZM28.3396 22.6V15.5H17.5396H17.2396V22.6H26.8696H28.3396Z"
        fill="#013765" />
    <path
        d="M24.8587 10.0909H9.14116C7.4565 10.0909 6.09082 11.4348 6.09082 13.0925V16.9074C6.09082 18.5652 7.4565 19.9091 9.14116 19.9091H24.8587C26.5433 19.9091 27.909 18.5652 27.909 16.9074V13.0925C27.909 11.4348 26.5433 10.0909 24.8587 10.0909Z"
        fill="#013765" />
    <path
        d="M25.0901 20.2147V19.4293H8.90985C7.61172 19.4293 6.5454 18.3613 6.5454 17.0262V12.9738C6.5454 11.6545 7.59626 10.5707 8.90985 10.5707H25.0901C26.3883 10.5707 27.4546 11.6387 27.4546 12.9738V17.0262C27.4546 18.3456 26.4037 19.4293 25.0901 19.4293V21C27.2537 21 29 19.2251 29 17.0262V12.9738C29 10.7749 27.2537 9 25.0901 9H8.90985C6.7463 9 5 10.7749 5 12.9738V17.0262C5 19.2251 6.7463 21 8.90985 21H25.0901V20.2147Z"
        fill="#013765" />
    <path fill-rule="evenodd" clip-rule="evenodd"
        d="M21.6443 18.576L20.9369 17.7326C20.7314 17.7801 20.5187 17.7919 20.3138 17.7919C19.8001 17.7919 19.3351 17.6632 18.9046 17.44L18.9011 17.4381C18.466 17.1964 18.1269 16.8573 17.8853 16.4384C17.643 16.0184 17.5151 15.5356 17.5151 14.9932C17.5151 14.45 17.6433 13.9826 17.8853 13.5633C18.1278 13.1428 18.4826 12.805 18.8992 12.5647L18.9011 12.5636C19.3362 12.3219 19.803 12.2098 20.3138 12.2098C20.8228 12.2098 21.3058 12.3212 21.7274 12.5641C22.164 12.8069 22.4857 13.1463 22.7403 13.5599C23.0011 13.9837 23.1124 14.4688 23.1124 14.9932C23.1124 15.4705 23.0169 15.9211 22.8063 16.326C22.6223 16.68 22.3869 16.9732 22.0899 17.2146L23.3878 18.6789H21.6443V18.576ZM20.3138 13.4027C20.0268 13.4027 19.7785 13.4599 19.5609 13.5959C19.3341 13.7376 19.1687 13.904 19.0437 14.14C18.9194 14.3748 18.8609 14.657 18.8609 14.9932C18.8609 15.3294 18.9194 15.6115 19.0437 15.8464C19.1703 16.0855 19.3373 16.266 19.5609 16.4058C19.7785 16.5418 20.0268 16.599 20.3138 16.599C20.5957 16.599 20.8477 16.5288 21.0721 16.4026C21.2904 16.2798 21.4557 16.1025 21.5823 15.8492L21.5838 15.8464C21.7081 15.6115 21.7666 15.3294 21.7666 14.9932C21.7666 14.657 21.7081 14.3748 21.5838 14.14C21.457 13.9004 21.2911 13.7223 21.0721 13.5991C20.8477 13.4729 20.5957 13.4027 20.3138 13.4027ZM13.5669 12.2557H12.3152V17.746H13.6304V14.5029L15.7739 17.746H17.0255V12.2557H15.7103V15.5125L13.5669 12.2557ZM10.2356 12.2711H11.5508V17.7461H10.2356V12.2711ZM24.2285 16.2932C24.0203 16.2932 23.8278 16.3462 23.6723 16.5017C23.525 16.6491 23.4485 16.8214 23.4485 17.0426C23.4485 17.2637 23.525 17.4361 23.6723 17.5834C23.8108 17.7219 24.0172 17.7919 24.2285 17.7919C24.4366 17.7919 24.6291 17.7389 24.7846 17.5834C24.9319 17.4361 25.0084 17.2637 25.0084 17.0426C25.0084 16.827 24.9355 16.6333 24.7779 16.4955C24.6304 16.3664 24.4452 16.2932 24.2285 16.2932Z"
        fill="white" />
</svg>
