<svg width="35" height="35" viewBox="0 0 35 35" fill="none" xmlns="http://www.w3.org/2000/svg">
<path d="M5.74991 6.75005H10.8099C10.9099 6.73005 11.0199 6.71005 11.1199 6.69005C12.1099 6.45005 12.7499 5.55005 12.7299 4.77005C12.8399 4.65005 12.8299 4.54005 12.7299 4.42005C12.6599 3.47005 11.9899 2.82005 11.1799 2.64005C11.0299 2.61005 10.9599 2.59005 10.9299 2.42005C10.8099 1.81005 10.5699 1.25005 10.0899 0.830046C9.70991 0.490046 9.25991 0.280046 8.74991 0.170046V0.110046H8.53991H8.07991H7.87991V0.170046C6.76991 0.350046 5.84991 1.18005 5.67991 2.30005C5.65991 2.42005 5.65991 2.60005 5.40991 2.65005C4.09991 2.92005 3.49991 4.25005 3.96991 5.44005C4.27991 6.22005 4.92991 6.61005 5.73991 6.75005H5.74991ZM9.15991 1.42005C9.69991 1.68005 9.88991 2.14005 9.93991 2.69005C9.94991 2.83005 9.91991 2.97005 9.96991 3.11005C10.0699 3.42005 10.2599 3.57005 10.5899 3.57005C10.9799 3.57005 11.3299 3.65005 11.5599 4.02005C11.8299 4.46005 11.7799 4.90005 11.5299 5.32005C11.3799 5.57005 11.1199 5.69005 10.8199 5.70005C9.18991 5.70005 7.55991 5.70005 5.92991 5.70005L5.75991 5.76005C5.30991 5.62005 4.99991 5.37005 4.87991 4.86005C4.72991 4.19005 5.23991 3.60005 5.82991 3.57005C6.47991 3.54005 6.61991 3.39005 6.62991 2.74005C6.64991 1.91005 7.13991 1.40005 7.92991 1.23005C8.37991 1.13005 8.76991 1.23005 9.16991 1.41005L9.15991 1.42005Z" fill="#013765"/>
<path d="M5.74996 6.75V6.85H10.83C10.93 6.83 11.04 6.81 11.14 6.79C12.16 6.54 12.83 5.63 12.83 4.81V4.78H12.73L12.8 4.85L12.9 4.61L12.8 4.37L12.72 4.44H12.82C12.75 3.44 12.04 2.75 11.19 2.56L11.06 2.52L11.01 2.42C10.88 1.8 10.64 1.22 10.14 0.77C9.73996 0.42 9.26996 0.2 8.75996 0.09L8.73996 0.19H8.83996V0.12V0.02H8.53996V0.12L8.57996 0.21L8.53996 0.02H8.07996H7.78996V0.17H7.87996L7.85996 0.07C6.71996 0.26 5.75996 1.11 5.57996 2.28L5.53996 2.45C5.51996 2.49 5.48996 2.52 5.38996 2.54C4.32996 2.75 3.70996 3.64 3.70996 4.6C3.70996 4.89 3.76996 5.18 3.87996 5.47C4.19996 6.29 4.88996 6.71 5.72996 6.84L5.74996 6.74L5.67996 6.81L5.70996 6.84H5.74996V6.74L5.81996 6.67L5.79996 6.65H5.76996C4.97996 6.51 4.36996 6.14 4.06996 5.4C3.95996 5.14 3.90996 4.87 3.90996 4.6C3.90996 3.72 4.46996 2.94 5.42996 2.74C5.56996 2.71 5.66996 2.63 5.71996 2.54L5.77996 2.31C5.94996 1.23 6.82996 0.44 7.88996 0.26H7.96996V0.2H8.07996H8.53996V0.1L8.49996 0.01L8.53996 0.2H8.73996V0.1H8.63996V0.17V0.24L8.71996 0.25C9.20996 0.35 9.63996 0.56 10.01 0.88C10.47 1.28 10.7 1.82 10.82 2.42C10.84 2.52 10.87 2.59 10.94 2.64L11.15 2.72C11.92 2.89 12.55 3.5 12.62 4.41V4.44L12.64 4.46L12.69 4.57L12.64 4.67L12.61 4.7V4.74V4.77C12.61 5.49 12 6.34 11.07 6.56C10.97 6.58 10.87 6.6 10.76 6.62L10.78 6.72V6.62H5.71996V6.72L5.74996 6.75ZM9.15996 1.42L9.11996 1.51C9.62996 1.75 9.78996 2.16 9.83996 2.7V2.78V2.89C9.83996 2.97 9.83996 3.05 9.86996 3.14C9.96996 3.48 10.22 3.68 10.58 3.67C10.96 3.67 11.26 3.74 11.46 4.07C11.58 4.26 11.63 4.45 11.63 4.63C11.63 4.84 11.56 5.06 11.43 5.27C11.29 5.49 11.08 5.59 10.8 5.61C9.16996 5.61 7.53996 5.61 5.90996 5.61H5.88996L5.69996 5.67L5.72996 5.76L5.75996 5.66C5.31996 5.52 5.05996 5.31 4.94996 4.84L4.92996 4.62C4.92996 4.11 5.34996 3.69 5.80996 3.67C6.13996 3.66 6.35996 3.61 6.51996 3.46C6.66996 3.3 6.69996 3.07 6.70996 2.75C6.72996 1.96 7.17996 1.51 7.92996 1.34C8.04996 1.31 8.15996 1.3 8.27996 1.3C8.55996 1.3 8.82996 1.38 9.10996 1.51L9.14996 1.42L9.18996 1.33C8.88996 1.19 8.59996 1.1 8.26996 1.1C8.13996 1.1 8.01996 1.11 7.87996 1.14C7.05996 1.31 6.51996 1.87 6.49996 2.74C6.49996 3.06 6.44996 3.23 6.35996 3.32C6.27996 3.41 6.10996 3.46 5.78996 3.47C5.21996 3.49 4.71996 4 4.71996 4.62L4.74996 4.88C4.86996 5.43 5.22996 5.71 5.69996 5.85H5.72996L5.92996 5.79L5.89996 5.7V5.8C7.52996 5.8 9.15996 5.8 10.79 5.8C11.11 5.8 11.41 5.65 11.58 5.37C11.73 5.13 11.81 4.88 11.81 4.63C11.81 4.41 11.75 4.19 11.61 3.97C11.36 3.56 10.95 3.48 10.56 3.48C10.26 3.48 10.14 3.37 10.04 3.09L10.02 2.9V2.79V2.69C9.97996 2.12 9.75996 1.61 9.17996 1.34L9.13996 1.43L9.15996 1.42Z" fill="#013765"/>
<path d="M0.969863 15.52C1.18986 15.42 1.38986 15.28 1.61986 15.18C2.33986 14.85 3.07986 14.55 3.82986 14.28C4.07986 14.19 4.18986 13.89 4.08986 13.63C3.98986 13.37 3.77986 13.27 3.48986 13.36C2.39986 13.7 1.36986 14.17 0.359863 14.69C0.249863 14.75 0.199863 14.85 0.109863 14.92V15.32C0.399863 15.7 0.519863 15.73 0.969863 15.52Z" fill="#013765"/>
<path d="M0.97 15.52L1.01 15.61C1.24 15.5 1.44 15.37 1.66 15.27C2.38 14.94 3.12 14.64 3.86 14.38C4.1 14.3 4.22 14.06 4.22 13.83L4.18 13.6C4.1 13.37 3.91 13.23 3.68 13.24L3.45 13.28C2.35 13.62 1.31 14.09 0.3 14.62C0.15 14.7 0.1 14.81 0.04 14.85L0 14.88V15.36L0.02 15.39C0.19 15.62 0.33 15.76 0.54 15.76C0.68 15.76 0.82 15.71 1 15.62L0.96 15.53L0.92 15.44C0.74 15.52 0.62 15.56 0.54 15.56C0.43 15.56 0.35 15.5 0.18 15.27L0.1 15.33H0.2V14.93H0.1L0.16 15.01C0.28 14.92 0.31 14.83 0.39 14.79C1.4 14.27 2.43 13.8 3.51 13.46L3.68 13.43C3.83 13.43 3.92 13.5 3.99 13.67L4.02 13.83C4.02 13.99 3.93 14.14 3.79 14.19C3.04 14.46 2.3 14.76 1.57 15.09C1.34 15.2 1.14 15.33 0.92 15.43L0.96 15.52H0.97Z" fill="#013765"/>
<path d="M19.7897 9.69001C20.1797 10 20.6297 10.14 21.0897 10.27C21.1997 10.3 21.1897 10.33 21.1597 10.4C21.1697 10.54 21.0997 10.69 21.2097 10.81L21.1597 10.99C21.3897 11.95 22.1797 12.76 23.2097 12.74L23.4597 12.79H27.8697L28.1197 12.74C29.2197 12.68 30.0397 11.84 30.0997 10.77C30.1597 9.79001 29.5597 8.94001 28.5597 8.67001C28.3897 8.62001 28.2797 8.57001 28.2397 8.34001C28.1397 7.77001 27.9097 7.23001 27.4597 6.86001C26.8097 6.33001 26.0797 6.06001 25.1897 6.20001C24.1297 6.36001 23.1697 7.24001 23.0197 8.34001C22.9897 8.57001 22.8697 8.64001 22.6997 8.67001C22.4297 8.71001 22.1897 8.81001 22.0097 8.99001C21.6197 9.40001 21.1897 9.31001 20.7697 9.11001C19.8097 8.67001 19.1197 7.59001 19.4397 6.36001C19.6097 5.70001 19.9997 5.17001 20.6497 4.90001C21.7097 4.46001 22.6697 4.62001 23.4897 5.46001C23.6897 5.67001 23.9697 5.69001 24.1497 5.52001C24.3897 5.30001 24.4297 5.04001 24.2197 4.81001C23.6197 4.14001 22.8797 3.75001 21.9697 3.70001C21.8497 3.57001 21.6997 3.66001 21.5597 3.65001C21.4597 3.67001 21.3497 3.69001 21.2497 3.70001C20.5597 3.79001 19.9397 4.05001 19.4497 4.53001C18.5997 5.35001 18.2397 6.35001 18.4397 7.54001C18.5897 8.46001 19.0897 9.13001 19.7997 9.69001H19.7897ZM22.1397 10.6C22.1897 10.05 22.6397 9.61001 23.2097 9.61001C23.7097 9.61001 23.9397 9.38001 23.9397 8.90001C23.9397 7.95001 24.5897 7.23001 25.5397 7.17001C26.3697 7.12001 27.2497 7.76001 27.2597 8.69001C27.2597 9.44001 27.3897 9.53001 28.1697 9.62001C28.7097 9.68001 29.0897 10.05 29.1097 10.67C29.1097 11.09 28.7997 11.72 28.1197 11.75C26.4597 11.75 24.7997 11.75 23.1397 11.75C22.5697 11.75 22.0997 11.09 22.1397 10.61V10.6Z" fill="#013765"/>
<path d="M19.7898 9.69002L19.7298 9.77002C20.1398 10.09 20.6098 10.24 21.0698 10.36H21.1098L21.1398 10.33H21.0898L21.1098 10.38L21.1398 10.33H21.0898L21.0798 10.36V10.38V10.41V10.43L21.0698 10.63L21.1598 10.87L21.2298 10.8L21.1298 10.78L21.0798 10.96V10.98V11C21.3198 11.99 22.1298 12.83 23.1898 12.83H23.2198V12.73L23.1998 12.83L23.4498 12.88H23.4598H23.4698H27.8898L28.1498 12.82L28.1298 12.72V12.82C29.2798 12.76 30.1498 11.88 30.2098 10.76V10.63C30.2098 9.67002 29.5898 8.83002 28.5998 8.57002C28.4298 8.52002 28.3898 8.52002 28.3498 8.32002C28.2498 7.74002 28.0098 7.17002 27.5298 6.78002C26.9798 6.33002 26.3598 6.06002 25.6398 6.06002C25.4898 6.06002 25.3398 6.07002 25.1798 6.10002C24.0798 6.27002 23.0798 7.17002 22.9198 8.32002C22.9098 8.42002 22.8798 8.47002 22.8398 8.50002L22.6798 8.56002C22.3998 8.60002 22.1298 8.71002 21.9398 8.91002C21.7498 9.10002 21.5798 9.17002 21.3898 9.17002C21.2098 9.17002 21.0198 9.11002 20.8098 9.01002C20.0398 8.66002 19.4598 7.88002 19.4598 6.95002C19.4598 6.76002 19.4798 6.57002 19.5298 6.37002C19.6898 5.73002 20.0698 5.23002 20.6798 4.98002C21.0498 4.83002 21.3998 4.75002 21.7398 4.75002C22.3398 4.75002 22.8998 5.00002 23.4098 5.52002C23.5398 5.65002 23.6998 5.72002 23.8498 5.72002C23.9798 5.72002 24.1098 5.67002 24.2098 5.58002C24.3598 5.44002 24.4498 5.28002 24.4498 5.11002C24.4498 4.97002 24.3898 4.84002 24.2898 4.73002C23.6698 4.05002 22.8998 3.63002 21.9698 3.59002V3.69002L22.0398 3.62002L21.7898 3.52002L21.5798 3.54002H21.5698H21.5598H21.5498C21.4398 3.56002 21.3398 3.58002 21.2398 3.60002C20.5398 3.69002 19.8998 3.96002 19.3798 4.45002C18.6598 5.14002 18.2798 5.96002 18.2798 6.91002C18.2798 7.12002 18.2998 7.33002 18.3298 7.55002C18.4898 8.50002 19.0098 9.19002 19.7298 9.76002L19.7898 9.68002L19.8498 9.60002C19.1498 9.05002 18.6698 8.40002 18.5198 7.51002C18.4798 7.30002 18.4698 7.10002 18.4698 6.90002C18.4698 6.01002 18.8198 5.24002 19.5098 4.59002C19.9898 4.13002 20.5898 3.88002 21.2598 3.79002C21.3698 3.77002 21.4698 3.75002 21.5698 3.74002L21.5498 3.64002V3.74002H21.5698L21.7798 3.72002L21.8798 3.76002L21.9098 3.79002H21.9498C22.8298 3.84002 23.5498 4.22002 24.1398 4.87002L24.2498 5.12002C24.2498 5.22002 24.1998 5.33002 24.0798 5.44002L23.8598 5.53002C23.7598 5.53002 23.6598 5.49002 23.5598 5.39002C23.0198 4.83002 22.3998 4.56002 21.7398 4.56002C21.3698 4.56002 20.9898 4.64002 20.6098 4.81002C19.9398 5.09002 19.5198 5.66002 19.3498 6.34002C19.2998 6.55002 19.2698 6.77002 19.2698 6.97002C19.2698 7.99002 19.9098 8.83002 20.7398 9.21002C20.9498 9.31002 21.1698 9.38002 21.3998 9.38002C21.6398 9.38002 21.8798 9.29002 22.0998 9.06002C22.2498 8.90002 22.4798 8.81002 22.7298 8.77002C22.8298 8.76002 22.9198 8.73002 22.9998 8.66002C23.0798 8.59002 23.1198 8.49002 23.1398 8.36002C23.2798 7.31002 24.2198 6.46002 25.2298 6.31002C25.3798 6.29002 25.5198 6.28002 25.6598 6.28002C26.3198 6.28002 26.8998 6.53002 27.4198 6.96002C27.8398 7.30002 28.0698 7.82002 28.1698 8.38002C28.2098 8.64002 28.3898 8.75002 28.5698 8.79002C29.4798 9.03002 30.0398 9.78002 30.0398 10.66V10.78C29.9798 11.8 29.1998 12.59 28.1498 12.65L27.8898 12.71L27.9098 12.81V12.71H23.4998V12.81L23.5198 12.71L23.2698 12.66H23.2598H23.2498H23.2198C22.2698 12.66 21.5198 11.9 21.2998 10.98L21.1998 11L21.2998 11.02L21.3498 10.84V10.79L21.3298 10.75L21.2898 10.64L21.3098 10.44V10.4H21.2098L21.2998 10.44L21.3298 10.33L21.2698 10.21L21.1698 10.17C20.7098 10.04 20.2698 9.90002 19.8998 9.61002L19.8398 9.69002H19.7898ZM22.1398 10.6H22.2398C22.2798 10.11 22.6898 9.71002 23.2098 9.71002C23.4698 9.71002 23.6798 9.65002 23.8298 9.50002C23.9798 9.36002 24.0398 9.15002 24.0398 8.89002C24.0398 7.98002 24.6498 7.32002 25.5498 7.26002H25.6398C26.3898 7.26002 27.1498 7.85002 27.1598 8.68002C27.1598 9.06002 27.1898 9.30002 27.3598 9.47002C27.5298 9.63002 27.7698 9.67002 28.1598 9.72002C28.6598 9.78002 28.9898 10.1 29.0098 10.67V10.68C29.0098 11.06 28.7198 11.62 28.1198 11.65C26.4598 11.65 24.7998 11.65 23.1398 11.65C22.9098 11.65 22.6798 11.52 22.5198 11.32C22.3498 11.13 22.2498 10.87 22.2498 10.67V10.62H22.1498L22.0498 10.6V10.67C22.0498 11.2 22.5298 11.84 23.1398 11.85C24.7998 11.85 26.4598 11.85 28.1198 11.85C28.8498 11.8 29.1998 11.15 29.1998 10.68V10.66C29.1998 10 28.7598 9.58002 28.1798 9.51002C27.7898 9.47002 27.5898 9.42002 27.4998 9.32002C27.4098 9.23002 27.3698 9.05002 27.3598 8.67002C27.3498 7.71002 26.4898 7.05002 25.6398 7.05002H25.5398C24.5398 7.11002 23.8398 7.88002 23.8498 8.89002C23.8498 9.12002 23.7998 9.26002 23.6998 9.35002C23.6098 9.44002 23.4498 9.50002 23.2198 9.50002C22.5898 9.50002 22.0998 9.99002 22.0498 10.58H22.1498L22.1398 10.6Z" fill="#013765"/>
<path d="M28.1396 30.57C27.9496 30.22 27.7396 30.17 27.4596 30.33C27.1796 30.49 27.1196 30.72 27.2896 31.05C27.6296 31.7 27.9696 32.36 28.3096 33.01C28.4496 33.27 28.5696 33.55 28.7296 33.8C28.8196 33.95 28.9296 34.12 29.1496 34.12C29.5096 34.12 29.7896 33.73 29.6296 33.41C29.1496 32.46 28.6496 31.51 28.1396 30.58V30.57Z" fill="#013765"/>
<path d="M28.1397 30.57L28.2297 30.52C28.0997 30.28 27.9397 30.14 27.7297 30.14C27.6197 30.14 27.5197 30.18 27.4097 30.24C27.2197 30.35 27.0897 30.51 27.0997 30.71C27.0997 30.83 27.1397 30.96 27.2097 31.09C27.5497 31.74 27.8897 32.4 28.2297 33.05C28.3697 33.31 28.4897 33.59 28.6597 33.85C28.7497 33.99 28.8897 34.21 29.1597 34.22C29.5097 34.22 29.7797 33.93 29.7797 33.61L29.7197 33.37C29.2397 32.42 28.7397 31.47 28.2297 30.54L28.1397 30.59L28.0497 30.64C28.5597 31.58 29.0597 32.52 29.5397 33.47L29.5797 33.62C29.5797 33.82 29.3797 34.03 29.1497 34.03C28.9997 34.03 28.9097 33.91 28.8097 33.75C28.6497 33.51 28.5297 33.24 28.3897 32.97C28.0497 32.32 27.7097 31.67 27.3697 31.01C27.3097 30.89 27.2797 30.8 27.2797 30.72C27.2797 30.6 27.3397 30.51 27.4897 30.42C27.5797 30.37 27.6597 30.35 27.7097 30.35C27.8097 30.35 27.9097 30.41 28.0297 30.63L28.1197 30.58L28.1397 30.57Z" fill="#013765"/>
<path d="M30.7899 21.36C30.9299 21.47 31.0799 21.59 31.2199 21.7C31.9099 22.26 32.5999 22.81 33.2899 23.37C33.4599 23.5 33.7799 23.44 33.9199 23.26C34.1599 22.94 34.0799 22.67 33.6699 22.36C33.2499 22.05 32.8199 21.74 32.4499 21.36C32.8699 21.33 33.2999 21.43 33.7199 21.3C33.9899 21.23 34.0499 21.02 34.0399 20.78C34.0399 20.53 33.8899 20.4 33.6499 20.35C33.5399 20.24 33.3999 20.3 33.2699 20.3C27.4799 20.3 21.6999 20.3 15.9099 20.3L15.9399 20.24C17.5699 19.04 19.3499 18.11 21.2699 17.44C23.1099 16.8 25.0099 16.53 26.9399 16.43H27.4699C27.7699 16.48 28.0699 16.51 28.3799 16.51C29.0199 16.51 29.6599 16.61 30.2799 16.72C31.3399 16.9 32.3699 17.22 33.3899 17.57C33.6899 17.67 33.9399 17.55 34.0299 17.28C34.1399 16.97 34.0299 16.75 33.7099 16.64C33.5199 16.57 33.3299 16.5 33.1399 16.44C31.2799 15.81 29.3699 15.5 27.4099 15.43C27.1599 15.34 26.9199 15.34 26.6699 15.43C25.9999 15.48 25.3099 15.48 24.6499 15.59C23.6799 15.75 22.6999 15.89 21.7699 16.23C21.5699 16.31 21.3699 16.3 21.1499 16.15C19.7599 15.18 18.2599 14.39 16.6799 13.81C14.3899 12.96 12.0199 12.44 9.55988 12.46C9.36988 12.34 9.15988 12.42 8.94988 12.41C8.37988 12.45 7.79988 12.48 7.22988 12.53C6.89988 12.56 6.56988 12.61 6.23988 12.66C5.91988 12.71 5.73988 13.02 5.84988 13.31C5.96988 13.61 6.19988 13.72 6.49988 13.65C7.30988 13.47 8.12988 13.49 8.94988 13.4C9.16988 13.51 9.39988 13.43 9.61988 13.45C10.0599 13.47 10.4899 13.47 10.9299 13.51C11.7499 13.58 12.5599 13.7 13.3599 13.88C15.1699 14.29 16.9199 14.91 18.5699 15.79C19.0499 16.04 19.5199 16.32 19.9899 16.59L20.1399 16.75L19.9699 16.86C19.6199 17 19.2599 17.16 18.9199 17.32C17.2299 18.1 15.6699 19.09 14.2699 20.31H14.1399C9.68988 20.31 5.23988 20.31 0.799883 20.31C0.709883 20.31 0.599883 20.27 0.519883 20.37C0.339883 20.39 0.219883 20.5 0.129883 20.64V21.04C0.199883 21.24 0.299883 21.4 0.539883 21.41C0.879883 21.4 1.21988 21.35 1.55988 21.43C1.40988 21.6 1.20988 21.72 1.03988 21.87C0.739883 22.15 0.349883 22.33 0.129883 22.7V23.17C0.379883 23.57 0.649883 23.62 1.02988 23.36L1.28988 23.16C2.01988 22.59 2.71988 21.99 3.45988 21.44C3.91988 21.36 4.37988 21.41 4.84988 21.41C4.84988 21.51 4.77988 21.57 4.71988 21.63C3.85988 22.48 3.05988 23.4 2.21988 24.27C1.56988 24.94 0.949883 25.64 0.299883 26.32C0.209883 26.41 0.189883 26.53 0.129883 26.63V27.03C0.189883 27.2 0.269883 27.35 0.459883 27.41C0.709883 27.49 0.879883 27.36 1.03988 27.19C1.97988 26.26 2.85988 25.26 3.76988 24.3C4.17988 23.87 4.58988 23.43 4.99988 23C5.48988 22.48 5.92988 21.9 6.49988 21.45C6.90988 21.4 7.32988 21.37 7.73988 21.46L7.68988 21.58C5.64988 24.36 3.62988 27.15 1.59988 29.93C1.09988 30.62 0.559883 31.28 0.129883 32.01V32.47C0.629883 32.87 0.779883 32.88 1.06988 32.48C1.44988 31.96 1.80988 31.43 2.18988 30.91C3.03988 29.74 3.88988 28.58 4.73988 27.42C5.61988 26.21 6.48988 25 7.37988 23.8C7.96988 22.99 8.56988 22.19 9.16988 21.39C9.56988 21.42 9.96988 21.3 10.3699 21.45C10.1199 21.93 9.85988 22.41 9.60988 22.9C8.77988 24.5 7.93988 26.11 7.10988 27.71C6.54988 28.78 5.98988 29.85 5.42988 30.93C5.00988 31.74 4.58988 32.54 4.17988 33.36C4.00988 33.69 4.09988 33.93 4.41988 34.08C4.69988 34.21 4.86988 34.13 5.04988 33.8C5.39988 33.14 5.75988 32.48 6.10988 31.82C6.64988 30.8 7.16988 29.77 7.70988 28.75C8.56988 27.09 9.43988 25.43 10.2999 23.77C10.7099 22.98 11.1299 22.19 11.5499 21.39C11.9699 21.39 12.3899 21.4 12.8099 21.41C12.5299 22.29 12.2599 23.17 11.9899 24.06C11.4299 25.87 10.8599 27.67 10.2999 29.48C9.89988 30.77 9.48988 32.06 9.07988 33.34C9.01988 33.54 8.96988 33.74 9.11988 33.93C9.24988 34.09 9.41988 34.19 9.63988 34.15C9.89988 34.09 9.96988 33.87 10.0399 33.65C10.5199 32.12 10.9899 30.58 11.4599 29.05C11.9799 27.4 12.4999 25.74 13.0299 24.09C13.3099 23.19 13.5999 22.29 13.8899 21.4H15.1999C15.1599 21.81 15.1199 22.17 15.0899 22.54C15.0499 23.05 14.9899 23.56 14.9399 24.06C14.8499 24.83 14.7699 25.61 14.6899 26.38C14.6399 26.87 14.6199 27.36 14.5499 27.84C14.4399 28.64 14.3599 29.45 14.2899 30.26C14.2399 30.75 14.1899 31.23 14.1399 31.72C14.0799 32.38 13.9499 33.03 13.9599 33.7C13.9599 33.96 14.1299 34.1 14.3499 34.15C14.5999 34.21 14.7799 34.09 14.8899 33.85C14.9899 33.62 14.9399 33.38 14.9699 33.14C15.0599 32.39 15.1599 31.64 15.2199 30.88C15.2599 30.36 15.3099 29.84 15.3799 29.32C15.4699 28.58 15.5199 27.83 15.6199 27.1C15.6899 26.58 15.7099 26.06 15.7599 25.54C15.8399 24.8 15.9399 24.06 16.0199 23.32C16.0899 22.69 16.1599 22.05 16.2299 21.42C16.6899 21.42 17.1499 21.42 17.6099 21.42L17.6799 21.66C17.7399 22.52 17.8599 23.36 17.9399 24.22C18.0499 25.28 18.1599 26.33 18.2699 27.39C18.3799 28.46 18.4799 29.53 18.6099 30.59C18.6999 31.34 18.7199 32.11 18.8199 32.86C18.8599 33.16 18.8199 33.47 18.9399 33.76C19.0299 33.99 19.1499 34.19 19.4199 34.15C19.6699 34.11 19.8699 34.01 19.8799 33.68C19.8899 33.25 19.8299 32.83 19.7999 32.4C19.7199 31.46 19.5799 30.53 19.4799 29.59C19.3999 28.84 19.3499 28.09 19.2799 27.35C19.1799 26.39 19.0499 25.44 18.9499 24.48C18.8699 23.73 18.8499 22.98 18.7299 22.24C18.6899 21.96 18.7599 21.67 18.6199 21.41C19.0799 21.41 19.5399 21.41 19.9999 21.41C20.2799 22.34 20.5499 23.27 20.8399 24.19C21.3999 26 21.9699 27.8 22.5299 29.61C22.9499 30.97 23.3699 32.33 23.7999 33.69C23.8599 33.9 23.9999 34.09 24.2299 34.14C24.4299 34.19 24.5899 34.07 24.7099 33.92C24.8599 33.74 24.8099 33.53 24.7499 33.33C24.4699 32.4 24.1799 31.48 23.8999 30.56C23.3799 28.9 22.8599 27.23 22.3399 25.57C21.8999 24.18 21.4599 22.79 21.0199 21.41C21.4399 21.41 21.8599 21.4 22.2799 21.39C22.7699 22.32 23.2699 23.25 23.7599 24.18C24.5099 25.61 25.2499 27.04 25.9799 28.48C26.0499 28.61 26.1299 28.74 26.1999 28.87C26.3399 29.11 26.6099 29.16 26.8399 29.01C27.0599 28.87 27.1599 28.6 27.0399 28.37C26.8799 28.06 26.7099 27.75 26.5399 27.44C25.8299 26.07 25.1099 24.69 24.4099 23.31C24.0899 22.67 23.6999 22.07 23.4499 21.4C23.8699 21.4 24.2899 21.4 24.7199 21.4C25.1699 22.01 25.6099 22.63 26.0599 23.25C26.8899 24.4 27.7299 25.54 28.5699 26.69C29.5599 28.05 30.5599 29.42 31.5599 30.78C32.0999 31.53 32.6399 32.28 33.1799 33.03C33.3899 33.31 33.5899 33.35 33.8599 33.17C34.0999 33.01 34.1499 32.69 33.9799 32.44C33.7299 32.08 33.4899 31.71 33.2299 31.36C32.1599 29.9 31.0899 28.45 30.0299 26.99C29.2699 25.96 28.5199 24.93 27.7599 23.89C27.1799 23.09 26.6099 22.29 26.0299 21.48C26.0699 21.38 26.1599 21.41 26.2299 21.41C26.6499 21.41 27.0699 21.41 27.4899 21.41C27.7999 21.77 28.1299 22.1 28.4499 22.44C29.0899 23.13 29.7399 23.82 30.3799 24.51C31.3299 25.53 32.2999 26.53 33.2699 27.54C33.3499 27.62 33.4199 27.7 33.5699 27.71C33.8199 27.73 33.9699 27.57 34.0399 27.41C34.1399 27.19 34.0899 26.95 33.8899 26.75C33.2799 26.14 32.6999 25.49 32.1199 24.85C31.2799 23.94 30.4099 23.05 29.5599 22.15C29.3299 21.91 29.1199 21.65 28.8999 21.39C29.5399 21.39 30.1899 21.39 30.8299 21.39L30.7899 21.36Z" fill="#013765"/>
<path d="M30.7895 21.36L30.7295 21.44C30.8695 21.55 31.0195 21.67 31.1595 21.78C31.8495 22.34 32.5395 22.89 33.2295 23.45C33.3095 23.52 33.4195 23.54 33.5195 23.54C33.6995 23.54 33.8795 23.46 33.9995 23.32C34.0995 23.19 34.1595 23.06 34.1595 22.92C34.1595 22.68 33.9995 22.48 33.7295 22.28C33.3095 21.97 32.8795 21.66 32.5195 21.3L32.4495 21.37V21.47H32.6495C32.8295 21.47 33.0095 21.48 33.1995 21.49C33.3795 21.49 33.5595 21.48 33.7495 21.42C34.0495 21.35 34.1595 21.09 34.1495 20.85V20.8C34.1495 20.51 33.9395 20.32 33.6795 20.28L33.6595 20.38L33.7295 20.31L33.4795 20.21H33.2895C29.3195 20.22 25.3495 20.22 21.3695 20.22C19.5595 20.22 17.7395 20.22 15.9295 20.22V20.32L16.0195 20.36L16.0495 20.3L15.9595 20.26L16.0195 20.34C17.6495 19.14 19.4095 18.22 21.3195 17.56C23.1395 16.93 25.0295 16.65 26.9595 16.56H27.4895V16.46L27.4695 16.56C27.7595 16.61 28.0495 16.64 28.3495 16.64H28.3995H28.4495C29.0595 16.64 29.6695 16.75 30.2795 16.85C31.3295 17.03 32.3595 17.35 33.3695 17.69L33.6095 17.73C33.8495 17.73 34.0595 17.58 34.1395 17.34L34.1795 17.1C34.1795 16.86 34.0195 16.66 33.7495 16.58C33.5595 16.51 33.3695 16.44 33.1795 16.38C31.3095 15.74 29.3895 15.43 27.4195 15.37V15.47L27.4495 15.38C27.3195 15.33 27.1795 15.3 27.0395 15.3C26.8995 15.3 26.7695 15.33 26.6295 15.38L26.6695 15.47V15.37C25.9895 15.42 25.3095 15.42 24.6295 15.53C23.6595 15.69 22.6795 15.83 21.7395 16.18L21.5295 16.22C21.4295 16.22 21.3295 16.19 21.2095 16.11C19.8095 15.14 18.3095 14.34 16.7095 13.75C14.4495 12.92 12.1095 12.39 9.66953 12.39H9.54953V12.49L9.59953 12.41C9.49953 12.34 9.37953 12.33 9.28953 12.33C9.17953 12.33 9.06953 12.35 8.97953 12.35H8.94953C8.37953 12.39 7.79953 12.42 7.22953 12.47C6.88953 12.5 6.55953 12.55 6.22953 12.61C5.92953 12.66 5.71953 12.91 5.71953 13.19L5.75953 13.39C5.85953 13.66 6.07953 13.82 6.34953 13.82L6.52953 13.8C7.31953 13.63 8.13953 13.64 8.96953 13.55V13.45L8.90953 13.54C9.01953 13.6 9.13953 13.61 9.24953 13.61C9.35953 13.61 9.46953 13.6 9.55953 13.6H9.61953C10.0595 13.62 10.4995 13.62 10.9295 13.66C11.7495 13.73 12.5495 13.85 13.3395 14.02C15.1495 14.43 16.8795 15.05 18.5195 15.92C18.9995 16.17 19.4695 16.45 19.9395 16.72L19.9895 16.63L19.9195 16.7L19.9895 16.77L19.9295 16.81L19.9795 16.89L19.9395 16.8C19.5795 16.94 19.2295 17.1 18.8795 17.26C17.1795 18.05 15.6195 19.04 14.1995 20.27L14.2695 20.35V20.25H14.1395C12.4495 20.25 10.7495 20.25 9.05953 20.25C6.30953 20.25 3.54953 20.25 0.799531 20.25H0.669531L0.449531 20.34L0.529531 20.4V20.3C0.299531 20.32 0.159531 20.47 0.0495312 20.62L0.0295312 20.65V21.11C0.0995312 21.32 0.239531 21.55 0.539531 21.55C0.739531 21.55 0.929531 21.52 1.11953 21.52C1.25953 21.52 1.39953 21.53 1.52953 21.56L1.54953 21.46L1.46953 21.39C1.33953 21.55 1.13953 21.66 0.959531 21.82C0.679531 22.09 0.269531 22.26 0.0295312 22.67V22.69L0.0195312 23.18V23.23C0.189531 23.48 0.379531 23.63 0.609531 23.63C0.759531 23.63 0.919531 23.56 1.07953 23.45L1.33953 23.24C2.06953 22.67 2.76953 22.07 3.50953 21.52L3.44953 21.44L3.46953 21.54C3.66953 21.51 3.86953 21.5 4.07953 21.5C4.29953 21.5 4.51953 21.51 4.74953 21.51H4.84953V21.41H4.74953L4.64953 21.56C3.78953 22.42 2.98953 23.33 2.14953 24.2C1.49953 24.88 0.869531 25.57 0.229531 26.25C0.119531 26.37 0.0895313 26.5 0.0495312 26.59V26.61L0.0395312 26.77V27.07C0.0995312 27.25 0.209531 27.44 0.439531 27.51L0.619531 27.54C0.839531 27.54 0.999531 27.4 1.12953 27.27C2.07953 26.33 2.95953 25.34 3.86953 24.37C4.27953 23.94 4.68953 23.5 5.09953 23.07C5.58953 22.54 6.02953 21.97 6.58953 21.53L6.52953 21.45V21.55C6.75953 21.52 6.97953 21.5 7.18953 21.5C7.37953 21.5 7.55953 21.52 7.74953 21.56L7.76953 21.46L7.67953 21.42L7.62953 21.54L7.71953 21.58L7.63953 21.52C5.59953 24.3 3.56953 27.09 1.54953 29.87C1.04953 30.55 0.509531 31.21 0.0795313 31.96V31.98L0.0695312 32.14V32.52L0.109531 32.55C0.369531 32.75 0.529531 32.88 0.729531 32.88C0.919531 32.88 1.04953 32.74 1.19953 32.55C1.58953 32.03 1.93953 31.5 2.31953 30.98C3.16953 29.82 4.01953 28.65 4.86953 27.49C5.74953 26.28 6.61953 25.07 7.50953 23.87C8.09953 23.06 8.69953 22.26 9.29953 21.46L9.21953 21.4V21.5H9.34953C9.53953 21.5 9.72953 21.48 9.90953 21.48C10.0695 21.48 10.2295 21.5 10.3795 21.55L10.4195 21.46L10.3295 21.41C10.0795 21.89 9.81953 22.37 9.56953 22.86C8.73953 24.46 7.89953 26.07 7.06953 27.67C6.50953 28.74 5.94953 29.81 5.38953 30.89C4.96953 31.7 4.54953 32.5 4.13953 33.32C4.07953 33.44 4.04953 33.56 4.04953 33.67C4.04953 33.9 4.19953 34.07 4.42953 34.18C4.51953 34.22 4.60953 34.25 4.69953 34.25C4.90953 34.25 5.05953 34.09 5.18953 33.85C5.53953 33.19 5.89953 32.53 6.24953 31.87C6.78953 30.85 7.30953 29.82 7.84953 28.8C8.70953 27.14 9.57953 25.48 10.4395 23.82C10.8495 23.03 11.2695 22.24 11.6895 21.44L11.5995 21.39V21.49C12.0195 21.49 12.4395 21.5 12.8595 21.51V21.41L12.7695 21.38C12.4895 22.26 12.2195 23.15 11.9495 24.03C11.3895 25.84 10.8195 27.64 10.2595 29.45C9.85953 30.74 9.44953 32.02 9.03953 33.31C9.00953 33.41 8.97953 33.53 8.97953 33.65C8.97953 33.76 9.00953 33.89 9.09953 33.99C9.21953 34.14 9.38953 34.25 9.58953 34.25H9.70953V34.24C10.0295 34.17 10.1195 33.88 10.1795 33.67C10.6595 32.14 11.1295 30.6 11.5995 29.07C12.1195 27.42 12.6395 25.76 13.1695 24.11C13.4495 23.21 13.7395 22.31 14.0295 21.42L13.9295 21.39V21.49H15.2395V21.39H15.1395C15.0995 21.79 15.0595 22.15 15.0295 22.52C14.9895 23.03 14.9395 23.53 14.8795 24.04C14.7895 24.81 14.7095 25.59 14.6295 26.36C14.5795 26.85 14.5595 27.34 14.4895 27.82C14.3795 28.63 14.2995 29.44 14.2295 30.25C14.1795 30.73 14.1295 31.22 14.0795 31.71C14.0195 32.35 13.8995 33 13.8995 33.66V33.69C13.8995 34 14.1095 34.19 14.3595 34.24L14.4995 34.26C14.7295 34.26 14.9195 34.11 15.0095 33.88C15.1195 33.61 15.0695 33.36 15.0895 33.14C15.1695 32.39 15.2795 31.64 15.3395 30.88C15.3795 30.36 15.4295 29.84 15.4995 29.33C15.5895 28.59 15.6395 27.84 15.7395 27.11C15.8095 26.59 15.8295 26.06 15.8795 25.55C15.9595 24.81 16.0595 24.07 16.1395 23.33C16.2095 22.69 16.2795 22.06 16.3495 21.43H16.2495V21.52C16.7095 21.52 17.1695 21.52 17.6295 21.52V21.42L17.5295 21.45L17.5995 21.69L17.6995 21.66H17.5995C17.6595 22.53 17.7795 23.38 17.8595 24.23C17.9695 25.29 18.0795 26.34 18.1895 27.4C18.2995 28.47 18.3995 29.54 18.5295 30.6C18.6195 31.35 18.6395 32.11 18.7495 32.87C18.7895 33.15 18.7495 33.47 18.8695 33.79C18.9095 33.9 18.9595 34.01 19.0395 34.1C19.1195 34.19 19.2395 34.25 19.3795 34.25H19.4595C19.5995 34.23 19.7295 34.19 19.8295 34.1C19.9395 34.01 19.9995 33.87 19.9995 33.68V33.55C19.9995 33.15 19.9395 32.77 19.9095 32.4C19.8295 31.46 19.6895 30.52 19.5895 29.59C19.5095 28.85 19.4695 28.1 19.3895 27.35C19.2895 26.39 19.1595 25.44 19.0595 24.48C18.9795 23.74 18.9595 22.98 18.8395 22.24C18.7995 21.99 18.8795 21.68 18.7195 21.38L18.6295 21.43V21.53C19.0895 21.53 19.5495 21.53 20.0095 21.53V21.43L19.9095 21.46C20.1895 22.39 20.4595 23.32 20.7495 24.24C21.3095 26.05 21.8795 27.85 22.4395 29.66C22.8595 31.02 23.2795 32.38 23.7095 33.74C23.7795 33.96 23.9395 34.19 24.2095 34.26L24.3295 34.27C24.5295 34.27 24.6895 34.14 24.7995 34.01C24.8895 33.9 24.9195 33.78 24.9195 33.67C24.9195 33.55 24.8895 33.44 24.8595 33.33C24.5795 32.4 24.2895 31.48 24.0095 30.55C23.4895 28.89 22.9695 27.22 22.4495 25.56C22.0095 24.17 21.5695 22.78 21.1295 21.4L21.0295 21.43V21.53C21.4495 21.53 21.8695 21.52 22.2895 21.51V21.41L22.1995 21.46C22.6895 22.39 23.1895 23.32 23.6795 24.25C24.4295 25.68 25.1695 27.11 25.8995 28.54C25.9695 28.68 26.0495 28.81 26.1295 28.93C26.2295 29.11 26.4095 29.2 26.5895 29.2C26.6995 29.2 26.8095 29.17 26.9095 29.11C27.0995 29 27.2095 28.8 27.2095 28.59L27.1495 28.34C26.9895 28.02 26.8095 27.72 26.6495 27.41C25.9395 26.04 25.2195 24.66 24.5195 23.28C24.1895 22.64 23.8095 22.04 23.5695 21.38L23.4795 21.41V21.51C23.8995 21.51 24.3295 21.51 24.7495 21.51V21.41L24.6695 21.47C25.1195 22.08 25.5595 22.7 26.0095 23.32C26.8495 24.47 27.6795 25.61 28.5195 26.76C29.5095 28.12 30.5095 29.49 31.5095 30.85C32.0495 31.6 32.5895 32.35 33.1295 33.1C33.2595 33.28 33.4095 33.39 33.5995 33.39C33.7195 33.39 33.8395 33.34 33.9595 33.26C34.1295 33.15 34.2295 32.96 34.2295 32.76C34.2295 32.63 34.1895 32.51 34.1095 32.39C33.8595 32.03 33.6195 31.66 33.3495 31.31C32.2795 29.85 31.2095 28.4 30.1395 26.94C29.3795 25.91 28.6295 24.88 27.8695 23.84C27.2895 23.04 26.7195 22.24 26.1395 21.43L26.0595 21.49L26.1495 21.53H26.1795L26.2595 21.52C26.6795 21.52 27.0995 21.52 27.5195 21.52V21.42L27.4495 21.49C27.7595 21.85 28.0995 22.18 28.4195 22.52C29.0595 23.21 29.7095 23.9 30.3495 24.59C31.2995 25.62 32.2795 26.61 33.2395 27.62C33.3195 27.7 33.4195 27.81 33.5995 27.83H33.6595C33.9295 27.83 34.0995 27.64 34.1695 27.47L34.2295 27.21C34.2295 27.03 34.1495 26.85 33.9995 26.7C33.3895 26.09 32.8195 25.44 32.2295 24.81C31.3895 23.89 30.5195 23.01 29.6695 22.1C29.4395 21.86 29.2295 21.6 29.0095 21.34L28.9795 21.31H28.9295V21.41V21.51C29.5695 21.51 30.2195 21.51 30.8595 21.51V21.41L30.7695 21.45V21.47H30.7895L30.8495 21.41L30.9395 21.37L30.9095 21.31H30.8495C30.2095 21.31 29.5595 21.31 28.9195 21.31H28.8995L28.8795 21.32L28.9195 21.51V21.41L28.8395 21.48C29.0595 21.73 29.2695 21.99 29.5095 22.24C30.3595 23.14 31.2295 24.03 32.0695 24.94C32.6595 25.58 33.2295 26.22 33.8495 26.84C33.9695 26.96 34.0195 27.08 34.0195 27.2L33.9795 27.38C33.9195 27.5 33.8195 27.62 33.6495 27.62H33.6095C33.4995 27.61 33.4595 27.56 33.3795 27.48C32.4095 26.47 31.4395 25.47 30.4895 24.45C29.8495 23.76 29.1995 23.07 28.5595 22.38C28.2395 22.03 27.8995 21.7 27.5995 21.35L27.5695 21.32H27.5195C27.0995 21.32 26.6795 21.32 26.2595 21.32H26.1795C26.1195 21.32 25.9995 21.35 25.9595 21.45L25.9395 21.5L25.9695 21.55C26.5395 22.35 27.1195 23.16 27.6995 23.96C28.4495 25 29.2095 26.03 29.9695 27.06C31.0395 28.52 32.1095 29.97 33.1695 31.43C33.4295 31.78 33.6695 32.15 33.9195 32.51L33.9995 32.76C33.9995 32.89 33.9395 33.02 33.8195 33.09C33.7195 33.16 33.6395 33.18 33.5695 33.18C33.4795 33.18 33.3795 33.13 33.2695 32.97C32.7295 32.22 32.1895 31.47 31.6495 30.72C30.6595 29.36 29.6595 27.99 28.6595 26.63C27.8195 25.48 26.9895 24.34 26.1495 23.19C25.6995 22.58 25.2595 21.96 24.8095 21.34L24.7795 21.3H24.7295C24.3095 21.3 23.8895 21.3 23.4595 21.3H23.3195L23.3695 21.43C23.6195 22.12 24.0095 22.72 24.3295 23.35C25.0295 24.73 25.7495 26.1 26.4595 27.48C26.6195 27.8 26.7995 28.1 26.9595 28.41L26.9995 28.57C26.9995 28.7 26.9295 28.84 26.7895 28.92L26.5695 28.98C26.4495 28.98 26.3495 28.93 26.2795 28.81C26.1995 28.68 26.1195 28.56 26.0595 28.43C25.3295 26.99 24.5795 25.56 23.8395 24.13C23.3495 23.2 22.8495 22.27 22.3595 21.34L22.3295 21.29H22.2695C21.8495 21.29 21.4295 21.3 21.0095 21.31H20.8795L20.9195 21.44C21.3595 22.83 21.7995 24.22 22.2395 25.6C22.7595 27.26 23.2795 28.93 23.7995 30.59C24.0895 31.51 24.3695 32.44 24.6495 33.36C24.6795 33.46 24.7095 33.56 24.7095 33.64L24.6395 33.86C24.5495 33.98 24.4395 34.05 24.3295 34.05H24.2595C24.0795 34.01 23.9595 33.85 23.8995 33.66C23.4695 32.3 23.0595 30.94 22.6295 29.58C22.0695 27.77 21.4995 25.97 20.9395 24.16C20.6495 23.24 20.3795 22.31 20.0995 21.38L20.0795 21.31H20.0095C19.5495 21.31 19.0895 21.31 18.6295 21.31H18.4595L18.5395 21.46C18.6595 21.67 18.5895 21.95 18.6395 22.26C18.7595 22.99 18.7795 23.74 18.8595 24.49C18.9595 25.45 19.0895 26.41 19.1895 27.36C19.2695 28.1 19.3095 28.85 19.3895 29.6C19.4895 30.54 19.6295 31.47 19.7095 32.4C19.7395 32.78 19.7995 33.16 19.7995 33.54V33.67C19.7995 33.81 19.7495 33.89 19.6895 33.94C19.6295 33.99 19.5395 34.03 19.4195 34.04H19.3695L19.1795 33.95C19.1295 33.89 19.0795 33.8 19.0495 33.7C18.9495 33.44 18.9795 33.14 18.9395 32.83C18.8395 32.08 18.8195 31.32 18.7295 30.56C18.5995 29.5 18.4995 28.43 18.3895 27.36C18.2795 26.3 18.1595 25.25 18.0595 24.19C17.9695 23.34 17.8495 22.49 17.7995 21.64L17.7295 21.37L17.7095 21.3H17.6295C17.1695 21.3 16.7095 21.3 16.2495 21.3H16.1595V21.39C16.0795 22.02 16.0195 22.66 15.9395 23.29C15.8595 24.03 15.7595 24.77 15.6795 25.51C15.6195 26.03 15.6095 26.56 15.5395 27.07C15.4395 27.81 15.3895 28.56 15.2995 29.3C15.2395 29.82 15.1895 30.34 15.1395 30.86C15.0795 31.61 14.9695 32.36 14.8895 33.11C14.8595 33.37 14.9095 33.6 14.8195 33.79C14.7395 33.97 14.6395 34.04 14.4895 34.05H14.3895V34.04C14.1995 33.99 14.0895 33.89 14.0795 33.68V33.65C14.0795 33.01 14.2095 32.37 14.2595 31.72C14.2995 31.23 14.3595 30.75 14.4095 30.26C14.4895 29.45 14.5595 28.64 14.6695 27.84C14.7395 27.35 14.7595 26.86 14.8095 26.38C14.8895 25.61 14.9695 24.83 15.0595 24.06C15.1195 23.55 15.1795 23.04 15.2095 22.53C15.2295 22.17 15.2795 21.81 15.3195 21.4V21.29H13.8395L13.8195 21.36C13.5295 22.26 13.2495 23.16 12.9595 24.05C12.4395 25.7 11.9095 27.35 11.3895 29.01C10.9095 30.54 10.4395 32.08 9.96953 33.61C9.89953 33.83 9.83953 34 9.64953 34.04H9.56953C9.43953 34.04 9.32953 33.97 9.23953 33.85L9.16953 33.63C9.16953 33.55 9.18953 33.45 9.21953 33.35C9.61953 32.06 10.0295 30.78 10.4395 29.49C11.0095 27.68 11.5695 25.88 12.1295 24.07C12.4095 23.19 12.6795 22.3 12.9495 21.42L12.9895 21.29H12.8595C12.4395 21.29 12.0195 21.28 11.5995 21.27H11.5395L11.5095 21.32C11.0895 22.11 10.6695 22.9 10.2595 23.7C9.38953 25.36 8.52953 27.02 7.66953 28.68C7.13953 29.7 6.60953 30.73 6.06953 31.75C5.71953 32.41 5.35953 33.07 5.00953 33.73C4.88953 33.96 4.79953 34.02 4.69953 34.02L4.51953 33.97C4.31953 33.87 4.24953 33.77 4.24953 33.64C4.24953 33.57 4.26953 33.49 4.31953 33.38C4.72953 32.57 5.14953 31.76 5.56953 30.96C6.12953 29.89 6.68953 28.82 7.24953 27.74C8.07953 26.14 8.91953 24.53 9.74953 22.93C9.99953 22.45 10.2595 21.97 10.5095 21.48L10.5595 21.38L10.4595 21.34C10.2795 21.27 10.0995 21.25 9.91953 21.25C9.72953 21.25 9.53953 21.27 9.35953 21.27H9.23953H9.18953L9.15953 21.31C8.55953 22.11 7.95953 22.91 7.36953 23.72C6.48953 24.93 5.60953 26.14 4.72953 27.34C3.87953 28.5 3.02953 29.66 2.17953 30.83C1.79953 31.35 1.43953 31.89 1.05953 32.4C0.919531 32.59 0.829531 32.66 0.749531 32.65C0.669531 32.65 0.509531 32.57 0.259531 32.36L0.199531 32.44H0.299531V31.98H0.199531L0.289531 32.03C0.709531 31.3 1.24953 30.65 1.74953 29.96C3.77953 27.18 5.79953 24.39 7.83953 21.61L7.89953 21.47L7.94953 21.36L7.82953 21.33C7.62953 21.29 7.42953 21.27 7.22953 21.27C6.99953 21.27 6.77953 21.29 6.55953 21.32H6.52953L6.50953 21.34C5.92953 21.8 5.48953 22.38 4.99953 22.9C4.58953 23.33 4.17953 23.77 3.76953 24.2C2.85953 25.17 1.97953 26.16 1.03953 27.09C0.909531 27.22 0.799531 27.3 0.669531 27.3L0.549531 27.28C0.399531 27.23 0.339531 27.13 0.279531 26.97L0.179531 27H0.279531V26.6H0.179531L0.269531 26.65C0.329531 26.53 0.359531 26.42 0.419531 26.36C1.06953 25.68 1.68953 24.99 2.33953 24.32C3.17953 23.44 3.97953 22.53 4.82953 21.68C4.87953 21.63 4.98953 21.55 4.98953 21.39V21.29H4.88953H4.78953C4.56953 21.29 4.34953 21.28 4.11953 21.28C3.90953 21.28 3.69953 21.28 3.47953 21.32H3.45953L3.43953 21.34C2.69953 21.89 1.98953 22.49 1.26953 23.06L1.00953 23.26C0.869531 23.36 0.749531 23.4 0.649531 23.4C0.519531 23.4 0.389531 23.32 0.249531 23.1L0.169531 23.15H0.269531V22.68H0.169531L0.259531 22.73C0.449531 22.39 0.829531 22.22 1.14953 21.93C1.29953 21.78 1.50953 21.67 1.66953 21.48L1.77953 21.36L1.61953 21.32C1.46953 21.28 1.30953 21.27 1.15953 21.27C0.959531 21.27 0.759531 21.29 0.569531 21.3C0.379531 21.3 0.319531 21.19 0.249531 21L0.149531 21.03H0.249531V20.63H0.149531L0.229531 20.69C0.319531 20.56 0.409531 20.47 0.549531 20.46H0.589531L0.619531 20.42L0.689531 20.39H0.819531C3.56953 20.39 6.32953 20.39 9.07953 20.39C10.7695 20.39 12.4695 20.39 14.1595 20.39H14.2895H14.3295L14.3595 20.37C15.7595 19.15 17.3095 18.17 18.9895 17.39C19.3395 17.23 19.6795 17.08 20.0395 16.93L20.2195 16.82L20.3195 16.75L20.0795 16.5H20.0695L20.0595 16.48C19.5895 16.21 19.1195 15.93 18.6295 15.68C16.9695 14.8 15.2195 14.18 13.3995 13.77C12.5995 13.59 11.7795 13.47 10.9595 13.4C10.5195 13.36 10.0795 13.37 9.64953 13.34H9.56953C9.45953 13.34 9.34953 13.35 9.25953 13.35C9.16953 13.35 9.08953 13.34 9.00953 13.3H8.97953L8.94953 13.29C8.13953 13.38 7.31953 13.36 6.48953 13.54L6.34953 13.56C6.15953 13.56 6.03953 13.47 5.94953 13.26L5.91953 13.13C5.91953 12.95 6.04953 12.79 6.25953 12.75C6.58953 12.69 6.91953 12.65 7.23953 12.62C7.80953 12.57 8.37953 12.54 8.95953 12.5V12.4L8.94953 12.5H8.98953C9.09953 12.5 9.20953 12.48 9.29953 12.48L9.50953 12.53L9.53953 12.55H9.56953H9.68953C12.0995 12.55 14.4095 13.07 16.6595 13.9C18.2395 14.48 19.7295 15.27 21.1095 16.23C21.2595 16.33 21.3995 16.38 21.5495 16.38C21.6495 16.38 21.7395 16.36 21.8295 16.33C22.7495 15.99 23.7195 15.85 24.6895 15.69C25.3395 15.58 26.0195 15.58 26.6995 15.54H26.7095H26.7195C26.8295 15.5 26.9395 15.48 27.0495 15.48C27.1595 15.48 27.2695 15.5 27.3795 15.54H27.3995H27.4195C29.3695 15.6 31.2695 15.91 33.1195 16.54C33.3095 16.6 33.4995 16.67 33.6895 16.74C33.9095 16.82 33.9795 16.92 33.9795 17.08L33.9495 17.26C33.8895 17.43 33.7695 17.51 33.6095 17.52L33.4395 17.49C32.4195 17.15 31.3795 16.82 30.3195 16.64C29.7095 16.53 29.0895 16.43 28.4495 16.43H28.3995H28.3495C28.0695 16.43 27.7895 16.4 27.5095 16.35H26.9695C25.0295 16.45 23.1195 16.72 21.2695 17.36C19.3395 18.03 17.5595 18.96 15.9095 20.17H15.8895L15.8495 20.26V20.28V20.3V20.4H15.9495C17.7595 20.4 19.5795 20.4 21.3895 20.4C25.3595 20.4 29.3295 20.4 33.3095 20.4H33.4995L33.6095 20.43L33.6295 20.45H33.6595C33.8695 20.5 33.9595 20.58 33.9695 20.79V20.83C33.9695 21.04 33.9195 21.15 33.7195 21.21C33.5595 21.26 33.3995 21.27 33.2295 21.27C33.0495 21.27 32.8695 21.26 32.6795 21.25H32.4795L32.2695 21.27L32.4195 21.42C32.7995 21.81 33.2295 22.12 33.6495 22.43C33.8995 22.61 33.9995 22.77 33.9995 22.9C33.9995 22.98 33.9695 23.07 33.8795 23.18C33.8195 23.26 33.6795 23.32 33.5595 23.32L33.3895 23.27C32.6995 22.72 32.0095 22.16 31.3195 21.6C31.1795 21.48 31.0295 21.37 30.8895 21.26L30.8295 21.34L30.7895 21.36Z" fill="#013765"/>
<path d="M25.0745 12.7853H8.90961C7.17701 12.7853 5.77246 14.2129 5.77246 15.9738V20.0262C5.77246 21.7871 7.17701 23.2147 8.90961 23.2147H25.0745C26.8071 23.2147 28.2116 21.7871 28.2116 20.0262V15.9738C28.2116 14.2129 26.8071 12.7853 25.0745 12.7853Z" fill="#013765"/>
<path d="M25.0901 23.2147V22.4293H8.90985C7.61172 22.4293 6.5454 21.3613 6.5454 20.0262V15.9738C6.5454 14.6545 7.59626 13.5707 8.90985 13.5707H25.0901C26.3883 13.5707 27.4546 14.6387 27.4546 15.9738V20.0262C27.4546 21.3456 26.4037 22.4293 25.0901 22.4293V24C27.2537 24 29 22.2251 29 20.0262V15.9738C29 13.7749 27.2537 12 25.0901 12H8.90985C6.7463 12 5 13.7749 5 15.9738V20.0262C5 22.2251 6.7463 24 8.90985 24H25.0901V23.2147Z" fill="#013765"/>
<path fill-rule="evenodd" clip-rule="evenodd" d="M21.5667 21.5383L20.8519 20.6721C20.6442 20.7208 20.4293 20.7329 20.2222 20.7329C19.7032 20.7329 19.2332 20.6007 18.7982 20.3715L18.7947 20.3696C18.355 20.1214 18.0124 19.773 17.7682 19.3428C17.5233 18.9115 17.3941 18.4157 17.3941 17.8586C17.3941 17.3007 17.5237 16.8207 17.7682 16.39C18.0133 15.9582 18.3718 15.6112 18.7927 15.3644L18.7947 15.3633C19.2343 15.115 19.7061 14.9999 20.2222 14.9999C20.7383 14.9999 21.21 15.115 21.6497 15.3633L21.6516 15.3644C22.0748 15.6125 22.4156 15.9596 22.6742 16.3866C22.9377 16.8218 23.0503 17.32 23.0503 17.8586C23.0503 18.3488 22.9537 18.8116 22.7409 19.2275C22.5549 19.591 22.3171 19.8921 22.0169 20.14L23.3285 21.6439H21.5667V21.5383ZM20.2222 16.2251C19.9296 16.2251 19.6661 16.2848 19.4648 16.4212L19.4561 16.4272C19.2348 16.5536 19.067 16.7362 18.9388 16.9823C18.8132 17.2235 18.7541 17.5133 18.7541 17.8586C18.7541 18.2038 18.8132 18.4937 18.9388 18.7348C19.0662 18.9795 19.2341 19.1644 19.4587 19.3076C19.6847 19.4363 19.9385 19.5078 20.2222 19.5078C20.507 19.5078 20.7618 19.4357 20.9885 19.3061C21.2091 19.1799 21.3761 18.9979 21.5041 18.7378L21.5055 18.7348C21.6312 18.4936 21.6903 18.2038 21.6903 17.8586C21.6903 17.5133 21.6312 17.2235 21.5056 16.9823C21.3774 16.7362 21.2097 16.5533 20.9885 16.4268L20.9851 16.4249C20.7774 16.2982 20.5091 16.2251 20.2222 16.2251ZM13.4051 15.0471H12.1401V20.6859H13.4692V17.3551L15.6352 20.6859H16.9V15.0471H15.5709V18.3919L13.4051 15.0471ZM10.0386 15.0628H11.3676V20.6858H10.0386V15.0628ZM24.1788 19.1936C23.9684 19.1936 23.7739 19.2481 23.6168 19.4078C23.4679 19.5591 23.3906 19.7361 23.3906 19.9633C23.3906 20.1904 23.4679 20.3674 23.6168 20.5187L23.6166 20.519L23.6236 20.5252C23.7727 20.6577 23.9598 20.7329 24.1788 20.7329C24.3891 20.7329 24.5836 20.6784 24.7407 20.5187C24.8896 20.3674 24.9669 20.1904 24.9669 19.9633C24.9669 19.7419 24.8932 19.543 24.734 19.4014C24.5849 19.2688 24.3978 19.1936 24.1788 19.1936Z" fill="white"/>
</svg>
