<svg width="30" height="30" viewBox="0 0 30 30" fill="none" xmlns="http://www.w3.org/2000/svg">
<path d="M7.41977 22.67H3.80977C2.90977 22.67 2.37977 22.45 2.05977 22.13C1.73977 21.81 1.51977 21.27 1.51977 20.38V3.8C1.51977 2.9 1.73977 2.37 2.05977 2.05C2.37977 1.73 2.91977 1.51 3.80977 1.51H9.89977C10.7998 1.51 11.3298 1.73 11.6498 2.05C11.9698 2.37 12.1898 2.91 12.1898 3.8V6.42C12.1898 6.83 12.5298 7.17 12.9398 7.17C13.3498 7.17 13.6898 6.83 13.6898 6.42V3.8C13.6898 2.67 13.3998 1.68 12.7098 0.99C12.0198 0.29 11.0298 0 9.89977 0H3.80977C2.67977 0 1.68977 0.29 0.989766 0.98C0.299766 1.68 0.00976562 2.67 0.00976562 3.8V20.37C0.00976562 21.5 0.299766 22.49 0.989766 23.18C1.67977 23.87 2.66977 24.17 3.79977 24.16H7.40977C7.81977 24.16 8.15977 23.82 8.15977 23.41C8.15977 23 7.81977 22.66 7.40977 22.66L7.41977 22.67Z" fill="#013765"/>
<path d="M22.5299 9.83997H21.7799V25.65C21.7799 26.68 21.5299 27.31 21.1499 27.69C20.7699 28.08 20.1399 28.32 19.1199 28.33H10.8499C9.82992 28.33 9.19992 28.08 8.80992 27.69C8.41992 27.3 8.16992 26.68 8.16992 25.65V9.83997C8.16992 8.81997 8.41992 8.18997 8.80992 7.79997C9.19992 7.40997 9.81992 7.15997 10.8499 7.15997H19.1199C20.1399 7.15997 20.7699 7.40997 21.1499 7.79997C21.5299 8.18997 21.7799 8.80997 21.7799 9.83997H23.2799C23.2799 8.58997 22.9599 7.49997 22.2099 6.73997C21.4599 5.97997 20.3699 5.65997 19.1199 5.65997H10.8499C9.58992 5.65997 8.50992 5.97997 7.74992 6.73997C6.98992 7.49997 6.66992 8.57997 6.66992 9.83997V25.65C6.66992 26.91 6.98992 27.99 7.74992 28.75C8.50992 29.51 9.58992 29.83 10.8499 29.83H19.1199C20.3799 29.83 21.4599 29.51 22.2099 28.75C22.9599 27.99 23.2799 26.91 23.2799 25.65V9.83997H22.5299Z" fill="#013765"/>
<path d="M17.6597 6.42V3.8C17.6597 2.9 17.8797 2.37 18.1997 2.05C18.5197 1.73 19.0597 1.51 19.9497 1.51H26.0397C26.9397 1.51 27.4697 1.73 27.7897 2.05C28.1097 2.37 28.3297 2.91 28.3297 3.8V20.37C28.3297 21.27 28.1097 21.8 27.7897 22.12C27.4697 22.44 26.9297 22.66 26.0397 22.66H22.5297C22.1197 22.66 21.7797 23 21.7797 23.41C21.7797 23.82 22.1197 24.16 22.5297 24.16H26.0397C27.1697 24.16 28.1597 23.87 28.8497 23.18C29.5397 22.49 29.8397 21.5 29.8297 20.37V3.8C29.8297 2.67 29.5397 1.68 28.8497 0.99C28.1697 0.29 27.1797 0 26.0497 0H19.9597C18.8297 0 17.8397 0.29 17.1497 0.98C16.4597 1.67 16.1597 2.66 16.1697 3.79V6.41C16.1697 6.82 16.5097 7.16 16.9197 7.16C17.3297 7.16 17.6697 6.82 17.6697 6.41L17.6597 6.42Z" fill="#013765"/>
<path d="M12.0898 10.5H17.7598C18.1698 10.5 18.5098 10.16 18.5098 9.75C18.5098 9.34 18.1698 9 17.7598 9H12.0898C11.6798 9 11.3398 9.34 11.3398 9.75C11.3398 10.16 11.6798 10.5 12.0898 10.5Z" fill="#013765"/>
<path d="M12.0898 15.92H17.7598C18.1698 15.92 18.5098 15.58 18.5098 15.17C18.5098 14.76 18.1698 14.42 17.7598 14.42H12.0898C11.6798 14.42 11.3398 14.76 11.3398 15.17C11.3398 15.58 11.6798 15.92 12.0898 15.92Z" fill="#013765"/>
<path d="M15.6797 29.08V24.83C15.6797 24.42 15.3397 24.08 14.9297 24.08C14.5197 24.08 14.1797 24.42 14.1797 24.83V29.08C14.1797 29.49 14.5197 29.83 14.9297 29.83C15.3397 29.83 15.6797 29.49 15.6797 29.08Z" fill="#013765"/>
<path d="M23.0745 10.7853H6.90962C5.17701 10.7853 3.77246 12.2129 3.77246 13.9738V18.0262C3.77246 19.7871 5.17701 21.2147 6.90962 21.2147H23.0745C24.8071 21.2147 26.2116 19.7871 26.2116 18.0262V13.9738C26.2116 12.2129 24.8071 10.7853 23.0745 10.7853Z" fill="#013765"/>
<path d="M23.0901 21.2147V20.4293H6.90985C5.61172 20.4293 4.5454 19.3613 4.5454 18.0262V13.9738C4.5454 12.6544 5.59627 11.5707 6.90985 11.5707H23.0901C24.3883 11.5707 25.4546 12.6387 25.4546 13.9738V18.0262C25.4546 19.3455 24.4037 20.4293 23.0901 20.4293V22C25.2537 22 27 20.2251 27 18.0262V13.9738C27 11.7749 25.2537 10 23.0901 10H6.90985C4.7463 10 3 11.7749 3 13.9738V18.0262C3 20.2251 4.7463 22 6.90985 22H23.0901V21.2147Z" fill="#013765"/>
<path fill-rule="evenodd" clip-rule="evenodd" d="M19.5825 19.5383L18.8677 18.6721C18.66 18.7208 18.4452 18.7329 18.238 18.7329C17.719 18.7329 17.249 18.6007 16.8141 18.3715L16.8105 18.3696C16.3709 18.1214 16.0282 17.773 15.784 17.3428C15.5392 16.9115 15.41 16.4157 15.41 15.8586C15.41 15.3007 15.5396 14.8207 15.784 14.39C16.0291 13.9582 16.3876 13.6112 16.8086 13.3644L16.8105 13.3633C17.2502 13.115 17.7219 12.9999 18.238 12.9999C18.7541 12.9999 19.2259 13.115 19.6655 13.3633L19.6675 13.3644C20.0906 13.6125 20.4315 13.9596 20.69 14.3866C20.9535 14.8218 21.0661 15.32 21.0661 15.8586C21.0661 16.3488 20.9695 16.8116 20.7568 17.2275C20.5708 17.591 20.333 17.8921 20.0328 18.14L21.3443 19.6439H19.5825V19.5383ZM18.238 14.2251C17.9454 14.2251 17.6819 14.2848 17.4807 14.4212L17.4719 14.4272C17.2507 14.5536 17.0828 14.7362 16.9546 14.9823C16.829 15.2235 16.7699 15.5133 16.7699 15.8586C16.7699 16.2038 16.829 16.4936 16.9546 16.7348C17.0821 16.9794 17.2499 17.1644 17.4745 17.3077C17.7005 17.4363 17.9544 17.5078 18.238 17.5078C18.5229 17.5078 18.7776 17.4357 19.0044 17.3061C19.225 17.1799 19.392 16.9979 19.5199 16.7378L19.5214 16.7348C19.647 16.4936 19.7062 16.2038 19.7062 15.8586C19.7062 15.5133 19.647 15.2235 19.5214 14.9823C19.3932 14.7362 19.2256 14.5533 19.0044 14.4268C18.7776 14.2972 18.5229 14.2251 18.238 14.2251ZM11.4051 13.0471H10.1401V18.6859H11.4692V15.3551L13.6352 18.6859H14.9V13.0471H13.5709V16.3919L11.4051 13.0471ZM8.03857 13.0628H9.36762V18.6858H8.03857V13.0628ZM22.1939 17.1936C21.9836 17.1936 21.7891 17.2481 21.6319 17.4078C21.4831 17.5591 21.4058 17.7361 21.4058 17.9633C21.4058 18.1904 21.4831 18.3674 21.6319 18.5187C21.7719 18.6609 21.9804 18.7329 22.1939 18.7329C22.4042 18.7329 22.5988 18.6784 22.7559 18.5187C22.9048 18.3674 22.9821 18.1904 22.9821 17.9633C22.9821 17.7419 22.9083 17.543 22.7491 17.4014C22.6 17.2688 22.4129 17.1936 22.1939 17.1936Z" fill="white"/>
</svg>
