<svg width="11" height="14" viewBox="0 0 11 14" fill="none" xmlns="http://www.w3.org/2000/svg">
    <path
        d="M10.9922 5.31365C10.9733 4.94983 10.9318 4.59364 10.8521 4.23969C10.6521 3.35056 10.2552 2.55474 9.66007 1.86703C9.1546 1.2834 8.54192 0.829866 7.83192 0.510909C7.16022 0.209 6.46149 0.0340446 5.72176 0.0344932C5.67221 -0.0233765 5.60823 0.00937147 5.54922 0.00802566H5.48209C5.41452 0.00802566 5.34694 0.00847427 5.27937 0.00847427C5.22576 -0.0144045 5.19017 0.038082 5.13791 0.0385306C4.56261 0.0421195 4.0112 0.176252 3.47735 0.377226C2.83943 0.617677 2.26639 0.972521 1.76768 1.43503C1.21492 1.94689 0.780178 2.54398 0.477439 3.24021C0.225607 3.81935 0.0602723 4.41913 0.0192764 5.0418C-0.0122589 5.5209 -0.0118084 6.00539 0.0719855 6.48764C0.163888 7.0134 0.314807 7.51718 0.532401 8.00167C0.823877 8.65035 1.26853 9.1963 1.72579 9.73328C1.96501 10.0137 2.20242 10.2963 2.43713 10.5807C2.72726 10.9315 3.01198 11.2868 3.3021 11.6376C3.58547 11.9808 3.8774 12.3177 4.15761 12.664C4.48242 13.0659 4.79598 13.4773 5.15413 13.851C5.34874 14.0538 5.70599 14.0493 5.88755 13.8393C6.11505 13.5774 6.334 13.3082 6.55429 13.0404C6.89623 12.6245 7.23411 12.2055 7.57694 11.7906C7.86481 11.442 8.15944 11.0997 8.44686 10.7512C8.77843 10.3483 9.09829 9.93605 9.43617 9.53859C9.78081 9.1335 10.102 8.71271 10.3444 8.23899C10.8134 7.3207 11.0467 6.35127 10.9922 5.31365ZM5.33117 7.54275C4.327 7.46829 3.41022 6.5666 3.34986 5.56262C3.26246 4.11633 4.37656 3.2411 5.48345 3.24066C6.67683 3.24066 7.66614 4.13158 7.64316 5.38767C7.70894 6.49975 6.65386 7.641 5.33117 7.54275Z"
        fill="#FE6B01" />
</svg>
