<svg width="33" height="30" viewBox="0 0 33 30" fill="none" xmlns="http://www.w3.org/2000/svg">
    <path
        d="M28.0094 24.871L27.2729 27.8248C26.9325 29.1054 25.7654 30 24.4342 30C24.1833 30 23.9317 29.9682 23.688 29.9046L2.17293 24.1846C0.62027 23.7597 -0.311586 22.1592 0.0955294 20.6159L2.46046 11.6113C2.55783 11.2402 2.89306 10.9813 3.27665 10.9813C3.34919 10.9813 3.42238 10.9911 3.49491 11.0105C3.71317 11.067 3.8968 11.2045 4.01116 11.3985C4.12617 11.5925 4.15754 11.8189 4.10003 12.0368L1.73445 21.0428C1.56193 21.6999 1.95728 22.3805 2.61664 22.5602L24.1212 28.2782C24.2251 28.3048 24.331 28.3191 24.4375 28.3191C24.9975 28.3191 25.487 27.9461 25.6294 27.4102L26.364 24.4681C26.4581 24.0919 26.7972 23.8285 27.1873 23.8285C27.2553 23.8285 27.3239 23.8369 27.3899 23.8531C27.8428 23.9647 28.1211 24.4214 28.0094 24.871Z"
        fill="#013765" />
    <path
        d="M30.0655 0H8.4988C6.8808 0 5.5647 1.30722 5.5647 2.91352V18.7987C5.5647 18.9551 5.57777 19.1134 5.60325 19.271L5.60848 19.3015L5.60391 19.332C5.56208 19.6006 5.64769 19.8633 5.8385 20.0541L5.83981 20.0554L5.86334 20.0781L5.87771 20.1073C6.38154 21.0972 7.38593 21.7123 8.4988 21.7123H30.0655C31.6841 21.7123 33.0002 20.4057 33.0002 18.7987V2.91352C33.0002 1.30722 31.6841 0 30.0655 0ZM31.3051 18.7987C31.3051 19.4773 30.749 20.0294 30.0655 20.0294H8.4988C8.19559 20.0294 7.90218 19.9185 7.67477 19.7161L7.5199 19.5792L7.66628 19.4332L13.328 13.8144C13.4554 13.6873 13.5828 13.6256 13.7162 13.6256C13.8495 13.6256 13.9769 13.6873 14.1043 13.8144L16.5947 16.2868C16.7548 16.4464 16.9639 16.534 17.1842 16.534C17.1998 16.534 17.2149 16.5333 17.2305 16.5327C17.4691 16.5223 17.6919 16.4126 17.8448 16.231L23.7444 9.19988C23.8947 9.02277 24.0862 9.00396 24.162 9.00396H24.192L24.2201 9.01304C24.228 9.01499 24.2371 9.01628 24.2476 9.01823C24.3227 9.0325 24.4632 9.05845 24.5795 9.19728L31.2581 16.9323L31.3051 16.9868V18.7987ZM31.3051 14.3996L30.9601 14L25.8675 8.10155C25.4206 7.58061 24.886 7.31657 24.2776 7.31657C24.2397 7.31657 24.2005 7.31722 24.162 7.31981H24.1522C23.4902 7.3237 22.8674 7.61564 22.4427 8.12166L17.275 14.2796L17.1378 14.4431L16.9855 14.2925L15.3034 12.6227C14.8806 12.2023 14.3174 11.9707 13.7175 11.9707C13.1176 11.9707 12.5536 12.2023 12.1302 12.6227L7.59439 17.1256L7.25916 17.4578V2.91352C7.25916 2.23493 7.81527 1.68285 8.4988 1.68285H30.0655C30.749 1.68285 31.3051 2.23493 31.3051 2.91352V14.3996Z"
        fill="#013765" />
    <path
        d="M12.3251 4.1442C10.8986 4.1442 9.73804 5.29637 9.73804 6.71258C9.73804 8.1288 10.8986 9.28032 12.3251 9.28032C13.7517 9.28032 14.9116 8.12815 14.9116 6.71258C14.9116 5.29702 13.751 4.1442 12.3251 4.1442ZM12.3251 7.59748C11.8331 7.59748 11.4332 7.20044 11.4332 6.71258C11.4332 6.22473 11.8331 5.82704 12.3251 5.82704C12.8172 5.82704 13.2165 6.22408 13.2165 6.71258C13.2165 7.20109 12.8166 7.59748 12.3251 7.59748Z"
        fill="#013765" />
</svg>
