<svg width="93" height="35" viewBox="0 0 93 35" fill="none" xmlns="http://www.w3.org/2000/svg">
    <path
        d="M92.9925 30.6963C92.098 30.5741 91.2021 30.4524 90.3057 30.3303C89.407 30.2247 88.5134 30.0543 87.6056 30.0244C86.7005 29.9684 85.794 29.9119 84.8866 29.8559C84.4329 29.8316 83.9797 29.7971 83.525 29.7843L82.1598 29.7774C81.2497 29.7742 80.3386 29.771 79.4271 29.7677C78.5155 29.7572 77.6031 29.8109 76.6906 29.8256L73.9501 29.8894L71.2072 29.9951C67.5474 30.1319 63.8792 30.3137 60.2037 30.4267C56.5273 30.4887 52.8472 30.5507 49.1671 30.6127L43.6488 30.7174C41.8097 30.744 39.9728 30.8565 38.1365 30.9263C34.4637 31.0976 30.7956 31.2689 27.1357 31.4393C25.3057 31.5297 23.4776 31.6207 21.6518 31.7107C19.826 31.791 18.0043 31.9145 16.1817 31.9453C14.3591 31.9908 12.5397 32.0367 10.7241 32.0821C8.90824 32.1102 7.09437 32.0932 5.28748 31.8365V31.8099C7.09382 31.4902 8.9014 31.4103 10.7144 31.3754C12.5277 31.358 14.3444 31.3405 16.1647 31.3231C17.9846 31.3272 19.8081 31.2423 21.6344 31.2032C23.4606 31.1541 25.2897 31.1045 27.1205 31.0554C30.7832 30.9465 34.4541 30.8368 38.1296 30.728C39.9673 30.6788 41.8042 30.581 43.6442 30.564L49.1648 30.4768C52.8458 30.4079 56.5264 30.3592 60.1986 30.2678C63.8714 30.1099 67.5395 29.9524 71.1994 29.7944L73.9441 29.6874L76.6874 29.6447C77.6017 29.6424 78.5142 29.6061 79.4271 29.6383C80.3395 29.6631 81.2506 29.6878 82.1612 29.7122L83.5264 29.7466C83.981 29.7677 84.4338 29.8095 84.8875 29.8389C85.7944 29.8991 86.7009 29.9597 87.606 30.0203C88.5139 30.0511 89.4075 30.2187 90.3071 30.3183C91.2057 30.4304 92.103 30.5424 92.9999 30.654L92.9925 30.6963Z"
        fill="black" fill-opacity="0.4" />
    <path
        d="M79.6897 27.4425C80.0153 27.6308 80.3556 27.8081 80.7133 27.9357C81.0871 28.0244 81.4572 28.1098 81.8112 28.2485L82.9198 28.5299C83.2963 28.5984 83.6761 28.6558 84.0559 28.7104C84.4384 28.7444 84.8223 28.7678 85.2057 28.782C85.5905 28.7839 85.9753 28.7706 86.3588 28.7531C86.7441 28.732 87.1284 28.7099 87.5119 28.6879C87.8925 28.7223 88.2953 28.5079 88.6346 29.0548L88.6328 29.0814C88.2167 29.582 87.8613 29.3211 87.4806 29.3092C87.1018 29.2518 86.7216 29.1944 86.3409 29.137C85.5758 29.0208 84.809 28.9249 84.0402 28.8454L82.8908 28.6861C82.512 28.6052 82.1309 28.5336 81.7557 28.4413C81.386 28.3256 81.0274 28.1731 80.6876 27.9963C80.362 27.7865 80.0213 27.6258 79.6686 27.4793L79.6897 27.4425Z"
        fill="black" fill-opacity="0.4" />
    <path
        d="M43.6165 20.1286C42.6113 19.1041 41.6851 17.9786 41.0624 16.674C40.437 15.3772 40.1665 13.8958 40.3828 12.4553C40.5881 11.0129 41.2406 9.65365 42.1135 8.48542C42.9888 7.31031 44.0748 6.30739 45.2394 5.42617C47.5781 3.66282 50.247 2.37014 53.0207 1.43795C55.7934 0.509888 58.7158 -0.071455 61.6556 0.00707054C62.0234 0.00661087 62.389 0.0483971 62.7545 0.0855923C63.1219 0.108095 63.4819 0.191656 63.8447 0.254568C64.2093 0.311968 64.556 0.432751 64.9128 0.518164C65.2691 0.605873 65.619 0.716082 65.9685 0.827209C67.3668 1.26484 68.7361 1.81082 70.0261 2.51617C71.3151 3.21921 72.5209 4.08621 73.5688 5.12356C74.6255 6.15402 75.4801 7.38103 76.156 8.69023C77.507 11.3284 78.0356 14.288 78.2592 17.186C78.3653 18.6417 78.3905 20.0974 78.3726 21.5462C78.3405 22.9946 78.2238 24.4365 77.8556 25.8545L77.8289 25.8527C77.6223 24.4025 77.6411 22.9684 77.6659 21.5324C77.7035 20.097 77.7091 18.6596 77.6383 17.2246C77.4854 14.3674 77.0561 11.4657 75.8112 8.86059C75.1876 7.56838 74.3853 6.34872 73.3714 5.31734C72.3671 4.27907 71.1943 3.40291 69.9296 2.68976C68.664 1.97477 67.3094 1.41821 65.9221 0.973694C65.5754 0.860729 65.2278 0.749609 64.8742 0.660522C64.5206 0.573273 64.1734 0.45112 63.8148 0.393721C63.4571 0.330809 63.103 0.246304 62.7389 0.222885C62.377 0.184771 62.0156 0.143454 61.6506 0.142994C58.7346 0.0594177 55.8241 0.64996 53.0716 1.58858C50.3178 2.53179 47.6727 3.83502 45.3606 5.58598C44.208 6.46123 43.1408 7.45449 42.2582 8.59471C41.3807 9.73125 40.6918 11.0414 40.4471 12.4658C40.1899 13.8853 40.4361 15.3777 41.0661 16.6722C41.6888 17.9759 42.6219 19.0982 43.6459 20.0983L43.6165 20.1286Z"
        fill="black" fill-opacity="0.4" />
    <path
        d="M39.4774 23.1003C39.4907 22.9355 39.4925 22.7734 39.4911 22.6095C39.4875 22.4464 39.5127 22.2843 39.5044 22.1172C39.5044 21.7861 39.5536 21.4412 39.7037 21.1359C39.9701 20.5127 40.4444 19.9764 41.0442 19.6522C41.6517 19.3408 42.3791 19.2765 43.0642 19.4556C43.1496 19.4786 43.2383 19.4965 43.3232 19.5236L43.5671 19.6283L43.8132 19.738C43.8899 19.7812 43.9624 19.8312 44.0368 19.879C44.3101 20.0852 44.7284 20.2115 44.5599 20.7937L44.5397 20.8107L44.3261 20.8365C44.2674 20.8355 44.2246 20.8222 44.1755 20.8153C44.0782 20.8006 44.0208 20.752 43.9666 20.6987C43.8757 20.5729 43.7595 20.482 43.6548 20.3704L43.4931 20.206L43.3131 20.0677L43.1299 19.9254C43.0661 19.8841 42.9967 19.8524 42.9288 19.8152C42.3901 19.513 41.6852 19.4772 41.1066 19.7734C40.5289 20.0733 40.1258 20.6257 39.8888 21.2135C39.8291 21.3632 39.7676 21.5096 39.7235 21.6644C39.6739 21.8169 39.6 21.9661 39.5697 22.1268C39.4723 22.4428 39.4888 22.7757 39.5196 23.0967L39.4774 23.1003Z"
        fill="black" fill-opacity="0.4" />
    <path
        d="M21.3492 28.6272C20.7467 28.2562 20.2195 27.7561 19.8549 27.1476C19.488 26.5415 19.2726 25.8499 19.1785 25.1432C18.9875 23.7187 19.2878 22.2598 19.8007 20.9226C20.3141 19.578 21.0222 18.3092 21.8791 17.1507C22.3089 16.5725 22.7787 16.0219 23.3008 15.5223C23.8211 15.0259 24.4024 14.5662 25.0669 14.271C26.3766 13.6497 27.824 13.3581 29.2673 13.314C30.7124 13.2745 32.1686 13.4784 33.5466 13.9481C34.9192 14.4188 36.2289 15.1761 37.2281 16.2818C37.7254 16.8315 38.1387 17.4657 38.4294 18.154C38.7077 18.8433 38.8248 19.6148 38.5933 20.3421L38.5667 20.344C38.2278 19.6657 38.034 19.0426 37.7755 18.4213C37.5321 17.7986 37.1872 17.2131 36.7565 16.6878C35.895 15.6344 34.7094 14.8353 33.4121 14.3082C30.8167 13.269 27.7216 13.1932 25.1252 14.394C24.4713 14.6824 23.9106 15.1279 23.3977 15.6229C22.8857 16.1184 22.426 16.668 22.0072 17.2448C21.1724 18.4011 20.4891 19.6657 19.9885 20.9933C19.5073 22.3209 19.1537 23.7201 19.2432 25.1358C19.2937 25.8393 19.4875 26.5415 19.8581 27.1458C20.2227 27.7533 20.7572 28.2497 21.3703 28.5904L21.3492 28.6272Z"
        fill="black" fill-opacity="0.4" />
    <path
        d="M-0.00012207 34.5584C0.957419 34.2567 1.90725 33.9087 2.82635 33.4816C3.74389 33.0509 4.66318 32.6183 5.60764 32.2335C7.48662 31.4441 9.42283 30.7337 11.4331 30.3021C12.44 30.1023 13.4581 29.9462 14.4858 29.8934C14.7421 29.8658 14.9992 29.8755 15.2559 29.8663L15.6288 29.8589L15.7252 29.8576C15.7468 29.8438 15.7413 29.7983 15.7505 29.7708L15.812 29.4048C15.8409 29.2771 15.8827 29.1513 15.9176 29.0236C15.9502 28.895 15.9929 28.7701 16.0503 28.6494C16.1059 28.5281 16.1491 28.4009 16.2152 28.2843C16.6992 27.3319 17.7007 26.5797 18.8345 26.5113C19.3929 26.4741 19.9509 26.5797 20.4629 26.7799C20.7145 26.8906 20.9538 27.0288 21.1453 27.2249C21.3565 27.3939 21.4915 27.6533 21.5985 27.91L21.5801 27.9298C21.0075 27.8251 20.6199 27.601 20.1874 27.4311C19.7676 27.2483 19.3185 27.1344 18.8621 27.1326C17.9455 27.1271 17.0606 27.6524 16.5486 28.4758C16.4806 28.5759 16.4338 28.6889 16.3745 28.7954C16.313 28.9015 16.2653 29.0135 16.2271 29.1311C16.1867 29.2468 16.139 29.3607 16.1036 29.4787L16.0141 29.8617L15.9819 29.9981L15.9654 30.0665C15.9613 30.0904 15.9585 30.1161 15.9277 30.1078L15.6481 30.1106L15.2555 30.0996C15.0015 30.0954 14.7471 30.0752 14.4932 30.0917C13.4757 30.1032 12.4616 30.2414 11.4609 30.4352C9.45956 30.8526 7.55551 31.62 5.68547 32.4181C4.75287 32.8259 3.80685 33.202 2.85092 33.5418C1.9015 33.8958 0.955262 34.2476 0.0131968 34.5989L-0.00012207 34.5584Z"
        fill="black" fill-opacity="0.4" />
</svg>
