<svg width="159" height="60" viewBox="0 0 159 60" fill="none" xmlns="http://www.w3.org/2000/svg">
    <path
        d="M0.0124664 52.4809C1.54182 52.272 3.07356 52.064 4.60606 51.8551C6.1425 51.6746 7.67029 51.3833 9.22243 51.3322C10.7699 51.2365 12.3197 51.1399 13.871 51.0441C14.6467 51.0025 15.4216 50.9436 16.1988 50.9216L18.5329 50.9099C20.089 50.9044 21.6466 50.8989 23.205 50.8934C24.7634 50.8753 26.3234 50.9672 27.8834 50.9923L32.5689 51.1014L37.2583 51.282C43.5155 51.516 49.7868 51.8269 56.0708 52.02C62.3563 52.126 68.648 52.232 74.9398 52.338L84.3743 52.517C87.5186 52.5625 90.659 52.7549 93.7986 52.8742C100.078 53.167 106.349 53.4599 112.606 53.7511C115.735 53.9058 118.861 54.0613 121.982 54.2151C125.104 54.3525 128.218 54.5637 131.334 54.6163C134.45 54.694 137.561 54.7726 140.665 54.8503C143.769 54.8982 146.871 54.8691 149.96 54.4302V54.3847C146.872 53.8383 143.781 53.7017 140.681 53.642C137.581 53.6122 134.475 53.5824 131.363 53.5525C128.252 53.5596 125.134 53.4143 122.012 53.3476C118.89 53.2636 115.763 53.1788 112.632 53.0948C106.37 52.9087 100.094 52.7211 93.8104 52.535C90.6684 52.451 87.528 52.2838 84.3822 52.2547L74.9437 52.1056C68.6504 51.9878 62.3578 51.9046 56.0794 51.7484C49.8002 51.4783 43.5288 51.209 37.2716 50.9389L32.5791 50.756L27.8889 50.683C26.3258 50.679 24.7658 50.6171 23.205 50.672C21.645 50.7144 20.0874 50.7568 18.5305 50.7984L16.1965 50.8573C15.4192 50.8934 14.6451 50.9648 13.8694 51.0151C12.3189 51.1179 10.7691 51.2216 9.22163 51.3252C7.66949 51.3778 6.14171 51.6643 4.60371 51.8347C3.06728 52.0263 1.53319 52.2178 -0.000106812 52.4086L0.0124664 52.4809Z"
        fill="black" fill-opacity="0.4" />
    <path
        d="M22.756 46.9178C22.1994 47.2397 21.6176 47.5428 21.006 47.761C20.3669 47.9125 19.7342 48.0586 19.1289 48.2957L17.2336 48.7769C16.5898 48.8939 15.9406 48.9921 15.2913 49.0855C14.6373 49.1436 13.981 49.1836 13.3254 49.2079C12.6675 49.2111 12.0096 49.1883 11.354 49.1585C10.6953 49.1224 10.0382 49.0847 9.38265 49.047C8.7318 49.1059 8.04327 48.7393 7.46309 49.6743L7.46623 49.7198C8.17753 50.5756 8.7852 50.1296 9.43605 50.1092C10.0838 50.0111 10.7338 49.9129 11.3846 49.8148C12.6926 49.6162 14.0037 49.4521 15.318 49.3163L17.2831 49.0438C17.9308 48.9057 18.5824 48.7832 19.2239 48.6254C19.8559 48.4275 20.469 48.1669 21.05 47.8646C21.6066 47.5058 22.1892 47.2311 22.7921 46.9806L22.756 46.9178Z"
        fill="black" fill-opacity="0.4" />
    <path
        d="M84.4294 34.4135C86.148 32.662 87.7316 30.7377 88.7962 28.5072C89.8655 26.2901 90.3279 23.7574 89.9581 21.2945C89.6072 18.8285 88.4915 16.5047 86.9991 14.5074C85.5027 12.4983 83.6459 10.7836 81.6549 9.27705C77.6564 6.26228 73.0934 4.05222 68.3514 2.45847C63.611 0.871788 58.6147 -0.12212 53.5885 0.0121307C52.9596 0.0113487 52.3347 0.0827866 51.7097 0.146381C51.0817 0.184853 50.4661 0.327713 49.8459 0.435272C49.2225 0.533409 48.6298 0.73991 48.0198 0.885937C47.4105 1.03589 46.8123 1.22431 46.2148 1.41431C43.8242 2.1625 41.483 3.09597 39.2777 4.30188C37.0739 5.50386 35.0123 6.98615 33.2207 8.75968C31.4142 10.5214 29.9531 12.6192 28.7974 14.8575C26.4877 19.3679 25.584 24.4278 25.2017 29.3826C25.0203 31.8714 24.9772 34.3601 25.0078 36.8371C25.0627 39.3133 25.2621 41.7785 25.8918 44.2029L25.9373 44.1997C26.2906 41.7204 26.2584 39.2686 26.2161 36.8136C26.1517 34.3594 26.1422 31.902 26.2631 29.4486C26.5246 24.5637 27.2587 19.6027 29.3871 15.1488C30.4532 12.9395 31.8248 10.8543 33.5583 9.09097C35.2753 7.31586 37.2804 5.81792 39.4426 4.59867C41.6063 3.37627 43.9224 2.42472 46.2941 1.66475C46.8869 1.47161 47.4812 1.28163 48.0857 1.12933C48.6902 0.980156 49.2838 0.771317 49.8969 0.67318C50.5085 0.56562 51.1138 0.421146 51.7364 0.381104C52.3551 0.315941 52.9729 0.245304 53.5971 0.244518C58.5825 0.101631 63.5584 1.11126 68.2643 2.716C72.9725 4.32859 77.4947 6.55668 81.4476 9.55026C83.4182 11.0467 85.2428 12.7448 86.7518 14.6942C88.2521 16.6373 89.4297 18.8772 89.8482 21.3126C90.2878 23.7394 89.867 26.2909 88.7899 28.5041C87.7253 30.733 86.13 32.6518 84.3792 34.3617L84.4294 34.4135Z"
        fill="black" fill-opacity="0.4" />
    <path
        d="M91.5062 39.4939C91.4834 39.212 91.4803 38.9349 91.4826 38.6546C91.4889 38.3759 91.4457 38.0988 91.4598 37.813C91.4598 37.247 91.3758 36.6574 91.1191 36.1353C90.6638 35.0699 89.8527 34.1529 88.8274 33.5986C87.7887 33.0663 86.5451 32.9564 85.3738 33.2626C85.2277 33.3019 85.0762 33.3325 84.931 33.3788L84.5141 33.5578L84.0933 33.7454C83.9622 33.8192 83.8381 33.9048 83.7109 33.9864C83.2438 34.339 82.5286 34.5549 82.8167 35.5504L82.8513 35.5794L83.2163 35.6234C83.3168 35.6218 83.3898 35.599 83.4738 35.5873C83.6403 35.5621 83.7384 35.4789 83.8311 35.3879C83.9865 35.1727 84.1851 35.0173 84.3641 34.8265L84.6405 34.5454L84.9483 34.3091L85.2615 34.0658C85.3706 33.9951 85.4892 33.9409 85.6054 33.8773C86.5263 33.3607 87.7314 33.2995 88.7206 33.8059C89.7083 34.3186 90.3976 35.263 90.8027 36.2679C90.9048 36.5239 91.01 36.7743 91.0854 37.0389C91.1701 37.2995 91.2965 37.5547 91.3484 37.8295C91.5148 38.3697 91.4865 38.9389 91.4339 39.4876L91.5062 39.4939Z"
        fill="black" fill-opacity="0.4" />
    <path
        d="M122.5 48.9434C123.53 48.309 124.431 47.454 125.054 46.4138C125.682 45.3774 126.05 44.1951 126.211 42.9868C126.537 40.5514 126.024 38.0572 125.147 35.771C124.269 33.4722 123.059 31.303 121.594 29.3222C120.859 28.3337 120.056 27.3924 119.163 26.5382C118.273 25.6895 117.279 24.9036 116.143 24.3988C113.904 23.3366 111.43 22.8381 108.962 22.7627C106.491 22.6952 104.002 23.0438 101.646 23.8469C99.2991 24.6516 97.06 25.9463 95.3517 27.8368C94.5014 28.7765 93.7948 29.8608 93.2978 31.0376C92.8221 32.216 92.6219 33.535 93.0176 34.7786L93.0631 34.7817C93.6425 33.6222 93.9738 32.5568 94.4158 31.4946C94.8319 30.43 95.4215 29.429 96.1579 28.5308C97.6308 26.7298 99.6579 25.3637 101.876 24.4624C106.313 22.6858 111.605 22.5562 116.044 24.6092C117.162 25.1023 118.12 25.8639 118.997 26.7102C119.873 27.5573 120.658 28.4971 121.374 29.4831C122.802 31.46 123.97 33.6222 124.826 35.8919C125.649 38.1616 126.253 40.5538 126.1 42.9742C126.014 44.177 125.682 45.3774 125.049 46.4106C124.425 47.4493 123.512 48.298 122.463 48.8805L122.5 48.9434Z"
        fill="black" fill-opacity="0.4" />
    <path
        d="M159 59.0837C157.363 58.5679 155.739 57.9728 154.168 57.2427C152.599 56.5063 151.027 55.7667 149.412 55.1088C146.2 53.7592 142.89 52.5446 139.453 51.8067C137.731 51.4651 135.991 51.1982 134.234 51.1079C133.795 51.0608 133.356 51.0773 132.917 51.0616L132.279 51.049L132.115 51.0467C132.078 51.0231 132.087 50.9454 132.071 50.8983L131.966 50.2726C131.917 50.0543 131.845 49.8392 131.786 49.621C131.73 49.4011 131.657 49.1876 131.559 48.9811C131.464 48.7738 131.39 48.5564 131.277 48.3569C130.449 46.7286 128.737 45.4427 126.799 45.3257C125.844 45.2621 124.89 45.4427 124.015 45.785C123.585 45.9742 123.175 46.2105 122.848 46.5457C122.487 46.8346 122.256 47.2782 122.073 47.7171L122.105 47.7509C123.084 47.5719 123.746 47.1887 124.486 46.8982C125.203 46.5858 125.971 46.391 126.752 46.3879C128.319 46.3785 129.832 47.2766 130.707 48.6843C130.823 48.8555 130.903 49.0486 131.004 49.2307C131.11 49.4121 131.191 49.6037 131.256 49.8047C131.326 50.0025 131.407 50.1972 131.468 50.399L131.621 51.0538L131.676 51.2869L131.704 51.4039C131.711 51.4447 131.716 51.4887 131.768 51.4746L132.247 51.4793L132.918 51.4604C133.352 51.4534 133.787 51.4188 134.221 51.4471C135.961 51.4667 137.694 51.703 139.405 52.0343C142.827 52.748 146.082 54.0599 149.279 55.4244C150.874 56.1216 152.491 56.7646 154.126 57.3455C155.749 57.9508 157.366 58.5522 158.977 59.1528L159 59.0837Z"
        fill="black" fill-opacity="0.4" />
</svg>
