<svg width="16" height="12" viewBox="0 0 16 12" fill="none" xmlns="http://www.w3.org/2000/svg">
    <path fill-rule="evenodd" clip-rule="evenodd"
        d="M5.05327 11.7111C4.69253 11.3251 4.69253 10.6936 5.05327 10.3076L14.4179 0.289501C14.7787 -0.0965002 15.369 -0.0965002 15.7298 0.289501C16.0906 0.675502 16.0893 1.3084 15.7298 1.69292L6.36514 11.7111C6.00571 12.0956 5.41409 12.097 5.05327 11.7111Z"
        fill="#FE6B01" />
    <path fill-rule="evenodd" clip-rule="evenodd"
        d="M6.35889 11.6967C5.99815 12.0826 5.40784 12.0826 5.04702 11.6967L0.270557 6.5869C-0.0901858 6.2009 -0.0901858 5.5694 0.270557 5.18348C0.631379 4.79748 1.22367 4.7996 1.58243 5.18348L6.35889 10.2933C6.71772 10.677 6.71971 11.3107 6.35889 11.6967Z"
        fill="#FE6B01" />
</svg>
