<svg width="20" height="20" viewBox="0 0 20 20" fill="none" xmlns="http://www.w3.org/2000/svg">
    <path fill-rule="evenodd" clip-rule="evenodd"
        d="M19.2442 3.99949C19.4883 4.06984 19.6748 4.26725 19.7312 4.51487C19.9128 5.31192 19.9998 6.20284 19.9998 7.20939V12.7908C19.9998 15.1859 19.5249 17.0413 18.2907 18.2866C18.16 18.4184 17.9823 18.4927 17.7967 18.4931C17.6111 18.4935 17.433 18.42 17.3018 18.2888L11.3669 12.3539C11.2361 12.223 11.1626 12.0456 11.1626 11.8606C11.1626 11.6755 11.2361 11.4981 11.3669 11.3672L18.5577 4.17653C18.7372 3.99695 19.0002 3.92913 19.2442 3.99949ZM12.8469 11.8606L17.7409 16.7545C18.3058 15.884 18.6045 14.618 18.6045 12.7908V7.20939C18.6045 6.83048 18.5911 6.47569 18.5648 6.14273L12.8469 11.8606Z"
        fill="#FE6B01" />
    <path fill-rule="evenodd" clip-rule="evenodd"
        d="M2.70263 2.70263C1.85098 3.55429 1.39535 4.95253 1.39535 7.2093V12.7907C1.39535 14.5737 1.68181 15.8259 2.22463 16.6907C2.69668 17.4428 3.40453 17.9677 4.45848 18.2758L18.2758 4.45849C17.9677 3.40455 17.4428 2.69669 16.6907 2.22463C15.8259 1.68181 14.5737 1.39535 12.7907 1.39535H7.2093C4.95253 1.39535 3.55429 1.85098 2.70263 2.70263ZM1.71597 1.71597C2.95734 0.474606 4.81491 0 7.2093 0H12.7907C14.6914 0 16.2485 0.299583 17.4325 1.04281C18.6451 1.80396 19.3781 2.97354 19.7312 4.51388C19.7849 4.748 19.7143 4.99326 19.5445 5.1631L5.16309 19.5445C4.99325 19.7143 4.74799 19.7849 4.51387 19.7312C2.97352 19.3781 1.80395 18.6451 1.04281 17.4325C0.299579 16.2485 0 14.6914 0 12.7907V7.2093C0 4.81491 0.474606 2.95734 1.71597 1.71597Z"
        fill="#FE6B01" />
    <path fill-rule="evenodd" clip-rule="evenodd"
        d="M11.3672 11.3672C11.6397 11.0947 12.0814 11.0947 12.3539 11.3672L18.2888 17.3021C18.42 17.4333 18.4935 17.6114 18.4931 17.797C18.4927 17.9825 18.4184 18.1603 18.2866 18.2909C17.0413 19.5252 15.1859 20.0001 12.7908 20.0001H7.2094C6.20285 20.0001 5.31191 19.9131 4.51487 19.7315C4.26725 19.675 4.06984 19.4885 3.99949 19.2445C3.92913 19.0004 3.99695 18.7375 4.17653 18.5579L11.3672 11.3672ZM6.14272 18.565C6.4757 18.5913 6.83049 18.6047 7.2094 18.6047H12.7908C14.618 18.6047 15.884 18.306 16.7545 17.7412L11.8606 12.8472L6.14272 18.565Z"
        fill="#FE6B01" />
    <path fill-rule="evenodd" clip-rule="evenodd"
        d="M7.32057 4.9139C6.3941 4.9139 5.54936 5.43466 5.32111 6.41814L5.32104 6.41845C5.03941 7.62945 5.79545 8.74244 6.64628 9.54869C7.03065 9.91053 7.62179 9.90553 7.9918 9.5516L7.99423 9.54928L7.99423 9.54929C8.84163 8.74649 9.59416 7.6314 9.31964 6.41645C9.09082 5.43406 8.24652 4.9139 7.32057 4.9139ZM7.32057 3.51855C8.75689 3.51855 10.275 4.36059 10.6793 6.10269L10.6801 6.10614L10.6801 6.10614C11.1298 8.08973 9.87449 9.68976 8.95496 10.5612C8.04138 11.4337 6.60601 11.4285 5.68848 10.5634L5.68727 10.5622C4.77097 9.69417 3.4996 8.09124 3.96189 6.10269M7.32057 3.51855C5.88434 3.51855 4.36637 4.36049 3.96196 6.10238L7.32057 3.51855Z"
        fill="#FE6B01" />
    <path fill-rule="evenodd" clip-rule="evenodd"
        d="M6.36719 6.93023C6.36719 6.41648 6.78367 6 7.29742 6H7.30578C7.81953 6 8.23601 6.41648 8.23601 6.93023C8.23601 7.44399 7.81953 7.86047 7.30578 7.86047H7.29742C6.78367 7.86047 6.36719 7.44399 6.36719 6.93023Z"
        fill="#FE6B01" />
</svg>
