<svg width="123" height="47" viewBox="0 0 123 47" fill="none" xmlns="http://www.w3.org/2000/svg">
    <path
        d="M122.99 41.5887C121.778 41.4232 120.564 41.2583 119.35 41.0928C118.132 40.9497 116.922 40.7189 115.692 40.6785C114.465 40.6026 113.237 40.526 112.008 40.4501C111.393 40.4172 110.779 40.3705 110.163 40.3531L108.313 40.3438C107.08 40.3394 105.846 40.335 104.611 40.3307C103.376 40.3164 102.14 40.3892 100.904 40.4091L97.1906 40.4956L93.4745 40.6387C88.5159 40.8241 83.5462 41.0704 78.5665 41.2235C73.5855 41.3075 68.5996 41.3915 63.6136 41.4754L56.1372 41.6173C53.6455 41.6534 51.1569 41.8058 48.6689 41.9004C43.6929 42.1324 38.7232 42.3645 33.7646 42.5953C31.2853 42.7179 28.8085 42.8411 26.3349 42.963C23.8612 43.0719 21.3931 43.2392 18.9238 43.2809C16.4544 43.3425 13.9895 43.4047 11.5295 43.4663C9.06937 43.5043 6.61187 43.4813 4.16382 43.1335V43.0974C6.61112 42.6644 9.0601 42.5561 11.5164 42.5088C13.9732 42.4852 16.4345 42.4616 18.9008 42.4379C21.3663 42.4435 23.8369 42.3284 26.3112 42.2755C28.7855 42.209 31.2635 42.1418 33.7441 42.0752C38.7064 41.9278 43.6799 41.7791 48.6596 41.6316C51.1494 41.5651 53.638 41.4325 56.131 41.4095L63.6105 41.2913C68.5977 41.198 73.5843 41.132 78.5596 41.0082C83.5356 40.7942 88.5054 40.5808 93.4639 40.3668L97.1825 40.2218L100.899 40.1639C102.138 40.1608 103.374 40.1117 104.611 40.1553C105.847 40.1888 107.082 40.2224 108.315 40.2554L110.165 40.3021C110.781 40.3307 111.394 40.3873 112.009 40.4271C113.238 40.5086 114.466 40.5907 115.692 40.6729C116.922 40.7146 118.133 40.9416 119.352 41.0766C120.569 41.2284 121.785 41.3802 123 41.5314L122.99 41.5887Z"
        fill="#1A1A1A" fill-opacity="0.3" />
    <path
        d="M104.967 37.1802C105.408 37.4352 105.869 37.6754 106.354 37.8484C106.86 37.9684 107.362 38.0842 107.841 38.2721L109.343 38.6534C109.853 38.7461 110.368 38.8239 110.882 38.8979C111.401 38.944 111.921 38.9757 112.44 38.995C112.962 38.9975 113.483 38.9794 114.002 38.9558C114.524 38.9272 115.045 38.8973 115.565 38.8674C116.08 38.9141 116.626 38.6236 117.086 39.3646L117.083 39.4006C116.52 40.0788 116.038 39.7254 115.522 39.7092C115.009 39.6314 114.494 39.5537 113.978 39.4759C112.942 39.3185 111.903 39.1885 110.861 39.0809L109.304 38.865C108.791 38.7555 108.274 38.6584 107.766 38.5333C107.265 38.3766 106.779 38.17 106.319 37.9305C105.878 37.6462 105.416 37.4284 104.938 37.23L104.967 37.1802Z"
        fill="#1A1A1A" fill-opacity="0.3" />
    <path
        d="M56.0936 27.2711C54.7317 25.883 53.4768 24.3581 52.6332 22.5906C51.7858 20.8337 51.4193 18.8266 51.7124 16.8749C51.9905 14.9207 52.8746 13.0792 54.0573 11.4964C55.2431 9.9043 56.7145 8.54552 58.2923 7.3516C61.4609 4.96254 65.0768 3.21117 68.8346 1.9482C72.5912 0.69083 76.5506 -0.0967941 80.5336 0.00959396C81.032 0.00897217 81.5272 0.0655861 82.0224 0.115978C82.5201 0.146465 83.0079 0.259678 83.4994 0.34491C83.9934 0.42268 84.4631 0.586323 84.9465 0.702042C85.4293 0.820873 85.9034 0.970188 86.3769 1.12075C88.2713 1.71366 90.1266 2.45339 91.8742 3.40901C93.6206 4.36153 95.2544 5.53617 96.6741 6.94161C98.1057 8.33773 99.2635 10.0001 100.179 11.7739C102.01 15.3481 102.726 19.3579 103.029 23.2843C103.173 25.2565 103.207 27.2288 103.182 29.1917C103.139 31.1539 102.981 33.1075 102.482 35.0287L102.446 35.0262C102.166 33.0614 102.191 31.1185 102.225 29.173C102.276 27.2282 102.283 25.2808 102.188 23.3366C101.98 19.4656 101.399 15.5342 99.7121 12.0047C98.8672 10.254 97.7803 8.6015 96.4066 7.20415C95.0459 5.79746 93.457 4.61041 91.7436 3.64421C90.0289 2.67551 88.1936 1.92146 86.314 1.31921C85.8443 1.16616 85.3733 1.01561 84.8943 0.894917C84.4152 0.776707 83.9449 0.61121 83.459 0.53344C82.9743 0.448204 82.4946 0.333717 82.0013 0.301987C81.511 0.250347 81.0214 0.19437 80.5268 0.193748C76.5761 0.0805168 72.6329 0.880604 68.9037 2.15228C65.1727 3.43019 61.5891 5.19584 58.4565 7.56811C56.8949 8.75393 55.449 10.0997 54.2532 11.6445C53.0643 13.1843 52.1311 14.9593 51.7995 16.8892C51.4511 18.8123 51.7845 20.8343 52.6381 22.5881C53.4818 24.3544 54.746 25.875 56.1334 27.23L56.0936 27.2711Z"
        fill="#1A1A1A" fill-opacity="0.3" />
    <path
        d="M50.4856 31.2971C50.5036 31.0738 50.5061 30.8541 50.5043 30.632C50.4993 30.4112 50.5335 30.1916 50.5223 29.9651C50.5223 29.5165 50.5889 29.0493 50.7923 28.6356C51.1532 27.7913 51.7958 27.0646 52.6084 26.6254C53.4315 26.2036 54.417 26.1165 55.3452 26.3591C55.461 26.3902 55.581 26.4145 55.6961 26.4512L56.0265 26.593L56.36 26.7417C56.4639 26.8002 56.5622 26.868 56.6629 26.9327C57.0331 27.2121 57.5999 27.3832 57.3716 28.172L57.3442 28.1951L57.0549 28.2299C56.9753 28.2287 56.9174 28.2106 56.8508 28.2013C56.7189 28.1814 56.6412 28.1154 56.5678 28.0433C56.4446 27.8728 56.2872 27.7496 56.1453 27.5984L55.9263 27.3757L55.6824 27.1884L55.4342 26.9956C55.3477 26.9396 55.2538 26.8966 55.1617 26.8462C54.4319 26.4369 53.4769 26.3884 52.693 26.7896C51.9103 27.1959 51.3641 27.9443 51.043 28.7407C50.9622 28.9435 50.8788 29.142 50.8191 29.3516C50.7519 29.5582 50.6517 29.7604 50.6106 29.9782C50.4788 30.4062 50.5011 30.8573 50.5428 31.2922L50.4856 31.2971Z"
        fill="#1A1A1A" fill-opacity="0.3" />
    <path
        d="M25.9248 38.7853C25.1085 38.2826 24.3943 37.605 23.9003 36.7807C23.4032 35.9594 23.1114 35.0225 22.9839 34.065C22.7251 32.1351 23.132 30.1585 23.8269 28.3468C24.5225 26.5251 25.4818 24.8061 26.6428 23.2364C27.2251 22.4531 27.8616 21.7072 28.569 21.0303C29.2739 20.3577 30.0615 19.7349 30.9618 19.3349C32.7361 18.4931 34.6972 18.0981 36.6526 18.0383C38.6105 17.9848 40.5834 18.2611 42.4504 18.8975C44.3101 19.5352 46.0844 20.5612 47.4382 22.0593C48.112 22.804 48.672 23.6632 49.0658 24.5958C49.4428 25.5297 49.6015 26.5749 49.2879 27.5604L49.2518 27.5629C48.7927 26.6439 48.5301 25.7997 48.1798 24.9579C47.8501 24.1143 47.3829 23.321 46.7993 22.6093C45.6321 21.1821 44.0257 20.0995 42.2681 19.3853C38.7517 17.9774 34.5584 17.8747 31.0408 19.5016C30.1548 19.8923 29.3952 20.4959 28.7002 21.1665C28.0065 21.8378 27.3838 22.5825 26.8164 23.364C25.6853 24.9305 24.7595 26.644 24.0814 28.4426C23.4294 30.2412 22.9503 32.1369 23.0716 34.055C23.1401 35.0082 23.4026 35.9594 23.9047 36.7782C24.3987 37.6013 25.1229 38.2739 25.9534 38.7355L25.9248 38.7853Z"
        fill="#1A1A1A" fill-opacity="0.3" />
    <path
        d="M-3 46.8211C-1.70269 46.4123 -0.415824 45.9408 0.829415 45.3622C2.07254 44.7786 3.31803 44.1925 4.59761 43.6711C7.14334 42.6016 9.76658 41.6392 12.4902 41.0544C13.8543 40.7837 15.2337 40.5722 16.6261 40.5006C16.9733 40.4633 17.3217 40.4764 17.6695 40.4639L18.1747 40.454L18.3053 40.4521C18.3346 40.4335 18.3271 40.3719 18.3395 40.3345L18.4229 39.8387C18.4621 39.6657 18.5187 39.4952 18.566 39.3223C18.6102 39.1481 18.668 38.9789 18.7458 38.8152C18.8211 38.651 18.8796 38.4786 18.9692 38.3206C19.6249 37.0303 20.9818 36.0112 22.5179 35.9185C23.2745 35.8681 24.0304 36.0112 24.7241 36.2825C25.065 36.4324 25.3891 36.6197 25.6486 36.8853C25.9348 37.1143 26.1177 37.4658 26.2627 37.8136L26.2378 37.8403C25.4619 37.6985 24.9368 37.3948 24.3508 37.1646C23.7821 36.917 23.1737 36.7627 22.5552 36.7603C21.3134 36.7528 20.1145 37.4645 19.4208 38.58C19.3288 38.7157 19.2653 38.8687 19.185 39.0131C19.1017 39.1568 19.037 39.3086 18.9853 39.4679C18.9306 39.6246 18.8659 39.779 18.818 39.9388L18.6966 40.4577L18.6531 40.6425L18.6307 40.7352C18.6251 40.7675 18.6214 40.8024 18.5797 40.7912L18.2008 40.7949L17.6689 40.78C17.3248 40.7744 16.9801 40.747 16.6361 40.7694C15.2576 40.785 13.8837 40.9722 12.5279 41.2348C9.81635 41.8003 7.23666 42.8399 4.70307 43.9212C3.43954 44.4737 2.15783 44.9833 0.862699 45.4437C-0.423603 45.9233 -1.70561 46.3999 -2.98196 46.8759L-3 46.8211Z"
        fill="#1A1A1A" fill-opacity="0.3" />
</svg>
