<svg width="142" height="53" viewBox="0 0 142 53" fill="none" xmlns="http://www.w3.org/2000/svg">
    <path
        d="M141.611 46.7449C140.248 46.5589 138.884 46.3735 137.519 46.1875C136.15 46.0267 134.79 45.7672 133.407 45.7218C132.029 45.6365 130.648 45.5505 129.267 45.4651C128.576 45.4281 127.886 45.3756 127.193 45.3561L125.114 45.3456C123.728 45.3407 122.341 45.3358 120.953 45.3309C119.565 45.3148 118.175 45.3966 116.786 45.419L112.612 45.5162L108.436 45.6771C102.862 45.8854 97.2763 46.1624 91.6792 46.3344C86.0807 46.4288 80.4766 46.5232 74.8725 46.6176L66.4692 46.777C63.6685 46.8176 60.8714 46.9889 58.0749 47.0952C52.482 47.356 46.8961 47.6169 41.3228 47.8763C38.5361 48.0141 35.7522 48.1525 32.9718 48.2896C30.1915 48.412 27.4174 48.6001 24.6419 48.6469C21.8664 48.7161 19.0959 48.7861 16.3309 48.8553C13.5658 48.898 10.8036 48.8721 8.052 48.4812V48.4406C10.8027 47.9539 13.5553 47.8322 16.3162 47.7791C19.0775 47.7525 21.8441 47.726 24.616 47.6994C27.3873 47.7057 30.1642 47.5763 32.9453 47.5168C35.7263 47.442 38.5116 47.3665 41.2997 47.2917C46.8772 47.126 52.4673 46.9588 58.0644 46.7931C60.863 46.7183 63.6601 46.5693 66.4622 46.5434L74.869 46.4106C80.4745 46.3057 86.0793 46.2316 91.6715 46.0924C97.2644 45.8519 102.85 45.612 108.424 45.3715L112.603 45.2085L116.781 45.1435C118.173 45.14 119.563 45.0848 120.953 45.1337C122.342 45.1715 123.73 45.2092 125.116 45.2463L127.195 45.2987C127.888 45.3309 128.577 45.3945 129.268 45.4393C130.649 45.5309 132.03 45.6232 133.408 45.7155C134.79 45.7624 136.151 46.0176 137.521 46.1693C138.89 46.3399 140.256 46.5106 141.622 46.6805L141.611 46.7449Z"
        fill="#1A1A1A" fill-opacity="0.3" />
    <path
        d="M121.353 41.7898C121.849 42.0765 122.367 42.3465 122.912 42.5409C123.481 42.6758 124.044 42.8059 124.584 43.0171L126.272 43.4458C126.845 43.5499 127.423 43.6374 128.002 43.7206C128.584 43.7723 129.169 43.808 129.753 43.8296C130.339 43.8324 130.925 43.8122 131.509 43.7856C132.095 43.7534 132.681 43.7199 133.265 43.6863C133.844 43.7387 134.458 43.4122 134.974 44.2451L134.971 44.2856C134.338 45.0478 133.797 44.6506 133.217 44.6324C132.64 44.545 132.061 44.4576 131.481 44.3702C130.316 44.1933 129.149 44.0471 127.978 43.9262L126.228 43.6835C125.651 43.5604 125.07 43.4513 124.499 43.3108C123.936 43.1346 123.39 42.9024 122.872 42.6332C122.377 42.3136 121.858 42.0689 121.321 41.8458L121.353 41.7898Z"
        fill="#1A1A1A" fill-opacity="0.3" />
    <path
        d="M66.4201 30.6522C64.8894 29.092 63.4789 27.3781 62.5307 25.3914C61.5783 23.4166 61.1664 21.1607 61.4957 18.967C61.8083 16.7706 62.802 14.7007 64.1314 12.9217C65.4642 11.1322 67.118 9.60497 68.8914 8.26304C72.4529 5.57777 76.5172 3.60926 80.7409 2.18971C84.9632 0.776447 89.4134 -0.108829 93.8903 0.0107498C94.4504 0.0100517 95.007 0.0736809 95.5637 0.130325C96.1231 0.164589 96.6713 0.29184 97.2238 0.387642C97.779 0.475052 98.307 0.658981 98.8503 0.789051C99.393 0.922615 99.9258 1.09044 100.458 1.25967C102.587 1.92609 104.673 2.75753 106.637 3.83164C108.6 4.90225 110.436 6.22253 112.032 7.80222C113.641 9.37142 114.942 11.2399 115.972 13.2336C118.029 17.251 118.834 21.7579 119.174 26.1711C119.336 28.3879 119.374 30.6046 119.347 32.8109C119.298 35.0164 119.121 37.2122 118.56 39.3716L118.519 39.3688C118.205 37.1604 118.233 34.9766 118.271 32.7899C118.328 30.6039 118.337 28.4151 118.229 26.2299C117.996 21.8789 117.342 17.4601 115.447 13.493C114.497 11.5252 113.275 9.6679 111.731 8.0973C110.202 6.51621 108.416 5.18198 106.49 4.09599C104.563 3.00719 102.5 2.15965 100.387 1.48274C99.8594 1.31071 99.3301 1.1415 98.7916 1.00584C98.2531 0.872971 97.7245 0.686954 97.1783 0.599545C96.6336 0.503742 96.0944 0.375057 95.5399 0.339394C94.9889 0.281353 94.4385 0.218437 93.8826 0.217735C89.4421 0.0904655 85.01 0.98975 80.8185 2.41909C76.6248 3.85543 72.5969 5.84 69.076 8.50639C67.3208 9.83923 65.6957 11.3518 64.3516 13.0881C63.0153 14.8189 61.9664 16.814 61.5936 18.9832C61.202 21.1447 61.5769 23.4173 62.5363 25.3886C63.4845 27.3739 64.9055 29.083 66.4649 30.606L66.4201 30.6522Z"
        fill="#1A1A1A" fill-opacity="0.3" />
    <path
        d="M60.1168 35.1775C60.1371 34.9264 60.1399 34.6796 60.1378 34.43C60.1322 34.1817 60.1707 33.9349 60.1581 33.6803C60.1581 33.1761 60.2329 32.651 60.4616 32.1859C60.8672 31.237 61.5895 30.4202 62.5028 29.9265C63.428 29.4524 64.5356 29.3545 65.579 29.6273C65.709 29.6622 65.844 29.6895 65.9734 29.7308L66.3447 29.8902L66.7195 30.0573C66.8363 30.1231 66.9468 30.1993 67.0601 30.272C67.4761 30.586 68.1132 30.7783 67.8565 31.665L67.8258 31.6908L67.5006 31.73C67.4111 31.7286 67.3461 31.7083 67.2712 31.6978C67.123 31.6755 67.0356 31.6013 66.9531 31.5202C66.8146 31.3286 66.6377 31.1902 66.4782 31.0202L66.2321 30.7699L65.958 30.5594L65.679 30.3426C65.5818 30.2797 65.4762 30.2314 65.3727 30.1748C64.5524 29.7146 63.479 29.6601 62.5979 30.1112C61.7182 30.5678 61.1042 31.409 60.7434 32.3041C60.6525 32.5321 60.5588 32.7552 60.4916 32.9908C60.4161 33.223 60.3035 33.4503 60.2574 33.695C60.1091 34.1761 60.1343 34.6831 60.1812 35.1719L60.1168 35.1775Z"
        fill="#1A1A1A" fill-opacity="0.3" />
    <path
        d="M32.511 43.594C31.5935 43.029 30.7907 42.2674 30.2355 41.3409C29.6767 40.4178 29.3488 39.3647 29.2054 38.2885C28.9145 36.1193 29.3719 33.8976 30.153 31.8613C30.9348 29.8138 32.0131 27.8816 33.3179 26.1173C33.9725 25.2369 34.6878 24.3985 35.4829 23.6377C36.2752 22.8817 37.1605 22.1818 38.1724 21.7321C40.1668 20.786 42.3709 20.3419 44.5688 20.2748C46.7694 20.2147 48.9869 20.5252 51.0855 21.2405C53.1756 21.9573 55.17 23.1104 56.6917 24.7943C57.449 25.6313 58.0783 26.5971 58.521 27.6453C58.9448 28.6949 59.1231 29.8697 58.7706 30.9774L58.7301 30.9802C58.214 29.9474 57.9189 28.9984 57.5252 28.0523C57.1546 27.1041 56.6294 26.2125 55.9735 25.4125C54.6616 23.8083 52.8561 22.5915 50.8806 21.7888C46.9282 20.2063 42.215 20.0909 38.2612 21.9195C37.2654 22.3587 36.4116 23.037 35.6305 23.7908C34.8508 24.5454 34.1508 25.3824 33.513 26.2607C32.2417 28.0215 31.2012 29.9474 30.439 31.969C29.7061 33.9906 29.1677 36.1214 29.304 38.2773C29.3809 39.3486 29.676 40.4178 30.2404 41.3381C30.7956 42.2632 31.6096 43.0192 32.5431 43.538L32.511 43.594Z"
        fill="#1A1A1A" fill-opacity="0.3" />
    <path
        d="M0 52.6262C1.45816 52.1667 2.90457 51.6367 4.30419 50.9864C5.70144 50.3304 7.10135 49.6717 8.53958 49.0857C11.4009 47.8836 14.3494 46.8018 17.4107 46.1445C18.9439 45.8403 20.4944 45.6025 22.0594 45.5221C22.4496 45.4802 22.8412 45.4949 23.2321 45.4809L23.7999 45.4697L23.9468 45.4676C23.9797 45.4466 23.9713 45.3774 23.9853 45.3354L24.079 44.7781C24.123 44.5837 24.1866 44.3921 24.2398 44.1977C24.2894 44.0019 24.3545 43.8117 24.4419 43.6278C24.5265 43.4431 24.5922 43.2494 24.6929 43.0718C25.43 41.6215 26.9551 40.4761 28.6817 40.3719C29.532 40.3152 30.3816 40.4761 31.1613 40.781C31.5446 40.9495 31.9089 41.16 32.2005 41.4586C32.5222 41.7159 32.7278 42.111 32.8907 42.5019L32.8627 42.532C31.9907 42.3725 31.4005 42.0313 30.7418 41.7725C30.1026 41.4942 29.4187 41.3208 28.7236 41.318C27.3279 41.3096 25.9803 42.1096 25.2006 43.3634C25.0971 43.5159 25.0258 43.6879 24.9356 43.8501C24.8419 44.0116 24.7692 44.1823 24.7111 44.3613C24.6496 44.5375 24.5769 44.711 24.523 44.8907L24.3866 45.4739L24.3377 45.6815L24.3125 45.7858C24.3062 45.8221 24.302 45.8613 24.2552 45.8487L23.8293 45.8529L23.2314 45.8361C22.8447 45.8298 22.4573 45.799 22.0706 45.8242C20.5212 45.8417 18.9769 46.0522 17.4531 46.3473C14.4053 46.9829 11.5058 48.1514 8.65811 49.3668C7.23792 49.9878 5.79731 50.5605 4.3416 51.078C2.89582 51.6171 1.45487 52.1528 0.0202821 52.6877L0 52.6262Z"
        fill="#1A1A1A" fill-opacity="0.3" />
</svg>
