<svg width="208" height="98" viewBox="0 0 208 98" fill="none" xmlns="http://www.w3.org/2000/svg">
    <path
        d="M0.0208588 86.9464C2.5546 86.6005 5.09224 86.2557 7.6312 85.9098C10.1766 85.6106 12.7078 85.128 15.2792 85.0435C17.8429 84.8848 20.4105 84.7248 22.9806 84.5661C24.2657 84.4972 25.5495 84.3996 26.8372 84.3632L30.7041 84.3437C33.2821 84.3346 35.8627 84.3255 38.4445 84.3164C41.0264 84.2865 43.6109 84.4387 46.1954 84.4803L53.9579 84.6611L61.7269 84.9603C72.0934 85.3479 82.4833 85.863 92.894 86.1829C103.307 86.3585 113.731 86.5341 124.155 86.7097L139.785 87.0063C144.994 87.0817 150.197 87.4004 155.399 87.5981C165.802 88.0832 176.192 88.5684 186.558 89.0509C191.741 89.3072 196.919 89.5647 202.091 89.8196C207.262 90.0473 212.422 90.3971 217.585 90.4843C222.747 90.613 227.9 90.7431 233.043 90.8719C238.187 90.9512 243.324 90.9031 248.442 90.176V90.1006C243.326 89.1953 238.206 88.969 233.071 88.8701C227.935 88.8207 222.789 88.7713 217.633 88.7219C212.478 88.7336 207.313 88.4929 202.14 88.3823C196.967 88.2432 191.787 88.1027 186.601 87.9636C176.227 87.6553 165.829 87.3444 155.418 87.0362C150.213 86.897 145.01 86.6199 139.798 86.5718L124.161 86.3247C113.735 86.1296 103.31 85.9917 92.9083 85.7329C82.5054 85.2854 72.1155 84.8393 61.749 84.3919L53.9748 84.0888L46.2044 83.9678C43.6148 83.9613 41.0303 83.8586 38.4445 83.9496C35.8601 84.0199 33.2795 84.0901 30.7002 84.159L26.8333 84.2566C25.5456 84.3164 24.2631 84.4348 22.978 84.518C20.4092 84.6884 17.8416 84.8601 15.2779 85.0318C12.7065 85.1189 10.1753 85.5937 7.62729 85.8759C5.08183 86.1933 2.54027 86.5107 1.52588e-05 86.8267L0.0208588 86.9464Z"
        fill="#1A1A1A" fill-opacity="0.3" />
    <path
        d="M37.7005 77.7299C36.7784 78.2632 35.8145 78.7653 34.8013 79.1269C33.7425 79.3779 32.6942 79.6198 31.6914 80.0126L28.5515 80.8099C27.4849 81.0037 26.4092 81.1664 25.3336 81.3211C24.2501 81.4174 23.1627 81.4837 22.0766 81.524C20.9867 81.5292 19.8967 81.4915 18.8106 81.4421C17.7193 81.3822 16.6307 81.3198 15.5446 81.2574C14.4663 81.3549 13.3256 80.7475 12.3644 82.2967L12.3696 82.372C13.548 83.7898 14.5548 83.051 15.633 83.0172C16.7061 82.8546 17.7831 82.692 18.8613 82.5294C21.0283 82.2003 23.2005 81.9285 25.3778 81.7035L28.6334 81.2522C29.7065 81.0232 30.7861 80.8203 31.8487 80.5589C32.8958 80.2311 33.9116 79.7993 34.8742 79.2985C35.7963 78.7041 36.7614 78.2489 37.7604 77.834L37.7005 77.7299Z"
        fill="#1A1A1A" fill-opacity="0.3" />
    <path
        d="M139.876 57.0136C142.724 54.1118 145.347 50.9238 147.111 47.2285C148.882 43.5554 149.649 39.3594 149.036 35.2791C148.455 31.1936 146.606 27.3436 144.134 24.0347C141.655 20.7062 138.578 17.8655 135.28 15.3694C128.655 10.3748 121.096 6.71334 113.24 4.07294C105.386 1.44424 97.1085 -0.202385 88.7815 0.0200348C87.7396 0.0187302 86.7043 0.137093 85.6689 0.242447C84.6284 0.306183 83.6086 0.54287 82.5811 0.721062C81.5483 0.883644 80.5663 1.22576 79.5557 1.46769C78.5463 1.71612 77.5552 2.02828 76.5654 2.34305C72.6048 3.5826 68.7261 5.1291 65.0725 7.12696C61.4214 9.11832 58.0058 11.5741 55.0377 14.5123C52.0448 17.4311 49.6242 20.9065 47.7096 24.6148C43.8829 32.0872 42.3858 40.4701 41.7524 48.6788C41.4519 52.802 41.3804 56.9252 41.4311 61.0289C41.5222 65.1313 41.8525 69.2154 42.8957 73.2319L42.9712 73.2267C43.5565 69.1191 43.5031 65.0571 43.4329 60.9899C43.3262 56.9239 43.3106 52.8528 43.5109 48.7881C43.9441 40.6952 45.1602 32.4761 48.6864 25.0973C50.4527 21.4372 52.725 17.9825 55.597 15.0612C58.4416 12.1203 61.7635 9.63863 65.3456 7.61865C68.9303 5.59348 72.7674 4.01703 76.6968 2.75797C77.6788 2.43799 78.6634 2.12325 79.6649 1.87091C80.6664 1.62378 81.6498 1.27779 82.6656 1.1152C83.6788 0.937012 84.6817 0.697655 85.7131 0.631317C86.7381 0.523361 87.7617 0.406334 88.7958 0.405037C97.0551 0.168304 105.299 1.841 113.095 4.4996C120.896 7.17122 128.387 10.8626 134.936 15.8221C138.201 18.3012 141.224 21.1146 143.724 24.3442C146.21 27.5634 148.161 31.2743 148.854 35.3091C149.582 39.3295 148.885 43.5567 147.101 47.2233C145.337 50.916 142.694 54.0949 139.793 56.9278L139.876 57.0136Z"
        fill="#1A1A1A" fill-opacity="0.3" />
    <path
        d="M151.601 65.4307C151.563 64.9637 151.558 64.5046 151.562 64.0402C151.572 63.5785 151.501 63.1194 151.524 62.6459C151.524 61.7081 151.385 60.7313 150.959 59.8663C150.205 58.1013 148.861 56.5821 147.163 55.6638C145.442 54.7819 143.382 54.5999 141.441 55.1071C141.199 55.1722 140.948 55.2229 140.707 55.2996L140.017 55.5962L139.32 55.907C139.102 56.0293 138.897 56.1711 138.686 56.3063C137.912 56.8903 136.727 57.248 137.205 58.8973L137.262 58.9454L137.867 59.0183C138.033 59.0157 138.154 58.978 138.293 58.9585C138.569 58.9168 138.732 58.779 138.885 58.6281C139.143 58.2717 139.472 58.0142 139.768 57.6981L140.226 57.2324L140.736 56.8409L141.255 56.4377C141.436 56.3207 141.632 56.2309 141.825 56.1255C143.35 55.2697 145.347 55.1683 146.986 56.0072C148.622 56.8566 149.764 58.4213 150.435 60.0861C150.604 60.5102 150.779 60.9251 150.904 61.3634C151.044 61.7952 151.253 62.218 151.339 62.6732C151.615 63.5681 151.568 64.5111 151.481 65.4203L151.601 65.4307Z"
        fill="#1A1A1A" fill-opacity="0.3" />
    <path
        d="M202.948 81.0857C204.655 80.0347 206.148 78.6183 207.181 76.8948C208.22 75.1779 208.83 73.2191 209.097 71.2173C209.638 67.1826 208.787 63.0503 207.334 59.2627C205.88 55.4543 203.874 51.8604 201.447 48.5788C200.23 46.9412 198.899 45.3817 197.42 43.9665C195.947 42.5605 194.3 41.2585 192.418 40.4222C188.708 38.6623 184.608 37.8364 180.52 37.7115C176.427 37.5997 172.303 38.1772 168.399 39.5078C164.511 40.841 160.802 42.9858 157.972 46.1179C156.563 47.6748 155.392 49.4711 154.569 51.4208C153.781 53.3731 153.449 55.5583 154.105 57.6186L154.18 57.6238C155.14 55.7027 155.689 53.9377 156.421 52.1779C157.111 50.4141 158.087 48.7557 159.307 47.2677C161.747 44.284 165.106 42.0207 168.78 40.5275C176.132 37.5841 184.898 37.3695 192.253 40.7708C194.105 41.5876 195.693 42.8493 197.146 44.2515C198.596 45.6549 199.898 47.2118 201.084 48.8455C203.449 52.1206 205.384 55.7027 206.802 59.463C208.165 63.2233 209.167 67.1865 208.913 71.1965C208.77 73.1892 208.221 75.1779 207.171 76.8896C206.139 78.6104 204.625 80.0165 202.888 80.9816L202.948 81.0857Z"
        fill="#1A1A1A" fill-opacity="0.3" />
    <path
        d="M263.419 97.8855C260.707 97.0309 258.017 96.0451 255.413 94.8354C252.814 93.6154 250.211 92.3901 247.535 91.3001C242.213 89.0642 236.729 87.052 231.035 85.8294C228.183 85.2636 225.299 84.8214 222.388 84.6718C221.662 84.5938 220.934 84.6211 220.207 84.5951L219.151 84.5742L218.878 84.5704C218.817 84.5314 218.832 84.4026 218.806 84.3245L218.632 83.2878C218.55 82.9263 218.432 82.5699 218.333 82.2083C218.24 81.8441 218.119 81.4903 217.957 81.1482C217.799 80.8049 217.677 80.4445 217.49 80.1142C216.119 77.4165 213.282 75.286 210.071 75.0922C208.489 74.9869 206.909 75.286 205.458 75.8531C204.746 76.1666 204.068 76.5581 203.526 77.1135C202.927 77.5922 202.545 78.327 202.242 79.0541L202.294 79.1101C203.916 78.8135 205.014 78.1787 206.239 77.6975C207.428 77.1798 208.7 76.8572 209.993 76.852C212.589 76.8364 215.095 78.3244 216.546 80.6566C216.738 80.9401 216.871 81.2601 217.039 81.5618C217.213 81.8623 217.348 82.1797 217.456 82.5126C217.571 82.8404 217.706 83.163 217.806 83.4973L218.06 84.5821L218.151 84.9683L218.197 85.1622C218.209 85.2298 218.217 85.3026 218.304 85.2792L219.096 85.287L220.208 85.2558C220.928 85.2441 221.648 85.1868 222.367 85.2337C225.249 85.2662 228.122 85.6577 230.956 86.2066C236.625 87.3889 242.018 89.5624 247.315 91.823C249.957 92.978 252.636 94.0433 255.344 95.0058C258.033 96.0086 260.713 97.005 263.381 98L263.419 97.8855Z"
        fill="#1A1A1A" fill-opacity="0.3" />
</svg>
