<svg width="40" height="40" viewBox="0 0 40 40" fill="none" xmlns="http://www.w3.org/2000/svg">
    <path
        d="M28 40H12C8.81842 39.9967 5.76809 38.7313 3.51837 36.4816C1.26865 34.2319 0.00330898 31.1816 0 28V12C0.00330898 8.81842 1.26865 5.76809 3.51837 3.51837C5.76809 1.26865 8.81842 0.00330898 12 0L28 0C31.1816 0.00330898 34.2319 1.26865 36.4816 3.51837C38.7313 5.76809 39.9967 8.81842 40 12V28C39.9967 31.1816 38.7313 34.2319 36.4816 36.4816C34.2319 38.7313 31.1816 39.9967 28 40ZM12 2.6625C9.52456 2.66581 7.15145 3.65064 5.40104 5.40104C3.65064 7.15145 2.66581 9.52456 2.6625 12V28C2.66581 30.4754 3.65064 32.8486 5.40104 34.599C7.15145 36.3494 9.52456 37.3342 12 37.3375H28C30.4754 37.3342 32.8486 36.3494 34.599 34.599C36.3494 32.8486 37.3342 30.4754 37.3375 28V12C37.3342 9.52456 36.3494 7.15145 34.599 5.40104C32.8486 3.65064 30.4754 2.66581 28 2.6625H12Z"
        fill="#909090" />
    <path
        d="M20 22.6625C18.4178 22.6625 16.871 22.1933 15.5554 21.3142C14.2398 20.4352 13.2145 19.1858 12.609 17.7239C12.0035 16.2621 11.845 14.6536 12.1537 13.1018C12.4624 11.5499 13.2243 10.1244 14.3432 9.00562C15.462 7.8868 16.8874 7.12488 18.4393 6.8162C19.9911 6.50752 21.5997 6.66594 23.0615 7.27144C24.5233 7.87694 25.7727 8.90232 26.6518 10.2179C27.5308 11.5335 28 13.0802 28 14.6625C27.9967 16.7832 27.1528 18.8161 25.6532 20.3157C24.1536 21.8153 22.1207 22.6592 20 22.6625ZM20 9.33748C18.9443 9.33748 17.9124 9.65052 17.0346 10.237C16.1569 10.8235 15.4728 11.6571 15.0688 12.6324C14.6648 13.6077 14.5591 14.6809 14.7651 15.7163C14.971 16.7516 15.4794 17.7027 16.2258 18.4492C16.9723 19.1956 17.9233 19.704 18.9587 19.9099C19.9941 20.1159 21.0673 20.0102 22.0426 19.6062C23.0179 19.2022 23.8515 18.5181 24.438 17.6403C25.0245 16.7626 25.3375 15.7306 25.3375 14.675C25.3375 13.2594 24.7752 11.9018 23.7742 10.9008C22.7732 9.89982 21.4156 9.33748 20 9.33748Z"
        fill="#909090" />
    <path
        d="M29.3505 30.825C29.0172 30.8257 28.6958 30.7008 28.4505 30.475C26.7328 28.8741 24.4737 27.9811 22.1255 27.975H17.888C15.5399 27.9811 13.2808 28.8741 11.563 30.475C11.4351 30.6028 11.2826 30.7033 11.1148 30.7705C10.9469 30.8377 10.7672 30.8702 10.5864 30.8659C10.4057 30.8617 10.2277 30.8208 10.0632 30.7459C9.89864 30.6709 9.75102 30.5634 9.62924 30.4297C9.50745 30.2961 9.41402 30.1392 9.35459 29.9684C9.29516 29.7977 9.27097 29.6166 9.28348 29.4363C9.29598 29.2559 9.34493 29.0799 9.42735 28.919C9.50978 28.7581 9.62397 28.6156 9.76303 28.5C11.9778 26.4623 14.8785 25.3333 17.888 25.3375H22.113C25.1302 25.3369 28.0365 26.4753 30.2505 28.525C30.445 28.7077 30.5805 28.9443 30.6395 29.2045C30.6984 29.4647 30.6782 29.7366 30.5815 29.9852C30.4847 30.2339 30.3158 30.4479 30.0964 30.5998C29.8771 30.7516 29.6173 30.8344 29.3505 30.8375V30.825Z"
        fill="#909090" />
</svg>
