<svg width="24" height="23" viewBox="0 0 24 23" fill="none" xmlns="http://www.w3.org/2000/svg">
    <path
        d="M19 12C19 15.866 15.866 19 12 19C8.13401 19 5 15.866 5 12C5 8.13401 8.13401 5 12 5C15.866 5 19 8.13401 19 12Z"
        fill="white" />
    <path
        d="M22.3403 9.14834C22.0323 8.9416 21.754 8.69358 21.5135 8.41121C21.5313 8.01806 21.6104 7.6301 21.7478 7.2613C22.0061 6.38718 22.3278 5.29929 21.7078 4.44806C21.0833 3.59003 19.9424 3.56124 19.0259 3.5378C18.6403 3.5532 18.2546 3.51175 17.8811 3.4148C17.6758 3.09282 17.519 2.74238 17.4158 2.37475C17.11 1.50417 16.729 0.420636 15.7087 0.0892278C14.7188 -0.232384 13.8303 0.378654 13.0469 0.916023C12.7321 1.16728 12.3786 1.3659 12.0002 1.50417C11.6217 1.36604 11.268 1.16741 10.9531 0.916023C10.1697 0.378204 9.281 -0.230935 8.29125 0.0892278C7.27125 0.420636 6.8904 1.50362 6.58425 2.3744C6.48125 2.74022 6.32618 3.08934 6.1238 3.41105C5.74915 3.51097 5.36152 3.5536 4.9741 3.5375C4.0576 3.56089 2.91675 3.58973 2.29225 4.44771C1.67225 5.29944 1.9939 6.38733 2.25225 7.2615C2.38807 7.62833 2.46781 8.01353 2.4888 8.40411C2.24929 8.69049 1.97001 8.94112 1.65945 9.14839C0.92 9.7121 0 10.4139 0 11.4999C0 12.5859 0.92 13.2877 1.65965 13.8514C1.96772 14.0582 2.24595 14.3062 2.48655 14.5886C2.4687 14.9817 2.38963 15.3697 2.2522 15.7385C1.9939 16.6126 1.6722 17.7005 2.2922 18.5517C2.9167 19.4097 4.05755 19.4385 4.9741 19.462C5.35965 19.4466 5.74538 19.488 6.11885 19.585C6.32419 19.9069 6.48099 20.2574 6.5842 20.625C6.89035 21.4957 7.2712 22.5792 8.29145 22.9107C8.47221 22.9699 8.66123 23.0001 8.85145 23C9.6193 23 10.3205 22.5183 10.9533 22.0839C11.2681 21.8326 11.6216 21.6339 12 21.4956C12.3786 21.6337 12.7322 21.8324 13.0471 22.0837C13.8305 22.6216 14.719 23.2302 15.709 22.9105C16.729 22.5791 17.1098 21.4961 17.416 20.6254C17.519 20.2595 17.6741 19.9104 17.8764 19.5887C18.2511 19.4888 18.6387 19.4462 19.0261 19.4623C19.9426 19.4389 21.0835 19.41 21.708 18.5521C22.328 17.7004 22.0063 16.6124 21.748 15.7383C21.6122 15.3714 21.5324 14.9862 21.5114 14.5957C21.751 14.3093 22.0302 14.0586 22.3408 13.8514C23.08 13.2877 24 12.5859 24 11.4999C24 10.4139 23.08 9.7121 22.3403 9.14834ZM16.4571 9.7077L11.4571 14.7056C11.3642 14.7984 11.254 14.872 11.1327 14.9223C11.0113 14.9725 10.8813 14.9984 10.75 14.9984C10.6187 14.9984 10.4887 14.9725 10.3673 14.9223C10.246 14.872 10.1358 14.7984 10.0429 14.7056L7.54295 12.2066C7.44816 12.1143 7.37266 12.004 7.32084 11.8822C7.26902 11.7604 7.2419 11.6296 7.24106 11.4973C7.24022 11.3649 7.26568 11.2338 7.31595 11.1113C7.36623 10.9889 7.44032 10.8777 7.53393 10.7841C7.62754 10.6905 7.73881 10.6165 7.86128 10.5662C7.98376 10.516 8.11499 10.4905 8.24738 10.4914C8.37976 10.4922 8.51066 10.5193 8.63249 10.5711C8.75431 10.6229 8.86463 10.6984 8.95705 10.7931L10.75 12.5854L15.0429 8.29421C15.1354 8.19946 15.2457 8.12399 15.3675 8.07219C15.4893 8.02039 15.6202 7.99329 15.7526 7.99245C15.885 7.99161 16.0162 8.01705 16.1387 8.06731C16.2612 8.11756 16.3725 8.19162 16.4661 8.28519C16.5597 8.37877 16.6338 8.48999 16.684 8.61241C16.7343 8.73482 16.7598 8.866 16.7589 8.99833C16.7581 9.13066 16.731 9.26151 16.6792 9.38328C16.6273 9.50505 16.5518 9.61532 16.4571 9.7077Z"
        fill="#013765" />
</svg>
